<svg width="305" height="304" viewBox="0 0 305 304" fill="none" xmlns="http://www.w3.org/2000/svg">
<path d="M45.079 222.418L49.803 191.307C49.9461 190.496 50.2324 190.066 50.6142 190.066C50.9959 190.066 51.2822 190.305 51.9025 191.546L64.9292 218.458L77.9082 191.212C78.2899 190.448 78.5285 190.066 78.958 190.066C79.3874 190.066 79.6737 190.544 79.8169 191.546L84.1591 221.035C84.5886 224.041 85.0657 225.425 86.4972 225.854C87.881 226.283 88.8354 226.331 89.4557 226.331C89.8851 226.331 90.2191 226.379 90.2191 226.665C90.2191 227.047 89.6465 227.19 88.9785 227.19C87.7856 227.19 81.2007 227.047 79.292 226.904C78.1945 226.808 77.9082 226.665 77.9082 226.379C77.9082 226.14 78.0991 225.997 78.4331 225.854C78.7194 225.759 78.8625 225.138 78.6717 223.802L75.8087 202.807H75.6178L65.2155 224.47C64.118 226.713 63.8795 227.142 63.45 227.142C63.0206 227.142 62.5434 226.188 61.7799 224.756C60.6347 222.561 56.8651 215.261 56.2925 213.925C55.863 212.923 53 206.91 51.3299 203.332H51.1391L48.6578 222.323C48.5624 223.182 48.5146 223.802 48.5146 224.566C48.5146 225.472 49.135 225.902 49.9461 226.093C50.805 226.283 51.4731 226.331 51.9503 226.331C52.332 226.331 52.666 226.427 52.666 226.665C52.666 227.095 52.2366 227.19 51.5208 227.19C49.5167 227.19 47.3694 227.047 46.5105 227.047C45.6039 227.047 43.3135 227.19 41.7866 227.19C41.3094 227.19 40.9277 227.095 40.9277 226.665C40.9277 226.427 41.214 226.331 41.6911 226.331C42.0729 226.331 42.4069 226.331 43.1226 226.188C44.4587 225.902 44.8404 224.041 45.079 222.418ZM109.215 227.715C96.999 227.715 92.0365 219.03 92.0365 211.825C92.0365 204.906 96.9036 195.936 109.644 195.936C120.237 195.936 126.822 201.805 126.822 211.109C126.822 220.414 120.046 227.715 109.215 227.715ZM110.932 225.52C113.891 225.52 120.571 224.136 120.571 212.589C120.571 203.618 115.179 198.083 108.403 198.083C103.727 198.083 98.2397 200.564 98.2397 210.585C98.2397 218.935 103.011 225.52 110.932 225.52ZM136.789 205.097L137.266 221.655C137.361 224.804 137.886 225.759 138.698 226.045C139.413 226.283 140.225 226.331 140.893 226.331C141.37 226.331 141.608 226.522 141.608 226.761C141.608 227.095 141.227 227.19 140.654 227.19C137.934 227.19 135.978 227.047 135.214 227.047C134.833 227.047 132.828 227.19 130.681 227.19C130.109 227.19 129.727 227.142 129.727 226.761C129.727 226.522 130.013 226.331 130.395 226.331C130.967 226.331 131.731 226.283 132.304 226.14C133.401 225.854 133.544 224.756 133.592 221.225L133.974 197.176C133.974 196.365 134.26 195.792 134.689 195.792C135.214 195.792 135.787 196.413 136.503 197.128C137.027 197.653 143.326 204.095 149.434 210.06C152.297 212.875 157.88 218.601 158.5 219.174H158.691L158.261 201.137C158.214 198.655 157.832 197.94 156.83 197.558C156.21 197.319 155.208 197.319 154.635 197.319C154.11 197.319 153.967 197.128 153.967 196.89C153.967 196.556 154.396 196.508 155.017 196.508C157.212 196.508 159.454 196.604 160.361 196.604C160.838 196.604 162.413 196.508 164.465 196.508C165.037 196.508 165.419 196.556 165.419 196.89C165.419 197.128 165.18 197.319 164.703 197.319C164.274 197.319 163.94 197.319 163.415 197.462C162.27 197.796 161.936 198.512 161.888 200.803L161.411 226.379C161.411 227.285 161.077 227.667 160.743 227.667C160.027 227.667 159.454 227.238 159.025 226.808C156.401 224.375 151.152 219.364 146.762 215.118C142.181 210.728 137.743 205.813 136.932 205.097H136.789ZM186.454 216.979H176.576C176.338 216.979 176.29 217.026 176.194 217.265L173.952 222.705C173.522 223.707 173.331 224.709 173.331 225.186C173.331 225.902 173.713 226.331 175.001 226.331H175.622C176.147 226.331 176.242 226.522 176.242 226.761C176.242 227.095 176.004 227.19 175.574 227.19C174.19 227.19 172.234 227.047 170.898 227.047C170.468 227.047 168.226 227.19 166.031 227.19C165.506 227.19 165.267 227.095 165.267 226.761C165.267 226.522 165.41 226.331 165.744 226.331C166.126 226.331 166.603 226.283 166.985 226.283C168.894 225.997 169.609 224.756 170.468 222.705L181.443 197.176C181.92 196.031 182.254 195.554 182.684 195.554C183.304 195.554 183.495 195.936 183.925 196.842C184.927 199.085 191.941 215.69 194.613 221.846C196.235 225.52 197.428 226.045 198.192 226.188C198.812 226.283 199.289 226.331 199.767 226.331C200.148 226.331 200.339 226.474 200.339 226.761C200.339 227.095 200.101 227.19 198.526 227.19C197.047 227.19 193.993 227.19 190.462 227.095C189.698 227.047 189.221 227.047 189.221 226.761C189.221 226.522 189.317 226.379 189.746 226.331C190.032 226.283 190.319 225.902 190.128 225.425L186.883 217.265C186.788 217.026 186.644 216.979 186.454 216.979ZM177.435 214.736H185.547C185.738 214.736 185.786 214.641 185.738 214.497L181.777 204.191C181.73 204.047 181.682 203.809 181.586 203.809C181.443 203.809 181.396 204.047 181.348 204.191L177.292 214.45C177.196 214.641 177.292 214.736 177.435 214.736ZM204.912 215.404V208.246C204.912 202.091 204.912 200.946 204.864 199.657C204.769 198.274 204.387 197.844 203.051 197.462C202.717 197.367 202.001 197.319 201.381 197.319C200.952 197.319 200.665 197.176 200.665 196.89C200.665 196.604 200.999 196.508 201.62 196.508C203.815 196.508 206.487 196.604 207.346 196.604C208.777 196.604 212.595 196.508 213.883 196.508C216.555 196.508 219.609 196.747 221.852 198.226C223.045 199.037 224.81 201.089 224.81 203.809C224.81 206.815 223.092 209.487 218.989 212.78C222.71 217.36 225.669 221.035 228.198 223.564C230.536 225.902 232.015 226.093 232.683 226.236C233.113 226.331 233.351 226.331 233.685 226.331C234.019 226.331 234.21 226.57 234.21 226.761C234.21 227.095 233.924 227.19 233.399 227.19H229.391C227.053 227.19 225.908 226.951 224.81 226.379C222.997 225.472 221.422 223.564 219.084 220.414C217.414 218.219 215.648 215.499 215.124 214.879C214.885 214.641 214.646 214.593 214.36 214.593L210.59 214.497C210.4 214.497 210.256 214.593 210.256 214.831V215.404C210.256 219.174 210.304 222.323 210.495 224.041C210.638 225.234 210.829 225.997 212.117 226.188C212.738 226.283 213.644 226.331 214.169 226.331C214.503 226.331 214.694 226.57 214.694 226.761C214.694 227.047 214.36 227.19 213.835 227.19C211.402 227.19 207.918 227.047 207.298 227.047C206.487 227.047 203.815 227.19 202.145 227.19C201.62 227.19 201.333 227.047 201.333 226.761C201.333 226.57 201.477 226.331 202.001 226.331C202.622 226.331 203.099 226.283 203.481 226.188C204.34 225.997 204.578 225.234 204.721 224.041C204.912 222.323 204.912 219.126 204.912 215.404ZM210.256 199.323V211.396C210.256 211.825 210.352 211.968 210.638 212.112C211.545 212.398 212.785 212.493 213.835 212.493C215.505 212.493 216.078 212.35 216.794 211.825C218.082 210.919 219.513 209.153 219.513 205.813C219.513 200.087 215.601 198.608 213.119 198.608C212.07 198.608 211.068 198.655 210.638 198.751C210.352 198.846 210.256 198.989 210.256 199.323ZM243.112 208.246V210.06H243.303C244.734 208.533 250.842 202.52 252.082 201.137C253.275 199.801 254.182 198.846 254.182 198.13C254.182 197.701 253.991 197.415 253.609 197.319C253.228 197.224 253.037 197.128 253.037 196.89C253.037 196.604 253.275 196.508 253.705 196.508C254.611 196.508 256.902 196.604 258.047 196.604C259.335 196.604 261.674 196.508 262.962 196.508C263.391 196.508 263.678 196.604 263.678 196.89C263.678 197.176 263.439 197.319 263.057 197.319C262.437 197.319 261.387 197.51 260.624 197.796C259.288 198.274 257.952 199.133 256.186 200.803C254.85 202.043 248.599 207.96 247.311 209.439C248.79 211.348 257.045 219.937 258.667 221.464C260.528 223.134 262.151 224.9 264.393 225.806C265.634 226.331 266.493 226.331 266.97 226.331C267.304 226.331 267.543 226.522 267.543 226.761C267.543 227.047 267.304 227.19 266.541 227.19H262.866C261.626 227.19 260.862 227.19 259.956 227.095C257.713 226.904 256.329 226.045 254.516 224.47C252.703 222.896 244.639 213.543 243.732 212.302L243.303 211.73H243.112V215.404C243.112 219.126 243.112 222.323 243.207 224.088C243.303 225.234 243.684 225.997 244.734 226.188C245.307 226.283 246.261 226.331 246.786 226.331C247.12 226.331 247.358 226.57 247.358 226.761C247.358 227.047 247.024 227.19 246.547 227.19C244.209 227.19 241.203 227.047 240.153 227.047C239.199 227.047 236.527 227.19 234.857 227.19C234.332 227.19 234.045 227.047 234.045 226.761C234.045 226.57 234.189 226.331 234.714 226.331C235.334 226.331 235.811 226.283 236.193 226.188C237.052 225.997 237.29 225.234 237.433 224.041C237.624 222.323 237.624 219.126 237.624 215.404V208.246C237.624 202.091 237.624 200.946 237.577 199.657C237.481 198.274 237.099 197.844 235.763 197.462C235.429 197.367 234.714 197.319 234.093 197.319C233.664 197.319 233.377 197.176 233.377 196.89C233.377 196.604 233.711 196.508 234.332 196.508C236.527 196.508 239.199 196.604 240.201 196.604C241.203 196.604 244.209 196.508 245.593 196.508C246.213 196.508 246.5 196.604 246.5 196.89C246.5 197.176 246.261 197.319 245.927 197.319C245.498 197.319 245.259 197.367 244.734 197.462C243.589 197.653 243.255 198.226 243.159 199.657C243.112 200.946 243.112 202.091 243.112 208.246Z" fill="#141414"/>
<path d="M22.312 251.799C21.0822 251.799 20.142 251.474 19.4914 250.823C18.8497 250.164 18.5289 249.206 18.5289 247.949V242.254H19.6251V247.896C19.6251 248.876 19.8523 249.611 20.3068 250.101C20.7613 250.583 21.4297 250.823 22.312 250.823C23.1943 250.823 23.8582 250.583 24.3038 250.101C24.7494 249.611 24.9722 248.876 24.9722 247.896V242.254H26.0684V247.949C26.0684 249.206 25.7476 250.164 25.1059 250.823C24.4732 251.474 23.5419 251.799 22.312 251.799ZM28.1744 251.679V245.182H29.2304V246.626H29.0834C29.2705 246.109 29.5736 245.721 29.9924 245.463C30.4202 245.195 30.9103 245.062 31.4629 245.062C31.9798 245.062 32.4076 245.155 32.7462 245.342C33.0938 245.521 33.3522 245.801 33.5215 246.184C33.6909 246.568 33.7755 247.049 33.7755 247.628V251.679H32.6927V247.695C32.6927 247.294 32.6393 246.964 32.5323 246.706C32.4343 246.447 32.2739 246.256 32.0511 246.131C31.8372 246.006 31.5565 245.944 31.2089 245.944C30.8168 245.944 30.4737 246.029 30.1796 246.198C29.8855 246.367 29.6582 246.603 29.4978 246.906C29.3374 247.209 29.2572 247.566 29.2572 247.976V251.679H28.1744ZM37.764 251.799C37.1045 251.799 36.6054 251.603 36.2668 251.211C35.937 250.819 35.7722 250.257 35.7722 249.526V242.254H36.855V249.446C36.855 249.758 36.8951 250.021 36.9753 250.235C37.0644 250.449 37.1936 250.609 37.3629 250.716C37.5323 250.823 37.7417 250.877 37.9912 250.877C38.0982 250.877 38.2007 250.872 38.2987 250.863C38.4056 250.845 38.5037 250.823 38.5928 250.796L38.5661 251.705C38.4235 251.732 38.2853 251.754 38.1517 251.772C38.0269 251.79 37.8977 251.799 37.764 251.799ZM42.59 251.799C41.9038 251.799 41.3112 251.665 40.8121 251.398C40.3219 251.122 39.9387 250.734 39.6624 250.235C39.3951 249.736 39.2614 249.139 39.2614 248.444C39.2614 247.766 39.3951 247.178 39.6624 246.679C39.9298 246.171 40.2952 245.775 40.7586 245.489C41.2309 245.204 41.7746 245.062 42.3895 245.062C42.9777 245.062 43.4812 245.191 43.9001 245.449C44.3189 245.708 44.6398 246.073 44.8626 246.545C45.0943 247.018 45.2101 247.584 45.2101 248.243V248.658H40.0902V247.949H44.4883L44.2744 248.123C44.2744 247.41 44.114 246.857 43.7931 246.465C43.4812 246.064 43.0222 245.864 42.4162 245.864C41.9617 245.864 41.5741 245.971 41.2532 246.184C40.9413 246.389 40.7051 246.679 40.5447 247.053C40.3843 247.419 40.3041 247.847 40.3041 248.337V248.417C40.3041 248.961 40.3888 249.42 40.5581 249.794C40.7363 250.168 40.9992 250.453 41.3468 250.649C41.6944 250.837 42.1088 250.93 42.59 250.93C42.9732 250.93 43.3431 250.872 43.6996 250.756C44.0649 250.632 44.4081 250.431 44.7289 250.155L45.1032 250.917C44.8091 251.184 44.4348 251.398 43.9803 251.558C43.5258 251.719 43.0624 251.799 42.59 251.799ZM48.8225 251.799C48.3769 251.799 47.9759 251.714 47.6194 251.545C47.2718 251.367 46.9956 251.126 46.7906 250.823C46.5856 250.52 46.4831 250.182 46.4831 249.807C46.4831 249.326 46.6034 248.947 46.844 248.671C47.0936 248.395 47.4991 248.199 48.0605 248.083C48.6309 247.967 49.4062 247.909 50.3865 247.909H50.9881V248.617H50.3999C49.8563 248.617 49.4018 248.635 49.0364 248.671C48.671 248.707 48.3814 248.769 48.1675 248.858C47.9536 248.947 47.8021 249.063 47.713 249.206C47.6238 249.348 47.5793 249.526 47.5793 249.74C47.5793 250.106 47.7041 250.404 47.9536 250.636C48.212 250.868 48.5596 250.984 48.9963 250.984C49.3528 250.984 49.6647 250.899 49.932 250.73C50.2083 250.56 50.4222 250.329 50.5737 250.034C50.7341 249.74 50.8143 249.402 50.8143 249.018V247.495C50.8143 246.942 50.7029 246.545 50.4801 246.305C50.2573 246.055 49.8919 245.931 49.384 245.931C48.9918 245.931 48.6131 245.988 48.2477 246.104C47.8823 246.211 47.508 246.389 47.1248 246.639L46.7505 245.85C46.9822 245.69 47.2451 245.552 47.5392 245.436C47.8333 245.311 48.1407 245.218 48.4616 245.155C48.7824 245.093 49.0899 245.062 49.384 245.062C49.9454 245.062 50.4088 245.155 50.7742 245.342C51.1396 245.521 51.4114 245.797 51.5897 246.171C51.7679 246.537 51.857 247.009 51.857 247.588V251.679H50.8411V250.168H50.9614C50.8901 250.507 50.7519 250.796 50.547 251.037C50.3509 251.278 50.1058 251.465 49.8117 251.599C49.5176 251.732 49.1879 251.799 48.8225 251.799ZM56.0582 251.799C55.7196 251.799 55.3898 251.763 55.069 251.692C54.7571 251.63 54.463 251.541 54.1867 251.425C53.9193 251.3 53.6876 251.153 53.4916 250.984L53.8391 250.222C54.053 250.391 54.2847 250.534 54.5343 250.649C54.7838 250.756 55.0378 250.837 55.2962 250.89C55.5547 250.943 55.8176 250.97 56.0849 250.97C56.5929 250.97 56.9761 250.877 57.2346 250.689C57.493 250.502 57.6223 250.248 57.6223 249.928C57.6223 249.678 57.5376 249.482 57.3683 249.339C57.1989 249.188 56.9316 249.072 56.5662 248.992L55.3497 248.724C54.7883 248.609 54.3694 248.408 54.0931 248.123C53.8258 247.838 53.6921 247.468 53.6921 247.013C53.6921 246.612 53.7946 246.269 53.9995 245.984C54.2134 245.69 54.512 245.463 54.8952 245.302C55.2784 245.142 55.724 245.062 56.232 245.062C56.535 245.062 56.8246 245.093 57.1009 245.155C57.3772 245.218 57.6356 245.311 57.8762 245.436C58.1258 245.552 58.3397 245.699 58.5179 245.877L58.157 246.639C57.9876 246.479 57.796 246.345 57.5822 246.238C57.3683 246.122 57.1455 246.037 56.9138 245.984C56.691 245.922 56.4637 245.89 56.232 245.89C55.7329 245.89 55.3542 245.988 55.0957 246.184C54.8373 246.381 54.708 246.639 54.708 246.96C54.708 247.209 54.7883 247.414 54.9487 247.575C55.1091 247.735 55.3586 247.851 55.6973 247.922L56.9138 248.176C57.493 248.301 57.9253 248.502 58.2104 248.778C58.5045 249.045 58.6516 249.411 58.6516 249.874C58.6516 250.266 58.5446 250.609 58.3308 250.903C58.1169 251.189 57.8139 251.411 57.4217 251.572C57.0385 251.723 56.584 251.799 56.0582 251.799ZM60.3018 251.679V242.254H61.3846V246.626H61.2108C61.398 246.109 61.701 245.721 62.1198 245.463C62.5476 245.195 63.0378 245.062 63.5903 245.062C64.1072 245.062 64.535 245.155 64.8736 245.342C65.2212 245.529 65.4796 245.815 65.649 246.198C65.8183 246.572 65.903 247.049 65.903 247.628V251.679H64.8202V247.695C64.8202 247.294 64.7667 246.964 64.6597 246.706C64.5617 246.447 64.4013 246.256 64.1785 246.131C63.9646 246.006 63.6839 245.944 63.3363 245.944C62.9442 245.944 62.6011 246.029 62.307 246.198C62.0129 246.367 61.7856 246.603 61.6252 246.906C61.4648 247.209 61.3846 247.566 61.3846 247.976V251.679H60.3018ZM71.48 251.679V242.254H77.3084V243.177H72.5762V246.465H77.0411V247.388H72.5762V251.679H71.48ZM78.526 251.679V245.182H79.5821V246.719H79.4484C79.5999 246.193 79.8628 245.797 80.2371 245.529C80.6114 245.253 81.1061 245.093 81.721 245.048L82.1086 245.008L82.1889 245.944L81.5071 246.024C80.9011 246.078 80.4332 246.274 80.1035 246.612C79.7826 246.942 79.6222 247.397 79.6222 247.976V251.679H78.526ZM86.1663 251.799C85.4801 251.799 84.8875 251.665 84.3884 251.398C83.8982 251.122 83.515 250.734 83.2388 250.235C82.9714 249.736 82.8377 249.139 82.8377 248.444C82.8377 247.766 82.9714 247.178 83.2388 246.679C83.5061 246.171 83.8715 245.775 84.3349 245.489C84.8073 245.204 85.3509 245.062 85.9658 245.062C86.554 245.062 87.0575 245.191 87.4764 245.449C87.8953 245.708 88.2161 246.073 88.4389 246.545C88.6706 247.018 88.7864 247.584 88.7864 248.243V248.658H83.6665V247.949H88.0646L87.8507 248.123C87.8507 247.41 87.6903 246.857 87.3694 246.465C87.0575 246.064 86.5986 245.864 85.9925 245.864C85.538 245.864 85.1504 245.971 84.8295 246.184C84.5176 246.389 84.2815 246.679 84.121 247.053C83.9606 247.419 83.8804 247.847 83.8804 248.337V248.417C83.8804 248.961 83.9651 249.42 84.1344 249.794C84.3126 250.168 84.5755 250.453 84.9231 250.649C85.2707 250.837 85.6851 250.93 86.1663 250.93C86.5495 250.93 86.9194 250.872 87.2759 250.756C87.6413 250.632 87.9844 250.431 88.3052 250.155L88.6795 250.917C88.3854 251.184 88.0111 251.398 87.5566 251.558C87.1021 251.719 86.6387 251.799 86.1663 251.799ZM93.2811 251.799C92.5949 251.799 92.0022 251.665 91.5032 251.398C91.013 251.122 90.6298 250.734 90.3535 250.235C90.0862 249.736 89.9525 249.139 89.9525 248.444C89.9525 247.766 90.0862 247.178 90.3535 246.679C90.6209 246.171 90.9863 245.775 91.4497 245.489C91.922 245.204 92.4657 245.062 93.0806 245.062C93.6688 245.062 94.1723 245.191 94.5912 245.449C95.01 245.708 95.3309 246.073 95.5537 246.545C95.7854 247.018 95.9012 247.584 95.9012 248.243V248.658H90.7813V247.949H95.1793L94.9655 248.123C94.9655 247.41 94.805 246.857 94.4842 246.465C94.1723 246.064 93.7133 245.864 93.1073 245.864C92.6528 245.864 92.2651 245.971 91.9443 246.184C91.6324 246.389 91.3962 246.679 91.2358 247.053C91.0754 247.419 90.9952 247.847 90.9952 248.337V248.417C90.9952 248.961 91.0798 249.42 91.2492 249.794C91.4274 250.168 91.6903 250.453 92.0379 250.649C92.3855 250.837 92.7999 250.93 93.2811 250.93C93.6643 250.93 94.0342 250.872 94.3906 250.756C94.756 250.632 95.0991 250.431 95.42 250.155L95.7943 250.917C95.5002 251.184 95.1259 251.398 94.6714 251.558C94.2169 251.719 93.7534 251.799 93.2811 251.799ZM99.9414 251.799C99.3621 251.799 98.8541 251.661 98.4174 251.385C97.9896 251.108 97.6554 250.721 97.4148 250.222C97.1831 249.714 97.0673 249.117 97.0673 248.43C97.0673 247.735 97.1831 247.138 97.4148 246.639C97.6554 246.131 97.9896 245.743 98.4174 245.476C98.8541 245.2 99.3621 245.062 99.9414 245.062C100.53 245.062 101.033 245.209 101.452 245.503C101.871 245.797 102.152 246.193 102.294 246.692H102.147V242.254H103.23V251.679H102.174V250.128H102.307C102.165 250.636 101.88 251.042 101.452 251.345C101.033 251.648 100.53 251.799 99.9414 251.799ZM100.169 250.93C100.784 250.93 101.269 250.716 101.626 250.288C101.991 249.852 102.174 249.232 102.174 248.43C102.174 247.619 101.991 247 101.626 246.572C101.269 246.144 100.784 245.931 100.169 245.931C99.5626 245.931 99.0769 246.144 98.7115 246.572C98.3461 247 98.1634 247.619 98.1634 248.43C98.1634 249.232 98.3461 249.852 98.7115 250.288C99.0769 250.716 99.5626 250.93 100.169 250.93ZM107.962 251.799C107.329 251.799 106.781 251.661 106.318 251.385C105.855 251.108 105.494 250.721 105.235 250.222C104.986 249.714 104.861 249.117 104.861 248.43C104.861 247.744 104.986 247.151 105.235 246.652C105.494 246.144 105.855 245.752 106.318 245.476C106.781 245.2 107.329 245.062 107.962 245.062C108.595 245.062 109.143 245.2 109.606 245.476C110.07 245.752 110.426 246.144 110.676 246.652C110.934 247.151 111.064 247.744 111.064 248.43C111.064 249.117 110.934 249.714 110.676 250.222C110.426 250.721 110.07 251.108 109.606 251.385C109.143 251.661 108.595 251.799 107.962 251.799ZM107.962 250.93C108.577 250.93 109.063 250.716 109.419 250.288C109.785 249.852 109.967 249.228 109.967 248.417C109.967 247.615 109.785 247 109.419 246.572C109.063 246.144 108.577 245.931 107.962 245.931C107.356 245.931 106.871 246.144 106.505 246.572C106.14 247 105.957 247.615 105.957 248.417C105.957 249.228 106.14 249.852 106.505 250.288C106.871 250.716 107.356 250.93 107.962 250.93ZM112.717 251.679V245.182H113.773V246.626H113.626C113.733 246.296 113.889 246.015 114.094 245.783C114.308 245.543 114.557 245.365 114.842 245.249C115.136 245.124 115.457 245.062 115.805 245.062C116.357 245.062 116.803 245.195 117.142 245.463C117.489 245.721 117.721 246.127 117.837 246.679H117.636C117.797 246.18 118.082 245.788 118.492 245.503C118.911 245.209 119.396 245.062 119.949 245.062C120.439 245.062 120.84 245.155 121.152 245.342C121.473 245.529 121.713 245.815 121.874 246.198C122.034 246.572 122.114 247.049 122.114 247.628V251.679H121.032V247.682C121.032 247.085 120.929 246.648 120.724 246.372C120.519 246.086 120.172 245.944 119.681 245.944C119.334 245.944 119.026 246.029 118.759 246.198C118.501 246.367 118.3 246.608 118.157 246.92C118.024 247.223 117.957 247.584 117.957 248.003V251.679H116.874V247.682C116.874 247.085 116.767 246.648 116.553 246.372C116.348 246.086 116.005 245.944 115.524 245.944C115.168 245.944 114.86 246.029 114.602 246.198C114.343 246.367 114.143 246.608 114 246.92C113.866 247.223 113.8 247.584 113.8 248.003V251.679H112.717ZM124.527 253.203L124.019 252.815C124.179 252.646 124.299 252.485 124.38 252.334C124.469 252.191 124.527 252.044 124.553 251.893C124.589 251.75 124.607 251.603 124.607 251.451L124.847 251.679H123.965V250.315H125.329V251.278C125.329 251.518 125.302 251.746 125.248 251.959C125.204 252.182 125.124 252.396 125.008 252.601C124.892 252.806 124.732 253.007 124.527 253.203ZM130.761 251.679V242.254H136.71V243.177H131.83V246.438H136.429V247.361H131.83V250.756H136.71V251.679H130.761ZM138.434 251.679V245.182H139.49V246.626H139.343C139.45 246.296 139.606 246.015 139.811 245.783C140.025 245.543 140.275 245.365 140.56 245.249C140.854 245.124 141.175 245.062 141.522 245.062C142.075 245.062 142.52 245.195 142.859 245.463C143.207 245.721 143.438 246.127 143.554 246.679H143.354C143.514 246.18 143.799 245.788 144.209 245.503C144.628 245.209 145.114 245.062 145.666 245.062C146.157 245.062 146.558 245.155 146.869 245.342C147.19 245.529 147.431 245.815 147.591 246.198C147.752 246.572 147.832 247.049 147.832 247.628V251.679H146.749V247.682C146.749 247.085 146.647 246.648 146.442 246.372C146.237 246.086 145.889 245.944 145.399 245.944C145.051 245.944 144.744 246.029 144.477 246.198C144.218 246.367 144.018 246.608 143.875 246.92C143.741 247.223 143.675 247.584 143.675 248.003V251.679H142.592V247.682C142.592 247.085 142.485 246.648 142.271 246.372C142.066 246.086 141.723 245.944 141.242 245.944C140.885 245.944 140.578 246.029 140.319 246.198C140.061 246.367 139.86 246.608 139.718 246.92C139.584 247.223 139.517 247.584 139.517 248.003V251.679H138.434ZM149.856 254.085V245.182H150.913V246.719H150.779C150.921 246.211 151.202 245.81 151.621 245.516C152.049 245.213 152.557 245.062 153.145 245.062C153.724 245.062 154.228 245.2 154.656 245.476C155.092 245.743 155.426 246.131 155.658 246.639C155.899 247.138 156.019 247.735 156.019 248.43C156.019 249.117 155.899 249.714 155.658 250.222C155.426 250.721 155.097 251.108 154.669 251.385C154.241 251.661 153.733 251.799 153.145 251.799C152.557 251.799 152.053 251.652 151.634 251.358C151.216 251.055 150.93 250.654 150.779 250.155H150.939V254.085H149.856ZM152.918 250.93C153.533 250.93 154.018 250.716 154.375 250.288C154.74 249.852 154.923 249.232 154.923 248.43C154.923 247.619 154.74 247 154.375 246.572C154.018 246.144 153.533 245.931 152.918 245.931C152.312 245.931 151.826 246.144 151.461 246.572C151.095 247 150.913 247.619 150.913 248.43C150.913 249.232 151.095 249.852 151.461 250.288C151.826 250.716 152.312 250.93 152.918 250.93ZM160.35 251.799C159.718 251.799 159.17 251.661 158.706 251.385C158.243 251.108 157.882 250.721 157.623 250.222C157.374 249.714 157.249 249.117 157.249 248.43C157.249 247.744 157.374 247.151 157.623 246.652C157.882 246.144 158.243 245.752 158.706 245.476C159.17 245.2 159.718 245.062 160.35 245.062C160.983 245.062 161.531 245.2 161.995 245.476C162.458 245.752 162.815 246.144 163.064 246.652C163.323 247.151 163.452 247.744 163.452 248.43C163.452 249.117 163.323 249.714 163.064 250.222C162.815 250.721 162.458 251.108 161.995 251.385C161.531 251.661 160.983 251.799 160.35 251.799ZM160.35 250.93C160.965 250.93 161.451 250.716 161.808 250.288C162.173 249.852 162.356 249.228 162.356 248.417C162.356 247.615 162.173 247 161.808 246.572C161.451 246.144 160.965 245.931 160.35 245.931C159.744 245.931 159.259 246.144 158.893 246.572C158.528 247 158.345 247.615 158.345 248.417C158.345 249.228 158.528 249.852 158.893 250.288C159.259 250.716 159.744 250.93 160.35 250.93ZM166.711 251.679L164.292 245.182H165.428L167.42 250.877H167.099L169.158 245.182H170.08L172.099 250.877H171.791L173.81 245.182H174.892L172.459 251.679H171.43L169.305 245.837H169.879L167.754 251.679H166.711ZM179.063 251.799C178.377 251.799 177.784 251.665 177.285 251.398C176.795 251.122 176.412 250.734 176.135 250.235C175.868 249.736 175.734 249.139 175.734 248.444C175.734 247.766 175.868 247.178 176.135 246.679C176.403 246.171 176.768 245.775 177.232 245.489C177.704 245.204 178.248 245.062 178.862 245.062C179.451 245.062 179.954 245.191 180.373 245.449C180.792 245.708 181.113 246.073 181.336 246.545C181.567 247.018 181.683 247.584 181.683 248.243V248.658H176.563V247.949H180.961L180.747 248.123C180.747 247.41 180.587 246.857 180.266 246.465C179.954 246.064 179.495 245.864 178.889 245.864C178.435 245.864 178.047 245.971 177.726 246.184C177.414 246.389 177.178 246.679 177.018 247.053C176.857 247.419 176.777 247.847 176.777 248.337V248.417C176.777 248.961 176.862 249.42 177.031 249.794C177.209 250.168 177.472 250.453 177.82 250.649C178.167 250.837 178.582 250.93 179.063 250.93C179.446 250.93 179.816 250.872 180.173 250.756C180.538 250.632 180.881 250.431 181.202 250.155L181.576 250.917C181.282 251.184 180.908 251.398 180.453 251.558C179.999 251.719 179.535 251.799 179.063 251.799ZM183.25 251.679V245.182H184.306V246.719H184.173C184.324 246.193 184.587 245.797 184.961 245.529C185.336 245.253 185.83 245.093 186.445 245.048L186.833 245.008L186.913 245.944L186.231 246.024C185.625 246.078 185.157 246.274 184.828 246.612C184.507 246.942 184.346 247.397 184.346 247.976V251.679H183.25ZM191.622 251.679V242.254H194.803C195.828 242.254 196.693 242.437 197.397 242.802C198.11 243.159 198.649 243.689 199.014 244.393C199.388 245.088 199.576 245.944 199.576 246.96C199.576 247.976 199.388 248.836 199.014 249.54C198.649 250.244 198.11 250.779 197.397 251.144C196.693 251.5 195.828 251.679 194.803 251.679H191.622ZM192.718 250.743H194.723C195.962 250.743 196.884 250.427 197.49 249.794C198.105 249.161 198.413 248.216 198.413 246.96C198.413 245.703 198.105 244.763 197.49 244.139C196.875 243.506 195.953 243.19 194.723 243.19H192.718V250.743ZM204.324 251.799C203.637 251.799 203.045 251.665 202.546 251.398C202.056 251.122 201.672 250.734 201.396 250.235C201.129 249.736 200.995 249.139 200.995 248.444C200.995 247.766 201.129 247.178 201.396 246.679C201.663 246.171 202.029 245.775 202.492 245.489C202.965 245.204 203.508 245.062 204.123 245.062C204.711 245.062 205.215 245.191 205.634 245.449C206.053 245.708 206.373 246.073 206.596 246.545C206.828 247.018 206.944 247.584 206.944 248.243V248.658H201.824V247.949H206.222L206.008 248.123C206.008 247.41 205.848 246.857 205.527 246.465C205.215 246.064 204.756 245.864 204.15 245.864C203.695 245.864 203.308 245.971 202.987 246.184C202.675 246.389 202.439 246.679 202.278 247.053C202.118 247.419 202.038 247.847 202.038 248.337V248.417C202.038 248.961 202.122 249.42 202.292 249.794C202.47 250.168 202.733 250.453 203.08 250.649C203.428 250.837 203.842 250.93 204.324 250.93C204.707 250.93 205.077 250.872 205.433 250.756C205.799 250.632 206.142 250.431 206.463 250.155L206.837 250.917C206.543 251.184 206.168 251.398 205.714 251.558C205.259 251.719 204.796 251.799 204.324 251.799ZM211.265 251.799C210.614 251.799 210.053 251.656 209.58 251.371C209.108 251.086 208.743 250.689 208.484 250.182C208.235 249.665 208.11 249.068 208.11 248.39C208.11 247.704 208.235 247.111 208.484 246.612C208.743 246.113 209.108 245.73 209.58 245.463C210.053 245.195 210.614 245.062 211.265 245.062C211.666 245.062 212.062 245.133 212.454 245.275C212.847 245.418 213.172 245.619 213.43 245.877L213.056 246.666C212.798 246.416 212.512 246.234 212.2 246.118C211.897 246.002 211.608 245.944 211.332 245.944C210.654 245.944 210.133 246.158 209.767 246.586C209.402 247.004 209.219 247.61 209.219 248.404C209.219 249.179 209.402 249.794 209.767 250.248C210.133 250.694 210.654 250.917 211.332 250.917C211.608 250.917 211.897 250.859 212.2 250.743C212.512 250.627 212.798 250.44 213.056 250.182L213.43 250.97C213.172 251.229 212.842 251.434 212.441 251.585C212.049 251.728 211.657 251.799 211.265 251.799ZM217.496 251.799C216.81 251.799 216.217 251.665 215.718 251.398C215.228 251.122 214.844 250.734 214.568 250.235C214.301 249.736 214.167 249.139 214.167 248.444C214.167 247.766 214.301 247.178 214.568 246.679C214.836 246.171 215.201 245.775 215.664 245.489C216.137 245.204 216.68 245.062 217.295 245.062C217.883 245.062 218.387 245.191 218.806 245.449C219.225 245.708 219.546 246.073 219.768 246.545C220 247.018 220.116 247.584 220.116 248.243V248.658H214.996V247.949H219.394L219.18 248.123C219.18 247.41 219.02 246.857 218.699 246.465C218.387 246.064 217.928 245.864 217.322 245.864C216.868 245.864 216.48 245.971 216.159 246.184C215.847 246.389 215.611 246.679 215.451 247.053C215.29 247.419 215.21 247.847 215.21 248.337V248.417C215.21 248.961 215.295 249.42 215.464 249.794C215.642 250.168 215.905 250.453 216.253 250.649C216.6 250.837 217.015 250.93 217.496 250.93C217.879 250.93 218.249 250.872 218.605 250.756C218.971 250.632 219.314 250.431 219.635 250.155L220.009 250.917C219.715 251.184 219.341 251.398 218.886 251.558C218.432 251.719 217.968 251.799 217.496 251.799ZM221.683 251.679V245.182H222.739V246.626H222.592C222.779 246.109 223.082 245.721 223.501 245.463C223.929 245.195 224.419 245.062 224.971 245.062C225.488 245.062 225.916 245.155 226.255 245.342C226.602 245.521 226.861 245.801 227.03 246.184C227.199 246.568 227.284 247.049 227.284 247.628V251.679H226.201V247.695C226.201 247.294 226.148 246.964 226.041 246.706C225.943 246.447 225.782 246.256 225.56 246.131C225.346 246.006 225.065 245.944 224.718 245.944C224.325 245.944 223.982 246.029 223.688 246.198C223.394 246.367 223.167 246.603 223.006 246.906C222.846 247.209 222.766 247.566 222.766 247.976V251.679H221.683ZM231.888 251.799C231.121 251.799 230.546 251.594 230.163 251.184C229.78 250.774 229.588 250.19 229.588 249.433V246.024H228.318V245.182H229.588V243.19H230.671V245.182H232.73V246.024H230.671V249.326C230.671 249.834 230.778 250.222 230.992 250.489C231.206 250.747 231.553 250.877 232.035 250.877C232.177 250.877 232.32 250.859 232.462 250.823C232.605 250.788 232.734 250.752 232.85 250.716L233.037 251.545C232.921 251.607 232.752 251.665 232.529 251.719C232.306 251.772 232.093 251.799 231.888 251.799ZM233.954 251.679V245.182H235.01V246.719H234.877C235.028 246.193 235.291 245.797 235.665 245.529C236.04 245.253 236.534 245.093 237.149 245.048L237.537 245.008L237.617 245.944L236.935 246.024C236.329 246.078 235.861 246.274 235.532 246.612C235.211 246.942 235.051 247.397 235.051 247.976V251.679H233.954ZM240.725 251.799C240.28 251.799 239.879 251.714 239.522 251.545C239.175 251.367 238.898 251.126 238.693 250.823C238.488 250.52 238.386 250.182 238.386 249.807C238.386 249.326 238.506 248.947 238.747 248.671C238.996 248.395 239.402 248.199 239.963 248.083C240.534 247.967 241.309 247.909 242.289 247.909H242.891V248.617H242.303C241.759 248.617 241.305 248.635 240.939 248.671C240.574 248.707 240.284 248.769 240.07 248.858C239.856 248.947 239.705 249.063 239.616 249.206C239.527 249.348 239.482 249.526 239.482 249.74C239.482 250.106 239.607 250.404 239.856 250.636C240.115 250.868 240.462 250.984 240.899 250.984C241.256 250.984 241.568 250.899 241.835 250.73C242.111 250.56 242.325 250.329 242.477 250.034C242.637 249.74 242.717 249.402 242.717 249.018V247.495C242.717 246.942 242.606 246.545 242.383 246.305C242.16 246.055 241.795 245.931 241.287 245.931C240.895 245.931 240.516 245.988 240.151 246.104C239.785 246.211 239.411 246.389 239.028 246.639L238.653 245.85C238.885 245.69 239.148 245.552 239.442 245.436C239.736 245.311 240.044 245.218 240.364 245.155C240.685 245.093 240.993 245.062 241.287 245.062C241.848 245.062 242.312 245.155 242.677 245.342C243.043 245.521 243.314 245.797 243.493 246.171C243.671 246.537 243.76 247.009 243.76 247.588V251.679H242.744V250.168H242.864C242.793 250.507 242.655 250.796 242.45 251.037C242.254 251.278 242.009 251.465 241.715 251.599C241.421 251.732 241.091 251.799 240.725 251.799ZM247.761 251.799C247.101 251.799 246.602 251.603 246.263 251.211C245.934 250.819 245.769 250.257 245.769 249.526V242.254H246.852V249.446C246.852 249.758 246.892 250.021 246.972 250.235C247.061 250.449 247.19 250.609 247.36 250.716C247.529 250.823 247.738 250.877 247.988 250.877C248.095 250.877 248.197 250.872 248.295 250.863C248.402 250.845 248.5 250.823 248.589 250.796L248.563 251.705C248.42 251.732 248.282 251.754 248.148 251.772C248.023 251.79 247.894 251.799 247.761 251.799ZM249.591 243.564V242.348H250.927V243.564H249.591ZM249.724 251.679V245.182H250.807V251.679H249.724ZM252.551 251.679V250.957L256.467 245.743V246.024H252.551V245.182H257.47V245.904L253.513 251.144V250.837H257.617V251.679H252.551ZM260.999 251.799C260.554 251.799 260.153 251.714 259.796 251.545C259.449 251.367 259.172 251.126 258.967 250.823C258.762 250.52 258.66 250.182 258.66 249.807C258.66 249.326 258.78 248.947 259.021 248.671C259.27 248.395 259.676 248.199 260.237 248.083C260.808 247.967 261.583 247.909 262.563 247.909H263.165V248.617H262.577C262.033 248.617 261.578 248.635 261.213 248.671C260.848 248.707 260.558 248.769 260.344 248.858C260.13 248.947 259.979 249.063 259.89 249.206C259.801 249.348 259.756 249.526 259.756 249.74C259.756 250.106 259.881 250.404 260.13 250.636C260.389 250.868 260.736 250.984 261.173 250.984C261.529 250.984 261.841 250.899 262.109 250.73C262.385 250.56 262.599 250.329 262.75 250.034C262.911 249.74 262.991 249.402 262.991 249.018V247.495C262.991 246.942 262.88 246.545 262.657 246.305C262.434 246.055 262.069 245.931 261.561 245.931C261.169 245.931 260.79 245.988 260.424 246.104C260.059 246.211 259.685 246.389 259.301 246.639L258.927 245.85C259.159 245.69 259.422 245.552 259.716 245.436C260.01 245.311 260.317 245.218 260.638 245.155C260.959 245.093 261.267 245.062 261.561 245.062C262.122 245.062 262.586 245.155 262.951 245.342C263.316 245.521 263.588 245.797 263.766 246.171C263.945 246.537 264.034 247.009 264.034 247.588V251.679H263.018V250.168H263.138C263.067 250.507 262.929 250.796 262.724 251.037C262.528 251.278 262.283 251.465 261.988 251.599C261.694 251.732 261.365 251.799 260.999 251.799ZM268.649 251.799C267.883 251.799 267.308 251.594 266.925 251.184C266.542 250.774 266.35 250.19 266.35 249.433V246.024H265.08V245.182H266.35V243.19H267.433V245.182H269.492V246.024H267.433V249.326C267.433 249.834 267.54 250.222 267.754 250.489C267.968 250.747 268.315 250.877 268.796 250.877C268.939 250.877 269.082 250.859 269.224 250.823C269.367 250.788 269.496 250.752 269.612 250.716L269.799 251.545C269.683 251.607 269.514 251.665 269.291 251.719C269.068 251.772 268.854 251.799 268.649 251.799ZM270.582 243.564V242.348H271.919V243.564H270.582ZM270.716 251.679V245.182H271.799V251.679H270.716ZM276.523 251.799C275.891 251.799 275.343 251.661 274.879 251.385C274.416 251.108 274.055 250.721 273.796 250.222C273.547 249.714 273.422 249.117 273.422 248.43C273.422 247.744 273.547 247.151 273.796 246.652C274.055 246.144 274.416 245.752 274.879 245.476C275.343 245.2 275.891 245.062 276.523 245.062C277.156 245.062 277.704 245.2 278.168 245.476C278.631 245.752 278.988 246.144 279.237 246.652C279.496 247.151 279.625 247.744 279.625 248.43C279.625 249.117 279.496 249.714 279.237 250.222C278.988 250.721 278.631 251.108 278.168 251.385C277.704 251.661 277.156 251.799 276.523 251.799ZM276.523 250.93C277.138 250.93 277.624 250.716 277.981 250.288C278.346 249.852 278.529 249.228 278.529 248.417C278.529 247.615 278.346 247 277.981 246.572C277.624 246.144 277.138 245.931 276.523 245.931C275.917 245.931 275.432 246.144 275.066 246.572C274.701 247 274.518 247.615 274.518 248.417C274.518 249.228 274.701 249.852 275.066 250.288C275.432 250.716 275.917 250.93 276.523 250.93ZM281.251 251.679V245.182H282.307V246.626H282.16C282.347 246.109 282.65 245.721 283.069 245.463C283.497 245.195 283.987 245.062 284.54 245.062C285.057 245.062 285.484 245.155 285.823 245.342C286.171 245.521 286.429 245.801 286.598 246.184C286.768 246.568 286.852 247.049 286.852 247.628V251.679H285.77V247.695C285.77 247.294 285.716 246.964 285.609 246.706C285.511 246.447 285.351 246.256 285.128 246.131C284.914 246.006 284.633 245.944 284.286 245.944C283.894 245.944 283.55 246.029 283.256 246.198C282.962 246.367 282.735 246.603 282.575 246.906C282.414 247.209 282.334 247.566 282.334 247.976V251.679H281.251Z" fill="#F46817"/>
<path d="M53.1758 49.289C54.6833 104.526 112.972 96.9936 112.972 96.9936C67.7482 80.4224 66.7434 61.3408 66.7434 61.3408L79.3056 57.3233L113.978 77.4094L125.032 102.015L123.022 132.646L110.508 147.711L93.3751 158.256L85.3354 161.269L83.8279 155.244L89.8579 130.136L110.46 120.595C67.7482 119.089 76.2906 170.308 76.2906 170.308C126.037 173.824 133.072 106.032 133.072 106.032L152.167 128.054V110.322C152.167 110.322 145.132 104.526 120.007 74.3966C101.164 51.7997 72.9932 48.9751 60.0853 48.9751C55.7828 48.9751 53.1758 49.289 53.1758 49.289Z" fill="url(#paint0_linear_2_2504)"/>
<path d="M184.327 74.3969C159.203 104.526 152.168 110.322 152.168 110.322V128.054L171.262 106.033C171.262 106.033 178.298 173.824 228.044 170.308C228.044 170.308 236.586 119.089 193.875 120.595L214.477 130.136L220.507 155.244L218.999 161.27L210.959 158.257L193.827 147.712L181.312 132.647L179.303 102.015L190.357 77.4096L225.029 57.3236L237.592 61.341C237.592 61.341 236.586 80.4226 191.362 96.9939C191.362 96.9939 249.651 104.526 251.159 49.2893C251.159 49.2893 248.552 48.9753 244.249 48.9753C231.341 48.9753 203.171 51.7999 184.327 74.3969Z" fill="url(#paint1_linear_2_2504)"/>
<path d="M193.372 69.8775C168.247 90.968 152.168 119.591 152.168 119.591C152.168 119.591 136.088 90.968 110.963 69.8775C85.8386 48.7868 54.1816 51.7998 54.1816 51.7998C54.2204 52.1371 54.2616 52.4716 54.3047 52.8034C59.8714 95.4488 102.421 92.9766 102.421 92.9766C61.2165 72.8902 66.7442 61.3408 66.7442 61.3408C66.7442 61.3408 114.983 62.8471 122.018 99.5043C131.387 148.326 86.8437 157.754 86.8437 157.754C90.3611 126.621 110.461 120.595 110.461 120.595C72.2712 117.08 75.7887 166.291 75.7887 166.291C75.7887 166.291 86.8437 171.313 108.451 155.746C137.631 134.723 133.073 106.032 133.073 106.032L152.168 128.054L171.262 106.032C171.262 106.032 166.704 134.723 195.884 155.746C217.492 171.313 228.546 166.291 228.546 166.291C228.546 166.291 232.064 117.08 193.875 120.595C193.875 120.595 213.974 126.621 217.492 157.754C217.492 157.754 172.948 148.326 182.317 99.5043C189.352 62.8471 237.592 61.3408 237.592 61.3408C237.592 61.3408 243.119 72.8902 201.914 92.9766C201.914 92.9766 244.464 95.4488 250.031 52.8034C250.074 52.4716 250.115 52.1371 250.154 51.7998C250.154 51.7998 248.589 51.6509 245.882 51.6509C236.407 51.6506 212.915 53.4724 193.372 69.8775Z" fill="url(#paint2_linear_2_2504)"/>
<defs>
<linearGradient id="paint0_linear_2_2504" x1="53.1759" y1="109.708" x2="152.167" y2="109.708" gradientUnits="userSpaceOnUse">
<stop stop-color="#ED2723"/>
<stop offset="1" stop-color="#FBA60B"/>
</linearGradient>
<linearGradient id="paint1_linear_2_2504" x1="152.168" y1="109.708" x2="251.159" y2="109.708" gradientUnits="userSpaceOnUse">
<stop stop-color="#ED2723"/>
<stop offset="1" stop-color="#FBA60B"/>
</linearGradient>
<linearGradient id="paint2_linear_2_2504" x1="54.1817" y1="109.357" x2="250.154" y2="109.357" gradientUnits="userSpaceOnUse">
<stop stop-color="#ED2723"/>
<stop offset="1" stop-color="#FBA60B"/>
</linearGradient>
</defs>
</svg>
