<svg width="302" height="302" viewBox="0 0 302 302" fill="none" xmlns="http://www.w3.org/2000/svg">
<path d="M44.6588 220.906L49.3295 190.145C49.4711 189.343 49.7541 188.919 50.1316 188.919C50.509 188.919 50.7921 189.155 51.4054 190.381L64.2853 216.99L77.118 190.051C77.4954 189.296 77.7313 188.919 78.1559 188.919C78.5805 188.919 78.8636 189.39 79.0051 190.381L83.2984 219.538C83.723 222.51 84.1948 223.878 85.6102 224.303C86.9784 224.728 87.9219 224.775 88.5353 224.775C88.9599 224.775 89.2901 224.822 89.2901 225.105C89.2901 225.482 88.724 225.624 88.0635 225.624C86.884 225.624 80.3733 225.482 78.4861 225.341C77.401 225.247 77.118 225.105 77.118 224.822C77.118 224.586 77.3067 224.444 77.6369 224.303C77.92 224.209 78.0615 223.595 77.8728 222.274L75.0421 201.515H74.8534L64.5683 222.935C63.4832 225.152 63.2473 225.577 62.8227 225.577C62.3981 225.577 61.9263 224.633 61.1715 223.218C60.0392 221.048 56.312 213.829 55.7459 212.508C55.3213 211.517 52.4905 205.573 50.8393 202.034H50.6505L48.1972 220.812C48.1029 221.661 48.0557 222.274 48.0557 223.029C48.0557 223.926 48.669 224.35 49.4711 224.539C50.3203 224.728 50.9808 224.775 51.4526 224.775C51.83 224.775 52.1603 224.869 52.1603 225.105C52.1603 225.53 51.7357 225.624 51.028 225.624C49.0465 225.624 46.9234 225.482 46.0742 225.482C45.1778 225.482 42.9132 225.624 41.4035 225.624C40.9317 225.624 40.5542 225.53 40.5542 225.105C40.5542 224.869 40.8373 224.775 41.3091 224.775C41.6865 224.775 42.0168 224.775 42.7245 224.633C44.0455 224.35 44.4229 222.51 44.6588 220.906ZM108.071 226.143C95.9936 226.143 91.087 217.556 91.087 210.432C91.087 203.591 95.8992 194.722 108.496 194.722C118.97 194.722 125.48 200.525 125.48 209.725C125.48 218.925 118.781 226.143 108.071 226.143ZM109.77 223.973C112.695 223.973 119.3 222.605 119.3 211.187C119.3 202.318 113.969 196.845 107.269 196.845C102.646 196.845 97.2203 199.298 97.2203 209.206C97.2203 217.462 101.938 223.973 109.77 223.973ZM135.335 203.78L135.807 220.151C135.901 223.265 136.42 224.209 137.222 224.492C137.93 224.728 138.732 224.775 139.392 224.775C139.864 224.775 140.1 224.963 140.1 225.199C140.1 225.53 139.723 225.624 139.156 225.624C136.467 225.624 134.533 225.482 133.778 225.482C133.401 225.482 131.419 225.624 129.296 225.624C128.73 225.624 128.352 225.577 128.352 225.199C128.352 224.963 128.636 224.775 129.013 224.775C129.579 224.775 130.334 224.728 130.9 224.586C131.985 224.303 132.127 223.218 132.174 219.727L132.551 195.948C132.551 195.146 132.834 194.58 133.259 194.58C133.778 194.58 134.344 195.194 135.052 195.901C135.571 196.42 141.799 202.789 147.837 208.687C150.668 211.47 156.188 217.132 156.801 217.698H156.99L156.566 199.864C156.518 197.411 156.141 196.703 155.15 196.326C154.537 196.09 153.546 196.09 152.98 196.09C152.461 196.09 152.319 195.901 152.319 195.665C152.319 195.335 152.744 195.288 153.357 195.288C155.528 195.288 157.745 195.382 158.641 195.382C159.113 195.382 160.67 195.288 162.699 195.288C163.265 195.288 163.642 195.335 163.642 195.665C163.642 195.901 163.406 196.09 162.935 196.09C162.51 196.09 162.18 196.09 161.661 196.231C160.529 196.562 160.198 197.269 160.151 199.534L159.679 224.822C159.679 225.718 159.349 226.096 159.019 226.096C158.311 226.096 157.745 225.671 157.32 225.247C154.726 222.84 149.536 217.887 145.195 213.688C140.666 209.347 136.279 204.488 135.477 203.78H135.335ZM184.44 215.528H174.674C174.438 215.528 174.391 215.575 174.296 215.811L172.079 221.189C171.654 222.18 171.466 223.171 171.466 223.642C171.466 224.35 171.843 224.775 173.117 224.775H173.73C174.249 224.775 174.344 224.963 174.344 225.199C174.344 225.53 174.108 225.624 173.683 225.624C172.315 225.624 170.38 225.482 169.059 225.482C168.635 225.482 166.417 225.624 164.247 225.624C163.728 225.624 163.492 225.53 163.492 225.199C163.492 224.963 163.634 224.775 163.964 224.775C164.342 224.775 164.813 224.728 165.191 224.728C167.078 224.444 167.786 223.218 168.635 221.189L179.486 195.948C179.958 194.816 180.288 194.344 180.713 194.344C181.326 194.344 181.515 194.722 181.939 195.618C182.93 197.836 189.865 214.254 192.507 220.34C194.112 223.973 195.291 224.492 196.046 224.633C196.659 224.728 197.131 224.775 197.603 224.775C197.98 224.775 198.169 224.916 198.169 225.199C198.169 225.53 197.933 225.624 196.376 225.624C194.914 225.624 191.894 225.624 188.403 225.53C187.648 225.482 187.176 225.482 187.176 225.199C187.176 224.963 187.271 224.822 187.695 224.775C187.978 224.728 188.261 224.35 188.073 223.878L184.864 215.811C184.77 215.575 184.629 215.528 184.44 215.528ZM175.523 213.31H183.543C183.732 213.31 183.779 213.216 183.732 213.074L179.816 202.884C179.769 202.742 179.722 202.506 179.628 202.506C179.486 202.506 179.439 202.742 179.392 202.884L175.381 213.027C175.287 213.216 175.381 213.31 175.523 213.31ZM202.69 213.971V206.894C202.69 200.808 202.69 199.676 202.643 198.402C202.549 197.033 202.171 196.609 200.85 196.231C200.52 196.137 199.812 196.09 199.199 196.09C198.774 196.09 198.491 195.948 198.491 195.665C198.491 195.382 198.822 195.288 199.435 195.288C201.605 195.288 204.247 195.382 205.096 195.382C206.512 195.382 210.286 195.288 211.56 195.288C214.202 195.288 217.221 195.524 219.439 196.986C220.618 197.788 222.364 199.817 222.364 202.506C222.364 205.479 220.666 208.121 216.608 211.376C220.288 215.905 223.213 219.538 225.714 222.038C228.025 224.35 229.488 224.539 230.149 224.68C230.573 224.775 230.809 224.775 231.139 224.775C231.47 224.775 231.658 225.011 231.658 225.199C231.658 225.53 231.375 225.624 230.856 225.624H226.893C224.581 225.624 223.449 225.388 222.364 224.822C220.571 223.926 219.014 222.038 216.703 218.925C215.051 216.754 213.306 214.065 212.787 213.452C212.551 213.216 212.315 213.169 212.032 213.169L208.305 213.074C208.116 213.074 207.974 213.169 207.974 213.405V213.971C207.974 217.698 208.022 220.812 208.21 222.51C208.352 223.69 208.541 224.444 209.814 224.633C210.428 224.728 211.324 224.775 211.843 224.775C212.173 224.775 212.362 225.011 212.362 225.199C212.362 225.482 212.032 225.624 211.513 225.624C209.107 225.624 205.663 225.482 205.049 225.482C204.247 225.482 201.605 225.624 199.954 225.624C199.435 225.624 199.152 225.482 199.152 225.199C199.152 225.011 199.293 224.775 199.812 224.775C200.426 224.775 200.898 224.728 201.275 224.633C202.124 224.444 202.36 223.69 202.502 222.51C202.69 220.812 202.69 217.651 202.69 213.971ZM207.974 198.071V210.008C207.974 210.432 208.069 210.574 208.352 210.715C209.248 210.998 210.475 211.093 211.513 211.093C213.164 211.093 213.73 210.951 214.438 210.432C215.712 209.536 217.127 207.79 217.127 204.488C217.127 198.826 213.258 197.364 210.805 197.364C209.767 197.364 208.776 197.411 208.352 197.505C208.069 197.6 207.974 197.741 207.974 198.071ZM240.459 206.894V208.687H240.648C242.063 207.177 248.102 201.232 249.329 199.864C250.508 198.543 251.405 197.6 251.405 196.892C251.405 196.467 251.216 196.184 250.839 196.09C250.461 195.996 250.273 195.901 250.273 195.665C250.273 195.382 250.508 195.288 250.933 195.288C251.829 195.288 254.094 195.382 255.226 195.382C256.5 195.382 258.812 195.288 260.086 195.288C260.51 195.288 260.793 195.382 260.793 195.665C260.793 195.948 260.558 196.09 260.18 196.09C259.567 196.09 258.529 196.279 257.774 196.562C256.453 197.033 255.132 197.883 253.386 199.534C252.065 200.761 245.885 206.611 244.611 208.073C246.074 209.961 254.236 218.453 255.84 219.962C257.68 221.614 259.284 223.359 261.501 224.256C262.728 224.775 263.577 224.775 264.049 224.775C264.379 224.775 264.615 224.963 264.615 225.199C264.615 225.482 264.379 225.624 263.624 225.624H259.991C258.765 225.624 258.01 225.624 257.114 225.53C254.896 225.341 253.528 224.492 251.735 222.935C249.942 221.378 241.969 212.131 241.073 210.904L240.648 210.338H240.459V213.971C240.459 217.651 240.459 220.812 240.554 222.557C240.648 223.69 241.025 224.444 242.063 224.633C242.63 224.728 243.573 224.775 244.092 224.775C244.422 224.775 244.658 225.011 244.658 225.199C244.658 225.482 244.328 225.624 243.856 225.624C241.544 225.624 238.572 225.482 237.534 225.482C236.591 225.482 233.949 225.624 232.297 225.624C231.778 225.624 231.495 225.482 231.495 225.199C231.495 225.011 231.637 224.775 232.156 224.775C232.769 224.775 233.241 224.728 233.618 224.633C234.468 224.444 234.703 223.69 234.845 222.51C235.034 220.812 235.034 217.651 235.034 213.971V206.894C235.034 200.808 235.034 199.676 234.987 198.402C234.892 197.033 234.515 196.609 233.194 196.231C232.864 196.137 232.156 196.09 231.543 196.09C231.118 196.09 230.835 195.948 230.835 195.665C230.835 195.382 231.165 195.288 231.778 195.288C233.949 195.288 236.591 195.382 237.581 195.382C238.572 195.382 241.544 195.288 242.913 195.288C243.526 195.288 243.809 195.382 243.809 195.665C243.809 195.948 243.573 196.09 243.243 196.09C242.818 196.09 242.582 196.137 242.063 196.231C240.931 196.42 240.601 196.986 240.507 198.402C240.459 199.676 240.459 200.808 240.459 206.894Z" fill="#FFF8F5"/>
<path d="M18.4728 247.715V240.161H23.2942V240.922H19.362V243.504H23.0692V244.265H19.362V246.954H23.2942V247.715H18.4728ZM24.79 247.715V242.476H25.6471V243.643H25.5614C25.6543 243.379 25.7829 243.154 25.9471 242.968C26.1186 242.783 26.3186 242.64 26.5471 242.54C26.7829 242.433 27.0436 242.379 27.3293 242.379C27.7793 242.379 28.1436 242.49 28.4221 242.711C28.7079 242.926 28.8936 243.243 28.9793 243.665H28.8721C29.0007 243.279 29.2257 242.968 29.5471 242.733C29.8757 242.497 30.2686 242.379 30.7257 242.379C31.1186 242.379 31.4436 242.458 31.7007 242.615C31.965 242.765 32.165 242.993 32.3007 243.301C32.4364 243.608 32.5043 243.993 32.5043 244.458V247.715H31.615V244.511C31.615 244.04 31.5293 243.693 31.3579 243.472C31.1936 243.243 30.9114 243.129 30.5114 243.129C30.2186 243.129 29.965 243.197 29.7507 243.333C29.5364 243.468 29.3721 243.661 29.2579 243.911C29.1436 244.154 29.0864 244.44 29.0864 244.768V247.715H28.1971V244.511C28.1971 244.04 28.1114 243.693 27.94 243.472C27.7686 243.243 27.49 243.129 27.1043 243.129C26.8114 243.129 26.5579 243.201 26.3436 243.343C26.1293 243.479 25.965 243.672 25.8507 243.922C25.7364 244.165 25.6793 244.443 25.6793 244.758V247.715H24.79ZM34.2064 249.643V242.476H35.0635V243.686H34.9885C35.1171 243.286 35.3492 242.968 35.6849 242.733C36.0278 242.497 36.4349 242.379 36.9064 242.379C37.3778 242.379 37.7885 242.49 38.1385 242.711C38.4885 242.933 38.7599 243.247 38.9528 243.654C39.1456 244.061 39.2421 244.54 39.2421 245.09C39.2421 245.64 39.1456 246.118 38.9528 246.526C38.7671 246.933 38.4992 247.251 38.1492 247.479C37.7992 247.701 37.3849 247.811 36.9064 247.811C36.4421 247.811 36.0421 247.697 35.7064 247.468C35.3778 247.233 35.1492 246.922 35.0206 246.536H35.0956V249.643H34.2064ZM36.7135 247.083C37.2135 247.083 37.6099 246.911 37.9028 246.568C38.1956 246.218 38.3421 245.726 38.3421 245.09C38.3421 244.454 38.1956 243.965 37.9028 243.622C37.6099 243.279 37.2135 243.108 36.7135 243.108C36.2206 243.108 35.8242 243.279 35.5242 243.622C35.2314 243.965 35.0849 244.454 35.0849 245.09C35.0849 245.726 35.2314 246.218 35.5242 246.568C35.8242 246.911 36.2206 247.083 36.7135 247.083ZM42.8483 247.811C42.3341 247.811 41.8876 247.701 41.5091 247.479C41.1305 247.251 40.8376 246.933 40.6305 246.526C40.4233 246.118 40.3198 245.64 40.3198 245.09C40.3198 244.54 40.4233 244.065 40.6305 243.665C40.8376 243.258 41.1305 242.943 41.5091 242.722C41.8876 242.493 42.3341 242.379 42.8483 242.379C43.3698 242.379 43.8162 242.493 44.1876 242.722C44.5662 242.943 44.8591 243.258 45.0662 243.665C45.2733 244.065 45.3769 244.54 45.3769 245.09C45.3769 245.64 45.2733 246.118 45.0662 246.526C44.8591 246.933 44.5662 247.251 44.1876 247.479C43.8162 247.701 43.3698 247.811 42.8483 247.811ZM42.8483 247.072C43.3483 247.072 43.7448 246.901 44.0376 246.558C44.3305 246.208 44.4769 245.718 44.4769 245.09C44.4769 244.461 44.3305 243.976 44.0376 243.633C43.7448 243.29 43.3483 243.118 42.8483 243.118C42.3555 243.118 41.9591 243.29 41.6591 243.633C41.3662 243.976 41.2198 244.461 41.2198 245.09C41.2198 245.718 41.3662 246.208 41.6591 246.558C41.9591 246.901 42.3555 247.072 42.8483 247.072ZM48.0384 247.715L46.1313 242.476H47.0527L48.5956 246.965H48.4027L50.0313 242.476H50.792L52.3991 246.965H52.2063L53.7706 242.476H54.6598L52.742 247.715H51.8956L50.2241 243.129H50.567L48.8956 247.715H48.0384ZM58.1293 247.811C57.5651 247.811 57.0793 247.704 56.6722 247.49C56.2651 247.268 55.9508 246.958 55.7293 246.558C55.5079 246.151 55.3972 245.665 55.3972 245.101C55.3972 244.565 55.5043 244.093 55.7186 243.686C55.9329 243.279 56.2293 242.961 56.6079 242.733C56.9936 242.497 57.4401 242.379 57.9472 242.379C58.4329 242.379 58.8472 242.486 59.1901 242.701C59.5329 242.908 59.7972 243.208 59.9829 243.601C60.1686 243.986 60.2615 244.447 60.2615 244.983V245.304H56.0829V244.704H59.6722L59.4901 244.865C59.4901 244.293 59.3579 243.851 59.0936 243.536C58.8365 243.215 58.4579 243.054 57.9579 243.054C57.6079 243.054 57.3043 243.136 57.0472 243.301C56.7901 243.465 56.5936 243.693 56.4579 243.986C56.3293 244.279 56.2651 244.622 56.2651 245.015V245.09C56.2651 245.526 56.3365 245.893 56.4793 246.193C56.6293 246.486 56.8436 246.708 57.1222 246.858C57.4008 247.008 57.7401 247.083 58.1401 247.083C58.4401 247.083 58.7365 247.036 59.0293 246.943C59.3222 246.851 59.6008 246.697 59.8651 246.483L60.1651 247.115C59.9151 247.336 59.6043 247.508 59.2329 247.629C58.8686 247.751 58.5008 247.811 58.1293 247.811ZM61.6094 247.715V242.476H62.4665V243.708H62.3915C62.5201 243.293 62.7344 242.979 63.0344 242.765C63.3415 242.543 63.738 242.415 64.2237 242.379L64.588 242.347L64.663 243.14L64.0415 243.204C63.5558 243.247 63.1773 243.404 62.9058 243.676C62.6415 243.947 62.5094 244.308 62.5094 244.758V247.715H61.6094ZM65.541 241.19V240.193H66.6446V241.19H65.541ZM65.6482 247.715V242.476H66.5375V247.715H65.6482ZM68.2535 247.715V242.476H69.1106V243.633H69.0356C69.1928 243.226 69.4392 242.915 69.7749 242.701C70.1178 242.486 70.5106 242.379 70.9535 242.379C71.3749 242.379 71.7249 242.454 72.0035 242.604C72.2821 242.754 72.4892 242.986 72.6249 243.301C72.7678 243.608 72.8392 243.993 72.8392 244.458V247.715H71.9499V244.511C71.9499 244.204 71.9071 243.951 71.8214 243.751C71.7428 243.543 71.6142 243.39 71.4356 243.29C71.2571 243.183 71.0285 243.129 70.7499 243.129C70.4285 243.129 70.1464 243.197 69.9035 243.333C69.6678 243.468 69.4821 243.661 69.3464 243.911C69.2106 244.154 69.1428 244.433 69.1428 244.747V247.715H68.2535ZM76.835 249.74C76.3921 249.74 75.9707 249.679 75.5707 249.558C75.1707 249.436 74.8171 249.261 74.51 249.033L74.81 248.368C75.0171 248.511 75.2278 248.629 75.4421 248.722C75.6564 248.822 75.8743 248.893 76.0957 248.936C76.3243 248.979 76.56 249.001 76.8028 249.001C77.3243 249.001 77.7207 248.865 77.9921 248.593C78.2707 248.322 78.41 247.929 78.41 247.415V246.279H78.4743C78.3671 246.679 78.1386 246.997 77.7886 247.233C77.4457 247.468 77.0457 247.586 76.5886 247.586C76.11 247.586 75.6921 247.479 75.335 247.265C74.9778 247.043 74.6993 246.736 74.4993 246.343C74.3064 245.951 74.21 245.497 74.21 244.983C74.21 244.461 74.3064 244.008 74.4993 243.622C74.6993 243.229 74.9778 242.926 75.335 242.711C75.6921 242.49 76.11 242.379 76.5886 242.379C77.0528 242.379 77.4564 242.497 77.7993 242.733C78.1421 242.968 78.3671 243.29 78.4743 243.697H78.41V242.476H79.2778V247.308C79.2778 247.829 79.1814 248.272 78.9886 248.636C78.8028 249.001 78.5278 249.276 78.1636 249.461C77.8064 249.647 77.3636 249.74 76.835 249.74ZM76.76 246.858C77.26 246.858 77.6564 246.69 77.9493 246.354C78.2493 246.011 78.3993 245.551 78.3993 244.972C78.3993 244.401 78.2493 243.947 77.9493 243.611C77.6564 243.276 77.26 243.108 76.76 243.108C76.2528 243.108 75.8493 243.276 75.5493 243.611C75.2564 243.947 75.11 244.401 75.11 244.972C75.11 245.551 75.2564 246.011 75.5493 246.354C75.8493 246.69 76.2528 246.858 76.76 246.858ZM87.198 247.811C86.4622 247.811 85.8301 247.654 85.3015 247.34C84.773 247.026 84.3658 246.579 84.0801 246.001C83.7944 245.422 83.6515 244.733 83.6515 243.933C83.6515 243.133 83.7944 242.447 84.0801 241.876C84.3658 241.297 84.773 240.851 85.3015 240.536C85.8301 240.222 86.4622 240.065 87.198 240.065C87.7194 240.065 88.2015 240.147 88.6444 240.311C89.0872 240.476 89.4587 240.715 89.7587 241.029L89.4158 241.747C89.0872 241.447 88.7444 241.229 88.3872 241.093C88.0372 240.958 87.648 240.89 87.2194 240.89C86.3837 240.89 85.7408 241.154 85.2908 241.683C84.8408 242.204 84.6158 242.954 84.6158 243.933C84.6158 244.904 84.8408 245.658 85.2908 246.193C85.7408 246.722 86.3837 246.986 87.2194 246.986C87.648 246.986 88.0372 246.918 88.3872 246.783C88.7444 246.647 89.0872 246.429 89.4158 246.129L89.7587 246.847C89.4587 247.161 89.0872 247.401 88.6444 247.565C88.2015 247.729 87.7194 247.811 87.198 247.811ZM92.9565 247.811C92.4422 247.811 91.9958 247.701 91.6172 247.479C91.2386 247.251 90.9458 246.933 90.7386 246.526C90.5315 246.118 90.4279 245.64 90.4279 245.09C90.4279 244.54 90.5315 244.065 90.7386 243.665C90.9458 243.258 91.2386 242.943 91.6172 242.722C91.9958 242.493 92.4422 242.379 92.9565 242.379C93.4779 242.379 93.9243 242.493 94.2958 242.722C94.6743 242.943 94.9672 243.258 95.1743 243.665C95.3815 244.065 95.485 244.54 95.485 245.09C95.485 245.64 95.3815 246.118 95.1743 246.526C94.9672 246.933 94.6743 247.251 94.2958 247.479C93.9243 247.701 93.4779 247.811 92.9565 247.811ZM92.9565 247.072C93.4565 247.072 93.8529 246.901 94.1458 246.558C94.4386 246.208 94.585 245.718 94.585 245.09C94.585 244.461 94.4386 243.976 94.1458 243.633C93.8529 243.29 93.4565 243.118 92.9565 243.118C92.4636 243.118 92.0672 243.29 91.7672 243.633C91.4743 243.976 91.3279 244.461 91.3279 245.09C91.3279 245.718 91.4743 246.208 91.7672 246.558C92.0672 246.901 92.4636 247.072 92.9565 247.072ZM96.9126 247.715V242.476H97.7698V243.643H97.6841C97.7769 243.379 97.9055 243.154 98.0698 242.968C98.2412 242.783 98.4412 242.64 98.6698 242.54C98.9055 242.433 99.1662 242.379 99.4519 242.379C99.9019 242.379 100.266 242.49 100.545 242.711C100.83 242.926 101.016 243.243 101.102 243.665H100.995C101.123 243.279 101.348 242.968 101.67 242.733C101.998 242.497 102.391 242.379 102.848 242.379C103.241 242.379 103.566 242.458 103.823 242.615C104.088 242.765 104.288 242.993 104.423 243.301C104.559 243.608 104.627 243.993 104.627 244.458V247.715H103.738V244.511C103.738 244.04 103.652 243.693 103.48 243.472C103.316 243.243 103.034 243.129 102.634 243.129C102.341 243.129 102.088 243.197 101.873 243.333C101.659 243.468 101.495 243.661 101.38 243.911C101.266 244.154 101.209 244.44 101.209 244.768V247.715H100.32V244.511C100.32 244.04 100.234 243.693 100.063 243.472C99.8912 243.243 99.6126 243.129 99.2269 243.129C98.9341 243.129 98.6805 243.201 98.4662 243.343C98.2519 243.479 98.0876 243.672 97.9733 243.922C97.8591 244.165 97.8019 244.443 97.8019 244.758V247.715H96.9126ZM106.35 247.715V242.476H107.208V243.643H107.122C107.215 243.379 107.343 243.154 107.508 242.968C107.679 242.783 107.879 242.64 108.108 242.54C108.343 242.433 108.604 242.379 108.89 242.379C109.34 242.379 109.704 242.49 109.983 242.711C110.268 242.926 110.454 243.243 110.54 243.665H110.433C110.561 243.279 110.786 242.968 111.108 242.733C111.436 242.497 111.829 242.379 112.286 242.379C112.679 242.379 113.004 242.458 113.261 242.615C113.525 242.765 113.725 242.993 113.861 243.301C113.997 243.608 114.065 243.993 114.065 244.458V247.715H113.175V244.511C113.175 244.04 113.09 243.693 112.918 243.472C112.754 243.243 112.472 243.129 112.072 243.129C111.779 243.129 111.525 243.197 111.311 243.333C111.097 243.468 110.933 243.661 110.818 243.911C110.704 244.154 110.647 244.44 110.647 244.768V247.715H109.758V244.511C109.758 244.04 109.672 243.693 109.5 243.472C109.329 243.243 109.05 243.129 108.665 243.129C108.372 243.129 108.118 243.201 107.904 243.343C107.69 243.479 107.525 243.672 107.411 243.922C107.297 244.165 107.24 244.443 107.24 244.758V247.715H106.35ZM117.663 247.811C117.235 247.811 116.877 247.733 116.592 247.576C116.306 247.418 116.092 247.186 115.949 246.879C115.813 246.572 115.745 246.19 115.745 245.733V242.476H116.635V245.701C116.635 246.001 116.674 246.254 116.752 246.461C116.838 246.661 116.97 246.811 117.149 246.911C117.327 247.011 117.556 247.061 117.835 247.061C118.135 247.061 118.399 246.993 118.627 246.858C118.856 246.722 119.035 246.533 119.163 246.29C119.299 246.04 119.367 245.758 119.367 245.443V242.476H120.256V247.715H119.399V246.526H119.495C119.345 246.94 119.11 247.258 118.788 247.479C118.467 247.701 118.092 247.811 117.663 247.811ZM121.971 247.715V242.476H122.829V243.633H122.754C122.911 243.226 123.157 242.915 123.493 242.701C123.836 242.486 124.229 242.379 124.671 242.379C125.093 242.379 125.443 242.454 125.721 242.604C126 242.754 126.207 242.986 126.343 243.301C126.486 243.608 126.557 243.993 126.557 244.458V247.715H125.668V244.511C125.668 244.204 125.625 243.951 125.539 243.751C125.461 243.543 125.332 243.39 125.154 243.29C124.975 243.183 124.746 243.129 124.468 243.129C124.146 243.129 123.864 243.197 123.621 243.333C123.386 243.468 123.2 243.661 123.064 243.911C122.929 244.154 122.861 244.433 122.861 244.747V247.715H121.971ZM128.142 241.19V240.193H129.246V241.19H128.142ZM128.249 247.715V242.476H129.139V247.715H128.249ZM132.987 247.811C132.365 247.811 131.898 247.647 131.583 247.318C131.276 246.983 131.123 246.508 131.123 245.893V243.193H130.083V242.476H131.133V240.89H132.012V242.476H133.748V243.193H132.012V245.818C132.012 246.218 132.098 246.522 132.269 246.729C132.448 246.936 132.73 247.04 133.115 247.04C133.244 247.04 133.369 247.026 133.49 246.997C133.612 246.968 133.723 246.936 133.823 246.901L133.983 247.586C133.869 247.651 133.719 247.704 133.533 247.747C133.348 247.79 133.165 247.811 132.987 247.811ZM134.734 241.19V240.193H135.838V241.19H134.734ZM134.841 247.715V242.476H135.73V247.715H134.841ZM139.857 247.811C139.293 247.811 138.807 247.704 138.4 247.49C137.993 247.268 137.679 246.958 137.457 246.558C137.236 246.151 137.125 245.665 137.125 245.101C137.125 244.565 137.232 244.093 137.446 243.686C137.661 243.279 137.957 242.961 138.336 242.733C138.721 242.497 139.168 242.379 139.675 242.379C140.161 242.379 140.575 242.486 140.918 242.701C141.261 242.908 141.525 243.208 141.711 243.601C141.896 243.986 141.989 244.447 141.989 244.983V245.304H137.811V244.704H141.4L141.218 244.865C141.218 244.293 141.086 243.851 140.821 243.536C140.564 243.215 140.186 243.054 139.686 243.054C139.336 243.054 139.032 243.136 138.775 243.301C138.518 243.465 138.321 243.693 138.186 243.986C138.057 244.279 137.993 244.622 137.993 245.015V245.09C137.993 245.526 138.064 245.893 138.207 246.193C138.357 246.486 138.571 246.708 138.85 246.858C139.129 247.008 139.468 247.083 139.868 247.083C140.168 247.083 140.464 247.036 140.757 246.943C141.05 246.851 141.329 246.697 141.593 246.483L141.893 247.115C141.643 247.336 141.332 247.508 140.961 247.629C140.596 247.751 140.229 247.811 139.857 247.811ZM145.159 247.811C144.88 247.811 144.609 247.783 144.344 247.726C144.08 247.676 143.837 247.604 143.616 247.511C143.394 247.411 143.202 247.293 143.037 247.158L143.327 246.526C143.498 246.661 143.687 246.772 143.894 246.858C144.102 246.943 144.312 247.008 144.527 247.051C144.741 247.093 144.955 247.115 145.169 247.115C145.584 247.115 145.902 247.043 146.123 246.901C146.344 246.751 146.455 246.551 146.455 246.301C146.455 246.093 146.384 245.933 146.241 245.818C146.105 245.704 145.887 245.618 145.587 245.561L144.569 245.358C144.105 245.258 143.759 245.093 143.53 244.865C143.302 244.629 143.187 244.326 143.187 243.954C143.187 243.633 143.273 243.354 143.444 243.118C143.616 242.883 143.859 242.701 144.173 242.572C144.487 242.443 144.855 242.379 145.277 242.379C145.519 242.379 145.759 242.404 145.994 242.454C146.23 242.504 146.452 242.579 146.659 242.679C146.866 242.772 147.037 242.893 147.173 243.043L146.884 243.665C146.741 243.536 146.58 243.429 146.402 243.343C146.223 243.258 146.037 243.193 145.844 243.151C145.652 243.101 145.462 243.076 145.277 243.076C144.877 243.076 144.566 243.154 144.344 243.311C144.13 243.461 144.023 243.661 144.023 243.911C144.023 244.118 144.087 244.283 144.216 244.404C144.344 244.526 144.552 244.615 144.837 244.672L145.844 244.876C146.33 244.976 146.691 245.136 146.927 245.358C147.169 245.579 147.291 245.879 147.291 246.258C147.291 246.579 147.202 246.858 147.023 247.093C146.852 247.322 146.605 247.501 146.284 247.629C145.962 247.751 145.587 247.811 145.159 247.811ZM148.974 249.043L148.546 248.711C148.674 248.576 148.771 248.443 148.835 248.315C148.906 248.186 148.956 248.054 148.985 247.918C149.013 247.79 149.031 247.665 149.038 247.543L149.221 247.715H148.492V246.59H149.628V247.404C149.628 247.604 149.606 247.797 149.563 247.983C149.521 248.176 149.453 248.358 149.36 248.529C149.267 248.708 149.138 248.879 148.974 249.043ZM154.149 247.715V240.161H156.742C157.556 240.161 158.245 240.308 158.809 240.601C159.374 240.886 159.802 241.311 160.095 241.876C160.395 242.433 160.545 243.118 160.545 243.933C160.545 244.747 160.395 245.436 160.095 246.001C159.802 246.558 159.37 246.983 158.799 247.276C158.234 247.568 157.549 247.715 156.742 247.715H154.149ZM155.059 246.933H156.677C157.649 246.933 158.377 246.683 158.863 246.183C159.356 245.683 159.602 244.933 159.602 243.933C159.602 242.933 159.356 242.186 158.863 241.693C158.377 241.193 157.649 240.943 156.677 240.943H155.059V246.933ZM164.519 247.811C163.955 247.811 163.469 247.704 163.062 247.49C162.655 247.268 162.34 246.958 162.119 246.558C161.897 246.151 161.787 245.665 161.787 245.101C161.787 244.565 161.894 244.093 162.108 243.686C162.322 243.279 162.619 242.961 162.997 242.733C163.383 242.497 163.83 242.379 164.337 242.379C164.822 242.379 165.237 242.486 165.58 242.701C165.922 242.908 166.187 243.208 166.372 243.601C166.558 243.986 166.651 244.447 166.651 244.983V245.304H162.472V244.704H166.062L165.88 244.865C165.88 244.293 165.747 243.851 165.483 243.536C165.226 243.215 164.847 243.054 164.347 243.054C163.997 243.054 163.694 243.136 163.437 243.301C163.18 243.465 162.983 243.693 162.847 243.986C162.719 244.279 162.655 244.622 162.655 245.015V245.09C162.655 245.526 162.726 245.893 162.869 246.193C163.019 246.486 163.233 246.708 163.512 246.858C163.79 247.008 164.13 247.083 164.53 247.083C164.83 247.083 165.126 247.036 165.419 246.943C165.712 246.851 165.99 246.697 166.255 246.483L166.555 247.115C166.305 247.336 165.994 247.508 165.622 247.629C165.258 247.751 164.89 247.811 164.519 247.811ZM168.02 247.715V242.476H168.877V243.643H168.792C168.885 243.379 169.013 243.154 169.177 242.968C169.349 242.783 169.549 242.64 169.777 242.54C170.013 242.433 170.274 242.379 170.56 242.379C171.01 242.379 171.374 242.49 171.652 242.711C171.938 242.926 172.124 243.243 172.21 243.665H172.102C172.231 243.279 172.456 242.968 172.777 242.733C173.106 242.497 173.499 242.379 173.956 242.379C174.349 242.379 174.674 242.458 174.931 242.615C175.195 242.765 175.395 242.993 175.531 243.301C175.667 243.608 175.735 243.993 175.735 244.458V247.715H174.845V244.511C174.845 244.04 174.76 243.693 174.588 243.472C174.424 243.243 174.142 243.129 173.742 243.129C173.449 243.129 173.195 243.197 172.981 243.333C172.767 243.468 172.602 243.661 172.488 243.911C172.374 244.154 172.317 244.44 172.317 244.768V247.715H171.427V244.511C171.427 244.04 171.342 243.693 171.17 243.472C170.999 243.243 170.72 243.129 170.335 243.129C170.042 243.129 169.788 243.201 169.574 243.343C169.36 243.479 169.195 243.672 169.081 243.922C168.967 244.165 168.91 244.443 168.91 244.758V247.715H168.02ZM179.644 247.811C179.13 247.811 178.683 247.701 178.305 247.479C177.926 247.251 177.633 246.933 177.426 246.526C177.219 246.118 177.115 245.64 177.115 245.09C177.115 244.54 177.219 244.065 177.426 243.665C177.633 243.258 177.926 242.943 178.305 242.722C178.683 242.493 179.13 242.379 179.644 242.379C180.165 242.379 180.612 242.493 180.983 242.722C181.362 242.943 181.655 243.258 181.862 243.665C182.069 244.065 182.172 244.54 182.172 245.09C182.172 245.64 182.069 246.118 181.862 246.526C181.655 246.933 181.362 247.251 180.983 247.479C180.612 247.701 180.165 247.811 179.644 247.811ZM179.644 247.072C180.144 247.072 180.54 246.901 180.833 246.558C181.126 246.208 181.272 245.718 181.272 245.09C181.272 244.461 181.126 243.976 180.833 243.633C180.54 243.29 180.144 243.118 179.644 243.118C179.151 243.118 178.755 243.29 178.455 243.633C178.162 243.976 178.015 244.461 178.015 245.09C178.015 245.718 178.162 246.208 178.455 246.558C178.755 246.901 179.151 247.072 179.644 247.072ZM185.839 247.811C185.311 247.811 184.854 247.697 184.468 247.468C184.082 247.24 183.782 246.922 183.568 246.515C183.361 246.101 183.257 245.618 183.257 245.068C183.257 244.518 183.361 244.043 183.568 243.643C183.782 243.236 184.082 242.926 184.468 242.711C184.854 242.49 185.311 242.379 185.839 242.379C186.175 242.379 186.5 242.44 186.814 242.561C187.136 242.676 187.404 242.836 187.618 243.043L187.307 243.697C187.093 243.504 186.861 243.361 186.611 243.268C186.368 243.176 186.129 243.129 185.893 243.129C185.35 243.129 184.925 243.297 184.618 243.633C184.318 243.968 184.168 244.451 184.168 245.079C184.168 245.701 184.318 246.186 184.618 246.536C184.925 246.886 185.35 247.061 185.893 247.061C186.121 247.061 186.361 247.015 186.611 246.922C186.861 246.829 187.089 246.686 187.296 246.493L187.607 247.147C187.4 247.354 187.136 247.518 186.814 247.64C186.493 247.754 186.168 247.811 185.839 247.811ZM188.685 247.715V242.476H189.542V243.708H189.467C189.595 243.293 189.81 242.979 190.11 242.765C190.417 242.543 190.813 242.415 191.299 242.379L191.663 242.347L191.738 243.14L191.117 243.204C190.631 243.247 190.252 243.404 189.981 243.676C189.717 243.947 189.585 244.308 189.585 244.758V247.715H188.685ZM194.353 247.811C193.989 247.811 193.66 247.743 193.367 247.608C193.082 247.465 192.857 247.272 192.692 247.029C192.528 246.786 192.446 246.515 192.446 246.215C192.446 245.822 192.546 245.515 192.746 245.293C192.953 245.065 193.289 244.904 193.753 244.811C194.217 244.711 194.835 244.661 195.607 244.661H196.175V245.261H195.628C195.2 245.261 194.839 245.276 194.546 245.304C194.253 245.333 194.017 245.383 193.839 245.454C193.667 245.518 193.542 245.608 193.464 245.722C193.385 245.836 193.346 245.983 193.346 246.161C193.346 246.454 193.45 246.69 193.657 246.868C193.871 247.047 194.153 247.136 194.503 247.136C194.796 247.136 195.057 247.068 195.285 246.933C195.514 246.79 195.696 246.601 195.832 246.365C195.967 246.129 196.035 245.861 196.035 245.561V244.34C196.035 243.904 195.935 243.59 195.735 243.397C195.535 243.197 195.225 243.097 194.803 243.097C194.489 243.097 194.182 243.143 193.882 243.236C193.589 243.322 193.282 243.465 192.96 243.665L192.66 243.011C192.86 242.883 193.078 242.772 193.314 242.679C193.557 242.579 193.807 242.504 194.064 242.454C194.328 242.404 194.585 242.379 194.835 242.379C195.285 242.379 195.664 242.454 195.971 242.604C196.278 242.747 196.51 242.968 196.667 243.268C196.825 243.561 196.903 243.943 196.903 244.415V247.715H196.078V246.515H196.142C196.071 246.772 195.95 247.001 195.778 247.201C195.614 247.393 195.41 247.543 195.167 247.651C194.932 247.758 194.66 247.811 194.353 247.811ZM200.715 247.811C200.093 247.811 199.626 247.647 199.311 247.318C199.004 246.983 198.851 246.508 198.851 245.893V243.193H197.811V242.476H198.861V240.89H199.74V242.476H201.476V243.193H199.74V245.818C199.74 246.218 199.826 246.522 199.997 246.729C200.176 246.936 200.458 247.04 200.843 247.04C200.972 247.04 201.097 247.026 201.218 246.997C201.34 246.968 201.451 246.936 201.551 246.901L201.711 247.586C201.597 247.651 201.447 247.704 201.261 247.747C201.076 247.79 200.893 247.811 200.715 247.811ZM202.462 241.19V240.193H203.566V241.19H202.462ZM202.569 247.715V242.476H203.459V247.715H202.569ZM206.996 247.811C206.717 247.811 206.446 247.783 206.182 247.726C205.917 247.676 205.675 247.604 205.453 247.511C205.232 247.411 205.039 247.293 204.875 247.158L205.164 246.526C205.335 246.661 205.525 246.772 205.732 246.858C205.939 246.943 206.15 247.008 206.364 247.051C206.578 247.093 206.792 247.115 207.007 247.115C207.421 247.115 207.739 247.043 207.96 246.901C208.182 246.751 208.292 246.551 208.292 246.301C208.292 246.093 208.221 245.933 208.078 245.818C207.942 245.704 207.725 245.618 207.425 245.561L206.407 245.358C205.942 245.258 205.596 245.093 205.367 244.865C205.139 244.629 205.025 244.326 205.025 243.954C205.025 243.633 205.11 243.354 205.282 243.118C205.453 242.883 205.696 242.701 206.01 242.572C206.325 242.443 206.692 242.379 207.114 242.379C207.357 242.379 207.596 242.404 207.832 242.454C208.067 242.504 208.289 242.579 208.496 242.679C208.703 242.772 208.875 242.893 209.01 243.043L208.721 243.665C208.578 243.536 208.417 243.429 208.239 243.343C208.06 243.258 207.875 243.193 207.682 243.151C207.489 243.101 207.3 243.076 207.114 243.076C206.714 243.076 206.403 243.154 206.182 243.311C205.967 243.461 205.86 243.661 205.86 243.911C205.86 244.118 205.925 244.283 206.053 244.404C206.182 244.526 206.389 244.615 206.675 244.672L207.682 244.876C208.167 244.976 208.528 245.136 208.764 245.358C209.007 245.579 209.128 245.879 209.128 246.258C209.128 246.579 209.039 246.858 208.86 247.093C208.689 247.322 208.442 247.501 208.121 247.629C207.8 247.751 207.425 247.811 206.996 247.811ZM210.425 241.19V240.193H211.528V241.19H210.425ZM210.532 247.715V242.476H211.421V247.715H210.532ZM213.137 247.715V242.476H213.994V243.633H213.919C214.076 243.226 214.323 242.915 214.658 242.701C215.001 242.486 215.394 242.379 215.837 242.379C216.258 242.379 216.608 242.454 216.887 242.604C217.166 242.754 217.373 242.986 217.508 243.301C217.651 243.608 217.723 243.993 217.723 244.458V247.715H216.833V244.511C216.833 244.204 216.791 243.951 216.705 243.751C216.626 243.543 216.498 243.39 216.319 243.29C216.141 243.183 215.912 243.129 215.633 243.129C215.312 243.129 215.03 243.197 214.787 243.333C214.551 243.468 214.366 243.661 214.23 243.911C214.094 244.154 214.026 244.433 214.026 244.747V247.715H213.137ZM221.718 249.74C221.276 249.74 220.854 249.679 220.454 249.558C220.054 249.436 219.701 249.261 219.393 249.033L219.693 248.368C219.901 248.511 220.111 248.629 220.326 248.722C220.54 248.822 220.758 248.893 220.979 248.936C221.208 248.979 221.443 249.001 221.686 249.001C222.208 249.001 222.604 248.865 222.876 248.593C223.154 248.322 223.293 247.929 223.293 247.415V246.279H223.358C223.251 246.679 223.022 246.997 222.672 247.233C222.329 247.468 221.929 247.586 221.472 247.586C220.993 247.586 220.576 247.479 220.218 247.265C219.861 247.043 219.583 246.736 219.383 246.343C219.19 245.951 219.093 245.497 219.093 244.983C219.093 244.461 219.19 244.008 219.383 243.622C219.583 243.229 219.861 242.926 220.218 242.711C220.576 242.49 220.993 242.379 221.472 242.379C221.936 242.379 222.34 242.497 222.683 242.733C223.026 242.968 223.251 243.29 223.358 243.697H223.293V242.476H224.161V247.308C224.161 247.829 224.065 248.272 223.872 248.636C223.686 249.001 223.411 249.276 223.047 249.461C222.69 249.647 222.247 249.74 221.718 249.74ZM221.643 246.858C222.143 246.858 222.54 246.69 222.833 246.354C223.133 246.011 223.283 245.551 223.283 244.972C223.283 244.401 223.133 243.947 222.833 243.611C222.54 243.276 222.143 243.108 221.643 243.108C221.136 243.108 220.733 243.276 220.433 243.611C220.14 243.947 219.993 244.401 219.993 244.972C219.993 245.551 220.14 246.011 220.433 246.354C220.733 246.69 221.136 246.858 221.643 246.858ZM230.678 247.715V240.954H227.946V240.161H234.321V240.954H231.589V247.715H230.678ZM236.882 247.811C236.318 247.811 235.832 247.704 235.425 247.49C235.018 247.268 234.704 246.958 234.482 246.558C234.261 246.151 234.15 245.665 234.15 245.101C234.15 244.565 234.257 244.093 234.471 243.686C234.686 243.279 234.982 242.961 235.361 242.733C235.746 242.497 236.193 242.379 236.7 242.379C237.186 242.379 237.6 242.486 237.943 242.701C238.286 242.908 238.55 243.208 238.736 243.601C238.921 243.986 239.014 244.447 239.014 244.983V245.304H234.836V244.704H238.425L238.243 244.865C238.243 244.293 238.111 243.851 237.846 243.536C237.589 243.215 237.211 243.054 236.711 243.054C236.361 243.054 236.057 243.136 235.8 243.301C235.543 243.465 235.346 243.693 235.211 243.986C235.082 244.279 235.018 244.622 235.018 245.015V245.09C235.018 245.526 235.089 245.893 235.232 246.193C235.382 246.486 235.596 246.708 235.875 246.858C236.154 247.008 236.493 247.083 236.893 247.083C237.193 247.083 237.489 247.036 237.782 246.943C238.075 246.851 238.354 246.697 238.618 246.483L238.918 247.115C238.668 247.336 238.357 247.508 237.986 247.629C237.621 247.751 237.254 247.811 236.882 247.811ZM242.623 247.811C242.094 247.811 241.637 247.697 241.251 247.468C240.866 247.24 240.566 246.922 240.351 246.515C240.144 246.101 240.041 245.618 240.041 245.068C240.041 244.518 240.144 244.043 240.351 243.643C240.566 243.236 240.866 242.926 241.251 242.711C241.637 242.49 242.094 242.379 242.623 242.379C242.959 242.379 243.284 242.44 243.598 242.561C243.919 242.676 244.187 242.836 244.401 243.043L244.091 243.697C243.876 243.504 243.644 243.361 243.394 243.268C243.151 243.176 242.912 243.129 242.676 243.129C242.134 243.129 241.709 243.297 241.401 243.633C241.101 243.968 240.951 244.451 240.951 245.079C240.951 245.701 241.101 246.186 241.401 246.536C241.709 246.886 242.134 247.061 242.676 247.061C242.905 247.061 243.144 247.015 243.394 246.922C243.644 246.829 243.873 246.686 244.08 246.493L244.391 247.147C244.184 247.354 243.919 247.518 243.598 247.64C243.276 247.754 242.951 247.811 242.623 247.811ZM245.468 247.715V240.161H246.358V243.622H246.261C246.411 243.222 246.654 242.915 246.99 242.701C247.333 242.486 247.725 242.379 248.168 242.379C248.59 242.379 248.94 242.458 249.218 242.615C249.497 242.765 249.704 242.993 249.84 243.301C249.983 243.608 250.054 243.993 250.054 244.458V247.715H249.165V244.511C249.165 244.204 249.122 243.951 249.036 243.751C248.95 243.543 248.818 243.39 248.64 243.29C248.468 243.183 248.243 243.129 247.965 243.129C247.643 243.129 247.361 243.197 247.118 243.333C246.883 243.468 246.697 243.661 246.561 243.911C246.425 244.154 246.358 244.433 246.358 244.747V247.715H245.468ZM251.746 247.715V242.476H252.603V243.633H252.528C252.685 243.226 252.932 242.915 253.268 242.701C253.61 242.486 254.003 242.379 254.446 242.379C254.868 242.379 255.218 242.454 255.496 242.604C255.775 242.754 255.982 242.986 256.118 243.301C256.26 243.608 256.332 243.993 256.332 244.458V247.715H255.443V244.511C255.443 244.204 255.4 243.951 255.314 243.751C255.235 243.543 255.107 243.39 254.928 243.29C254.75 243.183 254.521 243.129 254.243 243.129C253.921 243.129 253.639 243.197 253.396 243.333C253.16 243.468 252.975 243.661 252.839 243.911C252.703 244.154 252.635 244.433 252.635 244.747V247.715H251.746ZM260.231 247.811C259.717 247.811 259.27 247.701 258.892 247.479C258.513 247.251 258.22 246.933 258.013 246.526C257.806 246.118 257.703 245.64 257.703 245.09C257.703 244.54 257.806 244.065 258.013 243.665C258.22 243.258 258.513 242.943 258.892 242.722C259.27 242.493 259.717 242.379 260.231 242.379C260.753 242.379 261.199 242.493 261.57 242.722C261.949 242.943 262.242 243.258 262.449 243.665C262.656 244.065 262.76 244.54 262.76 245.09C262.76 245.64 262.656 246.118 262.449 246.526C262.242 246.933 261.949 247.251 261.57 247.479C261.199 247.701 260.753 247.811 260.231 247.811ZM260.231 247.072C260.731 247.072 261.128 246.901 261.42 246.558C261.713 246.208 261.86 245.718 261.86 245.09C261.86 244.461 261.713 243.976 261.42 243.633C261.128 243.29 260.731 243.118 260.231 243.118C259.738 243.118 259.342 243.29 259.042 243.633C258.749 243.976 258.603 244.461 258.603 245.09C258.603 245.718 258.749 246.208 259.042 246.558C259.342 246.901 259.738 247.072 260.231 247.072ZM265.773 247.811C265.244 247.811 264.844 247.658 264.573 247.351C264.302 247.043 264.166 246.604 264.166 246.033V240.161H265.055V245.947C265.055 246.19 265.087 246.393 265.152 246.558C265.223 246.722 265.323 246.847 265.452 246.933C265.587 247.011 265.752 247.051 265.944 247.051C266.037 247.051 266.127 247.047 266.212 247.04C266.298 247.033 266.384 247.015 266.469 246.986L266.448 247.715C266.334 247.751 266.223 247.776 266.116 247.79C266.009 247.804 265.894 247.811 265.773 247.811ZM269.585 247.811C269.071 247.811 268.625 247.701 268.246 247.479C267.867 247.251 267.575 246.933 267.367 246.526C267.16 246.118 267.057 245.64 267.057 245.09C267.057 244.54 267.16 244.065 267.367 243.665C267.575 243.258 267.867 242.943 268.246 242.722C268.625 242.493 269.071 242.379 269.585 242.379C270.107 242.379 270.553 242.493 270.925 242.722C271.303 242.943 271.596 243.258 271.803 243.665C272.01 244.065 272.114 244.54 272.114 245.09C272.114 245.64 272.01 246.118 271.803 246.526C271.596 246.933 271.303 247.251 270.925 247.479C270.553 247.701 270.107 247.811 269.585 247.811ZM269.585 247.072C270.085 247.072 270.482 246.901 270.775 246.558C271.067 246.208 271.214 245.718 271.214 245.09C271.214 244.461 271.067 243.976 270.775 243.633C270.482 243.29 270.085 243.118 269.585 243.118C269.092 243.118 268.696 243.29 268.396 243.633C268.103 243.976 267.957 244.461 267.957 245.09C267.957 245.718 268.103 246.208 268.396 246.558C268.696 246.901 269.092 247.072 269.585 247.072ZM275.824 249.74C275.381 249.74 274.959 249.679 274.559 249.558C274.159 249.436 273.806 249.261 273.499 249.033L273.799 248.368C274.006 248.511 274.216 248.629 274.431 248.722C274.645 248.822 274.863 248.893 275.084 248.936C275.313 248.979 275.549 249.001 275.791 249.001C276.313 249.001 276.709 248.865 276.981 248.593C277.259 248.322 277.399 247.929 277.399 247.415V246.279H277.463C277.356 246.679 277.127 246.997 276.777 247.233C276.434 247.468 276.034 247.586 275.577 247.586C275.099 247.586 274.681 247.479 274.324 247.265C273.966 247.043 273.688 246.736 273.488 246.343C273.295 245.951 273.199 245.497 273.199 244.983C273.199 244.461 273.295 244.008 273.488 243.622C273.688 243.229 273.966 242.926 274.324 242.711C274.681 242.49 275.099 242.379 275.577 242.379C276.041 242.379 276.445 242.497 276.788 242.733C277.131 242.968 277.356 243.29 277.463 243.697H277.399V242.476H278.266V247.308C278.266 247.829 278.17 248.272 277.977 248.636C277.791 249.001 277.516 249.276 277.152 249.461C276.795 249.647 276.352 249.74 275.824 249.74ZM275.749 246.858C276.249 246.858 276.645 246.69 276.938 246.354C277.238 246.011 277.388 245.551 277.388 244.972C277.388 244.401 277.238 243.947 276.938 243.611C276.645 243.276 276.249 243.108 275.749 243.108C275.241 243.108 274.838 243.276 274.538 243.611C274.245 243.947 274.099 244.401 274.099 244.972C274.099 245.551 274.245 246.011 274.538 246.354C274.838 246.69 275.241 246.858 275.749 246.858ZM280.586 249.643L281.572 247.426V247.897L279.258 242.476H280.233L282.054 246.986H281.84L283.672 242.476H284.604L281.529 249.643H280.586Z" fill="#F0870C"/>
<path d="M52.6647 49.2782C54.1553 103.893 111.787 96.445 111.787 96.445C67.0729 80.0606 66.0794 61.1941 66.0794 61.1941L78.5001 57.2219L112.781 77.0816L123.711 101.41L121.724 131.696L109.351 146.591L92.4109 157.017L84.4619 159.996L82.9713 154.039L88.9334 129.214L109.303 119.78C67.0729 118.291 75.519 168.933 75.519 168.933C124.705 172.409 131.661 105.382 131.661 105.382L150.54 127.155V109.623C150.54 109.623 143.584 103.893 118.743 74.1028C100.112 51.7605 72.2588 48.9678 59.4964 48.9678C55.2424 48.9678 52.6647 49.2782 52.6647 49.2782Z" fill="url(#paint0_linear_197_12925)"/>
<path d="M182.338 74.1028C157.497 103.893 150.541 109.623 150.541 109.623V127.155L169.421 105.382C169.421 105.382 176.377 172.409 225.562 168.933C225.562 168.933 234.008 118.291 191.778 119.78L212.148 129.214L218.11 154.039L216.619 159.996L208.67 157.017L191.731 146.591L179.357 131.696L177.37 101.41L188.3 77.0816L222.581 57.2219L235.002 61.1941C235.002 61.1941 234.008 80.0606 189.294 96.445C189.294 96.445 246.926 103.893 248.417 49.2782C248.417 49.2782 245.839 48.9678 241.585 48.9678C228.823 48.9678 200.969 51.7605 182.338 74.1028Z" fill="url(#paint1_linear_197_12925)"/>
<path d="M191.281 69.6345C166.439 90.4872 150.541 118.787 150.541 118.787C150.541 118.787 134.642 90.4872 109.801 69.6345C84.9593 48.7815 53.6592 51.7605 53.6592 51.7605C53.6975 52.094 53.7382 52.4248 53.7809 52.7528C59.2848 94.9175 101.355 92.4732 101.355 92.4732C60.6148 72.6132 66.0801 61.194 66.0801 61.194C66.0801 61.194 113.775 62.6833 120.731 98.9274C129.995 147.198 85.9531 156.521 85.9531 156.521C89.4309 125.738 109.304 119.78 109.304 119.78C71.5449 116.305 75.0227 164.961 75.0227 164.961C75.0227 164.961 85.9531 169.926 107.317 154.535C136.168 133.749 131.661 105.382 131.661 105.382L150.541 127.155L169.42 105.382C169.42 105.382 164.913 133.749 193.765 154.535C215.129 169.926 226.059 164.961 226.059 164.961C226.059 164.961 229.537 116.305 191.778 119.78C191.778 119.78 211.651 125.738 215.129 156.521C215.129 156.521 171.087 147.198 180.35 98.9274C187.306 62.6833 235.002 61.194 235.002 61.194C235.002 61.194 240.467 72.6132 199.727 92.4732C199.727 92.4732 241.797 94.9175 247.301 52.7528C247.343 52.4248 247.384 52.094 247.422 51.7605C247.422 51.7605 245.875 51.6133 243.199 51.6133C233.831 51.613 210.603 53.4143 191.281 69.6345Z" fill="url(#paint2_linear_197_12925)"/>
<defs>
<linearGradient id="paint0_linear_197_12925" x1="52.6649" y1="109.016" x2="150.54" y2="109.016" gradientUnits="userSpaceOnUse">
<stop stop-color="#ED2723"/>
<stop offset="1" stop-color="#FBA60B"/>
</linearGradient>
<linearGradient id="paint1_linear_197_12925" x1="150.541" y1="109.016" x2="248.417" y2="109.016" gradientUnits="userSpaceOnUse">
<stop stop-color="#ED2723"/>
<stop offset="1" stop-color="#FBA60B"/>
</linearGradient>
<linearGradient id="paint2_linear_197_12925" x1="53.6592" y1="108.669" x2="247.422" y2="108.669" gradientUnits="userSpaceOnUse">
<stop stop-color="#ED2723"/>
<stop offset="1" stop-color="#FBA60B"/>
</linearGradient>
</defs>
</svg>
