<svg width="305" height="304" viewBox="0 0 305 304" fill="none" xmlns="http://www.w3.org/2000/svg">
<path d="M45.079 222.276L49.803 191.165C49.9461 190.354 50.2324 189.924 50.6142 189.924C50.9959 189.924 51.2822 190.163 51.9025 191.403L64.9292 218.316L77.9082 191.069C78.2899 190.306 78.5285 189.924 78.958 189.924C79.3874 189.924 79.6737 190.401 79.8169 191.403L84.1591 220.892C84.5886 223.899 85.0657 225.282 86.4972 225.712C87.881 226.141 88.8354 226.189 89.4557 226.189C89.8851 226.189 90.2191 226.237 90.2191 226.523C90.2191 226.905 89.6465 227.048 88.9785 227.048C87.7856 227.048 81.2007 226.905 79.292 226.762C78.1945 226.666 77.9082 226.523 77.9082 226.237C77.9082 225.998 78.0991 225.855 78.4331 225.712C78.7194 225.616 78.8625 224.996 78.6717 223.66L75.8087 202.665H75.6178L65.2155 224.328C64.118 226.571 63.8795 227 63.45 227C63.0206 227 62.5434 226.046 61.7799 224.614C60.6347 222.419 56.8651 215.119 56.2925 213.783C55.863 212.781 53 206.768 51.3299 203.19H51.1391L48.6578 222.181C48.5624 223.04 48.5146 223.66 48.5146 224.424C48.5146 225.33 49.135 225.76 49.9461 225.95C50.805 226.141 51.4731 226.189 51.9503 226.189C52.332 226.189 52.666 226.284 52.666 226.523C52.666 226.953 52.2366 227.048 51.5208 227.048C49.5167 227.048 47.3694 226.905 46.5105 226.905C45.6039 226.905 43.3135 227.048 41.7866 227.048C41.3094 227.048 40.9277 226.953 40.9277 226.523C40.9277 226.284 41.214 226.189 41.6911 226.189C42.0729 226.189 42.4069 226.189 43.1226 226.046C44.4587 225.76 44.8404 223.899 45.079 222.276ZM109.215 227.573C96.999 227.573 92.0365 218.888 92.0365 211.683C92.0365 204.764 96.9036 195.793 109.644 195.793C120.237 195.793 126.822 201.663 126.822 210.967C126.822 220.272 120.046 227.573 109.215 227.573ZM110.932 225.378C113.891 225.378 120.571 223.994 120.571 212.447C120.571 203.476 115.179 197.941 108.403 197.941C103.727 197.941 98.2397 200.422 98.2397 210.442C98.2397 218.793 103.011 225.378 110.932 225.378ZM136.789 204.955L137.266 221.513C137.361 224.662 137.886 225.616 138.698 225.903C139.413 226.141 140.225 226.189 140.893 226.189C141.37 226.189 141.608 226.38 141.608 226.618C141.608 226.953 141.227 227.048 140.654 227.048C137.934 227.048 135.978 226.905 135.214 226.905C134.833 226.905 132.828 227.048 130.681 227.048C130.109 227.048 129.727 227 129.727 226.618C129.727 226.38 130.013 226.189 130.395 226.189C130.967 226.189 131.731 226.141 132.304 225.998C133.401 225.712 133.544 224.614 133.592 221.083L133.974 197.034C133.974 196.223 134.26 195.65 134.689 195.65C135.214 195.65 135.787 196.271 136.503 196.986C137.027 197.511 143.326 203.953 149.434 209.918C152.297 212.733 157.88 218.459 158.5 219.032H158.691L158.261 200.995C158.214 198.513 157.832 197.798 156.83 197.416C156.21 197.177 155.208 197.177 154.635 197.177C154.11 197.177 153.967 196.986 153.967 196.748C153.967 196.414 154.396 196.366 155.017 196.366C157.212 196.366 159.454 196.461 160.361 196.461C160.838 196.461 162.413 196.366 164.465 196.366C165.037 196.366 165.419 196.414 165.419 196.748C165.419 196.986 165.18 197.177 164.703 197.177C164.274 197.177 163.94 197.177 163.415 197.32C162.27 197.654 161.936 198.37 161.888 200.661L161.411 226.237C161.411 227.143 161.077 227.525 160.743 227.525C160.027 227.525 159.454 227.096 159.025 226.666C156.401 224.233 151.152 219.222 146.762 214.976C142.181 210.586 137.743 205.671 136.932 204.955H136.789ZM186.454 216.837H176.576C176.338 216.837 176.29 216.884 176.194 217.123L173.952 222.563C173.522 223.565 173.331 224.567 173.331 225.044C173.331 225.76 173.713 226.189 175.001 226.189H175.622C176.147 226.189 176.242 226.38 176.242 226.618C176.242 226.953 176.004 227.048 175.574 227.048C174.19 227.048 172.234 226.905 170.898 226.905C170.468 226.905 168.226 227.048 166.031 227.048C165.506 227.048 165.267 226.953 165.267 226.618C165.267 226.38 165.41 226.189 165.744 226.189C166.126 226.189 166.603 226.141 166.985 226.141C168.894 225.855 169.609 224.614 170.468 222.563L181.443 197.034C181.92 195.889 182.254 195.412 182.684 195.412C183.304 195.412 183.495 195.793 183.925 196.7C184.927 198.943 191.941 215.548 194.613 221.704C196.235 225.378 197.428 225.903 198.192 226.046C198.812 226.141 199.289 226.189 199.767 226.189C200.148 226.189 200.339 226.332 200.339 226.618C200.339 226.953 200.101 227.048 198.526 227.048C197.047 227.048 193.993 227.048 190.462 226.953C189.698 226.905 189.221 226.905 189.221 226.618C189.221 226.38 189.317 226.237 189.746 226.189C190.032 226.141 190.319 225.76 190.128 225.282L186.883 217.123C186.788 216.884 186.644 216.837 186.454 216.837ZM177.435 214.594H185.547C185.738 214.594 185.786 214.498 185.738 214.355L181.777 204.048C181.73 203.905 181.682 203.667 181.586 203.667C181.443 203.667 181.396 203.905 181.348 204.048L177.292 214.308C177.196 214.498 177.292 214.594 177.435 214.594ZM204.912 215.262V208.104C204.912 201.949 204.912 200.804 204.864 199.515C204.769 198.132 204.387 197.702 203.051 197.32C202.717 197.225 202.001 197.177 201.381 197.177C200.952 197.177 200.665 197.034 200.665 196.748C200.665 196.461 200.999 196.366 201.62 196.366C203.815 196.366 206.487 196.461 207.346 196.461C208.777 196.461 212.595 196.366 213.883 196.366C216.555 196.366 219.609 196.605 221.852 198.084C223.045 198.895 224.81 200.947 224.81 203.667C224.81 206.673 223.092 209.345 218.989 212.637C222.71 217.218 225.669 220.892 228.198 223.421C230.536 225.76 232.015 225.95 232.683 226.094C233.113 226.189 233.351 226.189 233.685 226.189C234.019 226.189 234.21 226.428 234.21 226.618C234.21 226.953 233.924 227.048 233.399 227.048H229.391C227.053 227.048 225.908 226.809 224.81 226.237C222.997 225.33 221.422 223.421 219.084 220.272C217.414 218.077 215.648 215.357 215.124 214.737C214.885 214.498 214.646 214.451 214.36 214.451L210.59 214.355C210.4 214.355 210.256 214.451 210.256 214.689V215.262C210.256 219.032 210.304 222.181 210.495 223.899C210.638 225.092 210.829 225.855 212.117 226.046C212.738 226.141 213.644 226.189 214.169 226.189C214.503 226.189 214.694 226.428 214.694 226.618C214.694 226.905 214.36 227.048 213.835 227.048C211.402 227.048 207.918 226.905 207.298 226.905C206.487 226.905 203.815 227.048 202.145 227.048C201.62 227.048 201.333 226.905 201.333 226.618C201.333 226.428 201.477 226.189 202.001 226.189C202.622 226.189 203.099 226.141 203.481 226.046C204.34 225.855 204.578 225.092 204.721 223.899C204.912 222.181 204.912 218.984 204.912 215.262ZM210.256 199.181V211.254C210.256 211.683 210.352 211.826 210.638 211.969C211.545 212.256 212.785 212.351 213.835 212.351C215.505 212.351 216.078 212.208 216.794 211.683C218.082 210.776 219.513 209.011 219.513 205.671C219.513 199.945 215.601 198.466 213.119 198.466C212.07 198.466 211.068 198.513 210.638 198.609C210.352 198.704 210.256 198.847 210.256 199.181ZM243.112 208.104V209.918H243.303C244.734 208.391 250.842 202.378 252.082 200.995C253.275 199.658 254.182 198.704 254.182 197.988C254.182 197.559 253.991 197.273 253.609 197.177C253.228 197.082 253.037 196.986 253.037 196.748C253.037 196.461 253.275 196.366 253.705 196.366C254.611 196.366 256.902 196.461 258.047 196.461C259.335 196.461 261.674 196.366 262.962 196.366C263.391 196.366 263.678 196.461 263.678 196.748C263.678 197.034 263.439 197.177 263.057 197.177C262.437 197.177 261.387 197.368 260.624 197.654C259.288 198.132 257.952 198.99 256.186 200.661C254.85 201.901 248.599 207.818 247.311 209.297C248.79 211.206 257.045 219.795 258.667 221.322C260.528 222.992 262.151 224.758 264.393 225.664C265.634 226.189 266.493 226.189 266.97 226.189C267.304 226.189 267.543 226.38 267.543 226.618C267.543 226.905 267.304 227.048 266.541 227.048H262.866C261.626 227.048 260.862 227.048 259.956 226.953C257.713 226.762 256.329 225.903 254.516 224.328C252.703 222.753 244.639 213.401 243.732 212.16L243.303 211.588H243.112V215.262C243.112 218.984 243.112 222.181 243.207 223.946C243.303 225.092 243.684 225.855 244.734 226.046C245.307 226.141 246.261 226.189 246.786 226.189C247.12 226.189 247.358 226.428 247.358 226.618C247.358 226.905 247.024 227.048 246.547 227.048C244.209 227.048 241.203 226.905 240.153 226.905C239.199 226.905 236.527 227.048 234.857 227.048C234.332 227.048 234.045 226.905 234.045 226.618C234.045 226.428 234.189 226.189 234.714 226.189C235.334 226.189 235.811 226.141 236.193 226.046C237.052 225.855 237.29 225.092 237.433 223.899C237.624 222.181 237.624 218.984 237.624 215.262V208.104C237.624 201.949 237.624 200.804 237.577 199.515C237.481 198.132 237.099 197.702 235.763 197.32C235.429 197.225 234.714 197.177 234.093 197.177C233.664 197.177 233.377 197.034 233.377 196.748C233.377 196.461 233.711 196.366 234.332 196.366C236.527 196.366 239.199 196.461 240.201 196.461C241.203 196.461 244.209 196.366 245.593 196.366C246.213 196.366 246.5 196.461 246.5 196.748C246.5 197.034 246.261 197.177 245.927 197.177C245.498 197.177 245.259 197.225 244.734 197.32C243.589 197.511 243.255 198.084 243.159 199.515C243.112 200.804 243.112 201.949 243.112 208.104Z" fill="white"/>
<path d="M22.312 251.657C21.0822 251.657 20.142 251.332 19.4914 250.681C18.8497 250.022 18.5289 249.064 18.5289 247.807V242.112H19.6251V247.753C19.6251 248.734 19.8523 249.469 20.3068 249.959C20.7613 250.44 21.4297 250.681 22.312 250.681C23.1943 250.681 23.8582 250.44 24.3038 249.959C24.7494 249.469 24.9722 248.734 24.9722 247.753V242.112H26.0684V247.807C26.0684 249.064 25.7476 250.022 25.1059 250.681C24.4732 251.332 23.5419 251.657 22.312 251.657ZM28.1744 251.537V245.04H29.2304V246.484H29.0834C29.2705 245.967 29.5736 245.579 29.9924 245.321C30.4202 245.053 30.9103 244.919 31.4629 244.919C31.9798 244.919 32.4076 245.013 32.7462 245.2C33.0938 245.378 33.3522 245.659 33.5215 246.042C33.6909 246.426 33.7755 246.907 33.7755 247.486V251.537H32.6927V247.553C32.6927 247.152 32.6393 246.822 32.5323 246.564C32.4343 246.305 32.2739 246.114 32.0511 245.989C31.8372 245.864 31.5565 245.802 31.2089 245.802C30.8168 245.802 30.4737 245.886 30.1796 246.056C29.8855 246.225 29.6582 246.461 29.4978 246.764C29.3374 247.067 29.2572 247.424 29.2572 247.834V251.537H28.1744ZM37.764 251.657C37.1045 251.657 36.6054 251.461 36.2668 251.069C35.937 250.677 35.7722 250.115 35.7722 249.384V242.112H36.855V249.304C36.855 249.616 36.8951 249.879 36.9753 250.093C37.0644 250.307 37.1936 250.467 37.3629 250.574C37.5323 250.681 37.7417 250.735 37.9912 250.735C38.0982 250.735 38.2007 250.73 38.2987 250.721C38.4056 250.703 38.5037 250.681 38.5928 250.654L38.5661 251.563C38.4235 251.59 38.2853 251.612 38.1517 251.63C38.0269 251.648 37.8977 251.657 37.764 251.657ZM42.59 251.657C41.9038 251.657 41.3112 251.523 40.8121 251.256C40.3219 250.98 39.9387 250.592 39.6624 250.093C39.3951 249.594 39.2614 248.997 39.2614 248.302C39.2614 247.624 39.3951 247.036 39.6624 246.537C39.9298 246.029 40.2952 245.632 40.7586 245.347C41.2309 245.062 41.7746 244.919 42.3895 244.919C42.9777 244.919 43.4812 245.049 43.9001 245.307C44.3189 245.566 44.6398 245.931 44.8626 246.403C45.0943 246.876 45.2101 247.442 45.2101 248.101V248.515H40.0902V247.807H44.4883L44.2744 247.981C44.2744 247.268 44.114 246.715 43.7931 246.323C43.4812 245.922 43.0222 245.722 42.4162 245.722C41.9617 245.722 41.5741 245.829 41.2532 246.042C40.9413 246.247 40.7051 246.537 40.5447 246.911C40.3843 247.277 40.3041 247.704 40.3041 248.195V248.275C40.3041 248.818 40.3888 249.277 40.5581 249.652C40.7363 250.026 40.9992 250.311 41.3468 250.507C41.6944 250.694 42.1088 250.788 42.59 250.788C42.9732 250.788 43.3431 250.73 43.6996 250.614C44.0649 250.489 44.4081 250.289 44.7289 250.013L45.1032 250.775C44.8091 251.042 44.4348 251.256 43.9803 251.416C43.5258 251.577 43.0624 251.657 42.59 251.657ZM48.8225 251.657C48.3769 251.657 47.9759 251.572 47.6194 251.403C47.2718 251.225 46.9956 250.984 46.7906 250.681C46.5856 250.378 46.4831 250.039 46.4831 249.665C46.4831 249.184 46.6034 248.805 46.844 248.529C47.0936 248.253 47.4991 248.057 48.0605 247.941C48.6309 247.825 49.4062 247.767 50.3865 247.767H50.9881V248.475H50.3999C49.8563 248.475 49.4018 248.493 49.0364 248.529C48.671 248.564 48.3814 248.627 48.1675 248.716C47.9536 248.805 47.8021 248.921 47.713 249.064C47.6238 249.206 47.5793 249.384 47.5793 249.598C47.5793 249.964 47.7041 250.262 47.9536 250.494C48.212 250.726 48.5596 250.841 48.9963 250.841C49.3528 250.841 49.6647 250.757 49.932 250.587C50.2083 250.418 50.4222 250.186 50.5737 249.892C50.7341 249.598 50.8143 249.26 50.8143 248.876V247.352C50.8143 246.8 50.7029 246.403 50.4801 246.163C50.2573 245.913 49.8919 245.788 49.384 245.788C48.9918 245.788 48.6131 245.846 48.2477 245.962C47.8823 246.069 47.508 246.247 47.1248 246.497L46.7505 245.708C46.9822 245.548 47.2451 245.41 47.5392 245.294C47.8333 245.169 48.1407 245.075 48.4616 245.013C48.7824 244.951 49.0899 244.919 49.384 244.919C49.9454 244.919 50.4088 245.013 50.7742 245.2C51.1396 245.378 51.4114 245.655 51.5897 246.029C51.7679 246.394 51.857 246.867 51.857 247.446V251.537H50.8411V250.026H50.9614C50.8901 250.365 50.7519 250.654 50.547 250.895C50.3509 251.136 50.1058 251.323 49.8117 251.456C49.5176 251.59 49.1879 251.657 48.8225 251.657ZM56.0582 251.657C55.7196 251.657 55.3898 251.621 55.069 251.55C54.7571 251.488 54.463 251.398 54.1867 251.283C53.9193 251.158 53.6876 251.011 53.4916 250.841L53.8391 250.08C54.053 250.249 54.2847 250.391 54.5343 250.507C54.7838 250.614 55.0378 250.694 55.2962 250.748C55.5547 250.801 55.8176 250.828 56.0849 250.828C56.5929 250.828 56.9761 250.735 57.2346 250.547C57.493 250.36 57.6223 250.106 57.6223 249.785C57.6223 249.536 57.5376 249.34 57.3683 249.197C57.1989 249.046 56.9316 248.93 56.5662 248.85L55.3497 248.582C54.7883 248.466 54.3694 248.266 54.0931 247.981C53.8258 247.696 53.6921 247.326 53.6921 246.871C53.6921 246.47 53.7946 246.127 53.9995 245.842C54.2134 245.548 54.512 245.321 54.8952 245.16C55.2784 245 55.724 244.919 56.232 244.919C56.535 244.919 56.8246 244.951 57.1009 245.013C57.3772 245.075 57.6356 245.169 57.8762 245.294C58.1258 245.41 58.3397 245.557 58.5179 245.735L58.157 246.497C57.9876 246.336 57.796 246.203 57.5822 246.096C57.3683 245.98 57.1455 245.895 56.9138 245.842C56.691 245.779 56.4637 245.748 56.232 245.748C55.7329 245.748 55.3542 245.846 55.0957 246.042C54.8373 246.238 54.708 246.497 54.708 246.818C54.708 247.067 54.7883 247.272 54.9487 247.433C55.1091 247.593 55.3586 247.709 55.6973 247.78L56.9138 248.034C57.493 248.159 57.9253 248.36 58.2104 248.636C58.5045 248.903 58.6516 249.269 58.6516 249.732C58.6516 250.124 58.5446 250.467 58.3308 250.761C58.1169 251.046 57.8139 251.269 57.4217 251.43C57.0385 251.581 56.584 251.657 56.0582 251.657ZM60.3018 251.537V242.112H61.3846V246.484H61.2108C61.398 245.967 61.701 245.579 62.1198 245.321C62.5476 245.053 63.0378 244.919 63.5903 244.919C64.1072 244.919 64.535 245.013 64.8736 245.2C65.2212 245.387 65.4796 245.673 65.649 246.056C65.8183 246.43 65.903 246.907 65.903 247.486V251.537H64.8202V247.553C64.8202 247.152 64.7667 246.822 64.6597 246.564C64.5617 246.305 64.4013 246.114 64.1785 245.989C63.9646 245.864 63.6839 245.802 63.3363 245.802C62.9442 245.802 62.6011 245.886 62.307 246.056C62.0129 246.225 61.7856 246.461 61.6252 246.764C61.4648 247.067 61.3846 247.424 61.3846 247.834V251.537H60.3018ZM71.48 251.537V242.112H77.3084V243.035H72.5762V246.323H77.0411V247.246H72.5762V251.537H71.48ZM78.526 251.537V245.04H79.5821V246.577H79.4484C79.5999 246.051 79.8628 245.655 80.2371 245.387C80.6114 245.111 81.1061 244.951 81.721 244.906L82.1086 244.866L82.1889 245.802L81.5071 245.882C80.9011 245.935 80.4332 246.132 80.1035 246.47C79.7826 246.8 79.6222 247.254 79.6222 247.834V251.537H78.526ZM86.1663 251.657C85.4801 251.657 84.8875 251.523 84.3884 251.256C83.8982 250.98 83.515 250.592 83.2388 250.093C82.9714 249.594 82.8377 248.997 82.8377 248.302C82.8377 247.624 82.9714 247.036 83.2388 246.537C83.5061 246.029 83.8715 245.632 84.3349 245.347C84.8073 245.062 85.3509 244.919 85.9658 244.919C86.554 244.919 87.0575 245.049 87.4764 245.307C87.8953 245.566 88.2161 245.931 88.4389 246.403C88.6706 246.876 88.7864 247.442 88.7864 248.101V248.515H83.6665V247.807H88.0646L87.8507 247.981C87.8507 247.268 87.6903 246.715 87.3694 246.323C87.0575 245.922 86.5986 245.722 85.9925 245.722C85.538 245.722 85.1504 245.829 84.8295 246.042C84.5176 246.247 84.2815 246.537 84.121 246.911C83.9606 247.277 83.8804 247.704 83.8804 248.195V248.275C83.8804 248.818 83.9651 249.277 84.1344 249.652C84.3126 250.026 84.5755 250.311 84.9231 250.507C85.2707 250.694 85.6851 250.788 86.1663 250.788C86.5495 250.788 86.9194 250.73 87.2759 250.614C87.6413 250.489 87.9844 250.289 88.3052 250.013L88.6795 250.775C88.3854 251.042 88.0111 251.256 87.5566 251.416C87.1021 251.577 86.6387 251.657 86.1663 251.657ZM93.2811 251.657C92.5949 251.657 92.0022 251.523 91.5032 251.256C91.013 250.98 90.6298 250.592 90.3535 250.093C90.0862 249.594 89.9525 248.997 89.9525 248.302C89.9525 247.624 90.0862 247.036 90.3535 246.537C90.6209 246.029 90.9863 245.632 91.4497 245.347C91.922 245.062 92.4657 244.919 93.0806 244.919C93.6688 244.919 94.1723 245.049 94.5912 245.307C95.01 245.566 95.3309 245.931 95.5537 246.403C95.7854 246.876 95.9012 247.442 95.9012 248.101V248.515H90.7813V247.807H95.1793L94.9655 247.981C94.9655 247.268 94.805 246.715 94.4842 246.323C94.1723 245.922 93.7133 245.722 93.1073 245.722C92.6528 245.722 92.2651 245.829 91.9443 246.042C91.6324 246.247 91.3962 246.537 91.2358 246.911C91.0754 247.277 90.9952 247.704 90.9952 248.195V248.275C90.9952 248.818 91.0798 249.277 91.2492 249.652C91.4274 250.026 91.6903 250.311 92.0379 250.507C92.3855 250.694 92.7999 250.788 93.2811 250.788C93.6643 250.788 94.0342 250.73 94.3906 250.614C94.756 250.489 95.0991 250.289 95.42 250.013L95.7943 250.775C95.5002 251.042 95.1259 251.256 94.6714 251.416C94.2169 251.577 93.7534 251.657 93.2811 251.657ZM99.9414 251.657C99.3621 251.657 98.8541 251.519 98.4174 251.243C97.9896 250.966 97.6554 250.579 97.4148 250.08C97.1831 249.572 97.0673 248.974 97.0673 248.288C97.0673 247.593 97.1831 246.996 97.4148 246.497C97.6554 245.989 97.9896 245.601 98.4174 245.334C98.8541 245.058 99.3621 244.919 99.9414 244.919C100.53 244.919 101.033 245.067 101.452 245.361C101.871 245.655 102.152 246.051 102.294 246.55H102.147V242.112H103.23V251.537H102.174V249.986H102.307C102.165 250.494 101.88 250.899 101.452 251.202C101.033 251.505 100.53 251.657 99.9414 251.657ZM100.169 250.788C100.784 250.788 101.269 250.574 101.626 250.146C101.991 249.71 102.174 249.09 102.174 248.288C102.174 247.477 101.991 246.858 101.626 246.43C101.269 246.002 100.784 245.788 100.169 245.788C99.5626 245.788 99.0769 246.002 98.7115 246.43C98.3461 246.858 98.1634 247.477 98.1634 248.288C98.1634 249.09 98.3461 249.71 98.7115 250.146C99.0769 250.574 99.5626 250.788 100.169 250.788ZM107.962 251.657C107.329 251.657 106.781 251.519 106.318 251.243C105.855 250.966 105.494 250.579 105.235 250.08C104.986 249.572 104.861 248.974 104.861 248.288C104.861 247.602 104.986 247.009 105.235 246.51C105.494 246.002 105.855 245.61 106.318 245.334C106.781 245.058 107.329 244.919 107.962 244.919C108.595 244.919 109.143 245.058 109.606 245.334C110.07 245.61 110.426 246.002 110.676 246.51C110.934 247.009 111.064 247.602 111.064 248.288C111.064 248.974 110.934 249.572 110.676 250.08C110.426 250.579 110.07 250.966 109.606 251.243C109.143 251.519 108.595 251.657 107.962 251.657ZM107.962 250.788C108.577 250.788 109.063 250.574 109.419 250.146C109.785 249.71 109.967 249.086 109.967 248.275C109.967 247.473 109.785 246.858 109.419 246.43C109.063 246.002 108.577 245.788 107.962 245.788C107.356 245.788 106.871 246.002 106.505 246.43C106.14 246.858 105.957 247.473 105.957 248.275C105.957 249.086 106.14 249.71 106.505 250.146C106.871 250.574 107.356 250.788 107.962 250.788ZM112.717 251.537V245.04H113.773V246.484H113.626C113.733 246.154 113.889 245.873 114.094 245.641C114.308 245.401 114.557 245.223 114.842 245.107C115.136 244.982 115.457 244.919 115.805 244.919C116.357 244.919 116.803 245.053 117.142 245.321C117.489 245.579 117.721 245.984 117.837 246.537H117.636C117.797 246.038 118.082 245.646 118.492 245.361C118.911 245.067 119.396 244.919 119.949 244.919C120.439 244.919 120.84 245.013 121.152 245.2C121.473 245.387 121.713 245.673 121.874 246.056C122.034 246.43 122.114 246.907 122.114 247.486V251.537H121.032V247.54C121.032 246.943 120.929 246.506 120.724 246.23C120.519 245.944 120.172 245.802 119.681 245.802C119.334 245.802 119.026 245.886 118.759 246.056C118.501 246.225 118.3 246.466 118.157 246.778C118.024 247.081 117.957 247.442 117.957 247.86V251.537H116.874V247.54C116.874 246.943 116.767 246.506 116.553 246.23C116.348 245.944 116.005 245.802 115.524 245.802C115.168 245.802 114.86 245.886 114.602 246.056C114.343 246.225 114.143 246.466 114 246.778C113.866 247.081 113.8 247.442 113.8 247.86V251.537H112.717ZM124.527 253.061L124.019 252.673C124.179 252.504 124.299 252.343 124.38 252.192C124.469 252.049 124.527 251.902 124.553 251.751C124.589 251.608 124.607 251.461 124.607 251.309L124.847 251.537H123.965V250.173H125.329V251.136C125.329 251.376 125.302 251.603 125.248 251.817C125.204 252.04 125.124 252.254 125.008 252.459C124.892 252.664 124.732 252.865 124.527 253.061ZM130.761 251.537V242.112H136.71V243.035H131.83V246.296H136.429V247.219H131.83V250.614H136.71V251.537H130.761ZM138.434 251.537V245.04H139.49V246.484H139.343C139.45 246.154 139.606 245.873 139.811 245.641C140.025 245.401 140.275 245.223 140.56 245.107C140.854 244.982 141.175 244.919 141.522 244.919C142.075 244.919 142.52 245.053 142.859 245.321C143.207 245.579 143.438 245.984 143.554 246.537H143.354C143.514 246.038 143.799 245.646 144.209 245.361C144.628 245.067 145.114 244.919 145.666 244.919C146.157 244.919 146.558 245.013 146.869 245.2C147.19 245.387 147.431 245.673 147.591 246.056C147.752 246.43 147.832 246.907 147.832 247.486V251.537H146.749V247.54C146.749 246.943 146.647 246.506 146.442 246.23C146.237 245.944 145.889 245.802 145.399 245.802C145.051 245.802 144.744 245.886 144.477 246.056C144.218 246.225 144.018 246.466 143.875 246.778C143.741 247.081 143.675 247.442 143.675 247.86V251.537H142.592V247.54C142.592 246.943 142.485 246.506 142.271 246.23C142.066 245.944 141.723 245.802 141.242 245.802C140.885 245.802 140.578 245.886 140.319 246.056C140.061 246.225 139.86 246.466 139.718 246.778C139.584 247.081 139.517 247.442 139.517 247.86V251.537H138.434ZM149.856 253.943V245.04H150.913V246.577H150.779C150.921 246.069 151.202 245.668 151.621 245.374C152.049 245.071 152.557 244.919 153.145 244.919C153.724 244.919 154.228 245.058 154.656 245.334C155.092 245.601 155.426 245.989 155.658 246.497C155.899 246.996 156.019 247.593 156.019 248.288C156.019 248.974 155.899 249.572 155.658 250.08C155.426 250.579 155.097 250.966 154.669 251.243C154.241 251.519 153.733 251.657 153.145 251.657C152.557 251.657 152.053 251.51 151.634 251.216C151.216 250.913 150.93 250.512 150.779 250.013H150.939V253.943H149.856ZM152.918 250.788C153.533 250.788 154.018 250.574 154.375 250.146C154.74 249.71 154.923 249.09 154.923 248.288C154.923 247.477 154.74 246.858 154.375 246.43C154.018 246.002 153.533 245.788 152.918 245.788C152.312 245.788 151.826 246.002 151.461 246.43C151.095 246.858 150.913 247.477 150.913 248.288C150.913 249.09 151.095 249.71 151.461 250.146C151.826 250.574 152.312 250.788 152.918 250.788ZM160.35 251.657C159.718 251.657 159.17 251.519 158.706 251.243C158.243 250.966 157.882 250.579 157.623 250.08C157.374 249.572 157.249 248.974 157.249 248.288C157.249 247.602 157.374 247.009 157.623 246.51C157.882 246.002 158.243 245.61 158.706 245.334C159.17 245.058 159.718 244.919 160.35 244.919C160.983 244.919 161.531 245.058 161.995 245.334C162.458 245.61 162.815 246.002 163.064 246.51C163.323 247.009 163.452 247.602 163.452 248.288C163.452 248.974 163.323 249.572 163.064 250.08C162.815 250.579 162.458 250.966 161.995 251.243C161.531 251.519 160.983 251.657 160.35 251.657ZM160.35 250.788C160.965 250.788 161.451 250.574 161.808 250.146C162.173 249.71 162.356 249.086 162.356 248.275C162.356 247.473 162.173 246.858 161.808 246.43C161.451 246.002 160.965 245.788 160.35 245.788C159.744 245.788 159.259 246.002 158.893 246.43C158.528 246.858 158.345 247.473 158.345 248.275C158.345 249.086 158.528 249.71 158.893 250.146C159.259 250.574 159.744 250.788 160.35 250.788ZM166.711 251.537L164.292 245.04H165.428L167.42 250.735H167.099L169.158 245.04H170.08L172.099 250.735H171.791L173.81 245.04H174.892L172.459 251.537H171.43L169.305 245.695H169.879L167.754 251.537H166.711ZM179.063 251.657C178.377 251.657 177.784 251.523 177.285 251.256C176.795 250.98 176.412 250.592 176.135 250.093C175.868 249.594 175.734 248.997 175.734 248.302C175.734 247.624 175.868 247.036 176.135 246.537C176.403 246.029 176.768 245.632 177.232 245.347C177.704 245.062 178.248 244.919 178.862 244.919C179.451 244.919 179.954 245.049 180.373 245.307C180.792 245.566 181.113 245.931 181.336 246.403C181.567 246.876 181.683 247.442 181.683 248.101V248.515H176.563V247.807H180.961L180.747 247.981C180.747 247.268 180.587 246.715 180.266 246.323C179.954 245.922 179.495 245.722 178.889 245.722C178.435 245.722 178.047 245.829 177.726 246.042C177.414 246.247 177.178 246.537 177.018 246.911C176.857 247.277 176.777 247.704 176.777 248.195V248.275C176.777 248.818 176.862 249.277 177.031 249.652C177.209 250.026 177.472 250.311 177.82 250.507C178.167 250.694 178.582 250.788 179.063 250.788C179.446 250.788 179.816 250.73 180.173 250.614C180.538 250.489 180.881 250.289 181.202 250.013L181.576 250.775C181.282 251.042 180.908 251.256 180.453 251.416C179.999 251.577 179.535 251.657 179.063 251.657ZM183.25 251.537V245.04H184.306V246.577H184.173C184.324 246.051 184.587 245.655 184.961 245.387C185.336 245.111 185.83 244.951 186.445 244.906L186.833 244.866L186.913 245.802L186.231 245.882C185.625 245.935 185.157 246.132 184.828 246.47C184.507 246.8 184.346 247.254 184.346 247.834V251.537H183.25ZM191.622 251.537V242.112H194.803C195.828 242.112 196.693 242.295 197.397 242.66C198.11 243.017 198.649 243.547 199.014 244.251C199.388 244.946 199.576 245.802 199.576 246.818C199.576 247.834 199.388 248.694 199.014 249.398C198.649 250.102 198.11 250.637 197.397 251.002C196.693 251.358 195.828 251.537 194.803 251.537H191.622ZM192.718 250.601H194.723C195.962 250.601 196.884 250.284 197.49 249.652C198.105 249.019 198.413 248.074 198.413 246.818C198.413 245.561 198.105 244.621 197.49 243.997C196.875 243.364 195.953 243.048 194.723 243.048H192.718V250.601ZM204.324 251.657C203.637 251.657 203.045 251.523 202.546 251.256C202.056 250.98 201.672 250.592 201.396 250.093C201.129 249.594 200.995 248.997 200.995 248.302C200.995 247.624 201.129 247.036 201.396 246.537C201.663 246.029 202.029 245.632 202.492 245.347C202.965 245.062 203.508 244.919 204.123 244.919C204.711 244.919 205.215 245.049 205.634 245.307C206.053 245.566 206.373 245.931 206.596 246.403C206.828 246.876 206.944 247.442 206.944 248.101V248.515H201.824V247.807H206.222L206.008 247.981C206.008 247.268 205.848 246.715 205.527 246.323C205.215 245.922 204.756 245.722 204.15 245.722C203.695 245.722 203.308 245.829 202.987 246.042C202.675 246.247 202.439 246.537 202.278 246.911C202.118 247.277 202.038 247.704 202.038 248.195V248.275C202.038 248.818 202.122 249.277 202.292 249.652C202.47 250.026 202.733 250.311 203.08 250.507C203.428 250.694 203.842 250.788 204.324 250.788C204.707 250.788 205.077 250.73 205.433 250.614C205.799 250.489 206.142 250.289 206.463 250.013L206.837 250.775C206.543 251.042 206.168 251.256 205.714 251.416C205.259 251.577 204.796 251.657 204.324 251.657ZM211.265 251.657C210.614 251.657 210.053 251.514 209.58 251.229C209.108 250.944 208.743 250.547 208.484 250.039C208.235 249.523 208.11 248.925 208.11 248.248C208.11 247.562 208.235 246.969 208.484 246.47C208.743 245.971 209.108 245.588 209.58 245.321C210.053 245.053 210.614 244.919 211.265 244.919C211.666 244.919 212.062 244.991 212.454 245.133C212.847 245.276 213.172 245.476 213.43 245.735L213.056 246.524C212.798 246.274 212.512 246.091 212.2 245.976C211.897 245.86 211.608 245.802 211.332 245.802C210.654 245.802 210.133 246.016 209.767 246.443C209.402 246.862 209.219 247.468 209.219 248.261C209.219 249.037 209.402 249.652 209.767 250.106C210.133 250.552 210.654 250.775 211.332 250.775C211.608 250.775 211.897 250.717 212.2 250.601C212.512 250.485 212.798 250.298 213.056 250.039L213.43 250.828C213.172 251.087 212.842 251.292 212.441 251.443C212.049 251.586 211.657 251.657 211.265 251.657ZM217.496 251.657C216.81 251.657 216.217 251.523 215.718 251.256C215.228 250.98 214.844 250.592 214.568 250.093C214.301 249.594 214.167 248.997 214.167 248.302C214.167 247.624 214.301 247.036 214.568 246.537C214.836 246.029 215.201 245.632 215.664 245.347C216.137 245.062 216.68 244.919 217.295 244.919C217.883 244.919 218.387 245.049 218.806 245.307C219.225 245.566 219.546 245.931 219.768 246.403C220 246.876 220.116 247.442 220.116 248.101V248.515H214.996V247.807H219.394L219.18 247.981C219.18 247.268 219.02 246.715 218.699 246.323C218.387 245.922 217.928 245.722 217.322 245.722C216.868 245.722 216.48 245.829 216.159 246.042C215.847 246.247 215.611 246.537 215.451 246.911C215.29 247.277 215.21 247.704 215.21 248.195V248.275C215.21 248.818 215.295 249.277 215.464 249.652C215.642 250.026 215.905 250.311 216.253 250.507C216.6 250.694 217.015 250.788 217.496 250.788C217.879 250.788 218.249 250.73 218.605 250.614C218.971 250.489 219.314 250.289 219.635 250.013L220.009 250.775C219.715 251.042 219.341 251.256 218.886 251.416C218.432 251.577 217.968 251.657 217.496 251.657ZM221.683 251.537V245.04H222.739V246.484H222.592C222.779 245.967 223.082 245.579 223.501 245.321C223.929 245.053 224.419 244.919 224.971 244.919C225.488 244.919 225.916 245.013 226.255 245.2C226.602 245.378 226.861 245.659 227.03 246.042C227.199 246.426 227.284 246.907 227.284 247.486V251.537H226.201V247.553C226.201 247.152 226.148 246.822 226.041 246.564C225.943 246.305 225.782 246.114 225.56 245.989C225.346 245.864 225.065 245.802 224.718 245.802C224.325 245.802 223.982 245.886 223.688 246.056C223.394 246.225 223.167 246.461 223.006 246.764C222.846 247.067 222.766 247.424 222.766 247.834V251.537H221.683ZM231.888 251.657C231.121 251.657 230.546 251.452 230.163 251.042C229.78 250.632 229.588 250.048 229.588 249.291V245.882H228.318V245.04H229.588V243.048H230.671V245.04H232.73V245.882H230.671V249.184C230.671 249.692 230.778 250.08 230.992 250.347C231.206 250.605 231.553 250.735 232.035 250.735C232.177 250.735 232.32 250.717 232.462 250.681C232.605 250.645 232.734 250.61 232.85 250.574L233.037 251.403C232.921 251.465 232.752 251.523 232.529 251.577C232.306 251.63 232.093 251.657 231.888 251.657ZM233.954 251.537V245.04H235.01V246.577H234.877C235.028 246.051 235.291 245.655 235.665 245.387C236.04 245.111 236.534 244.951 237.149 244.906L237.537 244.866L237.617 245.802L236.935 245.882C236.329 245.935 235.861 246.132 235.532 246.47C235.211 246.8 235.051 247.254 235.051 247.834V251.537H233.954ZM240.725 251.657C240.28 251.657 239.879 251.572 239.522 251.403C239.175 251.225 238.898 250.984 238.693 250.681C238.488 250.378 238.386 250.039 238.386 249.665C238.386 249.184 238.506 248.805 238.747 248.529C238.996 248.253 239.402 248.057 239.963 247.941C240.534 247.825 241.309 247.767 242.289 247.767H242.891V248.475H242.303C241.759 248.475 241.305 248.493 240.939 248.529C240.574 248.564 240.284 248.627 240.07 248.716C239.856 248.805 239.705 248.921 239.616 249.064C239.527 249.206 239.482 249.384 239.482 249.598C239.482 249.964 239.607 250.262 239.856 250.494C240.115 250.726 240.462 250.841 240.899 250.841C241.256 250.841 241.568 250.757 241.835 250.587C242.111 250.418 242.325 250.186 242.477 249.892C242.637 249.598 242.717 249.26 242.717 248.876V247.352C242.717 246.8 242.606 246.403 242.383 246.163C242.16 245.913 241.795 245.788 241.287 245.788C240.895 245.788 240.516 245.846 240.151 245.962C239.785 246.069 239.411 246.247 239.028 246.497L238.653 245.708C238.885 245.548 239.148 245.41 239.442 245.294C239.736 245.169 240.044 245.075 240.364 245.013C240.685 244.951 240.993 244.919 241.287 244.919C241.848 244.919 242.312 245.013 242.677 245.2C243.043 245.378 243.314 245.655 243.493 246.029C243.671 246.394 243.76 246.867 243.76 247.446V251.537H242.744V250.026H242.864C242.793 250.365 242.655 250.654 242.45 250.895C242.254 251.136 242.009 251.323 241.715 251.456C241.421 251.59 241.091 251.657 240.725 251.657ZM247.761 251.657C247.101 251.657 246.602 251.461 246.263 251.069C245.934 250.677 245.769 250.115 245.769 249.384V242.112H246.852V249.304C246.852 249.616 246.892 249.879 246.972 250.093C247.061 250.307 247.19 250.467 247.36 250.574C247.529 250.681 247.738 250.735 247.988 250.735C248.095 250.735 248.197 250.73 248.295 250.721C248.402 250.703 248.5 250.681 248.589 250.654L248.563 251.563C248.42 251.59 248.282 251.612 248.148 251.63C248.023 251.648 247.894 251.657 247.761 251.657ZM249.591 243.422V242.206H250.927V243.422H249.591ZM249.724 251.537V245.04H250.807V251.537H249.724ZM252.551 251.537V250.815L256.467 245.601V245.882H252.551V245.04H257.47V245.762L253.513 251.002V250.694H257.617V251.537H252.551ZM260.999 251.657C260.554 251.657 260.153 251.572 259.796 251.403C259.449 251.225 259.172 250.984 258.967 250.681C258.762 250.378 258.66 250.039 258.66 249.665C258.66 249.184 258.78 248.805 259.021 248.529C259.27 248.253 259.676 248.057 260.237 247.941C260.808 247.825 261.583 247.767 262.563 247.767H263.165V248.475H262.577C262.033 248.475 261.578 248.493 261.213 248.529C260.848 248.564 260.558 248.627 260.344 248.716C260.13 248.805 259.979 248.921 259.89 249.064C259.801 249.206 259.756 249.384 259.756 249.598C259.756 249.964 259.881 250.262 260.13 250.494C260.389 250.726 260.736 250.841 261.173 250.841C261.529 250.841 261.841 250.757 262.109 250.587C262.385 250.418 262.599 250.186 262.75 249.892C262.911 249.598 262.991 249.26 262.991 248.876V247.352C262.991 246.8 262.88 246.403 262.657 246.163C262.434 245.913 262.069 245.788 261.561 245.788C261.169 245.788 260.79 245.846 260.424 245.962C260.059 246.069 259.685 246.247 259.301 246.497L258.927 245.708C259.159 245.548 259.422 245.41 259.716 245.294C260.01 245.169 260.317 245.075 260.638 245.013C260.959 244.951 261.267 244.919 261.561 244.919C262.122 244.919 262.586 245.013 262.951 245.2C263.316 245.378 263.588 245.655 263.766 246.029C263.945 246.394 264.034 246.867 264.034 247.446V251.537H263.018V250.026H263.138C263.067 250.365 262.929 250.654 262.724 250.895C262.528 251.136 262.283 251.323 261.988 251.456C261.694 251.59 261.365 251.657 260.999 251.657ZM268.649 251.657C267.883 251.657 267.308 251.452 266.925 251.042C266.542 250.632 266.35 250.048 266.35 249.291V245.882H265.08V245.04H266.35V243.048H267.433V245.04H269.492V245.882H267.433V249.184C267.433 249.692 267.54 250.08 267.754 250.347C267.968 250.605 268.315 250.735 268.796 250.735C268.939 250.735 269.082 250.717 269.224 250.681C269.367 250.645 269.496 250.61 269.612 250.574L269.799 251.403C269.683 251.465 269.514 251.523 269.291 251.577C269.068 251.63 268.854 251.657 268.649 251.657ZM270.582 243.422V242.206H271.919V243.422H270.582ZM270.716 251.537V245.04H271.799V251.537H270.716ZM276.523 251.657C275.891 251.657 275.343 251.519 274.879 251.243C274.416 250.966 274.055 250.579 273.796 250.08C273.547 249.572 273.422 248.974 273.422 248.288C273.422 247.602 273.547 247.009 273.796 246.51C274.055 246.002 274.416 245.61 274.879 245.334C275.343 245.058 275.891 244.919 276.523 244.919C277.156 244.919 277.704 245.058 278.168 245.334C278.631 245.61 278.988 246.002 279.237 246.51C279.496 247.009 279.625 247.602 279.625 248.288C279.625 248.974 279.496 249.572 279.237 250.08C278.988 250.579 278.631 250.966 278.168 251.243C277.704 251.519 277.156 251.657 276.523 251.657ZM276.523 250.788C277.138 250.788 277.624 250.574 277.981 250.146C278.346 249.71 278.529 249.086 278.529 248.275C278.529 247.473 278.346 246.858 277.981 246.43C277.624 246.002 277.138 245.788 276.523 245.788C275.917 245.788 275.432 246.002 275.066 246.43C274.701 246.858 274.518 247.473 274.518 248.275C274.518 249.086 274.701 249.71 275.066 250.146C275.432 250.574 275.917 250.788 276.523 250.788ZM281.251 251.537V245.04H282.307V246.484H282.16C282.347 245.967 282.65 245.579 283.069 245.321C283.497 245.053 283.987 244.919 284.54 244.919C285.057 244.919 285.484 245.013 285.823 245.2C286.171 245.378 286.429 245.659 286.598 246.042C286.768 246.426 286.852 246.907 286.852 247.486V251.537H285.77V247.553C285.77 247.152 285.716 246.822 285.609 246.564C285.511 246.305 285.351 246.114 285.128 245.989C284.914 245.864 284.633 245.802 284.286 245.802C283.894 245.802 283.55 245.886 283.256 246.056C282.962 246.225 282.735 246.461 282.575 246.764C282.414 247.067 282.334 247.424 282.334 247.834V251.537H281.251Z" fill="#F46817"/>
<path d="M53.1758 49.1469C54.6833 104.384 112.972 96.8515 112.972 96.8515C67.7482 80.2803 66.7434 61.1987 66.7434 61.1987L79.3056 57.1812L113.978 77.2673L125.032 101.873L123.022 132.504L110.508 147.569L93.3751 158.114L85.3354 161.127L83.8279 155.102L89.8579 129.994L110.46 120.453C67.7482 118.946 76.2906 170.166 76.2906 170.166C126.037 173.681 133.072 105.89 133.072 105.89L152.167 127.912V110.18C152.167 110.18 145.132 104.384 120.007 74.2546C101.164 51.6576 72.9932 48.833 60.0853 48.833C55.7828 48.833 53.1758 49.1469 53.1758 49.1469Z" fill="url(#paint0_linear_5_3069)"/>
<path d="M184.327 74.2546C159.203 104.384 152.168 110.18 152.168 110.18V127.912L171.262 105.89C171.262 105.89 178.298 173.681 228.044 170.166C228.044 170.166 236.586 118.946 193.875 120.453L214.477 129.994L220.507 155.102L218.999 161.127L210.959 158.114L193.827 147.569L181.312 132.504L179.303 101.873L190.357 77.2673L225.029 57.1812L237.592 61.1987C237.592 61.1987 236.586 80.2803 191.362 96.8515C191.362 96.8515 249.651 104.384 251.159 49.1469C251.159 49.1469 248.552 48.833 244.249 48.833C231.341 48.833 203.171 51.6576 184.327 74.2546Z" fill="url(#paint1_linear_5_3069)"/>
<path d="M193.372 69.7349C168.247 90.8254 152.168 119.448 152.168 119.448C152.168 119.448 136.088 90.8254 110.963 69.7349C85.8386 48.6442 54.1816 51.6572 54.1816 51.6572C54.2204 51.9945 54.2616 52.329 54.3047 52.6608C59.8714 95.3062 102.421 92.834 102.421 92.834C61.2165 72.7477 66.7442 61.1983 66.7442 61.1983C66.7442 61.1983 114.983 62.7045 122.018 99.3618C131.387 148.183 86.8437 157.612 86.8437 157.612C90.3611 126.478 110.461 120.452 110.461 120.452C72.2712 116.937 75.7887 166.149 75.7887 166.149C75.7887 166.149 86.8437 171.17 108.451 155.603C137.631 134.58 133.073 105.89 133.073 105.89L152.168 127.911L171.262 105.89C171.262 105.89 166.704 134.58 195.884 155.603C217.492 171.17 228.546 166.149 228.546 166.149C228.546 166.149 232.064 116.937 193.875 120.452C193.875 120.452 213.974 126.478 217.492 157.612C217.492 157.612 172.948 148.183 182.317 99.3618C189.352 62.7045 237.592 61.1983 237.592 61.1983C237.592 61.1983 243.119 72.7477 201.914 92.834C201.914 92.834 244.464 95.3062 250.031 52.6608C250.074 52.329 250.115 51.9945 250.154 51.6572C250.154 51.6572 248.589 51.5083 245.882 51.5083C236.407 51.508 212.915 53.3298 193.372 69.7349Z" fill="url(#paint2_linear_5_3069)"/>
<defs>
<linearGradient id="paint0_linear_5_3069" x1="53.1759" y1="109.566" x2="152.167" y2="109.566" gradientUnits="userSpaceOnUse">
<stop stop-color="#ED2723"/>
<stop offset="1" stop-color="#FBA60B"/>
</linearGradient>
<linearGradient id="paint1_linear_5_3069" x1="152.168" y1="109.566" x2="251.159" y2="109.566" gradientUnits="userSpaceOnUse">
<stop stop-color="#ED2723"/>
<stop offset="1" stop-color="#FBA60B"/>
</linearGradient>
<linearGradient id="paint2_linear_5_3069" x1="54.1817" y1="109.215" x2="250.154" y2="109.215" gradientUnits="userSpaceOnUse">
<stop stop-color="#ED2723"/>
<stop offset="1" stop-color="#FBA60B"/>
</linearGradient>
</defs>
</svg>
