<svg width="305" height="304" viewBox="0 0 305 304" fill="none" xmlns="http://www.w3.org/2000/svg">
<path d="M45.079 222.076L49.803 190.965C49.9461 190.154 50.2324 189.724 50.6142 189.724C50.9959 189.724 51.2822 189.963 51.9025 191.203L64.9292 218.116L77.9082 190.869C78.2899 190.106 78.5285 189.724 78.958 189.724C79.3874 189.724 79.6737 190.201 79.8169 191.203L84.1591 220.692C84.5886 223.698 85.0657 225.082 86.4972 225.512C87.881 225.941 88.8354 225.989 89.4557 225.989C89.8851 225.989 90.2191 226.037 90.2191 226.323C90.2191 226.705 89.6465 226.848 88.9785 226.848C87.7856 226.848 81.2007 226.705 79.292 226.561C78.1945 226.466 77.9082 226.323 77.9082 226.037C77.9082 225.798 78.0991 225.655 78.4331 225.512C78.7194 225.416 78.8625 224.796 78.6717 223.46L75.8087 202.464H75.6178L65.2155 224.128C64.118 226.371 63.8795 226.8 63.45 226.8C63.0206 226.8 62.5434 225.846 61.7799 224.414C60.6347 222.219 56.8651 214.919 56.2925 213.582C55.863 212.58 53 206.568 51.3299 202.989H51.1391L48.6578 221.981C48.5624 222.84 48.5146 223.46 48.5146 224.223C48.5146 225.13 49.135 225.559 49.9461 225.75C50.805 225.941 51.4731 225.989 51.9503 225.989C52.332 225.989 52.666 226.084 52.666 226.323C52.666 226.752 52.2366 226.848 51.5208 226.848C49.5167 226.848 47.3694 226.705 46.5105 226.705C45.6039 226.705 43.3135 226.848 41.7866 226.848C41.3094 226.848 40.9277 226.752 40.9277 226.323C40.9277 226.084 41.214 225.989 41.6911 225.989C42.0729 225.989 42.4069 225.989 43.1226 225.846C44.4587 225.559 44.8404 223.698 45.079 222.076ZM109.215 227.373C96.999 227.373 92.0365 218.688 92.0365 211.483C92.0365 204.564 96.9036 195.593 109.644 195.593C120.237 195.593 126.822 201.462 126.822 210.767C126.822 220.072 120.046 227.373 109.215 227.373ZM110.932 225.178C113.891 225.178 120.571 223.794 120.571 212.246C120.571 203.276 115.179 197.74 108.403 197.74C103.727 197.74 98.2397 200.222 98.2397 210.242C98.2397 218.593 103.011 225.178 110.932 225.178ZM136.789 204.755L137.266 221.313C137.361 224.462 137.886 225.416 138.698 225.703C139.413 225.941 140.225 225.989 140.893 225.989C141.37 225.989 141.608 226.18 141.608 226.418C141.608 226.752 141.227 226.848 140.654 226.848C137.934 226.848 135.978 226.705 135.214 226.705C134.833 226.705 132.828 226.848 130.681 226.848C130.109 226.848 129.727 226.8 129.727 226.418C129.727 226.18 130.013 225.989 130.395 225.989C130.967 225.989 131.731 225.941 132.304 225.798C133.401 225.512 133.544 224.414 133.592 220.883L133.974 196.834C133.974 196.023 134.26 195.45 134.689 195.45C135.214 195.45 135.787 196.07 136.503 196.786C137.027 197.311 143.326 203.753 149.434 209.717C152.297 212.533 157.88 218.259 158.5 218.831H158.691L158.261 200.794C158.214 198.313 157.832 197.597 156.83 197.216C156.21 196.977 155.208 196.977 154.635 196.977C154.11 196.977 153.967 196.786 153.967 196.548C153.967 196.214 154.396 196.166 155.017 196.166C157.212 196.166 159.454 196.261 160.361 196.261C160.838 196.261 162.413 196.166 164.465 196.166C165.037 196.166 165.419 196.214 165.419 196.548C165.419 196.786 165.18 196.977 164.703 196.977C164.274 196.977 163.94 196.977 163.415 197.12C162.27 197.454 161.936 198.17 161.888 200.46L161.411 226.037C161.411 226.943 161.077 227.325 160.743 227.325C160.027 227.325 159.454 226.895 159.025 226.466C156.401 224.032 151.152 219.022 146.762 214.775C142.181 210.385 137.743 205.471 136.932 204.755H136.789ZM186.454 216.636H176.576C176.338 216.636 176.29 216.684 176.194 216.923L173.952 222.362C173.522 223.364 173.331 224.366 173.331 224.844C173.331 225.559 173.713 225.989 175.001 225.989H175.622C176.147 225.989 176.242 226.18 176.242 226.418C176.242 226.752 176.004 226.848 175.574 226.848C174.19 226.848 172.234 226.705 170.898 226.705C170.468 226.705 168.226 226.848 166.031 226.848C165.506 226.848 165.267 226.752 165.267 226.418C165.267 226.18 165.41 225.989 165.744 225.989C166.126 225.989 166.603 225.941 166.985 225.941C168.894 225.655 169.609 224.414 170.468 222.362L181.443 196.834C181.92 195.689 182.254 195.211 182.684 195.211C183.304 195.211 183.495 195.593 183.925 196.5C184.927 198.743 191.941 215.348 194.613 221.503C196.235 225.178 197.428 225.703 198.192 225.846C198.812 225.941 199.289 225.989 199.767 225.989C200.148 225.989 200.339 226.132 200.339 226.418C200.339 226.752 200.101 226.848 198.526 226.848C197.047 226.848 193.993 226.848 190.462 226.752C189.698 226.705 189.221 226.705 189.221 226.418C189.221 226.18 189.317 226.037 189.746 225.989C190.032 225.941 190.319 225.559 190.128 225.082L186.883 216.923C186.788 216.684 186.644 216.636 186.454 216.636ZM177.435 214.394H185.547C185.738 214.394 185.786 214.298 185.738 214.155L181.777 203.848C181.73 203.705 181.682 203.466 181.586 203.466C181.443 203.466 181.396 203.705 181.348 203.848L177.292 214.107C177.196 214.298 177.292 214.394 177.435 214.394ZM204.912 215.062V207.904C204.912 201.749 204.912 200.603 204.864 199.315C204.769 197.931 204.387 197.502 203.051 197.12C202.717 197.025 202.001 196.977 201.381 196.977C200.952 196.977 200.665 196.834 200.665 196.548C200.665 196.261 200.999 196.166 201.62 196.166C203.815 196.166 206.487 196.261 207.346 196.261C208.777 196.261 212.595 196.166 213.883 196.166C216.555 196.166 219.609 196.404 221.852 197.884C223.045 198.695 224.81 200.747 224.81 203.466C224.81 206.473 223.092 209.145 218.989 212.437C222.71 217.018 225.669 220.692 228.198 223.221C230.536 225.559 232.015 225.75 232.683 225.893C233.113 225.989 233.351 225.989 233.685 225.989C234.019 225.989 234.21 226.227 234.21 226.418C234.21 226.752 233.924 226.848 233.399 226.848H229.391C227.053 226.848 225.908 226.609 224.81 226.037C222.997 225.13 221.422 223.221 219.084 220.072C217.414 217.877 215.648 215.157 215.124 214.537C214.885 214.298 214.646 214.25 214.36 214.25L210.59 214.155C210.4 214.155 210.256 214.25 210.256 214.489V215.062C210.256 218.831 210.304 221.981 210.495 223.698C210.638 224.891 210.829 225.655 212.117 225.846C212.738 225.941 213.644 225.989 214.169 225.989C214.503 225.989 214.694 226.227 214.694 226.418C214.694 226.705 214.36 226.848 213.835 226.848C211.402 226.848 207.918 226.705 207.298 226.705C206.487 226.705 203.815 226.848 202.145 226.848C201.62 226.848 201.333 226.705 201.333 226.418C201.333 226.227 201.477 225.989 202.001 225.989C202.622 225.989 203.099 225.941 203.481 225.846C204.34 225.655 204.578 224.891 204.721 223.698C204.912 221.981 204.912 218.784 204.912 215.062ZM210.256 198.981V211.053C210.256 211.483 210.352 211.626 210.638 211.769C211.545 212.056 212.785 212.151 213.835 212.151C215.505 212.151 216.078 212.008 216.794 211.483C218.082 210.576 219.513 208.811 219.513 205.471C219.513 199.745 215.601 198.265 213.119 198.265C212.07 198.265 211.068 198.313 210.638 198.409C210.352 198.504 210.256 198.647 210.256 198.981ZM243.112 207.904V209.717H243.303C244.734 208.19 250.842 202.178 252.082 200.794C253.275 199.458 254.182 198.504 254.182 197.788C254.182 197.359 253.991 197.072 253.609 196.977C253.228 196.882 253.037 196.786 253.037 196.548C253.037 196.261 253.275 196.166 253.705 196.166C254.611 196.166 256.902 196.261 258.047 196.261C259.335 196.261 261.674 196.166 262.962 196.166C263.391 196.166 263.678 196.261 263.678 196.548C263.678 196.834 263.439 196.977 263.057 196.977C262.437 196.977 261.387 197.168 260.624 197.454C259.288 197.931 257.952 198.79 256.186 200.46C254.85 201.701 248.599 207.618 247.311 209.097C248.79 211.006 257.045 219.595 258.667 221.122C260.528 222.792 262.151 224.557 264.393 225.464C265.634 225.989 266.493 225.989 266.97 225.989C267.304 225.989 267.543 226.18 267.543 226.418C267.543 226.705 267.304 226.848 266.541 226.848H262.866C261.626 226.848 260.862 226.848 259.956 226.752C257.713 226.561 256.329 225.703 254.516 224.128C252.703 222.553 244.639 213.201 243.732 211.96L243.303 211.387H243.112V215.062C243.112 218.784 243.112 221.981 243.207 223.746C243.303 224.891 243.684 225.655 244.734 225.846C245.307 225.941 246.261 225.989 246.786 225.989C247.12 225.989 247.358 226.227 247.358 226.418C247.358 226.705 247.024 226.848 246.547 226.848C244.209 226.848 241.203 226.705 240.153 226.705C239.199 226.705 236.527 226.848 234.857 226.848C234.332 226.848 234.045 226.705 234.045 226.418C234.045 226.227 234.189 225.989 234.714 225.989C235.334 225.989 235.811 225.941 236.193 225.846C237.052 225.655 237.29 224.891 237.433 223.698C237.624 221.981 237.624 218.784 237.624 215.062V207.904C237.624 201.749 237.624 200.603 237.577 199.315C237.481 197.931 237.099 197.502 235.763 197.12C235.429 197.025 234.714 196.977 234.093 196.977C233.664 196.977 233.377 196.834 233.377 196.548C233.377 196.261 233.711 196.166 234.332 196.166C236.527 196.166 239.199 196.261 240.201 196.261C241.203 196.261 244.209 196.166 245.593 196.166C246.213 196.166 246.5 196.261 246.5 196.548C246.5 196.834 246.261 196.977 245.927 196.977C245.498 196.977 245.259 197.025 244.734 197.12C243.589 197.311 243.255 197.884 243.159 199.315C243.112 200.603 243.112 201.749 243.112 207.904Z" fill="white"/>
<path d="M22.312 251.457C21.0822 251.457 20.142 251.131 19.4914 250.481C18.8497 249.821 18.5289 248.863 18.5289 247.607V241.912H19.6251V247.553C19.6251 248.534 19.8523 249.269 20.3068 249.759C20.7613 250.24 21.4297 250.481 22.312 250.481C23.1943 250.481 23.8582 250.24 24.3038 249.759C24.7494 249.269 24.9722 248.534 24.9722 247.553V241.912H26.0684V247.607C26.0684 248.863 25.7476 249.821 25.1059 250.481C24.4732 251.131 23.5419 251.457 22.312 251.457ZM28.1744 251.336V244.84H29.2304V246.283H29.0834C29.2705 245.766 29.5736 245.379 29.9924 245.12C30.4202 244.853 30.9103 244.719 31.4629 244.719C31.9798 244.719 32.4076 244.813 32.7462 245C33.0938 245.178 33.3522 245.459 33.5215 245.842C33.6909 246.225 33.7755 246.707 33.7755 247.286V251.336H32.6927V247.353C32.6927 246.952 32.6393 246.622 32.5323 246.364C32.4343 246.105 32.2739 245.914 32.0511 245.789C31.8372 245.664 31.5565 245.602 31.2089 245.602C30.8168 245.602 30.4737 245.686 30.1796 245.856C29.8855 246.025 29.6582 246.261 29.4978 246.564C29.3374 246.867 29.2572 247.224 29.2572 247.634V251.336H28.1744ZM37.764 251.457C37.1045 251.457 36.6054 251.261 36.2668 250.869C35.937 250.476 35.7722 249.915 35.7722 249.184V241.912H36.855V249.104C36.855 249.416 36.8951 249.679 36.9753 249.893C37.0644 250.107 37.1936 250.267 37.3629 250.374C37.5323 250.481 37.7417 250.534 37.9912 250.534C38.0982 250.534 38.2007 250.53 38.2987 250.521C38.4056 250.503 38.5037 250.481 38.5928 250.454L38.5661 251.363C38.4235 251.39 38.2853 251.412 38.1517 251.43C38.0269 251.448 37.8977 251.457 37.764 251.457ZM42.59 251.457C41.9038 251.457 41.3112 251.323 40.8121 251.056C40.3219 250.779 39.9387 250.392 39.6624 249.893C39.3951 249.394 39.2614 248.797 39.2614 248.101C39.2614 247.424 39.3951 246.836 39.6624 246.337C39.9298 245.829 40.2952 245.432 40.7586 245.147C41.2309 244.862 41.7746 244.719 42.3895 244.719C42.9777 244.719 43.4812 244.849 43.9001 245.107C44.3189 245.365 44.6398 245.731 44.8626 246.203C45.0943 246.675 45.2101 247.241 45.2101 247.901V248.315H40.0902V247.607H44.4883L44.2744 247.781C44.2744 247.068 44.114 246.515 43.7931 246.123C43.4812 245.722 43.0222 245.521 42.4162 245.521C41.9617 245.521 41.5741 245.628 41.2532 245.842C40.9413 246.047 40.7051 246.337 40.5447 246.711C40.3843 247.077 40.3041 247.504 40.3041 247.994V248.075C40.3041 248.618 40.3888 249.077 40.5581 249.452C40.7363 249.826 40.9992 250.111 41.3468 250.307C41.6944 250.494 42.1088 250.588 42.59 250.588C42.9732 250.588 43.3431 250.53 43.6996 250.414C44.0649 250.289 44.4081 250.089 44.7289 249.812L45.1032 250.574C44.8091 250.842 44.4348 251.056 43.9803 251.216C43.5258 251.377 43.0624 251.457 42.59 251.457ZM48.8225 251.457C48.3769 251.457 47.9759 251.372 47.6194 251.203C47.2718 251.025 46.9956 250.784 46.7906 250.481C46.5856 250.178 46.4831 249.839 46.4831 249.465C46.4831 248.984 46.6034 248.605 46.844 248.329C47.0936 248.052 47.4991 247.856 48.0605 247.74C48.6309 247.625 49.4062 247.567 50.3865 247.567H50.9881V248.275H50.3999C49.8563 248.275 49.4018 248.293 49.0364 248.329C48.671 248.364 48.3814 248.427 48.1675 248.516C47.9536 248.605 47.8021 248.721 47.713 248.863C47.6238 249.006 47.5793 249.184 47.5793 249.398C47.5793 249.763 47.7041 250.062 47.9536 250.294C48.212 250.525 48.5596 250.641 48.9963 250.641C49.3528 250.641 49.6647 250.557 49.932 250.387C50.2083 250.218 50.4222 249.986 50.5737 249.692C50.7341 249.398 50.8143 249.059 50.8143 248.676V247.152C50.8143 246.6 50.7029 246.203 50.4801 245.963C50.2573 245.713 49.8919 245.588 49.384 245.588C48.9918 245.588 48.6131 245.646 48.2477 245.762C47.8823 245.869 47.508 246.047 47.1248 246.297L46.7505 245.508C46.9822 245.348 47.2451 245.209 47.5392 245.094C47.8333 244.969 48.1407 244.875 48.4616 244.813C48.7824 244.75 49.0899 244.719 49.384 244.719C49.9454 244.719 50.4088 244.813 50.7742 245C51.1396 245.178 51.4114 245.455 51.5897 245.829C51.7679 246.194 51.857 246.667 51.857 247.246V251.336H50.8411V249.826H50.9614C50.8901 250.165 50.7519 250.454 50.547 250.695C50.3509 250.935 50.1058 251.123 49.8117 251.256C49.5176 251.39 49.1879 251.457 48.8225 251.457ZM56.0582 251.457C55.7196 251.457 55.3898 251.421 55.069 251.35C54.7571 251.287 54.463 251.198 54.1867 251.082C53.9193 250.958 53.6876 250.811 53.4916 250.641L53.8391 249.879C54.053 250.049 54.2847 250.191 54.5343 250.307C54.7838 250.414 55.0378 250.494 55.2962 250.548C55.5547 250.601 55.8176 250.628 56.0849 250.628C56.5929 250.628 56.9761 250.534 57.2346 250.347C57.493 250.16 57.6223 249.906 57.6223 249.585C57.6223 249.336 57.5376 249.14 57.3683 248.997C57.1989 248.846 56.9316 248.73 56.5662 248.649L55.3497 248.382C54.7883 248.266 54.3694 248.066 54.0931 247.781C53.8258 247.495 53.6921 247.126 53.6921 246.671C53.6921 246.27 53.7946 245.927 53.9995 245.642C54.2134 245.348 54.512 245.12 54.8952 244.96C55.2784 244.8 55.724 244.719 56.232 244.719C56.535 244.719 56.8246 244.75 57.1009 244.813C57.3772 244.875 57.6356 244.969 57.8762 245.094C58.1258 245.209 58.3397 245.357 58.5179 245.535L58.157 246.297C57.9876 246.136 57.796 246.003 57.5822 245.896C57.3683 245.78 57.1455 245.695 56.9138 245.642C56.691 245.579 56.4637 245.548 56.232 245.548C55.7329 245.548 55.3542 245.646 55.0957 245.842C54.8373 246.038 54.708 246.297 54.708 246.618C54.708 246.867 54.7883 247.072 54.9487 247.232C55.1091 247.393 55.3586 247.509 55.6973 247.58L56.9138 247.834C57.493 247.959 57.9253 248.159 58.2104 248.436C58.5045 248.703 58.6516 249.068 58.6516 249.532C58.6516 249.924 58.5446 250.267 58.3308 250.561C58.1169 250.846 57.8139 251.069 57.4217 251.229C57.0385 251.381 56.584 251.457 56.0582 251.457ZM60.3018 251.336V241.912H61.3846V246.283H61.2108C61.398 245.766 61.701 245.379 62.1198 245.12C62.5476 244.853 63.0378 244.719 63.5903 244.719C64.1072 244.719 64.535 244.813 64.8736 245C65.2212 245.187 65.4796 245.472 65.649 245.856C65.8183 246.23 65.903 246.707 65.903 247.286V251.336H64.8202V247.353C64.8202 246.952 64.7667 246.622 64.6597 246.364C64.5617 246.105 64.4013 245.914 64.1785 245.789C63.9646 245.664 63.6839 245.602 63.3363 245.602C62.9442 245.602 62.6011 245.686 62.307 245.856C62.0129 246.025 61.7856 246.261 61.6252 246.564C61.4648 246.867 61.3846 247.224 61.3846 247.634V251.336H60.3018ZM71.48 251.336V241.912H77.3084V242.834H72.5762V246.123H77.0411V247.045H72.5762V251.336H71.48ZM78.526 251.336V244.84H79.5821V246.377H79.4484C79.5999 245.851 79.8628 245.455 80.2371 245.187C80.6114 244.911 81.1061 244.75 81.721 244.706L82.1086 244.666L82.1889 245.602L81.5071 245.682C80.9011 245.735 80.4332 245.931 80.1035 246.27C79.7826 246.6 79.6222 247.054 79.6222 247.634V251.336H78.526ZM86.1663 251.457C85.4801 251.457 84.8875 251.323 84.3884 251.056C83.8982 250.779 83.515 250.392 83.2388 249.893C82.9714 249.394 82.8377 248.797 82.8377 248.101C82.8377 247.424 82.9714 246.836 83.2388 246.337C83.5061 245.829 83.8715 245.432 84.3349 245.147C84.8073 244.862 85.3509 244.719 85.9658 244.719C86.554 244.719 87.0575 244.849 87.4764 245.107C87.8953 245.365 88.2161 245.731 88.4389 246.203C88.6706 246.675 88.7864 247.241 88.7864 247.901V248.315H83.6665V247.607H88.0646L87.8507 247.781C87.8507 247.068 87.6903 246.515 87.3694 246.123C87.0575 245.722 86.5986 245.521 85.9925 245.521C85.538 245.521 85.1504 245.628 84.8295 245.842C84.5176 246.047 84.2815 246.337 84.121 246.711C83.9606 247.077 83.8804 247.504 83.8804 247.994V248.075C83.8804 248.618 83.9651 249.077 84.1344 249.452C84.3126 249.826 84.5755 250.111 84.9231 250.307C85.2707 250.494 85.6851 250.588 86.1663 250.588C86.5495 250.588 86.9194 250.53 87.2759 250.414C87.6413 250.289 87.9844 250.089 88.3052 249.812L88.6795 250.574C88.3854 250.842 88.0111 251.056 87.5566 251.216C87.1021 251.377 86.6387 251.457 86.1663 251.457ZM93.2811 251.457C92.5949 251.457 92.0022 251.323 91.5032 251.056C91.013 250.779 90.6298 250.392 90.3535 249.893C90.0862 249.394 89.9525 248.797 89.9525 248.101C89.9525 247.424 90.0862 246.836 90.3535 246.337C90.6209 245.829 90.9863 245.432 91.4497 245.147C91.922 244.862 92.4657 244.719 93.0806 244.719C93.6688 244.719 94.1723 244.849 94.5912 245.107C95.01 245.365 95.3309 245.731 95.5537 246.203C95.7854 246.675 95.9012 247.241 95.9012 247.901V248.315H90.7813V247.607H95.1793L94.9655 247.781C94.9655 247.068 94.805 246.515 94.4842 246.123C94.1723 245.722 93.7133 245.521 93.1073 245.521C92.6528 245.521 92.2651 245.628 91.9443 245.842C91.6324 246.047 91.3962 246.337 91.2358 246.711C91.0754 247.077 90.9952 247.504 90.9952 247.994V248.075C90.9952 248.618 91.0798 249.077 91.2492 249.452C91.4274 249.826 91.6903 250.111 92.0379 250.307C92.3855 250.494 92.7999 250.588 93.2811 250.588C93.6643 250.588 94.0342 250.53 94.3906 250.414C94.756 250.289 95.0991 250.089 95.42 249.812L95.7943 250.574C95.5002 250.842 95.1259 251.056 94.6714 251.216C94.2169 251.377 93.7534 251.457 93.2811 251.457ZM99.9414 251.457C99.3621 251.457 98.8541 251.319 98.4174 251.042C97.9896 250.766 97.6554 250.378 97.4148 249.879C97.1831 249.371 97.0673 248.774 97.0673 248.088C97.0673 247.393 97.1831 246.796 97.4148 246.297C97.6554 245.789 97.9896 245.401 98.4174 245.134C98.8541 244.857 99.3621 244.719 99.9414 244.719C100.53 244.719 101.033 244.866 101.452 245.16C101.871 245.455 102.152 245.851 102.294 246.35H102.147V241.912H103.23V251.336H102.174V249.786H102.307C102.165 250.294 101.88 250.699 101.452 251.002C101.033 251.305 100.53 251.457 99.9414 251.457ZM100.169 250.588C100.784 250.588 101.269 250.374 101.626 249.946C101.991 249.509 102.174 248.89 102.174 248.088C102.174 247.277 101.991 246.658 101.626 246.23C101.269 245.802 100.784 245.588 100.169 245.588C99.5626 245.588 99.0769 245.802 98.7115 246.23C98.3461 246.658 98.1634 247.277 98.1634 248.088C98.1634 248.89 98.3461 249.509 98.7115 249.946C99.0769 250.374 99.5626 250.588 100.169 250.588ZM107.962 251.457C107.329 251.457 106.781 251.319 106.318 251.042C105.855 250.766 105.494 250.378 105.235 249.879C104.986 249.371 104.861 248.774 104.861 248.088C104.861 247.402 104.986 246.809 105.235 246.31C105.494 245.802 105.855 245.41 106.318 245.134C106.781 244.857 107.329 244.719 107.962 244.719C108.595 244.719 109.143 244.857 109.606 245.134C110.07 245.41 110.426 245.802 110.676 246.31C110.934 246.809 111.064 247.402 111.064 248.088C111.064 248.774 110.934 249.371 110.676 249.879C110.426 250.378 110.07 250.766 109.606 251.042C109.143 251.319 108.595 251.457 107.962 251.457ZM107.962 250.588C108.577 250.588 109.063 250.374 109.419 249.946C109.785 249.509 109.967 248.886 109.967 248.075C109.967 247.273 109.785 246.658 109.419 246.23C109.063 245.802 108.577 245.588 107.962 245.588C107.356 245.588 106.871 245.802 106.505 246.23C106.14 246.658 105.957 247.273 105.957 248.075C105.957 248.886 106.14 249.509 106.505 249.946C106.871 250.374 107.356 250.588 107.962 250.588ZM112.717 251.336V244.84H113.773V246.283H113.626C113.733 245.954 113.889 245.673 114.094 245.441C114.308 245.201 114.557 245.022 114.842 244.906C115.136 244.782 115.457 244.719 115.805 244.719C116.357 244.719 116.803 244.853 117.142 245.12C117.489 245.379 117.721 245.784 117.837 246.337H117.636C117.797 245.838 118.082 245.446 118.492 245.16C118.911 244.866 119.396 244.719 119.949 244.719C120.439 244.719 120.84 244.813 121.152 245C121.473 245.187 121.713 245.472 121.874 245.856C122.034 246.23 122.114 246.707 122.114 247.286V251.336H121.032V247.339C121.032 246.742 120.929 246.306 120.724 246.029C120.519 245.744 120.172 245.602 119.681 245.602C119.334 245.602 119.026 245.686 118.759 245.856C118.501 246.025 118.3 246.266 118.157 246.577C118.024 246.88 117.957 247.241 117.957 247.66V251.336H116.874V247.339C116.874 246.742 116.767 246.306 116.553 246.029C116.348 245.744 116.005 245.602 115.524 245.602C115.168 245.602 114.86 245.686 114.602 245.856C114.343 246.025 114.143 246.266 114 246.577C113.866 246.88 113.8 247.241 113.8 247.66V251.336H112.717ZM124.527 252.86L124.019 252.473C124.179 252.303 124.299 252.143 124.38 251.991C124.469 251.849 124.527 251.702 124.553 251.55C124.589 251.408 124.607 251.261 124.607 251.109L124.847 251.336H123.965V249.973H125.329V250.935C125.329 251.176 125.302 251.403 125.248 251.617C125.204 251.84 125.124 252.054 125.008 252.259C124.892 252.464 124.732 252.664 124.527 252.86ZM130.761 251.336V241.912H136.71V242.834H131.83V246.096H136.429V247.019H131.83V250.414H136.71V251.336H130.761ZM138.434 251.336V244.84H139.49V246.283H139.343C139.45 245.954 139.606 245.673 139.811 245.441C140.025 245.201 140.275 245.022 140.56 244.906C140.854 244.782 141.175 244.719 141.522 244.719C142.075 244.719 142.52 244.853 142.859 245.12C143.207 245.379 143.438 245.784 143.554 246.337H143.354C143.514 245.838 143.799 245.446 144.209 245.16C144.628 244.866 145.114 244.719 145.666 244.719C146.157 244.719 146.558 244.813 146.869 245C147.19 245.187 147.431 245.472 147.591 245.856C147.752 246.23 147.832 246.707 147.832 247.286V251.336H146.749V247.339C146.749 246.742 146.647 246.306 146.442 246.029C146.237 245.744 145.889 245.602 145.399 245.602C145.051 245.602 144.744 245.686 144.477 245.856C144.218 246.025 144.018 246.266 143.875 246.577C143.741 246.88 143.675 247.241 143.675 247.66V251.336H142.592V247.339C142.592 246.742 142.485 246.306 142.271 246.029C142.066 245.744 141.723 245.602 141.242 245.602C140.885 245.602 140.578 245.686 140.319 245.856C140.061 246.025 139.86 246.266 139.718 246.577C139.584 246.88 139.517 247.241 139.517 247.66V251.336H138.434ZM149.856 253.743V244.84H150.913V246.377H150.779C150.921 245.869 151.202 245.468 151.621 245.174C152.049 244.871 152.557 244.719 153.145 244.719C153.724 244.719 154.228 244.857 154.656 245.134C155.092 245.401 155.426 245.789 155.658 246.297C155.899 246.796 156.019 247.393 156.019 248.088C156.019 248.774 155.899 249.371 155.658 249.879C155.426 250.378 155.097 250.766 154.669 251.042C154.241 251.319 153.733 251.457 153.145 251.457C152.557 251.457 152.053 251.31 151.634 251.016C151.216 250.713 150.93 250.312 150.779 249.812H150.939V253.743H149.856ZM152.918 250.588C153.533 250.588 154.018 250.374 154.375 249.946C154.74 249.509 154.923 248.89 154.923 248.088C154.923 247.277 154.74 246.658 154.375 246.23C154.018 245.802 153.533 245.588 152.918 245.588C152.312 245.588 151.826 245.802 151.461 246.23C151.095 246.658 150.913 247.277 150.913 248.088C150.913 248.89 151.095 249.509 151.461 249.946C151.826 250.374 152.312 250.588 152.918 250.588ZM160.35 251.457C159.718 251.457 159.17 251.319 158.706 251.042C158.243 250.766 157.882 250.378 157.623 249.879C157.374 249.371 157.249 248.774 157.249 248.088C157.249 247.402 157.374 246.809 157.623 246.31C157.882 245.802 158.243 245.41 158.706 245.134C159.17 244.857 159.718 244.719 160.35 244.719C160.983 244.719 161.531 244.857 161.995 245.134C162.458 245.41 162.815 245.802 163.064 246.31C163.323 246.809 163.452 247.402 163.452 248.088C163.452 248.774 163.323 249.371 163.064 249.879C162.815 250.378 162.458 250.766 161.995 251.042C161.531 251.319 160.983 251.457 160.35 251.457ZM160.35 250.588C160.965 250.588 161.451 250.374 161.808 249.946C162.173 249.509 162.356 248.886 162.356 248.075C162.356 247.273 162.173 246.658 161.808 246.23C161.451 245.802 160.965 245.588 160.35 245.588C159.744 245.588 159.259 245.802 158.893 246.23C158.528 246.658 158.345 247.273 158.345 248.075C158.345 248.886 158.528 249.509 158.893 249.946C159.259 250.374 159.744 250.588 160.35 250.588ZM166.711 251.336L164.292 244.84H165.428L167.42 250.534H167.099L169.158 244.84H170.08L172.099 250.534H171.791L173.81 244.84H174.892L172.459 251.336H171.43L169.305 245.495H169.879L167.754 251.336H166.711ZM179.063 251.457C178.377 251.457 177.784 251.323 177.285 251.056C176.795 250.779 176.412 250.392 176.135 249.893C175.868 249.394 175.734 248.797 175.734 248.101C175.734 247.424 175.868 246.836 176.135 246.337C176.403 245.829 176.768 245.432 177.232 245.147C177.704 244.862 178.248 244.719 178.862 244.719C179.451 244.719 179.954 244.849 180.373 245.107C180.792 245.365 181.113 245.731 181.336 246.203C181.567 246.675 181.683 247.241 181.683 247.901V248.315H176.563V247.607H180.961L180.747 247.781C180.747 247.068 180.587 246.515 180.266 246.123C179.954 245.722 179.495 245.521 178.889 245.521C178.435 245.521 178.047 245.628 177.726 245.842C177.414 246.047 177.178 246.337 177.018 246.711C176.857 247.077 176.777 247.504 176.777 247.994V248.075C176.777 248.618 176.862 249.077 177.031 249.452C177.209 249.826 177.472 250.111 177.82 250.307C178.167 250.494 178.582 250.588 179.063 250.588C179.446 250.588 179.816 250.53 180.173 250.414C180.538 250.289 180.881 250.089 181.202 249.812L181.576 250.574C181.282 250.842 180.908 251.056 180.453 251.216C179.999 251.377 179.535 251.457 179.063 251.457ZM183.25 251.336V244.84H184.306V246.377H184.173C184.324 245.851 184.587 245.455 184.961 245.187C185.336 244.911 185.83 244.75 186.445 244.706L186.833 244.666L186.913 245.602L186.231 245.682C185.625 245.735 185.157 245.931 184.828 246.27C184.507 246.6 184.346 247.054 184.346 247.634V251.336H183.25ZM191.622 251.336V241.912H194.803C195.828 241.912 196.693 242.095 197.397 242.46C198.11 242.817 198.649 243.347 199.014 244.051C199.388 244.746 199.576 245.602 199.576 246.618C199.576 247.634 199.388 248.494 199.014 249.198C198.649 249.902 198.11 250.436 197.397 250.802C196.693 251.158 195.828 251.336 194.803 251.336H191.622ZM192.718 250.401H194.723C195.962 250.401 196.884 250.084 197.49 249.452C198.105 248.819 198.413 247.874 198.413 246.618C198.413 245.361 198.105 244.421 197.49 243.797C196.875 243.164 195.953 242.848 194.723 242.848H192.718V250.401ZM204.324 251.457C203.637 251.457 203.045 251.323 202.546 251.056C202.056 250.779 201.672 250.392 201.396 249.893C201.129 249.394 200.995 248.797 200.995 248.101C200.995 247.424 201.129 246.836 201.396 246.337C201.663 245.829 202.029 245.432 202.492 245.147C202.965 244.862 203.508 244.719 204.123 244.719C204.711 244.719 205.215 244.849 205.634 245.107C206.053 245.365 206.373 245.731 206.596 246.203C206.828 246.675 206.944 247.241 206.944 247.901V248.315H201.824V247.607H206.222L206.008 247.781C206.008 247.068 205.848 246.515 205.527 246.123C205.215 245.722 204.756 245.521 204.15 245.521C203.695 245.521 203.308 245.628 202.987 245.842C202.675 246.047 202.439 246.337 202.278 246.711C202.118 247.077 202.038 247.504 202.038 247.994V248.075C202.038 248.618 202.122 249.077 202.292 249.452C202.47 249.826 202.733 250.111 203.08 250.307C203.428 250.494 203.842 250.588 204.324 250.588C204.707 250.588 205.077 250.53 205.433 250.414C205.799 250.289 206.142 250.089 206.463 249.812L206.837 250.574C206.543 250.842 206.168 251.056 205.714 251.216C205.259 251.377 204.796 251.457 204.324 251.457ZM211.265 251.457C210.614 251.457 210.053 251.314 209.58 251.029C209.108 250.744 208.743 250.347 208.484 249.839C208.235 249.322 208.11 248.725 208.11 248.048C208.11 247.362 208.235 246.769 208.484 246.27C208.743 245.771 209.108 245.388 209.58 245.12C210.053 244.853 210.614 244.719 211.265 244.719C211.666 244.719 212.062 244.791 212.454 244.933C212.847 245.076 213.172 245.276 213.43 245.535L213.056 246.323C212.798 246.074 212.512 245.891 212.2 245.775C211.897 245.66 211.608 245.602 211.332 245.602C210.654 245.602 210.133 245.815 209.767 246.243C209.402 246.662 209.219 247.268 209.219 248.061C209.219 248.837 209.402 249.452 209.767 249.906C210.133 250.352 210.654 250.574 211.332 250.574C211.608 250.574 211.897 250.517 212.2 250.401C212.512 250.285 212.798 250.098 213.056 249.839L213.43 250.628C213.172 250.886 212.842 251.091 212.441 251.243C212.049 251.385 211.657 251.457 211.265 251.457ZM217.496 251.457C216.81 251.457 216.217 251.323 215.718 251.056C215.228 250.779 214.844 250.392 214.568 249.893C214.301 249.394 214.167 248.797 214.167 248.101C214.167 247.424 214.301 246.836 214.568 246.337C214.836 245.829 215.201 245.432 215.664 245.147C216.137 244.862 216.68 244.719 217.295 244.719C217.883 244.719 218.387 244.849 218.806 245.107C219.225 245.365 219.546 245.731 219.768 246.203C220 246.675 220.116 247.241 220.116 247.901V248.315H214.996V247.607H219.394L219.18 247.781C219.18 247.068 219.02 246.515 218.699 246.123C218.387 245.722 217.928 245.521 217.322 245.521C216.868 245.521 216.48 245.628 216.159 245.842C215.847 246.047 215.611 246.337 215.451 246.711C215.29 247.077 215.21 247.504 215.21 247.994V248.075C215.21 248.618 215.295 249.077 215.464 249.452C215.642 249.826 215.905 250.111 216.253 250.307C216.6 250.494 217.015 250.588 217.496 250.588C217.879 250.588 218.249 250.53 218.605 250.414C218.971 250.289 219.314 250.089 219.635 249.812L220.009 250.574C219.715 250.842 219.341 251.056 218.886 251.216C218.432 251.377 217.968 251.457 217.496 251.457ZM221.683 251.336V244.84H222.739V246.283H222.592C222.779 245.766 223.082 245.379 223.501 245.12C223.929 244.853 224.419 244.719 224.971 244.719C225.488 244.719 225.916 244.813 226.255 245C226.602 245.178 226.861 245.459 227.03 245.842C227.199 246.225 227.284 246.707 227.284 247.286V251.336H226.201V247.353C226.201 246.952 226.148 246.622 226.041 246.364C225.943 246.105 225.782 245.914 225.56 245.789C225.346 245.664 225.065 245.602 224.718 245.602C224.325 245.602 223.982 245.686 223.688 245.856C223.394 246.025 223.167 246.261 223.006 246.564C222.846 246.867 222.766 247.224 222.766 247.634V251.336H221.683ZM231.888 251.457C231.121 251.457 230.546 251.252 230.163 250.842C229.78 250.432 229.588 249.848 229.588 249.091V245.682H228.318V244.84H229.588V242.848H230.671V244.84H232.73V245.682H230.671V248.984C230.671 249.492 230.778 249.879 230.992 250.147C231.206 250.405 231.553 250.534 232.035 250.534C232.177 250.534 232.32 250.517 232.462 250.481C232.605 250.445 232.734 250.41 232.85 250.374L233.037 251.203C232.921 251.265 232.752 251.323 232.529 251.377C232.306 251.43 232.093 251.457 231.888 251.457ZM233.954 251.336V244.84H235.01V246.377H234.877C235.028 245.851 235.291 245.455 235.665 245.187C236.04 244.911 236.534 244.75 237.149 244.706L237.537 244.666L237.617 245.602L236.935 245.682C236.329 245.735 235.861 245.931 235.532 246.27C235.211 246.6 235.051 247.054 235.051 247.634V251.336H233.954ZM240.725 251.457C240.28 251.457 239.879 251.372 239.522 251.203C239.175 251.025 238.898 250.784 238.693 250.481C238.488 250.178 238.386 249.839 238.386 249.465C238.386 248.984 238.506 248.605 238.747 248.329C238.996 248.052 239.402 247.856 239.963 247.74C240.534 247.625 241.309 247.567 242.289 247.567H242.891V248.275H242.303C241.759 248.275 241.305 248.293 240.939 248.329C240.574 248.364 240.284 248.427 240.07 248.516C239.856 248.605 239.705 248.721 239.616 248.863C239.527 249.006 239.482 249.184 239.482 249.398C239.482 249.763 239.607 250.062 239.856 250.294C240.115 250.525 240.462 250.641 240.899 250.641C241.256 250.641 241.568 250.557 241.835 250.387C242.111 250.218 242.325 249.986 242.477 249.692C242.637 249.398 242.717 249.059 242.717 248.676V247.152C242.717 246.6 242.606 246.203 242.383 245.963C242.16 245.713 241.795 245.588 241.287 245.588C240.895 245.588 240.516 245.646 240.151 245.762C239.785 245.869 239.411 246.047 239.028 246.297L238.653 245.508C238.885 245.348 239.148 245.209 239.442 245.094C239.736 244.969 240.044 244.875 240.364 244.813C240.685 244.75 240.993 244.719 241.287 244.719C241.848 244.719 242.312 244.813 242.677 245C243.043 245.178 243.314 245.455 243.493 245.829C243.671 246.194 243.76 246.667 243.76 247.246V251.336H242.744V249.826H242.864C242.793 250.165 242.655 250.454 242.45 250.695C242.254 250.935 242.009 251.123 241.715 251.256C241.421 251.39 241.091 251.457 240.725 251.457ZM247.761 251.457C247.101 251.457 246.602 251.261 246.263 250.869C245.934 250.476 245.769 249.915 245.769 249.184V241.912H246.852V249.104C246.852 249.416 246.892 249.679 246.972 249.893C247.061 250.107 247.19 250.267 247.36 250.374C247.529 250.481 247.738 250.534 247.988 250.534C248.095 250.534 248.197 250.53 248.295 250.521C248.402 250.503 248.5 250.481 248.589 250.454L248.563 251.363C248.42 251.39 248.282 251.412 248.148 251.43C248.023 251.448 247.894 251.457 247.761 251.457ZM249.591 243.222V242.006H250.927V243.222H249.591ZM249.724 251.336V244.84H250.807V251.336H249.724ZM252.551 251.336V250.615L256.467 245.401V245.682H252.551V244.84H257.47V245.561L253.513 250.802V250.494H257.617V251.336H252.551ZM260.999 251.457C260.554 251.457 260.153 251.372 259.796 251.203C259.449 251.025 259.172 250.784 258.967 250.481C258.762 250.178 258.66 249.839 258.66 249.465C258.66 248.984 258.78 248.605 259.021 248.329C259.27 248.052 259.676 247.856 260.237 247.74C260.808 247.625 261.583 247.567 262.563 247.567H263.165V248.275H262.577C262.033 248.275 261.578 248.293 261.213 248.329C260.848 248.364 260.558 248.427 260.344 248.516C260.13 248.605 259.979 248.721 259.89 248.863C259.801 249.006 259.756 249.184 259.756 249.398C259.756 249.763 259.881 250.062 260.13 250.294C260.389 250.525 260.736 250.641 261.173 250.641C261.529 250.641 261.841 250.557 262.109 250.387C262.385 250.218 262.599 249.986 262.75 249.692C262.911 249.398 262.991 249.059 262.991 248.676V247.152C262.991 246.6 262.88 246.203 262.657 245.963C262.434 245.713 262.069 245.588 261.561 245.588C261.169 245.588 260.79 245.646 260.424 245.762C260.059 245.869 259.685 246.047 259.301 246.297L258.927 245.508C259.159 245.348 259.422 245.209 259.716 245.094C260.01 244.969 260.317 244.875 260.638 244.813C260.959 244.75 261.267 244.719 261.561 244.719C262.122 244.719 262.586 244.813 262.951 245C263.316 245.178 263.588 245.455 263.766 245.829C263.945 246.194 264.034 246.667 264.034 247.246V251.336H263.018V249.826H263.138C263.067 250.165 262.929 250.454 262.724 250.695C262.528 250.935 262.283 251.123 261.988 251.256C261.694 251.39 261.365 251.457 260.999 251.457ZM268.649 251.457C267.883 251.457 267.308 251.252 266.925 250.842C266.542 250.432 266.35 249.848 266.35 249.091V245.682H265.08V244.84H266.35V242.848H267.433V244.84H269.492V245.682H267.433V248.984C267.433 249.492 267.54 249.879 267.754 250.147C267.968 250.405 268.315 250.534 268.796 250.534C268.939 250.534 269.082 250.517 269.224 250.481C269.367 250.445 269.496 250.41 269.612 250.374L269.799 251.203C269.683 251.265 269.514 251.323 269.291 251.377C269.068 251.43 268.854 251.457 268.649 251.457ZM270.582 243.222V242.006H271.919V243.222H270.582ZM270.716 251.336V244.84H271.799V251.336H270.716ZM276.523 251.457C275.891 251.457 275.343 251.319 274.879 251.042C274.416 250.766 274.055 250.378 273.796 249.879C273.547 249.371 273.422 248.774 273.422 248.088C273.422 247.402 273.547 246.809 273.796 246.31C274.055 245.802 274.416 245.41 274.879 245.134C275.343 244.857 275.891 244.719 276.523 244.719C277.156 244.719 277.704 244.857 278.168 245.134C278.631 245.41 278.988 245.802 279.237 246.31C279.496 246.809 279.625 247.402 279.625 248.088C279.625 248.774 279.496 249.371 279.237 249.879C278.988 250.378 278.631 250.766 278.168 251.042C277.704 251.319 277.156 251.457 276.523 251.457ZM276.523 250.588C277.138 250.588 277.624 250.374 277.981 249.946C278.346 249.509 278.529 248.886 278.529 248.075C278.529 247.273 278.346 246.658 277.981 246.23C277.624 245.802 277.138 245.588 276.523 245.588C275.917 245.588 275.432 245.802 275.066 246.23C274.701 246.658 274.518 247.273 274.518 248.075C274.518 248.886 274.701 249.509 275.066 249.946C275.432 250.374 275.917 250.588 276.523 250.588ZM281.251 251.336V244.84H282.307V246.283H282.16C282.347 245.766 282.65 245.379 283.069 245.12C283.497 244.853 283.987 244.719 284.54 244.719C285.057 244.719 285.484 244.813 285.823 245C286.171 245.178 286.429 245.459 286.598 245.842C286.768 246.225 286.852 246.707 286.852 247.286V251.336H285.77V247.353C285.77 246.952 285.716 246.622 285.609 246.364C285.511 246.105 285.351 245.914 285.128 245.789C284.914 245.664 284.633 245.602 284.286 245.602C283.894 245.602 283.55 245.686 283.256 245.856C282.962 246.025 282.735 246.261 282.575 246.564C282.414 246.867 282.334 247.224 282.334 247.634V251.336H281.251Z" fill="white"/>
<path d="M53.1758 48.9467C54.6833 104.184 112.972 96.6513 112.972 96.6513C67.7482 80.0801 66.7434 60.9985 66.7434 60.9985L79.3056 56.981L113.978 77.0671L125.032 101.673L123.022 132.304L110.508 147.369L93.3751 157.914L85.3354 160.927L83.8279 154.901L89.8579 129.794L110.46 120.252C67.7482 118.746 76.2906 169.966 76.2906 169.966C126.037 173.481 133.072 105.69 133.072 105.69L152.167 127.711V109.979C152.167 109.979 145.132 104.184 120.007 74.0544C101.164 51.4574 72.9932 48.6328 60.0853 48.6328C55.7828 48.6328 53.1758 48.9467 53.1758 48.9467Z" fill="url(#paint0_linear_5_2987)"/>
<path d="M184.327 74.0544C159.203 104.184 152.168 109.979 152.168 109.979V127.711L171.262 105.69C171.262 105.69 178.298 173.481 228.044 169.966C228.044 169.966 236.586 118.746 193.875 120.252L214.477 129.794L220.507 154.901L218.999 160.927L210.959 157.914L193.827 147.369L181.312 132.304L179.303 101.673L190.357 77.0671L225.029 56.981L237.592 60.9985C237.592 60.9985 236.586 80.0801 191.362 96.6513C191.362 96.6513 249.651 104.184 251.159 48.9467C251.159 48.9467 248.552 48.6328 244.249 48.6328C231.341 48.6328 203.171 51.4574 184.327 74.0544Z" fill="url(#paint1_linear_5_2987)"/>
<path d="M193.372 69.5347C168.247 90.6252 152.168 119.248 152.168 119.248C152.168 119.248 136.088 90.6252 110.963 69.5347C85.8386 48.444 54.1816 51.457 54.1816 51.457C54.2204 51.7943 54.2616 52.1288 54.3047 52.4606C59.8714 95.106 102.421 92.6338 102.421 92.6338C61.2165 72.5475 66.7442 60.9981 66.7442 60.9981C66.7442 60.9981 114.983 62.5043 122.018 99.1616C131.387 147.983 86.8437 157.412 86.8437 157.412C90.3611 126.278 110.461 120.252 110.461 120.252C72.2712 116.737 75.7887 165.948 75.7887 165.948C75.7887 165.948 86.8437 170.97 108.451 155.403C137.631 134.38 133.073 105.69 133.073 105.69L152.168 127.711L171.262 105.69C171.262 105.69 166.704 134.38 195.884 155.403C217.492 170.97 228.546 165.948 228.546 165.948C228.546 165.948 232.064 116.737 193.875 120.252C193.875 120.252 213.974 126.278 217.492 157.412C217.492 157.412 172.948 147.983 182.317 99.1616C189.352 62.5043 237.592 60.9981 237.592 60.9981C237.592 60.9981 243.119 72.5475 201.914 92.6338C201.914 92.6338 244.464 95.106 250.031 52.4606C250.074 52.1288 250.115 51.7943 250.154 51.457C250.154 51.457 248.589 51.3081 245.882 51.3081C236.407 51.3078 212.915 53.1297 193.372 69.5347Z" fill="white"/>
<defs>
<linearGradient id="paint0_linear_5_2987" x1="53.1759" y1="109.365" x2="152.167" y2="109.365" gradientUnits="userSpaceOnUse">
<stop stop-color="white"/>
<stop offset="1" stop-color="#838383"/>
</linearGradient>
<linearGradient id="paint1_linear_5_2987" x1="152.168" y1="109.365" x2="251.159" y2="109.365" gradientUnits="userSpaceOnUse">
<stop stop-color="white"/>
<stop offset="1" stop-color="#838383"/>
</linearGradient>
</defs>
</svg>
