<svg width="319" height="318" viewBox="0 0 319 318" fill="none" xmlns="http://www.w3.org/2000/svg">
<path d="M47.2268 232.598L52.1619 200.096C52.3114 199.249 52.6105 198.8 53.0093 198.8C53.4081 198.8 53.7072 199.05 54.3552 200.346L67.9641 228.461L81.5232 199.997C81.922 199.199 82.1712 198.8 82.6198 198.8C83.0685 198.8 83.3676 199.299 83.5171 200.346L88.0534 231.153C88.5021 234.293 89.0006 235.739 90.496 236.187C91.9417 236.636 92.9387 236.686 93.5867 236.686C94.0354 236.686 94.3843 236.736 94.3843 237.035C94.3843 237.434 93.7861 237.583 93.0882 237.583C91.842 237.583 84.9628 237.434 82.9688 237.284C81.8223 237.184 81.5232 237.035 81.5232 236.736C81.5232 236.486 81.7226 236.337 82.0715 236.187C82.3706 236.088 82.5201 235.44 82.3208 234.044L79.3298 212.11H79.1304L68.2632 234.742C67.1167 237.085 66.8674 237.533 66.4188 237.533C65.9702 237.533 65.4717 236.536 64.6741 235.041C63.4777 232.748 59.5396 225.121 58.9414 223.725C58.4927 222.678 55.5018 216.397 53.7571 212.658H53.5577L50.9655 232.499C50.8658 233.396 50.8159 234.044 50.8159 234.841C50.8159 235.789 51.464 236.237 52.3114 236.437C53.2087 236.636 53.9066 236.686 54.4051 236.686C54.8039 236.686 55.1528 236.786 55.1528 237.035C55.1528 237.483 54.7042 237.583 53.9565 237.583C51.8628 237.583 49.6196 237.434 48.7223 237.434C47.7751 237.434 45.3824 237.583 43.7872 237.583C43.2887 237.583 42.8899 237.483 42.8899 237.035C42.8899 236.786 43.189 236.686 43.6875 236.686C44.0863 236.686 44.4352 236.686 45.183 236.536C46.5787 236.237 46.9775 234.293 47.2268 232.598ZM114.229 238.131C101.467 238.131 96.2829 229.059 96.2829 221.532C96.2829 214.303 101.367 204.932 114.677 204.932C125.744 204.932 132.623 211.063 132.623 220.784C132.623 230.505 125.544 238.131 114.229 238.131ZM116.023 235.838C119.114 235.838 126.093 234.393 126.093 222.329C126.093 212.958 120.46 207.175 113.381 207.175C108.496 207.175 102.763 209.767 102.763 220.236C102.763 228.959 107.748 235.838 116.023 235.838ZM143.035 214.503L143.534 231.801C143.634 235.091 144.182 236.088 145.029 236.387C145.777 236.636 146.624 236.686 147.322 236.686C147.821 236.686 148.07 236.885 148.07 237.134C148.07 237.483 147.671 237.583 147.073 237.583C144.232 237.583 142.188 237.434 141.39 237.434C140.992 237.434 138.898 237.583 136.655 237.583C136.056 237.583 135.658 237.533 135.658 237.134C135.658 236.885 135.957 236.686 136.356 236.686C136.954 236.686 137.751 236.636 138.349 236.486C139.496 236.187 139.646 235.041 139.695 231.352L140.094 206.228C140.094 205.38 140.393 204.782 140.842 204.782C141.39 204.782 141.989 205.43 142.736 206.178C143.285 206.726 149.865 213.456 156.245 219.687C159.236 222.628 165.069 228.61 165.717 229.208H165.916L165.468 210.365C165.418 207.773 165.019 207.025 163.972 206.627C163.324 206.377 162.277 206.377 161.679 206.377C161.131 206.377 160.981 206.178 160.981 205.929C160.981 205.58 161.43 205.53 162.078 205.53C164.371 205.53 166.714 205.63 167.661 205.63C168.159 205.63 169.804 205.53 171.948 205.53C172.546 205.53 172.945 205.58 172.945 205.929C172.945 206.178 172.696 206.377 172.197 206.377C171.749 206.377 171.4 206.377 170.851 206.527C169.655 206.876 169.306 207.624 169.256 210.016L168.758 236.736C168.758 237.683 168.409 238.082 168.06 238.082C167.312 238.082 166.714 237.633 166.265 237.184C163.523 234.642 158.04 229.408 153.454 224.971C148.668 220.385 144.032 215.251 143.185 214.503H143.035ZM194.92 226.915H184.601C184.352 226.915 184.302 226.965 184.202 227.214L181.859 232.897C181.41 233.944 181.211 234.991 181.211 235.489C181.211 236.237 181.61 236.686 182.956 236.686H183.604C184.152 236.686 184.252 236.885 184.252 237.134C184.252 237.483 184.003 237.583 183.554 237.583C182.108 237.583 180.064 237.434 178.669 237.434C178.22 237.434 175.877 237.583 173.584 237.583C173.036 237.583 172.786 237.483 172.786 237.134C172.786 236.885 172.936 236.686 173.285 236.686C173.684 236.686 174.182 236.636 174.581 236.636C176.575 236.337 177.323 235.041 178.22 232.897L189.685 206.228C190.184 205.031 190.533 204.533 190.981 204.533C191.63 204.533 191.829 204.932 192.278 205.879C193.324 208.222 200.652 225.569 203.444 232C205.139 235.838 206.385 236.387 207.183 236.536C207.831 236.636 208.329 236.686 208.828 236.686C209.226 236.686 209.426 236.835 209.426 237.134C209.426 237.483 209.176 237.583 207.531 237.583C205.986 237.583 202.796 237.583 199.107 237.483C198.309 237.434 197.811 237.434 197.811 237.134C197.811 236.885 197.911 236.736 198.359 236.686C198.658 236.636 198.957 236.237 198.758 235.739L195.368 227.214C195.269 226.965 195.119 226.915 194.92 226.915ZM185.498 224.572H193.972C194.172 224.572 194.222 224.473 194.172 224.323L190.034 213.556C189.984 213.406 189.935 213.157 189.835 213.157C189.685 213.157 189.636 213.406 189.586 213.556L185.348 224.273C185.249 224.473 185.348 224.572 185.498 224.572ZM214.203 225.27V217.793C214.203 211.362 214.203 210.166 214.153 208.82C214.054 207.374 213.655 206.926 212.259 206.527C211.91 206.427 211.162 206.377 210.514 206.377C210.066 206.377 209.767 206.228 209.767 205.929C209.767 205.63 210.115 205.53 210.764 205.53C213.057 205.53 215.848 205.63 216.745 205.63C218.241 205.63 222.229 205.53 223.575 205.53C226.366 205.53 229.557 205.779 231.9 207.325C233.146 208.172 234.99 210.316 234.99 213.157C234.99 216.297 233.196 219.089 228.909 222.529C232.797 227.314 235.888 231.153 238.53 233.795C240.972 236.237 242.518 236.437 243.215 236.586C243.664 236.686 243.913 236.686 244.262 236.686C244.611 236.686 244.811 236.935 244.811 237.134C244.811 237.483 244.512 237.583 243.963 237.583H239.776C237.333 237.583 236.137 237.334 234.99 236.736C233.096 235.789 231.451 233.795 229.008 230.505C227.264 228.211 225.419 225.37 224.871 224.722C224.622 224.473 224.372 224.423 224.073 224.423L220.135 224.323C219.936 224.323 219.786 224.423 219.786 224.672V225.27C219.786 229.208 219.836 232.499 220.035 234.293C220.185 235.539 220.384 236.337 221.73 236.536C222.378 236.636 223.326 236.686 223.874 236.686C224.223 236.686 224.422 236.935 224.422 237.134C224.422 237.434 224.073 237.583 223.525 237.583C220.983 237.583 217.344 237.434 216.696 237.434C215.848 237.434 213.057 237.583 211.312 237.583C210.764 237.583 210.464 237.434 210.464 237.134C210.464 236.935 210.614 236.686 211.162 236.686C211.81 236.686 212.309 236.636 212.708 236.536C213.605 236.337 213.854 235.539 214.004 234.293C214.203 232.499 214.203 229.159 214.203 225.27ZM219.786 208.471V221.083C219.786 221.532 219.886 221.681 220.185 221.831C221.132 222.13 222.428 222.23 223.525 222.23C225.27 222.23 225.868 222.08 226.616 221.532C227.962 220.585 229.457 218.74 229.457 215.251C229.457 209.269 225.369 207.723 222.777 207.723C221.681 207.723 220.634 207.773 220.185 207.873C219.886 207.973 219.786 208.122 219.786 208.471ZM254.11 217.793V219.687H254.309C255.805 218.092 262.185 211.811 263.482 210.365C264.728 208.97 265.675 207.973 265.675 207.225C265.675 206.776 265.476 206.477 265.077 206.377C264.678 206.278 264.479 206.178 264.479 205.929C264.479 205.63 264.728 205.53 265.176 205.53C266.124 205.53 268.516 205.63 269.713 205.63C271.059 205.63 273.501 205.53 274.847 205.53C275.296 205.53 275.595 205.63 275.595 205.929C275.595 206.228 275.346 206.377 274.947 206.377C274.299 206.377 273.202 206.577 272.405 206.876C271.009 207.374 269.613 208.272 267.769 210.016C266.373 211.313 259.843 217.494 258.497 219.039C260.042 221.033 268.666 230.006 270.361 231.601C272.305 233.346 274 235.19 276.343 236.138C277.639 236.686 278.536 236.686 279.035 236.686C279.384 236.686 279.633 236.885 279.633 237.134C279.633 237.434 279.384 237.583 278.586 237.583H274.748C273.451 237.583 272.654 237.583 271.707 237.483C269.364 237.284 267.918 236.387 266.024 234.742C264.13 233.097 255.705 223.326 254.758 222.03L254.309 221.432H254.11V225.27C254.11 229.159 254.11 232.499 254.21 234.343C254.309 235.539 254.708 236.337 255.805 236.536C256.403 236.636 257.4 236.686 257.948 236.686C258.297 236.686 258.546 236.935 258.546 237.134C258.546 237.434 258.198 237.583 257.699 237.583C255.256 237.583 252.116 237.434 251.019 237.434C250.022 237.434 247.231 237.583 245.486 237.583C244.938 237.583 244.638 237.434 244.638 237.134C244.638 236.935 244.788 236.686 245.336 236.686C245.984 236.686 246.483 236.636 246.882 236.536C247.779 236.337 248.028 235.539 248.178 234.293C248.377 232.499 248.377 229.159 248.377 225.27V217.793C248.377 211.362 248.377 210.166 248.327 208.82C248.228 207.374 247.829 206.926 246.433 206.527C246.084 206.427 245.336 206.377 244.688 206.377C244.24 206.377 243.941 206.228 243.941 205.929C243.941 205.63 244.29 205.53 244.938 205.53C247.231 205.53 250.022 205.63 251.069 205.63C252.116 205.63 255.256 205.53 256.702 205.53C257.35 205.53 257.649 205.63 257.649 205.929C257.649 206.228 257.4 206.377 257.051 206.377C256.602 206.377 256.353 206.427 255.805 206.527C254.608 206.726 254.259 207.325 254.16 208.82C254.11 210.166 254.11 211.362 254.11 217.793Z" fill="#141414"/>
<path d="M21.5204 260.565V252.584H26.5807V253.377H22.4374V256.116H26.3543V256.909H22.4374V259.773H26.5807V260.565H21.5204ZM28.1067 260.565V255.041H29.0011V256.275H28.8992C28.9973 255.996 29.1332 255.758 29.3067 255.562C29.4803 255.365 29.6916 255.214 29.9407 255.109C30.1898 254.996 30.4615 254.939 30.7558 254.939C31.2313 254.939 31.6162 255.056 31.9105 255.29C32.2048 255.516 32.3973 255.856 32.4879 256.309H32.352C32.4879 255.894 32.7294 255.562 33.0765 255.313C33.4237 255.064 33.835 254.939 34.3105 254.939C34.7256 254.939 35.069 255.022 35.3407 255.188C35.6124 255.347 35.8162 255.588 35.952 255.913C36.0954 256.23 36.1671 256.633 36.1671 257.124V260.565H35.2388V257.181C35.2388 256.682 35.1482 256.316 34.9671 256.082C34.7935 255.841 34.4992 255.72 34.0841 255.72C33.7822 255.72 33.5181 255.792 33.2916 255.935C33.0652 256.071 32.8916 256.271 32.7709 256.535C32.6577 256.792 32.6011 257.098 32.6011 257.452V260.565H31.6728V257.181C31.6728 256.682 31.5822 256.316 31.4011 256.082C31.2199 255.841 30.9256 255.72 30.5181 255.72C30.2162 255.72 29.952 255.792 29.7256 255.935C29.5067 256.079 29.3369 256.282 29.2162 256.547C29.0954 256.803 29.035 257.105 29.035 257.452V260.565H28.1067ZM37.9345 262.603V255.041H38.8401V256.331H38.7382C38.8665 255.909 39.108 255.573 39.4628 255.324C39.825 255.067 40.2552 254.939 40.7533 254.939C41.2514 254.939 41.6816 255.056 42.0439 255.29C42.4137 255.524 42.7005 255.856 42.9043 256.286C43.108 256.709 43.2099 257.214 43.2099 257.803C43.2099 258.384 43.108 258.89 42.9043 259.32C42.708 259.75 42.425 260.082 42.0552 260.316C41.6854 260.55 41.2514 260.667 40.7533 260.667C40.2628 260.667 39.8401 260.543 39.4854 260.294C39.1307 260.045 38.8892 259.713 38.7609 259.298H38.8628V262.603H37.9345ZM40.5609 259.909C41.0816 259.909 41.4967 259.728 41.8062 259.365C42.1156 258.996 42.2703 258.475 42.2703 257.803C42.2703 257.124 42.1156 256.603 41.8062 256.241C41.4967 255.879 41.0816 255.698 40.5609 255.698C40.0401 255.698 39.625 255.879 39.3156 256.241C39.0062 256.603 38.8514 257.124 38.8514 257.803C38.8514 258.475 39.0062 258.996 39.3156 259.365C39.625 259.728 40.0401 259.909 40.5609 259.909ZM46.9435 260.667C46.4076 260.667 45.9397 260.55 45.5397 260.316C45.1472 260.082 44.8416 259.75 44.6227 259.32C44.4038 258.89 44.2944 258.384 44.2944 257.803C44.2944 257.222 44.4038 256.72 44.6227 256.298C44.8416 255.867 45.1472 255.535 45.5397 255.301C45.9397 255.06 46.4076 254.939 46.9435 254.939C47.4869 254.939 47.9548 255.06 48.3472 255.301C48.7472 255.535 49.0529 255.867 49.2642 256.298C49.4831 256.72 49.5925 257.222 49.5925 257.803C49.5925 258.384 49.4831 258.89 49.2642 259.32C49.0529 259.75 48.7472 260.082 48.3472 260.316C47.9548 260.55 47.4869 260.667 46.9435 260.667ZM46.9435 259.909C47.4718 259.909 47.8869 259.728 48.1887 259.365C48.4982 258.996 48.6529 258.475 48.6529 257.803C48.6529 257.124 48.4982 256.603 48.1887 256.241C47.8869 255.879 47.4718 255.698 46.9435 255.698C46.4227 255.698 46.0076 255.879 45.6982 256.241C45.3887 256.603 45.234 257.124 45.234 257.803C45.234 258.475 45.3887 258.996 45.6982 259.365C46.0076 259.728 46.4227 259.909 46.9435 259.909ZM52.3955 260.565L50.3577 255.041H51.3313L52.9841 259.818H52.7464L54.4785 255.041H55.2709L56.9804 259.818H56.7426L58.4181 255.041H59.3464L57.3087 260.565H56.4256L54.6483 255.675H55.0671L53.2785 260.565H52.3955ZM62.9567 260.667C62.368 260.667 61.8586 260.554 61.4284 260.328C61.0058 260.094 60.6775 259.765 60.4435 259.343C60.2096 258.913 60.0926 258.403 60.0926 257.814C60.0926 257.241 60.2058 256.743 60.4322 256.32C60.6586 255.89 60.9718 255.554 61.3718 255.313C61.7718 255.064 62.236 254.939 62.7643 254.939C63.2699 254.939 63.7001 255.052 64.0548 255.279C64.4171 255.498 64.6926 255.811 64.8812 256.218C65.0775 256.618 65.1756 257.101 65.1756 257.667V258.018H60.8058V257.396H64.5756L64.3831 257.554C64.3831 256.95 64.2473 256.482 63.9756 256.15C63.7039 255.811 63.3077 255.641 62.7869 255.641C62.4096 255.641 62.085 255.731 61.8133 255.913C61.5492 256.086 61.3454 256.328 61.202 256.637C61.0662 256.947 60.9982 257.309 60.9982 257.724V257.792C60.9982 258.252 61.0737 258.641 61.2246 258.958C61.3756 259.275 61.5982 259.513 61.8926 259.671C62.1869 259.83 62.5416 259.909 62.9567 259.909C63.2812 259.909 63.5945 259.86 63.8963 259.762C64.2058 259.664 64.4963 259.498 64.768 259.264L65.085 259.931C64.8284 260.158 64.5077 260.339 64.1228 260.475C63.7378 260.603 63.3492 260.667 62.9567 260.667ZM66.5679 260.565V255.041H67.4623V256.343H67.3717C67.5 255.905 67.7264 255.573 68.051 255.347C68.3755 255.113 68.7944 254.977 69.3076 254.939L69.6698 254.905L69.7378 255.72L69.1151 255.788C68.6019 255.833 68.2057 255.999 67.9264 256.286C67.6472 256.573 67.5076 256.954 67.5076 257.43V260.565H66.5679ZM70.6226 253.682V252.641H71.766V253.682H70.6226ZM70.7358 260.565V255.041H71.6641V260.565H70.7358ZM73.4333 260.565V255.041H74.339V256.275H74.2258C74.3918 255.837 74.656 255.505 75.0183 255.279C75.3805 255.052 75.7918 254.939 76.2522 254.939C76.6975 254.939 77.0673 255.018 77.3616 255.177C77.656 255.335 77.8748 255.577 78.0182 255.901C78.1616 256.226 78.2333 256.633 78.2333 257.124V260.565H77.305V257.181C77.305 256.848 77.2598 256.577 77.1692 256.365C77.0786 256.147 76.939 255.984 76.7503 255.879C76.5692 255.773 76.3315 255.72 76.0371 255.72C75.705 255.72 75.4107 255.792 75.1541 255.935C74.905 256.079 74.7088 256.279 74.5654 256.535C74.4296 256.792 74.3616 257.09 74.3616 257.43V260.565H73.4333ZM82.401 262.705C81.9256 262.705 81.4765 262.641 81.0539 262.513C80.6388 262.392 80.269 262.207 79.9445 261.958L80.2614 261.267C80.4803 261.426 80.7029 261.554 80.9294 261.652C81.1558 261.758 81.386 261.833 81.6199 261.879C81.8614 261.924 82.1105 261.947 82.3671 261.947C82.9105 261.947 83.3218 261.803 83.601 261.516C83.8878 261.23 84.0312 260.814 84.0312 260.271V259.037H84.1218C84.0086 259.467 83.7671 259.807 83.3973 260.056C83.035 260.305 82.6086 260.43 82.118 260.43C81.6124 260.43 81.1709 260.316 80.7935 260.09C80.4237 259.856 80.1369 259.531 79.9331 259.116C79.7294 258.701 79.6275 258.222 79.6275 257.679C79.6275 257.135 79.7294 256.66 79.9331 256.252C80.1369 255.837 80.4237 255.516 80.7935 255.29C81.1709 255.056 81.6124 254.939 82.118 254.939C82.6086 254.939 83.035 255.067 83.3973 255.324C83.7671 255.573 84.0086 255.913 84.1218 256.343H84.0312V255.041H84.9369V260.158C84.9369 260.709 84.8388 261.173 84.6426 261.55C84.4539 261.935 84.1709 262.222 83.7935 262.411C83.4161 262.607 82.952 262.705 82.401 262.705ZM82.2992 259.682C82.8275 259.682 83.2463 259.501 83.5558 259.139C83.8652 258.777 84.0199 258.29 84.0199 257.679C84.0199 257.075 83.8652 256.596 83.5558 256.241C83.2463 255.879 82.8275 255.698 82.2992 255.698C81.7709 255.698 81.3482 255.879 81.0312 256.241C80.7218 256.596 80.5671 257.075 80.5671 257.679C80.5671 258.29 80.7218 258.777 81.0312 259.139C81.3482 259.501 81.7709 259.682 82.2992 259.682ZM93.2403 260.667C92.4554 260.667 91.7837 260.501 91.2252 260.169C90.6667 259.837 90.2365 259.365 89.9346 258.754C89.6327 258.143 89.4818 257.414 89.4818 256.569C89.4818 255.724 89.6327 254.999 89.9346 254.396C90.2365 253.784 90.6667 253.313 91.2252 252.981C91.7837 252.648 92.4554 252.482 93.2403 252.482C93.7837 252.482 94.2893 252.569 94.7573 252.743C95.2252 252.916 95.6176 253.169 95.9346 253.501L95.5724 254.26C95.2252 253.943 94.8629 253.713 94.4856 253.569C94.1158 253.418 93.7044 253.343 93.2516 253.343C92.361 253.343 91.678 253.622 91.2026 254.181C90.7271 254.739 90.4894 255.535 90.4894 256.569C90.4894 257.596 90.7271 258.392 91.2026 258.958C91.678 259.524 92.361 259.807 93.2516 259.807C93.7044 259.807 94.1158 259.735 94.4856 259.592C94.8629 259.441 95.2252 259.207 95.5724 258.89L95.9346 259.648C95.6176 259.981 95.2252 260.233 94.7573 260.407C94.2893 260.581 93.7837 260.667 93.2403 260.667ZM99.2355 260.667C98.6997 260.667 98.2317 260.55 97.8317 260.316C97.4393 260.082 97.1336 259.75 96.9148 259.32C96.6959 258.89 96.5865 258.384 96.5865 257.803C96.5865 257.222 96.6959 256.72 96.9148 256.298C97.1336 255.867 97.4393 255.535 97.8317 255.301C98.2317 255.06 98.6997 254.939 99.2355 254.939C99.7789 254.939 100.247 255.06 100.639 255.301C101.039 255.535 101.345 255.867 101.556 256.298C101.775 256.72 101.885 257.222 101.885 257.803C101.885 258.384 101.775 258.89 101.556 259.32C101.345 259.75 101.039 260.082 100.639 260.316C100.247 260.55 99.7789 260.667 99.2355 260.667ZM99.2355 259.909C99.7638 259.909 100.179 259.728 100.481 259.365C100.79 258.996 100.945 258.475 100.945 257.803C100.945 257.124 100.79 256.603 100.481 256.241C100.179 255.879 99.7638 255.698 99.2355 255.698C98.7148 255.698 98.2997 255.879 97.9902 256.241C97.6808 256.603 97.5261 257.124 97.5261 257.803C97.5261 258.475 97.6808 258.996 97.9902 259.365C98.2997 259.728 98.7148 259.909 99.2355 259.909ZM103.35 260.565V255.041H104.244V256.275H104.142C104.24 255.996 104.376 255.758 104.55 255.562C104.723 255.365 104.935 255.214 105.184 255.109C105.433 254.996 105.704 254.939 105.999 254.939C106.474 254.939 106.859 255.056 107.154 255.29C107.448 255.516 107.64 255.856 107.731 256.309H107.595C107.731 255.894 107.972 255.562 108.32 255.313C108.667 255.064 109.078 254.939 109.554 254.939C109.969 254.939 110.312 255.022 110.584 255.188C110.855 255.347 111.059 255.588 111.195 255.913C111.338 256.23 111.41 256.633 111.41 257.124V260.565H110.482V257.181C110.482 256.682 110.391 256.316 110.21 256.082C110.037 255.841 109.742 255.72 109.327 255.72C109.025 255.72 108.761 255.792 108.535 255.935C108.308 256.071 108.135 256.271 108.014 256.535C107.901 256.792 107.844 257.098 107.844 257.452V260.565H106.916V257.181C106.916 256.682 106.825 256.316 106.644 256.082C106.463 255.841 106.169 255.72 105.761 255.72C105.459 255.72 105.195 255.792 104.969 255.935C104.75 256.079 104.58 256.282 104.459 256.547C104.338 256.803 104.278 257.105 104.278 257.452V260.565H103.35ZM113.2 260.565V255.041H114.094V256.275H113.993C114.091 255.996 114.227 255.758 114.4 255.562C114.574 255.365 114.785 255.214 115.034 255.109C115.283 254.996 115.555 254.939 115.849 254.939C116.325 254.939 116.71 255.056 117.004 255.29C117.298 255.516 117.491 255.856 117.581 256.309H117.445C117.581 255.894 117.823 255.562 118.17 255.313C118.517 255.064 118.928 254.939 119.404 254.939C119.819 254.939 120.162 255.022 120.434 255.188C120.706 255.347 120.91 255.588 121.045 255.913C121.189 256.23 121.261 256.633 121.261 257.124V260.565H120.332V257.181C120.332 256.682 120.242 256.316 120.061 256.082C119.887 255.841 119.593 255.72 119.177 255.72C118.876 255.72 118.611 255.792 118.385 255.935C118.159 256.071 117.985 256.271 117.864 256.535C117.751 256.792 117.694 257.098 117.694 257.452V260.565H116.766V257.181C116.766 256.682 116.676 256.316 116.494 256.082C116.313 255.841 116.019 255.72 115.611 255.72C115.31 255.72 115.045 255.792 114.819 255.935C114.6 256.079 114.43 256.282 114.31 256.547C114.189 256.803 114.128 257.105 114.128 257.452V260.565H113.2ZM125.009 260.667C124.556 260.667 124.183 260.584 123.888 260.418C123.594 260.252 123.371 260.007 123.22 259.682C123.077 259.358 123.005 258.954 123.005 258.471V255.041H123.934V258.46C123.934 258.777 123.975 259.045 124.058 259.264C124.149 259.475 124.288 259.633 124.477 259.739C124.666 259.845 124.903 259.898 125.19 259.898C125.507 259.898 125.783 259.826 126.017 259.682C126.258 259.531 126.447 259.328 126.583 259.071C126.718 258.814 126.786 258.516 126.786 258.177V255.041H127.726V260.565H126.82V259.298H126.945C126.786 259.743 126.537 260.082 126.198 260.316C125.858 260.55 125.462 260.667 125.009 260.667ZM129.495 260.565V255.041H130.401V256.275H130.288C130.454 255.837 130.718 255.505 131.08 255.279C131.442 255.052 131.854 254.939 132.314 254.939C132.759 254.939 133.129 255.018 133.424 255.177C133.718 255.335 133.937 255.577 134.08 255.901C134.224 256.226 134.295 256.633 134.295 257.124V260.565H133.367V257.181C133.367 256.848 133.322 256.577 133.231 256.365C133.141 256.147 133.001 255.984 132.812 255.879C132.631 255.773 132.393 255.72 132.099 255.72C131.767 255.72 131.473 255.792 131.216 255.935C130.967 256.079 130.771 256.279 130.627 256.535C130.492 256.792 130.424 257.09 130.424 257.43V260.565H129.495ZM135.916 253.682V252.641H137.059V253.682H135.916ZM136.029 260.565V255.041H136.957V260.565H136.029ZM140.957 260.667C140.308 260.667 139.817 260.494 139.485 260.147C139.16 259.799 138.998 259.301 138.998 258.652V255.777H137.911V255.041H139.01V253.365H139.938V255.041H141.715V255.777H139.938V258.562C139.938 258.992 140.028 259.32 140.21 259.547C140.391 259.765 140.685 259.875 141.093 259.875C141.221 259.875 141.345 259.86 141.466 259.83C141.587 259.792 141.704 259.758 141.817 259.728L141.976 260.441C141.87 260.501 141.719 260.554 141.523 260.599C141.327 260.645 141.138 260.667 140.957 260.667ZM142.715 253.682V252.641H143.858V253.682H142.715ZM142.828 260.565V255.041H143.756V260.565H142.828ZM148.05 260.667C147.461 260.667 146.952 260.554 146.522 260.328C146.099 260.094 145.771 259.765 145.537 259.343C145.303 258.913 145.186 258.403 145.186 257.814C145.186 257.241 145.299 256.743 145.526 256.32C145.752 255.89 146.065 255.554 146.465 255.313C146.865 255.064 147.329 254.939 147.858 254.939C148.363 254.939 148.794 255.052 149.148 255.279C149.511 255.498 149.786 255.811 149.975 256.218C150.171 256.618 150.269 257.101 150.269 257.667V258.018H145.899V257.396H149.669L149.477 257.554C149.477 256.95 149.341 256.482 149.069 256.15C148.797 255.811 148.401 255.641 147.88 255.641C147.503 255.641 147.178 255.731 146.907 255.913C146.643 256.086 146.439 256.328 146.295 256.637C146.16 256.947 146.092 257.309 146.092 257.724V257.792C146.092 258.252 146.167 258.641 146.318 258.958C146.469 259.275 146.692 259.513 146.986 259.671C147.28 259.83 147.635 259.909 148.05 259.909C148.375 259.909 148.688 259.86 148.99 259.762C149.299 259.664 149.59 259.498 149.861 259.264L150.178 259.931C149.922 260.158 149.601 260.339 149.216 260.475C148.831 260.603 148.443 260.667 148.05 260.667ZM153.552 260.667C153.265 260.667 152.982 260.637 152.703 260.577C152.431 260.524 152.178 260.448 151.944 260.35C151.718 260.245 151.518 260.12 151.344 259.977L151.639 259.32C151.827 259.464 152.027 259.584 152.239 259.682C152.45 259.773 152.669 259.841 152.895 259.886C153.122 259.924 153.348 259.943 153.575 259.943C154.005 259.943 154.333 259.867 154.559 259.716C154.793 259.558 154.91 259.347 154.91 259.082C154.91 258.864 154.835 258.694 154.684 258.573C154.541 258.452 154.31 258.358 153.993 258.29L152.941 258.064C152.465 257.965 152.107 257.796 151.865 257.554C151.631 257.305 151.514 256.988 151.514 256.603C151.514 256.264 151.601 255.969 151.775 255.72C151.956 255.471 152.212 255.279 152.544 255.143C152.876 255.007 153.258 254.939 153.688 254.939C153.944 254.939 154.193 254.965 154.435 255.018C154.684 255.071 154.914 255.15 155.125 255.256C155.337 255.354 155.514 255.482 155.658 255.641L155.352 256.298C155.209 256.154 155.042 256.037 154.854 255.947C154.673 255.856 154.48 255.788 154.276 255.743C154.08 255.69 153.884 255.664 153.688 255.664C153.265 255.664 152.941 255.747 152.714 255.913C152.495 256.071 152.386 256.286 152.386 256.558C152.386 256.769 152.454 256.943 152.59 257.079C152.726 257.207 152.937 257.301 153.224 257.362L154.276 257.588C154.775 257.694 155.148 257.864 155.397 258.098C155.654 258.324 155.782 258.633 155.782 259.026C155.782 259.365 155.688 259.66 155.499 259.909C155.318 260.15 155.061 260.339 154.729 260.475C154.397 260.603 154.005 260.667 153.552 260.667ZM157.507 261.924L157.065 261.573C157.201 261.437 157.303 261.301 157.371 261.165C157.446 261.03 157.499 260.898 157.529 260.769C157.559 260.641 157.574 260.509 157.574 260.373L157.778 260.565H157.008V259.388H158.197V260.226C158.197 260.437 158.174 260.637 158.129 260.826C158.084 261.022 158.012 261.211 157.914 261.392C157.816 261.573 157.68 261.75 157.507 261.924ZM162.897 260.565V252.584H165.614C166.474 252.584 167.202 252.739 167.799 253.048C168.402 253.35 168.859 253.799 169.169 254.396C169.485 254.984 169.644 255.709 169.644 256.569C169.644 257.43 169.485 258.158 169.169 258.754C168.859 259.343 168.402 259.792 167.799 260.101C167.202 260.411 166.474 260.565 165.614 260.565H162.897ZM163.848 259.75H165.546C166.58 259.75 167.353 259.486 167.867 258.958C168.387 258.43 168.648 257.633 168.648 256.569C168.648 255.505 168.387 254.713 167.867 254.192C167.353 253.664 166.58 253.399 165.546 253.399H163.848V259.75ZM173.765 260.667C173.176 260.667 172.667 260.554 172.237 260.328C171.814 260.094 171.486 259.765 171.252 259.343C171.018 258.913 170.901 258.403 170.901 257.814C170.901 257.241 171.014 256.743 171.24 256.32C171.467 255.89 171.78 255.554 172.18 255.313C172.58 255.064 173.044 254.939 173.573 254.939C174.078 254.939 174.508 255.052 174.863 255.279C175.225 255.498 175.501 255.811 175.69 256.218C175.886 256.618 175.984 257.101 175.984 257.667V258.018H171.614V257.396H175.384L175.191 257.554C175.191 256.95 175.056 256.482 174.784 256.15C174.512 255.811 174.116 255.641 173.595 255.641C173.218 255.641 172.893 255.731 172.622 255.913C172.357 256.086 172.154 256.328 172.01 256.637C171.874 256.947 171.807 257.309 171.807 257.724V257.792C171.807 258.252 171.882 258.641 172.033 258.958C172.184 259.275 172.407 259.513 172.701 259.671C172.995 259.83 173.35 259.909 173.765 259.909C174.09 259.909 174.403 259.86 174.705 259.762C175.014 259.664 175.305 259.498 175.576 259.264L175.893 259.931C175.637 260.158 175.316 260.339 174.931 260.475C174.546 260.603 174.157 260.667 173.765 260.667ZM177.399 260.565V255.041H178.293V256.275H178.191C178.289 255.996 178.425 255.758 178.599 255.562C178.772 255.365 178.984 255.214 179.233 255.109C179.482 254.996 179.754 254.939 180.048 254.939C180.523 254.939 180.908 255.056 181.203 255.29C181.497 255.516 181.689 255.856 181.78 256.309H181.644C181.78 255.894 182.021 255.562 182.369 255.313C182.716 255.064 183.127 254.939 183.603 254.939C184.018 254.939 184.361 255.022 184.633 255.188C184.904 255.347 185.108 255.588 185.244 255.913C185.388 256.23 185.459 256.633 185.459 257.124V260.565H184.531V257.181C184.531 256.682 184.44 256.316 184.259 256.082C184.086 255.841 183.791 255.72 183.376 255.72C183.074 255.72 182.81 255.792 182.584 255.935C182.357 256.071 182.184 256.271 182.063 256.535C181.95 256.792 181.893 257.098 181.893 257.452V260.565H180.965V257.181C180.965 256.682 180.874 256.316 180.693 256.082C180.512 255.841 180.218 255.72 179.81 255.72C179.508 255.72 179.244 255.792 179.018 255.935C178.799 256.079 178.629 256.282 178.508 256.547C178.388 256.803 178.327 257.105 178.327 257.452V260.565H177.399ZM189.536 260.667C189 260.667 188.532 260.55 188.132 260.316C187.74 260.082 187.434 259.75 187.215 259.32C186.996 258.89 186.887 258.384 186.887 257.803C186.887 257.222 186.996 256.72 187.215 256.298C187.434 255.867 187.74 255.535 188.132 255.301C188.532 255.06 189 254.939 189.536 254.939C190.079 254.939 190.547 255.06 190.94 255.301C191.34 255.535 191.645 255.867 191.857 256.298C192.076 256.72 192.185 257.222 192.185 257.803C192.185 258.384 192.076 258.89 191.857 259.32C191.645 259.75 191.34 260.082 190.94 260.316C190.547 260.55 190.079 260.667 189.536 260.667ZM189.536 259.909C190.064 259.909 190.479 259.728 190.781 259.365C191.091 258.996 191.245 258.475 191.245 257.803C191.245 257.124 191.091 256.603 190.781 256.241C190.479 255.879 190.064 255.698 189.536 255.698C189.015 255.698 188.6 255.879 188.291 256.241C187.981 256.603 187.827 257.124 187.827 257.803C187.827 258.475 187.981 258.996 188.291 259.365C188.6 259.728 189.015 259.909 189.536 259.909ZM195.994 260.667C195.435 260.667 194.952 260.547 194.545 260.305C194.145 260.064 193.835 259.728 193.616 259.298C193.397 258.86 193.288 258.35 193.288 257.769C193.288 257.188 193.397 256.686 193.616 256.264C193.835 255.841 194.145 255.516 194.545 255.29C194.952 255.056 195.435 254.939 195.994 254.939C196.341 254.939 196.68 255.003 197.013 255.131C197.352 255.252 197.631 255.422 197.85 255.641L197.522 256.32C197.303 256.116 197.062 255.965 196.797 255.867C196.541 255.762 196.292 255.709 196.05 255.709C195.477 255.709 195.031 255.89 194.714 256.252C194.397 256.607 194.239 257.116 194.239 257.781C194.239 258.445 194.397 258.965 194.714 259.343C195.031 259.713 195.477 259.898 196.05 259.898C196.284 259.898 196.533 259.848 196.797 259.75C197.062 259.652 197.303 259.498 197.522 259.286L197.839 259.965C197.62 260.184 197.341 260.358 197.001 260.486C196.669 260.607 196.333 260.667 195.994 260.667ZM198.956 260.565V255.041H199.851V256.343H199.76C199.888 255.905 200.115 255.573 200.439 255.347C200.764 255.113 201.183 254.977 201.696 254.939L202.058 254.905L202.126 255.72L201.504 255.788C200.99 255.833 200.594 255.999 200.315 256.286C200.036 256.573 199.896 256.954 199.896 257.43V260.565H198.956ZM204.824 260.667C204.446 260.667 204.107 260.596 203.805 260.452C203.503 260.301 203.265 260.098 203.092 259.841C202.918 259.584 202.831 259.298 202.831 258.981C202.831 258.573 202.937 258.252 203.148 258.018C203.36 257.777 203.707 257.607 204.19 257.509C204.673 257.411 205.326 257.362 206.148 257.362H206.714V257.973H206.171C205.71 257.973 205.326 257.988 205.016 258.018C204.707 258.048 204.461 258.101 204.28 258.177C204.099 258.245 203.967 258.343 203.884 258.471C203.809 258.592 203.771 258.743 203.771 258.924C203.771 259.233 203.88 259.486 204.099 259.682C204.318 259.871 204.612 259.965 204.982 259.965C205.292 259.965 205.563 259.894 205.797 259.75C206.031 259.599 206.216 259.399 206.352 259.15C206.488 258.901 206.556 258.618 206.556 258.301V257.011C206.556 256.55 206.454 256.214 206.25 256.003C206.054 255.792 205.737 255.686 205.299 255.686C204.975 255.686 204.654 255.735 204.337 255.833C204.027 255.931 203.707 256.082 203.375 256.286L203.058 255.607C203.261 255.471 203.488 255.354 203.737 255.256C203.986 255.158 204.246 255.082 204.518 255.03C204.797 254.969 205.065 254.939 205.322 254.939C205.797 254.939 206.193 255.018 206.51 255.177C206.827 255.328 207.065 255.562 207.224 255.879C207.382 256.188 207.461 256.592 207.461 257.09V260.565H206.59V259.298H206.68C206.612 259.569 206.492 259.811 206.318 260.022C206.144 260.226 205.929 260.384 205.673 260.498C205.424 260.611 205.141 260.667 204.824 260.667ZM211.435 260.667C210.786 260.667 210.295 260.494 209.963 260.147C209.639 259.799 209.476 259.301 209.476 258.652V255.777H208.39V255.041H209.488V253.365H210.416V255.041H212.193V255.777H210.416V258.562C210.416 258.992 210.507 259.32 210.688 259.547C210.869 259.765 211.163 259.875 211.571 259.875C211.699 259.875 211.824 259.86 211.944 259.83C212.065 259.792 212.182 259.758 212.295 259.728L212.454 260.441C212.348 260.501 212.197 260.554 212.001 260.599C211.805 260.645 211.616 260.667 211.435 260.667ZM213.193 253.682V252.641H214.336V253.682H213.193ZM213.306 260.565V255.041H214.235V260.565H213.306ZM217.894 260.667C217.608 260.667 217.325 260.637 217.045 260.577C216.774 260.524 216.521 260.448 216.287 260.35C216.06 260.245 215.86 260.12 215.687 259.977L215.981 259.32C216.17 259.464 216.37 259.584 216.581 259.682C216.792 259.773 217.011 259.841 217.238 259.886C217.464 259.924 217.691 259.943 217.917 259.943C218.347 259.943 218.675 259.867 218.902 259.716C219.136 259.558 219.253 259.347 219.253 259.082C219.253 258.864 219.177 258.694 219.026 258.573C218.883 258.452 218.653 258.358 218.336 258.29L217.283 258.064C216.808 257.965 216.449 257.796 216.208 257.554C215.974 257.305 215.857 256.988 215.857 256.603C215.857 256.264 215.943 255.969 216.117 255.72C216.298 255.471 216.555 255.279 216.887 255.143C217.219 255.007 217.6 254.939 218.03 254.939C218.287 254.939 218.536 254.965 218.777 255.018C219.026 255.071 219.257 255.15 219.468 255.256C219.679 255.354 219.857 255.482 220 255.641L219.694 256.298C219.551 256.154 219.385 256.037 219.196 255.947C219.015 255.856 218.823 255.788 218.619 255.743C218.423 255.69 218.226 255.664 218.03 255.664C217.608 255.664 217.283 255.747 217.057 255.913C216.838 256.071 216.728 256.286 216.728 256.558C216.728 256.769 216.796 256.943 216.932 257.079C217.068 257.207 217.279 257.301 217.566 257.362L218.619 257.588C219.117 257.694 219.491 257.864 219.74 258.098C219.996 258.324 220.125 258.633 220.125 259.026C220.125 259.365 220.03 259.66 219.842 259.909C219.66 260.15 219.404 260.339 219.072 260.475C218.74 260.603 218.347 260.667 217.894 260.667ZM221.451 253.682V252.641H222.595V253.682H221.451ZM221.565 260.565V255.041H222.493V260.565H221.565ZM224.262 260.565V255.041H225.168V256.275H225.055C225.221 255.837 225.485 255.505 225.847 255.279C226.209 255.052 226.621 254.939 227.081 254.939C227.526 254.939 227.896 255.018 228.19 255.177C228.485 255.335 228.704 255.577 228.847 255.901C228.99 256.226 229.062 256.633 229.062 257.124V260.565H228.134V257.181C228.134 256.848 228.089 256.577 227.998 256.365C227.907 256.147 227.768 255.984 227.579 255.879C227.398 255.773 227.16 255.72 226.866 255.72C226.534 255.72 226.24 255.792 225.983 255.935C225.734 256.079 225.538 256.279 225.394 256.535C225.258 256.792 225.19 257.09 225.19 257.43V260.565H224.262ZM233.23 262.705C232.754 262.705 232.305 262.641 231.883 262.513C231.468 262.392 231.098 262.207 230.773 261.958L231.09 261.267C231.309 261.426 231.532 261.554 231.758 261.652C231.985 261.758 232.215 261.833 232.449 261.879C232.69 261.924 232.939 261.947 233.196 261.947C233.739 261.947 234.151 261.803 234.43 261.516C234.717 261.23 234.86 260.814 234.86 260.271V259.037H234.951C234.837 259.467 234.596 259.807 234.226 260.056C233.864 260.305 233.437 260.43 232.947 260.43C232.441 260.43 232 260.316 231.622 260.09C231.253 259.856 230.966 259.531 230.762 259.116C230.558 258.701 230.456 258.222 230.456 257.679C230.456 257.135 230.558 256.66 230.762 256.252C230.966 255.837 231.253 255.516 231.622 255.29C232 255.056 232.441 254.939 232.947 254.939C233.437 254.939 233.864 255.067 234.226 255.324C234.596 255.573 234.837 255.913 234.951 256.343H234.86V255.041H235.766V260.158C235.766 260.709 235.668 261.173 235.471 261.55C235.283 261.935 235 262.222 234.622 262.411C234.245 262.607 233.781 262.705 233.23 262.705ZM233.128 259.682C233.656 259.682 234.075 259.501 234.385 259.139C234.694 258.777 234.849 258.29 234.849 257.679C234.849 257.075 234.694 256.596 234.385 256.241C234.075 255.879 233.656 255.698 233.128 255.698C232.6 255.698 232.177 255.879 231.86 256.241C231.551 256.596 231.396 257.075 231.396 257.679C231.396 258.29 231.551 258.777 231.86 259.139C232.177 259.501 232.6 259.682 233.128 259.682ZM242.575 260.565V253.399H239.677V252.584H246.412V253.399H243.514V260.565H242.575ZM249.041 260.667C248.453 260.667 247.943 260.554 247.513 260.328C247.09 260.094 246.762 259.765 246.528 259.343C246.294 258.913 246.177 258.403 246.177 257.814C246.177 257.241 246.29 256.743 246.517 256.32C246.743 255.89 247.056 255.554 247.456 255.313C247.856 255.064 248.32 254.939 248.849 254.939C249.354 254.939 249.785 255.052 250.139 255.279C250.502 255.498 250.777 255.811 250.966 256.218C251.162 256.618 251.26 257.101 251.26 257.667V258.018H246.89V257.396H250.66L250.468 257.554C250.468 256.95 250.332 256.482 250.06 256.15C249.788 255.811 249.392 255.641 248.871 255.641C248.494 255.641 248.17 255.731 247.898 255.913C247.634 256.086 247.43 256.328 247.286 256.637C247.151 256.947 247.083 257.309 247.083 257.724V257.792C247.083 258.252 247.158 258.641 247.309 258.958C247.46 259.275 247.683 259.513 247.977 259.671C248.271 259.83 248.626 259.909 249.041 259.909C249.366 259.909 249.679 259.86 249.981 259.762C250.29 259.664 250.581 259.498 250.853 259.264L251.17 259.931C250.913 260.158 250.592 260.339 250.207 260.475C249.822 260.603 249.434 260.667 249.041 260.667ZM255.018 260.667C254.46 260.667 253.977 260.547 253.569 260.305C253.169 260.064 252.86 259.728 252.641 259.298C252.422 258.86 252.313 258.35 252.313 257.769C252.313 257.188 252.422 256.686 252.641 256.264C252.86 255.841 253.169 255.516 253.569 255.29C253.977 255.056 254.46 254.939 255.018 254.939C255.366 254.939 255.705 255.003 256.037 255.131C256.377 255.252 256.656 255.422 256.875 255.641L256.547 256.32C256.328 256.116 256.086 255.965 255.822 255.867C255.566 255.762 255.317 255.709 255.075 255.709C254.501 255.709 254.056 255.89 253.739 256.252C253.422 256.607 253.264 257.116 253.264 257.781C253.264 258.445 253.422 258.965 253.739 259.343C254.056 259.713 254.501 259.898 255.075 259.898C255.309 259.898 255.558 259.848 255.822 259.75C256.086 259.652 256.328 259.498 256.547 259.286L256.864 259.965C256.645 260.184 256.366 260.358 256.026 260.486C255.694 260.607 255.358 260.667 255.018 260.667ZM257.981 260.565V252.584H258.909V256.264H258.785C258.943 255.833 259.204 255.505 259.566 255.279C259.928 255.052 260.34 254.939 260.8 254.939C261.245 254.939 261.611 255.022 261.898 255.188C262.192 255.347 262.411 255.588 262.555 255.913C262.706 256.237 262.781 256.641 262.781 257.124V260.565H261.853V257.181C261.853 256.848 261.808 256.577 261.717 256.365C261.626 256.147 261.487 255.984 261.298 255.879C261.117 255.773 260.879 255.72 260.585 255.72C260.253 255.72 259.958 255.792 259.702 255.935C259.453 256.079 259.257 256.279 259.113 256.535C258.977 256.792 258.909 257.09 258.909 257.43V260.565H257.981ZM264.515 260.565V255.041H265.421V256.275H265.307C265.473 255.837 265.738 255.505 266.1 255.279C266.462 255.052 266.873 254.939 267.334 254.939C267.779 254.939 268.149 255.018 268.443 255.177C268.738 255.335 268.956 255.577 269.1 255.901C269.243 256.226 269.315 256.633 269.315 257.124V260.565H268.387V257.181C268.387 256.848 268.341 256.577 268.251 256.365C268.16 256.147 268.021 255.984 267.832 255.879C267.651 255.773 267.413 255.72 267.119 255.72C266.787 255.72 266.492 255.792 266.236 255.935C265.987 256.079 265.79 256.279 265.647 256.535C265.511 256.792 265.443 257.09 265.443 257.43V260.565H264.515ZM273.358 260.667C272.822 260.667 272.354 260.55 271.954 260.316C271.562 260.082 271.256 259.75 271.037 259.32C270.818 258.89 270.709 258.384 270.709 257.803C270.709 257.222 270.818 256.72 271.037 256.298C271.256 255.867 271.562 255.535 271.954 255.301C272.354 255.06 272.822 254.939 273.358 254.939C273.901 254.939 274.369 255.06 274.762 255.301C275.162 255.535 275.467 255.867 275.679 256.298C275.898 256.72 276.007 257.222 276.007 257.803C276.007 258.384 275.898 258.89 275.679 259.32C275.467 259.75 275.162 260.082 274.762 260.316C274.369 260.55 273.901 260.667 273.358 260.667ZM273.358 259.909C273.886 259.909 274.301 259.728 274.603 259.365C274.913 258.996 275.067 258.475 275.067 257.803C275.067 257.124 274.913 256.603 274.603 256.241C274.301 255.879 273.886 255.698 273.358 255.698C272.837 255.698 272.422 255.879 272.113 256.241C271.803 256.603 271.649 257.124 271.649 257.803C271.649 258.475 271.803 258.996 272.113 259.365C272.422 259.728 272.837 259.909 273.358 259.909ZM279.148 260.667C278.589 260.667 278.167 260.505 277.88 260.181C277.593 259.848 277.45 259.377 277.45 258.765V252.584H278.378V258.686C278.378 258.943 278.412 259.162 278.48 259.343C278.555 259.524 278.665 259.66 278.808 259.75C278.952 259.833 279.125 259.875 279.329 259.875C279.427 259.875 279.518 259.871 279.601 259.864C279.691 259.848 279.778 259.83 279.861 259.807L279.838 260.577C279.725 260.607 279.612 260.63 279.499 260.645C279.386 260.66 279.269 260.667 279.148 260.667ZM283.098 260.667C282.562 260.667 282.094 260.55 281.694 260.316C281.302 260.082 280.996 259.75 280.777 259.32C280.558 258.89 280.449 258.384 280.449 257.803C280.449 257.222 280.558 256.72 280.777 256.298C280.996 255.867 281.302 255.535 281.694 255.301C282.094 255.06 282.562 254.939 283.098 254.939C283.641 254.939 284.109 255.06 284.502 255.301C284.902 255.535 285.207 255.867 285.419 256.298C285.637 256.72 285.747 257.222 285.747 257.803C285.747 258.384 285.637 258.89 285.419 259.32C285.207 259.75 284.902 260.082 284.502 260.316C284.109 260.55 283.641 260.667 283.098 260.667ZM283.098 259.909C283.626 259.909 284.041 259.728 284.343 259.365C284.653 258.996 284.807 258.475 284.807 257.803C284.807 257.124 284.653 256.603 284.343 256.241C284.041 255.879 283.626 255.698 283.098 255.698C282.577 255.698 282.162 255.879 281.853 256.241C281.543 256.603 281.388 257.124 281.388 257.803C281.388 258.475 281.543 258.996 281.853 259.365C282.162 259.728 282.577 259.909 283.098 259.909ZM289.623 262.705C289.148 262.705 288.699 262.641 288.276 262.513C287.861 262.392 287.491 262.207 287.167 261.958L287.484 261.267C287.703 261.426 287.925 261.554 288.152 261.652C288.378 261.758 288.608 261.833 288.842 261.879C289.084 261.924 289.333 261.947 289.589 261.947C290.133 261.947 290.544 261.803 290.823 261.516C291.11 261.23 291.254 260.814 291.254 260.271V259.037H291.344C291.231 259.467 290.989 259.807 290.62 260.056C290.257 260.305 289.831 260.43 289.34 260.43C288.835 260.43 288.393 260.316 288.016 260.09C287.646 259.856 287.359 259.531 287.156 259.116C286.952 258.701 286.85 258.222 286.85 257.679C286.85 257.135 286.952 256.66 287.156 256.252C287.359 255.837 287.646 255.516 288.016 255.29C288.393 255.056 288.835 254.939 289.34 254.939C289.831 254.939 290.257 255.067 290.62 255.324C290.989 255.573 291.231 255.913 291.344 256.343H291.254V255.041H292.159V260.158C292.159 260.709 292.061 261.173 291.865 261.55C291.676 261.935 291.393 262.222 291.016 262.411C290.639 262.607 290.174 262.705 289.623 262.705ZM289.522 259.682C290.05 259.682 290.469 259.501 290.778 259.139C291.088 258.777 291.242 258.29 291.242 257.679C291.242 257.075 291.088 256.596 290.778 256.241C290.469 255.879 290.05 255.698 289.522 255.698C288.993 255.698 288.571 255.879 288.254 256.241C287.944 256.596 287.789 257.075 287.789 257.679C287.789 258.29 287.944 258.777 288.254 259.139C288.571 259.501 288.993 259.682 289.522 259.682ZM294.568 262.603L295.598 260.271V260.724L293.175 255.041H294.183L296.13 259.841H295.869L297.828 255.041H298.801L295.552 262.603H294.568Z" fill="#F0870C"/>
<path d="M55.6858 51.5199C57.2607 109.226 118.155 101.356 118.155 101.356C70.9095 84.0446 69.8598 64.1102 69.8598 64.1102L82.9834 59.9132L119.205 80.897L130.754 106.602L128.654 138.603L115.58 154.341L97.6817 165.357L89.2827 168.505L87.7078 162.21L94.0073 135.98L115.53 126.012C70.9095 124.439 79.8337 177.948 79.8337 177.948C131.803 181.62 139.153 110.799 139.153 110.799L159.101 133.805V115.28C159.101 115.28 151.752 109.226 125.504 77.7496C105.819 54.1427 76.3889 51.1919 62.9041 51.1919C58.4093 51.1919 55.6858 51.5199 55.6858 51.5199Z" fill="url(#paint0_linear_2086_1599)"/>
<path d="M192.699 77.7496C166.452 109.226 159.102 115.28 159.102 115.28V133.805L179.05 110.799C179.05 110.799 186.4 181.62 238.37 177.948C238.37 177.948 247.294 124.439 202.673 126.012L224.196 135.98L230.496 162.21L228.921 168.505L220.521 165.357L202.623 154.341L189.549 138.603L187.45 106.602L198.998 80.897L235.22 59.9132L248.344 64.1102C248.344 64.1102 247.294 84.0446 200.048 101.356C200.048 101.356 260.943 109.226 262.517 51.5199C262.517 51.5199 259.794 51.1919 255.299 51.1919C241.814 51.1919 212.385 54.1427 192.699 77.7496Z" fill="url(#paint1_linear_2086_1599)"/>
<path d="M202.147 73.0285C175.9 95.0616 159.102 124.963 159.102 124.963C159.102 124.963 142.304 95.0616 116.056 73.0285C89.8083 50.9952 56.7366 54.1428 56.7366 54.1428C56.777 54.4952 56.8201 54.8447 56.8652 55.1913C62.6806 99.7426 107.132 97.1599 107.132 97.1599C64.0858 76.1759 69.8605 64.1103 69.8605 64.1103C69.8605 64.1103 120.255 65.6839 127.605 103.979C137.393 154.983 90.8583 164.833 90.8583 164.833C94.533 132.308 115.531 126.012 115.531 126.012C75.6346 122.341 79.3093 173.751 79.3093 173.751C79.3093 173.751 90.8583 178.997 113.431 162.735C143.916 140.772 139.154 110.799 139.154 110.799L159.102 133.805L179.05 110.799C179.05 110.799 174.288 140.772 204.772 162.735C227.345 178.997 238.894 173.751 238.894 173.751C238.894 173.751 242.569 122.341 202.673 126.012C202.673 126.012 223.671 132.308 227.345 164.833C227.345 164.833 180.811 154.983 190.599 103.979C197.948 65.6839 248.343 64.1103 248.343 64.1103C248.343 64.1103 254.118 76.1759 211.072 97.1599C211.072 97.1599 255.523 99.7426 261.339 55.1913C261.383 54.8447 261.426 54.4952 261.467 54.1428C261.467 54.1428 259.832 53.9873 257.005 53.9873C247.106 53.987 222.564 55.8903 202.147 73.0285Z" fill="url(#paint2_linear_2086_1599)"/>
<defs>
<linearGradient id="paint0_linear_2086_1599" x1="55.6859" y1="114.639" x2="159.101" y2="114.639" gradientUnits="userSpaceOnUse">
<stop stop-color="#ED2723"/>
<stop offset="1" stop-color="#FBA60B"/>
</linearGradient>
<linearGradient id="paint1_linear_2086_1599" x1="159.102" y1="114.639" x2="262.517" y2="114.639" gradientUnits="userSpaceOnUse">
<stop stop-color="#ED2723"/>
<stop offset="1" stop-color="#FBA60B"/>
</linearGradient>
<linearGradient id="paint2_linear_2086_1599" x1="56.7366" y1="114.273" x2="261.467" y2="114.273" gradientUnits="userSpaceOnUse">
<stop stop-color="#ED2723"/>
<stop offset="1" stop-color="#FBA60B"/>
</linearGradient>
</defs>
</svg>
