<svg width="197" height="198" viewBox="0 0 197 198" fill="none" xmlns="http://www.w3.org/2000/svg">
<path d="M29.447 144.539L32.4985 124.442C32.591 123.918 32.7759 123.64 33.0225 123.64C33.2691 123.64 33.4541 123.795 33.8548 124.596L42.2696 141.98L50.6536 124.38C50.9002 123.887 51.0543 123.64 51.3317 123.64C51.6092 123.64 51.7941 123.949 51.8866 124.596L54.6915 143.645C54.9689 145.587 55.2772 146.481 56.2019 146.758C57.0958 147.036 57.7122 147.066 58.1129 147.066C58.3903 147.066 58.6061 147.097 58.6061 147.282C58.6061 147.529 58.2362 147.621 57.8047 147.621C57.0341 147.621 52.7805 147.529 51.5475 147.436C50.8386 147.375 50.6536 147.282 50.6536 147.097C50.6536 146.943 50.7769 146.851 50.9927 146.758C51.1776 146.696 51.2701 146.296 51.1468 145.433L49.2974 131.87H49.1741L42.4545 145.864C41.7456 147.313 41.5915 147.59 41.3141 147.59C41.0367 147.59 40.7284 146.974 40.2352 146.049C39.4955 144.631 37.0604 139.915 36.6905 139.052C36.4131 138.405 34.5637 134.521 33.4849 132.209H33.3616L31.7588 144.477C31.6971 145.032 31.6663 145.433 31.6663 145.926C31.6663 146.512 32.067 146.789 32.591 146.912C33.1458 147.036 33.5773 147.066 33.8856 147.066C34.1322 147.066 34.3479 147.128 34.3479 147.282C34.3479 147.56 34.0705 147.621 33.6082 147.621C32.3136 147.621 30.9265 147.529 30.3717 147.529C29.786 147.529 28.3065 147.621 27.3202 147.621C27.0119 147.621 26.7653 147.56 26.7653 147.282C26.7653 147.128 26.9503 147.066 27.2585 147.066C27.5051 147.066 27.7209 147.066 28.1832 146.974C29.0463 146.789 29.2929 145.587 29.447 144.539ZM70.8766 147.96C62.9857 147.96 59.7801 142.35 59.7801 137.696C59.7801 133.227 62.9241 127.432 71.154 127.432C77.9968 127.432 82.2505 131.223 82.2505 137.234C82.2505 143.244 77.8735 147.96 70.8766 147.96ZM71.9862 146.542C73.8973 146.542 78.2126 145.648 78.2126 138.189C78.2126 132.394 74.7295 128.819 70.3526 128.819C67.3318 128.819 63.7871 130.422 63.7871 136.895C63.7871 142.289 66.8695 146.542 71.9862 146.542ZM88.6887 133.35L88.997 144.046C89.0586 146.08 89.3977 146.696 89.9217 146.881C90.384 147.036 90.908 147.066 91.3396 147.066C91.6478 147.066 91.8019 147.19 91.8019 147.344C91.8019 147.56 91.5553 147.621 91.1855 147.621C89.4285 147.621 88.1647 147.529 87.6716 147.529C87.425 147.529 86.1304 147.621 84.7433 147.621C84.3734 147.621 84.1269 147.59 84.1269 147.344C84.1269 147.19 84.3118 147.066 84.5584 147.066C84.9283 147.066 85.4214 147.036 85.7913 146.943C86.5003 146.758 86.5927 146.049 86.6236 143.768L86.8702 128.233C86.8702 127.709 87.0551 127.339 87.3325 127.339C87.6716 127.339 88.0414 127.74 88.5038 128.202C88.8429 128.541 92.9116 132.703 96.857 136.555C98.7064 138.374 102.313 142.073 102.713 142.443H102.837L102.559 130.791C102.529 129.189 102.282 128.726 101.635 128.48C101.234 128.326 100.587 128.326 100.217 128.326C99.8777 128.326 99.7852 128.202 99.7852 128.048C99.7852 127.832 100.063 127.802 100.463 127.802C101.881 127.802 103.33 127.863 103.916 127.863C104.224 127.863 105.241 127.802 106.566 127.802C106.936 127.802 107.183 127.832 107.183 128.048C107.183 128.202 107.029 128.326 106.721 128.326C106.443 128.326 106.227 128.326 105.888 128.418C105.149 128.634 104.933 129.096 104.902 130.576L104.594 147.097C104.594 147.683 104.378 147.929 104.162 147.929C103.7 147.929 103.33 147.652 103.053 147.375C101.357 145.803 97.9666 142.566 95.1309 139.823C92.1718 136.987 89.3052 133.812 88.7812 133.35H88.6887ZM120.771 141.025H114.39C114.236 141.025 114.205 141.056 114.144 141.21L112.695 144.724C112.417 145.371 112.294 146.018 112.294 146.327C112.294 146.789 112.541 147.066 113.373 147.066H113.774C114.113 147.066 114.174 147.19 114.174 147.344C114.174 147.56 114.02 147.621 113.743 147.621C112.849 147.621 111.585 147.529 110.722 147.529C110.445 147.529 108.996 147.621 107.578 147.621C107.239 147.621 107.085 147.56 107.085 147.344C107.085 147.19 107.177 147.066 107.393 147.066C107.64 147.066 107.948 147.036 108.195 147.036C109.427 146.851 109.89 146.049 110.445 144.724L117.534 128.233C117.842 127.493 118.058 127.185 118.336 127.185C118.736 127.185 118.86 127.432 119.137 128.017C119.784 129.466 124.315 140.193 126.041 144.169C127.089 146.542 127.86 146.881 128.353 146.974C128.754 147.036 129.062 147.066 129.37 147.066C129.617 147.066 129.74 147.159 129.74 147.344C129.74 147.56 129.586 147.621 128.569 147.621C127.613 147.621 125.641 147.621 123.36 147.56C122.867 147.529 122.558 147.529 122.558 147.344C122.558 147.19 122.62 147.097 122.897 147.066C123.082 147.036 123.267 146.789 123.144 146.481L121.048 141.21C120.986 141.056 120.894 141.025 120.771 141.025ZM114.945 139.576H120.185C120.308 139.576 120.339 139.515 120.308 139.422L117.75 132.764C117.719 132.672 117.688 132.518 117.627 132.518C117.534 132.518 117.503 132.672 117.472 132.764L114.852 139.391C114.791 139.515 114.852 139.576 114.945 139.576ZM132.694 140.008V135.384C132.694 131.408 132.694 130.668 132.663 129.836C132.602 128.942 132.355 128.665 131.492 128.418C131.276 128.356 130.814 128.326 130.413 128.326C130.136 128.326 129.951 128.233 129.951 128.048C129.951 127.863 130.167 127.802 130.567 127.802C131.985 127.802 133.711 127.863 134.266 127.863C135.191 127.863 137.657 127.802 138.489 127.802C140.215 127.802 142.188 127.956 143.637 128.911C144.407 129.435 145.548 130.761 145.548 132.518C145.548 134.459 144.438 136.186 141.787 138.312C144.191 141.271 146.103 143.645 147.736 145.279C149.247 146.789 150.202 146.912 150.634 147.005C150.911 147.066 151.065 147.066 151.281 147.066C151.497 147.066 151.62 147.22 151.62 147.344C151.62 147.56 151.435 147.621 151.096 147.621H148.507C146.996 147.621 146.257 147.467 145.548 147.097C144.376 146.512 143.359 145.279 141.849 143.244C140.77 141.826 139.63 140.069 139.291 139.669C139.136 139.515 138.982 139.484 138.797 139.484L136.362 139.422C136.239 139.422 136.146 139.484 136.146 139.638V140.008C136.146 142.443 136.177 144.477 136.301 145.587C136.393 146.357 136.516 146.851 137.349 146.974C137.749 147.036 138.335 147.066 138.674 147.066C138.89 147.066 139.013 147.22 139.013 147.344C139.013 147.529 138.797 147.621 138.458 147.621C136.886 147.621 134.636 147.529 134.235 147.529C133.711 147.529 131.985 147.621 130.906 147.621C130.567 147.621 130.382 147.529 130.382 147.344C130.382 147.22 130.475 147.066 130.814 147.066C131.215 147.066 131.523 147.036 131.77 146.974C132.324 146.851 132.478 146.357 132.571 145.587C132.694 144.477 132.694 142.412 132.694 140.008ZM136.146 129.62V137.419C136.146 137.696 136.208 137.788 136.393 137.881C136.979 138.066 137.78 138.127 138.458 138.127C139.537 138.127 139.907 138.035 140.369 137.696C141.202 137.11 142.126 135.97 142.126 133.812C142.126 130.113 139.599 129.158 137.996 129.158C137.318 129.158 136.67 129.189 136.393 129.25C136.208 129.312 136.146 129.404 136.146 129.62ZM157.37 135.384V136.555H157.493C158.418 135.569 162.363 131.685 163.165 130.791C163.935 129.928 164.521 129.312 164.521 128.85C164.521 128.572 164.398 128.387 164.151 128.326C163.905 128.264 163.781 128.202 163.781 128.048C163.781 127.863 163.935 127.802 164.213 127.802C164.798 127.802 166.278 127.863 167.018 127.863C167.85 127.863 169.36 127.802 170.193 127.802C170.47 127.802 170.655 127.863 170.655 128.048C170.655 128.233 170.501 128.326 170.254 128.326C169.854 128.326 169.175 128.449 168.682 128.634C167.819 128.942 166.956 129.497 165.816 130.576C164.953 131.377 160.915 135.199 160.082 136.155C161.038 137.388 166.37 142.936 167.418 143.922C168.621 145.001 169.669 146.142 171.117 146.727C171.919 147.066 172.474 147.066 172.782 147.066C172.998 147.066 173.152 147.19 173.152 147.344C173.152 147.529 172.998 147.621 172.504 147.621H170.131C169.33 147.621 168.836 147.621 168.251 147.56C166.802 147.436 165.908 146.881 164.737 145.864C163.566 144.847 158.356 138.806 157.771 138.004L157.493 137.634H157.37V140.008C157.37 142.412 157.37 144.477 157.432 145.618C157.493 146.357 157.74 146.851 158.418 146.974C158.788 147.036 159.404 147.066 159.743 147.066C159.959 147.066 160.113 147.22 160.113 147.344C160.113 147.529 159.898 147.621 159.589 147.621C158.079 147.621 156.137 147.529 155.459 147.529C154.842 147.529 153.116 147.621 152.038 147.621C151.698 147.621 151.514 147.529 151.514 147.344C151.514 147.22 151.606 147.066 151.945 147.066C152.346 147.066 152.654 147.036 152.901 146.974C153.455 146.851 153.61 146.357 153.702 145.587C153.825 144.477 153.825 142.412 153.825 140.008V135.384C153.825 131.408 153.825 130.668 153.794 129.836C153.733 128.942 153.486 128.665 152.623 128.418C152.407 128.356 151.945 128.326 151.544 128.326C151.267 128.326 151.082 128.233 151.082 128.048C151.082 127.863 151.298 127.802 151.698 127.802C153.116 127.802 154.842 127.863 155.49 127.863C156.137 127.863 158.079 127.802 158.973 127.802C159.374 127.802 159.558 127.863 159.558 128.048C159.558 128.233 159.404 128.326 159.189 128.326C158.911 128.326 158.757 128.356 158.418 128.418C157.678 128.541 157.462 128.911 157.401 129.836C157.37 130.668 157.37 131.408 157.37 135.384Z" fill="#FFF8F5"/>
<path d="M4.67153 162V157.065H7.91253V157.625H5.30853V159.221H7.76553V159.781H5.30853V161.44H7.91253V162H4.67153ZM9.1331 162V158.528H9.7141V159.284H9.7281C9.78876 159.135 9.8751 158.999 9.9871 158.878C10.0991 158.752 10.2321 158.652 10.3861 158.577C10.5448 158.502 10.7198 158.465 10.9111 158.465C11.2144 158.465 11.4664 158.542 11.6671 158.696C11.8678 158.845 11.9914 159.037 12.0381 159.27H12.0521C12.1454 159.051 12.2924 158.862 12.4931 158.703C12.6938 158.544 12.9504 158.465 13.2631 158.465C13.5291 158.465 13.7531 158.516 13.9351 158.619C14.1218 158.717 14.2641 158.871 14.3621 159.081C14.4601 159.286 14.5091 159.548 14.5091 159.865V162H13.8721V159.907C13.8721 159.613 13.8184 159.391 13.7111 159.242C13.6084 159.088 13.4148 159.011 13.1301 159.011C12.9201 159.011 12.7404 159.058 12.5911 159.151C12.4418 159.244 12.3274 159.37 12.2481 159.529C12.1688 159.688 12.1291 159.867 12.1291 160.068V162H11.5061V159.907C11.5061 159.618 11.4431 159.396 11.3171 159.242C11.1911 159.088 11.0068 159.011 10.7641 159.011C10.5588 159.011 10.3814 159.065 10.2321 159.172C10.0828 159.275 9.9661 159.405 9.8821 159.564C9.80276 159.718 9.7631 159.879 9.7631 160.047V162H9.1331ZM15.7978 163.26V158.521H16.3788V159.27H16.3998C16.5071 159.013 16.6705 158.815 16.8898 158.675C17.1138 158.535 17.3751 158.465 17.6738 158.465C17.9958 158.465 18.2781 158.542 18.5208 158.696C18.7635 158.845 18.9501 159.053 19.0808 159.319C19.2115 159.585 19.2768 159.9 19.2768 160.264C19.2768 160.614 19.2115 160.924 19.0808 161.195C18.9548 161.466 18.7705 161.678 18.5278 161.832C18.2898 161.986 18.0051 162.063 17.6738 162.063C17.3845 162.063 17.1348 161.995 16.9248 161.86C16.7148 161.72 16.5585 161.533 16.4558 161.3H16.4348V163.26H15.7978ZM17.5338 161.538C17.8791 161.538 18.1498 161.424 18.3458 161.195C18.5418 160.962 18.6398 160.649 18.6398 160.257C18.6398 159.865 18.5418 159.557 18.3458 159.333C18.1545 159.104 17.8838 158.99 17.5338 158.99C17.1931 158.99 16.9225 159.104 16.7218 159.333C16.5258 159.557 16.4278 159.865 16.4278 160.257C16.4278 160.649 16.5258 160.962 16.7218 161.195C16.9225 161.424 17.1931 161.538 17.5338 161.538ZM21.8972 162.063C21.5425 162.063 21.2345 161.988 20.9732 161.839C20.7119 161.69 20.5112 161.48 20.3712 161.209C20.2312 160.938 20.1612 160.621 20.1612 160.257C20.1612 159.898 20.2312 159.585 20.3712 159.319C20.5112 159.048 20.7119 158.838 20.9732 158.689C21.2345 158.54 21.5402 158.465 21.8902 158.465C22.2495 158.465 22.5575 158.54 22.8142 158.689C23.0709 158.838 23.2692 159.048 23.4092 159.319C23.5539 159.585 23.6262 159.898 23.6262 160.257C23.6262 160.621 23.5562 160.938 23.4162 161.209C23.2762 161.48 23.0755 161.69 22.8142 161.839C22.5575 161.988 22.2519 162.063 21.8972 162.063ZM21.8902 161.517C22.2355 161.517 22.5062 161.403 22.7022 161.174C22.8982 160.945 22.9962 160.64 22.9962 160.257C22.9962 159.874 22.8982 159.571 22.7022 159.347C22.5062 159.123 22.2379 159.011 21.8972 159.011C21.5519 159.011 21.2789 159.123 21.0782 159.347C20.8822 159.571 20.7842 159.874 20.7842 160.257C20.7842 160.64 20.8822 160.945 21.0782 161.174C21.2789 161.403 21.5495 161.517 21.8902 161.517ZM25.42 162L24.237 158.528H24.874L25.763 161.307L26.785 158.528H27.331L28.339 161.307L29.242 158.528H29.872L28.675 162H28.08L27.044 159.193H27.065L26.015 162H25.42ZM32.3805 162.063C31.9885 162.063 31.6501 161.993 31.3655 161.853C31.0808 161.708 30.8615 161.501 30.7075 161.23C30.5581 160.959 30.4835 160.635 30.4835 160.257C30.4835 159.912 30.5511 159.606 30.6865 159.34C30.8265 159.069 31.0248 158.857 31.2815 158.703C31.5428 158.544 31.8555 158.465 32.2195 158.465C32.5648 158.465 32.8565 158.54 33.0945 158.689C33.3371 158.834 33.5191 159.039 33.6405 159.305C33.7665 159.571 33.8295 159.886 33.8295 160.25V160.446H30.9525V159.998H33.4165L33.2835 160.145C33.2835 159.762 33.1901 159.468 33.0035 159.263C32.8215 159.058 32.5601 158.955 32.2195 158.955C32.0001 158.955 31.8041 159.004 31.6315 159.102C31.4635 159.2 31.3305 159.34 31.2325 159.522C31.1391 159.699 31.0925 159.919 31.0925 160.18V160.25C31.0925 160.535 31.1438 160.773 31.2465 160.964C31.3538 161.151 31.5031 161.293 31.6945 161.391C31.8905 161.489 32.1238 161.538 32.3945 161.538C32.5811 161.538 32.7748 161.512 32.9755 161.461C33.1808 161.41 33.3698 161.316 33.5425 161.181L33.7525 161.636C33.5751 161.785 33.3605 161.895 33.1085 161.965C32.8611 162.03 32.6185 162.063 32.3805 162.063ZM34.9043 162V158.528H35.4783V159.319H35.4993C35.5879 159.072 35.7373 158.876 35.9473 158.731C36.1619 158.582 36.4186 158.498 36.7173 158.479L37.0603 158.458L37.1163 159.046L36.5843 159.095C36.2576 159.118 36.0009 159.223 35.8143 159.41C35.6323 159.597 35.5413 159.825 35.5413 160.096V162H34.9043ZM37.8626 157.702V156.995H38.6326V157.702H37.8626ZM37.9326 162V158.528H38.5696V162H37.9326ZM39.8671 162V158.528H40.4551V159.27H40.4761C40.5928 159.023 40.7608 158.827 40.9801 158.682C41.2041 158.537 41.4585 158.465 41.7431 158.465C42.0325 158.465 42.2728 158.516 42.4641 158.619C42.6601 158.722 42.8048 158.878 42.8981 159.088C42.9961 159.293 43.0451 159.552 43.0451 159.865V162H42.4151V159.9C42.4151 159.718 42.3871 159.562 42.3311 159.431C42.2798 159.3 42.1935 159.198 42.0721 159.123C41.9555 159.048 41.7991 159.011 41.6031 159.011C41.3931 159.011 41.2041 159.06 41.0361 159.158C40.8728 159.251 40.7421 159.377 40.6441 159.536C40.5508 159.695 40.5041 159.867 40.5041 160.054V162H39.8671ZM45.8292 163.316C45.5538 163.316 45.2785 163.276 45.0032 163.197C44.7325 163.118 44.5015 163.008 44.3102 162.868L44.5132 162.364C44.6392 162.448 44.7745 162.52 44.9192 162.581C45.0685 162.646 45.2202 162.695 45.3742 162.728C45.5282 162.761 45.6752 162.777 45.8152 162.777C46.1885 162.777 46.4778 162.684 46.6832 162.497C46.8932 162.31 46.9982 162.051 46.9982 161.72V161.125H46.9632C46.8745 161.354 46.7228 161.54 46.5082 161.685C46.2935 161.825 46.0415 161.895 45.7522 161.895C45.4255 161.895 45.1385 161.825 44.8912 161.685C44.6485 161.54 44.4595 161.34 44.3242 161.083C44.1888 160.826 44.1212 160.525 44.1212 160.18C44.1212 159.835 44.1888 159.534 44.3242 159.277C44.4595 159.02 44.6485 158.822 44.8912 158.682C45.1385 158.537 45.4255 158.465 45.7522 158.465C46.0415 158.465 46.2958 158.54 46.5152 158.689C46.7345 158.834 46.8885 159.03 46.9772 159.277H46.9982V158.528H47.5932V161.671C47.5932 162.007 47.5208 162.296 47.3762 162.539C47.2362 162.786 47.0332 162.978 46.7672 163.113C46.5058 163.248 46.1932 163.316 45.8292 163.316ZM45.8642 161.377C46.2048 161.377 46.4755 161.267 46.6762 161.048C46.8768 160.829 46.9772 160.539 46.9772 160.18C46.9772 159.816 46.8768 159.527 46.6762 159.312C46.4755 159.097 46.2048 158.99 45.8642 158.99C45.5235 158.99 45.2528 159.097 45.0522 159.312C44.8515 159.527 44.7512 159.816 44.7512 160.18C44.7512 160.539 44.8515 160.829 45.0522 161.048C45.2528 161.267 45.5235 161.377 45.8642 161.377ZM53.0988 162.063C52.6275 162.063 52.2168 161.963 51.8668 161.762C51.5215 161.557 51.2532 161.265 51.0618 160.887C50.8752 160.509 50.7818 160.056 50.7818 159.529C50.7818 159.002 50.8752 158.551 51.0618 158.178C51.2532 157.8 51.5215 157.511 51.8668 157.31C52.2122 157.105 52.6228 157.002 53.0988 157.002C53.4395 157.002 53.7522 157.053 54.0368 157.156C54.3215 157.259 54.5665 157.413 54.7718 157.618L54.5268 158.115C54.3122 157.924 54.0905 157.788 53.8618 157.709C53.6378 157.625 53.3858 157.583 53.1058 157.583C52.5925 157.583 52.1865 157.749 51.8878 158.08C51.5938 158.407 51.4468 158.89 51.4468 159.529C51.4468 160.164 51.5938 160.649 51.8878 160.985C52.1818 161.316 52.5878 161.482 53.1058 161.482C53.3858 161.482 53.6378 161.442 53.8618 161.363C54.0905 161.279 54.3122 161.141 54.5268 160.95L54.7718 161.447C54.5665 161.652 54.3215 161.806 54.0368 161.909C53.7522 162.012 53.4395 162.063 53.0988 162.063ZM57.157 162.063C56.8023 162.063 56.4943 161.988 56.233 161.839C55.9716 161.69 55.771 161.48 55.631 161.209C55.491 160.938 55.421 160.621 55.421 160.257C55.421 159.898 55.491 159.585 55.631 159.319C55.771 159.048 55.9716 158.838 56.233 158.689C56.4943 158.54 56.8 158.465 57.15 158.465C57.5093 158.465 57.8173 158.54 58.074 158.689C58.3306 158.838 58.529 159.048 58.669 159.319C58.8136 159.585 58.886 159.898 58.886 160.257C58.886 160.621 58.816 160.938 58.676 161.209C58.536 161.48 58.3353 161.69 58.074 161.839C57.8173 161.988 57.5116 162.063 57.157 162.063ZM57.15 161.517C57.4953 161.517 57.766 161.403 57.962 161.174C58.158 160.945 58.256 160.64 58.256 160.257C58.256 159.874 58.158 159.571 57.962 159.347C57.766 159.123 57.4976 159.011 57.157 159.011C56.8116 159.011 56.5386 159.123 56.338 159.347C56.142 159.571 56.044 159.874 56.044 160.257C56.044 160.64 56.142 160.945 56.338 161.174C56.5386 161.403 56.8093 161.517 57.15 161.517ZM59.9856 162V158.528H60.5666V159.284H60.5806C60.6413 159.135 60.7276 158.999 60.8396 158.878C60.9516 158.752 61.0846 158.652 61.2386 158.577C61.3973 158.502 61.5723 158.465 61.7636 158.465C62.067 158.465 62.319 158.542 62.5196 158.696C62.7203 158.845 62.844 159.037 62.8906 159.27H62.9046C62.998 159.051 63.145 158.862 63.3456 158.703C63.5463 158.544 63.803 158.465 64.1156 158.465C64.3816 158.465 64.6056 158.516 64.7876 158.619C64.9743 158.717 65.1166 158.871 65.2146 159.081C65.3126 159.286 65.3616 159.548 65.3616 159.865V162H64.7246V159.907C64.7246 159.613 64.671 159.391 64.5636 159.242C64.461 159.088 64.2673 159.011 63.9826 159.011C63.7726 159.011 63.593 159.058 63.4436 159.151C63.2943 159.244 63.18 159.37 63.1006 159.529C63.0213 159.688 62.9816 159.867 62.9816 160.068V162H62.3586V159.907C62.3586 159.618 62.2956 159.396 62.1696 159.242C62.0436 159.088 61.8593 159.011 61.6166 159.011C61.4113 159.011 61.234 159.065 61.0846 159.172C60.9353 159.275 60.8186 159.405 60.7346 159.564C60.6553 159.718 60.6156 159.879 60.6156 160.047V162H59.9856ZM66.6643 162V158.528H67.2453V159.284H67.2593C67.32 159.135 67.4063 158.999 67.5183 158.878C67.6303 158.752 67.7633 158.652 67.9173 158.577C68.076 158.502 68.251 158.465 68.4423 158.465C68.7457 158.465 68.9977 158.542 69.1983 158.696C69.399 158.845 69.5227 159.037 69.5693 159.27H69.5833C69.6767 159.051 69.8237 158.862 70.0243 158.703C70.225 158.544 70.4817 158.465 70.7943 158.465C71.0603 158.465 71.2843 158.516 71.4663 158.619C71.653 158.717 71.7953 158.871 71.8933 159.081C71.9913 159.286 72.0403 159.548 72.0403 159.865V162H71.4033V159.907C71.4033 159.613 71.3497 159.391 71.2423 159.242C71.1397 159.088 70.946 159.011 70.6613 159.011C70.4513 159.011 70.2717 159.058 70.1223 159.151C69.973 159.244 69.8587 159.37 69.7793 159.529C69.7 159.688 69.6603 159.867 69.6603 160.068V162H69.0373V159.907C69.0373 159.618 68.9743 159.396 68.8483 159.242C68.7223 159.088 68.538 159.011 68.2953 159.011C68.09 159.011 67.9127 159.065 67.7633 159.172C67.614 159.275 67.4973 159.405 67.4133 159.564C67.334 159.718 67.2943 159.879 67.2943 160.047V162H66.6643ZM74.6451 162.063C74.3604 162.063 74.1177 162.012 73.9171 161.909C73.7211 161.806 73.5717 161.652 73.4691 161.447C73.3711 161.237 73.3221 160.978 73.3221 160.67V158.528H73.9591V160.642C73.9591 160.81 73.9847 160.962 74.0361 161.097C74.0874 161.228 74.1737 161.33 74.2951 161.405C74.4164 161.48 74.5774 161.517 74.7781 161.517C74.9787 161.517 75.1584 161.468 75.3171 161.37C75.4757 161.272 75.5994 161.146 75.6881 160.992C75.7814 160.833 75.8281 160.663 75.8281 160.481V158.528H76.4651V162H75.8841V161.244H75.8631C75.7417 161.496 75.5807 161.697 75.3801 161.846C75.1794 161.991 74.9344 162.063 74.6451 162.063ZM77.7587 162V158.528H78.3467V159.27H78.3677C78.4844 159.023 78.6524 158.827 78.8717 158.682C79.0957 158.537 79.3501 158.465 79.6347 158.465C79.9241 158.465 80.1644 158.516 80.3557 158.619C80.5517 158.722 80.6964 158.878 80.7897 159.088C80.8877 159.293 80.9367 159.552 80.9367 159.865V162H80.3067V159.9C80.3067 159.718 80.2787 159.562 80.2227 159.431C80.1714 159.3 80.0851 159.198 79.9637 159.123C79.8471 159.048 79.6907 159.011 79.4947 159.011C79.2847 159.011 79.0957 159.06 78.9277 159.158C78.7644 159.251 78.6337 159.377 78.5357 159.536C78.4424 159.695 78.3957 159.867 78.3957 160.054V162H77.7587ZM82.1458 157.702V156.995H82.9158V157.702H82.1458ZM82.2158 162V158.528H82.8528V162H82.2158ZM85.6343 162.063C85.2143 162.063 84.8947 161.953 84.6753 161.734C84.4607 161.51 84.3533 161.195 84.3533 160.789V159.06H83.6463V158.528H84.3813V157.506H84.9903V158.528H86.2713V159.06H84.9903V160.733C84.9903 160.999 85.051 161.195 85.1723 161.321C85.2937 161.447 85.4757 161.51 85.7183 161.51C85.8257 161.51 85.926 161.501 86.0193 161.482C86.1173 161.463 86.2107 161.433 86.2993 161.391L86.3973 161.895C86.2993 161.951 86.1803 161.993 86.0403 162.021C85.905 162.049 85.7697 162.063 85.6343 162.063ZM87.1155 157.702V156.995H87.8855V157.702H87.1155ZM87.1855 162V158.528H87.8225V162H87.1855ZM90.8141 162.063C90.4221 162.063 90.0837 161.993 89.7991 161.853C89.5144 161.708 89.2951 161.501 89.1411 161.23C88.9917 160.959 88.9171 160.635 88.9171 160.257C88.9171 159.912 88.9847 159.606 89.1201 159.34C89.2601 159.069 89.4584 158.857 89.7151 158.703C89.9764 158.544 90.2891 158.465 90.6531 158.465C90.9984 158.465 91.2901 158.54 91.5281 158.689C91.7707 158.834 91.9527 159.039 92.0741 159.305C92.2001 159.571 92.2631 159.886 92.2631 160.25V160.446H89.3861V159.998H91.8501L91.7171 160.145C91.7171 159.762 91.6237 159.468 91.4371 159.263C91.2551 159.058 90.9937 158.955 90.6531 158.955C90.4337 158.955 90.2377 159.004 90.0651 159.102C89.8971 159.2 89.7641 159.34 89.6661 159.522C89.5727 159.699 89.5261 159.919 89.5261 160.18V160.25C89.5261 160.535 89.5774 160.773 89.6801 160.964C89.7874 161.151 89.9367 161.293 90.1281 161.391C90.3241 161.489 90.5574 161.538 90.8281 161.538C91.0147 161.538 91.2084 161.512 91.4091 161.461C91.6144 161.41 91.8034 161.316 91.9761 161.181L92.1861 161.636C92.0087 161.785 91.7941 161.895 91.5421 161.965C91.2947 162.03 91.0521 162.063 90.8141 162.063ZM94.6398 162.063C94.4485 162.063 94.2572 162.044 94.0658 162.007C93.8792 161.974 93.7042 161.928 93.5408 161.867C93.3822 161.802 93.2468 161.722 93.1348 161.629L93.3378 161.174C93.4638 161.263 93.5992 161.335 93.7438 161.391C93.8885 161.447 94.0378 161.487 94.1918 161.51C94.3458 161.533 94.4928 161.545 94.6328 161.545C94.9268 161.545 95.1555 161.503 95.3188 161.419C95.4822 161.335 95.5638 161.214 95.5638 161.055C95.5638 160.92 95.5172 160.817 95.4238 160.747C95.3305 160.672 95.1765 160.616 94.9618 160.579L94.2198 160.46C93.8885 160.404 93.6388 160.294 93.4708 160.131C93.3075 159.968 93.2258 159.755 93.2258 159.494C93.2258 159.289 93.2842 159.109 93.4008 158.955C93.5175 158.801 93.6855 158.682 93.9048 158.598C94.1242 158.509 94.3855 158.465 94.6888 158.465C94.8568 158.465 95.0272 158.481 95.1998 158.514C95.3772 158.542 95.5428 158.589 95.6968 158.654C95.8508 158.719 95.9745 158.799 96.0678 158.892L95.8508 159.34C95.7528 159.256 95.6385 159.188 95.5078 159.137C95.3772 159.081 95.2395 159.041 95.0948 159.018C94.9548 158.99 94.8195 158.976 94.6888 158.976C94.4135 158.976 94.1988 159.02 94.0448 159.109C93.8908 159.198 93.8138 159.321 93.8138 159.48C93.8138 159.615 93.8558 159.718 93.9398 159.788C94.0285 159.858 94.1732 159.912 94.3738 159.949L95.0948 160.082C95.4495 160.143 95.7132 160.252 95.8858 160.411C96.0585 160.565 96.1448 160.775 96.1448 161.041C96.1448 161.251 96.0818 161.433 95.9558 161.587C95.8345 161.736 95.6618 161.853 95.4378 161.937C95.2138 162.021 94.9478 162.063 94.6398 162.063ZM97.4178 163.064L97.0958 162.805C97.1798 162.726 97.2451 162.632 97.2918 162.525C97.3431 162.422 97.3805 162.315 97.4038 162.203C97.4318 162.096 97.4481 161.993 97.4528 161.895L97.5718 162H97.0468V161.223H97.8728V161.811C97.8728 161.956 97.8565 162.105 97.8238 162.259C97.7958 162.413 97.7491 162.558 97.6838 162.693C97.6185 162.833 97.5298 162.957 97.4178 163.064ZM101.14 162V157.065H102.89C103.418 157.065 103.863 157.161 104.227 157.352C104.596 157.543 104.876 157.823 105.067 158.192C105.263 158.556 105.361 159.002 105.361 159.529C105.361 160.056 105.263 160.504 105.067 160.873C104.876 161.242 104.596 161.522 104.227 161.713C103.859 161.904 103.413 162 102.89 162H101.14ZM101.777 161.44H102.855C103.453 161.44 103.908 161.284 104.22 160.971C104.538 160.658 104.696 160.178 104.696 159.529C104.696 158.88 104.54 158.402 104.227 158.094C103.915 157.781 103.457 157.625 102.855 157.625H101.777V161.44ZM108.253 162.063C107.861 162.063 107.522 161.993 107.238 161.853C106.953 161.708 106.734 161.501 106.58 161.23C106.43 160.959 106.356 160.635 106.356 160.257C106.356 159.912 106.423 159.606 106.559 159.34C106.699 159.069 106.897 158.857 107.154 158.703C107.415 158.544 107.728 158.465 108.092 158.465C108.437 158.465 108.729 158.54 108.967 158.689C109.209 158.834 109.391 159.039 109.513 159.305C109.639 159.571 109.702 159.886 109.702 160.25V160.446H106.825V159.998H109.289L109.156 160.145C109.156 159.762 109.062 159.468 108.876 159.263C108.694 159.058 108.432 158.955 108.092 158.955C107.872 158.955 107.676 159.004 107.504 159.102C107.336 159.2 107.203 159.34 107.105 159.522C107.011 159.699 106.965 159.919 106.965 160.18V160.25C106.965 160.535 107.016 160.773 107.119 160.964C107.226 161.151 107.375 161.293 107.567 161.391C107.763 161.489 107.996 161.538 108.267 161.538C108.453 161.538 108.647 161.512 108.848 161.461C109.053 161.41 109.242 161.316 109.415 161.181L109.625 161.636C109.447 161.785 109.233 161.895 108.981 161.965C108.733 162.03 108.491 162.063 108.253 162.063ZM110.79 162V158.528H111.371V159.284H111.385C111.446 159.135 111.532 158.999 111.644 158.878C111.756 158.752 111.889 158.652 112.043 158.577C112.202 158.502 112.377 158.465 112.568 158.465C112.872 158.465 113.124 158.542 113.324 158.696C113.525 158.845 113.649 159.037 113.695 159.27H113.709C113.803 159.051 113.95 158.862 114.15 158.703C114.351 158.544 114.608 158.465 114.92 158.465C115.186 158.465 115.41 158.516 115.592 158.619C115.779 158.717 115.921 158.871 116.019 159.081C116.117 159.286 116.166 159.548 116.166 159.865V162H115.529V159.907C115.529 159.613 115.476 159.391 115.368 159.242C115.266 159.088 115.072 159.011 114.787 159.011C114.577 159.011 114.398 159.058 114.248 159.151C114.099 159.244 113.985 159.37 113.905 159.529C113.826 159.688 113.786 159.867 113.786 160.068V162H113.163V159.907C113.163 159.618 113.1 159.396 112.974 159.242C112.848 159.088 112.664 159.011 112.421 159.011C112.216 159.011 112.039 159.065 111.889 159.172C111.74 159.275 111.623 159.405 111.539 159.564C111.46 159.718 111.42 159.879 111.42 160.047V162H110.79ZM118.988 162.063C118.633 162.063 118.325 161.988 118.064 161.839C117.803 161.69 117.602 161.48 117.462 161.209C117.322 160.938 117.252 160.621 117.252 160.257C117.252 159.898 117.322 159.585 117.462 159.319C117.602 159.048 117.803 158.838 118.064 158.689C118.325 158.54 118.631 158.465 118.981 158.465C119.34 158.465 119.648 158.54 119.905 158.689C120.162 158.838 120.36 159.048 120.5 159.319C120.645 159.585 120.717 159.898 120.717 160.257C120.717 160.621 120.647 160.938 120.507 161.209C120.367 161.48 120.166 161.69 119.905 161.839C119.648 161.988 119.343 162.063 118.988 162.063ZM118.981 161.517C119.326 161.517 119.597 161.403 119.793 161.174C119.989 160.945 120.087 160.64 120.087 160.257C120.087 159.874 119.989 159.571 119.793 159.347C119.597 159.123 119.329 159.011 118.988 159.011C118.643 159.011 118.37 159.123 118.169 159.347C117.973 159.571 117.875 159.874 117.875 160.257C117.875 160.64 117.973 160.945 118.169 161.174C118.37 161.403 118.64 161.517 118.981 161.517ZM123.371 162.063C123.011 162.063 122.699 161.991 122.433 161.846C122.167 161.697 121.961 161.487 121.817 161.216C121.672 160.945 121.6 160.628 121.6 160.264C121.6 159.895 121.672 159.576 121.817 159.305C121.966 159.034 122.174 158.827 122.44 158.682C122.706 158.537 123.018 158.465 123.378 158.465C123.62 158.465 123.849 158.507 124.064 158.591C124.283 158.67 124.465 158.778 124.61 158.913L124.386 159.389C124.25 159.268 124.099 159.177 123.931 159.116C123.763 159.051 123.597 159.018 123.434 159.018C123.06 159.018 122.766 159.128 122.552 159.347C122.342 159.562 122.237 159.87 122.237 160.271C122.237 160.663 122.342 160.969 122.552 161.188C122.766 161.403 123.058 161.51 123.427 161.51C123.59 161.51 123.756 161.48 123.924 161.419C124.092 161.354 124.239 161.265 124.365 161.153L124.589 161.629C124.453 161.76 124.278 161.865 124.064 161.944C123.849 162.023 123.618 162.063 123.371 162.063ZM125.433 162V158.528H126.007V159.319H126.028C126.116 159.072 126.266 158.876 126.476 158.731C126.69 158.582 126.947 158.498 127.246 158.479L127.589 158.458L127.645 159.046L127.113 159.095C126.786 159.118 126.529 159.223 126.343 159.41C126.161 159.597 126.07 159.825 126.07 160.096V162H125.433ZM129.603 162.063C129.355 162.063 129.131 162.019 128.931 161.93C128.735 161.837 128.578 161.711 128.462 161.552C128.35 161.393 128.294 161.216 128.294 161.02C128.294 160.754 128.371 160.544 128.525 160.39C128.679 160.231 128.912 160.119 129.225 160.054C129.542 159.989 129.939 159.956 130.415 159.956H130.961V160.397H130.45C130.184 160.397 129.955 160.406 129.764 160.425C129.572 160.439 129.414 160.467 129.288 160.509C129.166 160.551 129.075 160.612 129.015 160.691C128.954 160.766 128.924 160.861 128.924 160.978C128.924 161.169 128.998 161.314 129.148 161.412C129.302 161.51 129.493 161.559 129.722 161.559C129.927 161.559 130.114 161.512 130.282 161.419C130.454 161.326 130.592 161.202 130.695 161.048C130.802 160.894 130.856 160.728 130.856 160.551V159.753C130.856 159.482 130.774 159.286 130.611 159.165C130.447 159.044 130.209 158.983 129.897 158.983C129.691 158.983 129.486 159.011 129.281 159.067C129.075 159.123 128.863 159.216 128.644 159.347L128.441 158.871C128.59 158.782 128.749 158.708 128.917 158.647C129.085 158.586 129.257 158.542 129.435 158.514C129.617 158.481 129.796 158.465 129.974 158.465C130.272 158.465 130.534 158.512 130.758 158.605C130.986 158.698 131.164 158.845 131.29 159.046C131.416 159.242 131.479 159.496 131.479 159.809V162H130.926V161.251H130.905C130.835 161.391 130.739 161.524 130.618 161.65C130.501 161.771 130.356 161.872 130.184 161.951C130.016 162.026 129.822 162.063 129.603 162.063ZM134.238 162.063C133.818 162.063 133.498 161.953 133.279 161.734C133.064 161.51 132.957 161.195 132.957 160.789V159.06H132.25V158.528H132.985V157.506H133.594V158.528H134.875V159.06H133.594V160.733C133.594 160.999 133.655 161.195 133.776 161.321C133.897 161.447 134.079 161.51 134.322 161.51C134.429 161.51 134.53 161.501 134.623 161.482C134.721 161.463 134.814 161.433 134.903 161.391L135.001 161.895C134.903 161.951 134.784 161.993 134.644 162.021C134.509 162.049 134.373 162.063 134.238 162.063ZM135.719 157.702V156.995H136.489V157.702H135.719ZM135.789 162V158.528H136.426V162H135.789ZM139.026 162.063C138.834 162.063 138.643 162.044 138.452 162.007C138.265 161.974 138.09 161.928 137.927 161.867C137.768 161.802 137.633 161.722 137.521 161.629L137.724 161.174C137.85 161.263 137.985 161.335 138.13 161.391C138.274 161.447 138.424 161.487 138.578 161.51C138.732 161.533 138.879 161.545 139.019 161.545C139.313 161.545 139.541 161.503 139.705 161.419C139.868 161.335 139.95 161.214 139.95 161.055C139.95 160.92 139.903 160.817 139.81 160.747C139.716 160.672 139.562 160.616 139.348 160.579L138.606 160.46C138.274 160.404 138.025 160.294 137.857 160.131C137.693 159.968 137.612 159.755 137.612 159.494C137.612 159.289 137.67 159.109 137.787 158.955C137.903 158.801 138.071 158.682 138.291 158.598C138.51 158.509 138.771 158.465 139.075 158.465C139.243 158.465 139.413 158.481 139.586 158.514C139.763 158.542 139.929 158.589 140.083 158.654C140.237 158.719 140.36 158.799 140.454 158.892L140.237 159.34C140.139 159.256 140.024 159.188 139.894 159.137C139.763 159.081 139.625 159.041 139.481 159.018C139.341 158.99 139.205 158.976 139.075 158.976C138.799 158.976 138.585 159.02 138.431 159.109C138.277 159.198 138.2 159.321 138.2 159.48C138.2 159.615 138.242 159.718 138.326 159.788C138.414 159.858 138.559 159.912 138.76 159.949L139.481 160.082C139.835 160.143 140.099 160.252 140.272 160.411C140.444 160.565 140.531 160.775 140.531 161.041C140.531 161.251 140.468 161.433 140.342 161.587C140.22 161.736 140.048 161.853 139.824 161.937C139.6 162.021 139.334 162.063 139.026 162.063ZM141.523 157.702V156.995H142.293V157.702H141.523ZM141.593 162V158.528H142.23V162H141.593ZM143.527 162V158.528H144.115V159.27H144.136C144.253 159.023 144.421 158.827 144.64 158.682C144.864 158.537 145.119 158.465 145.403 158.465C145.693 158.465 145.933 158.516 146.124 158.619C146.32 158.722 146.465 158.878 146.558 159.088C146.656 159.293 146.705 159.552 146.705 159.865V162H146.075V159.9C146.075 159.718 146.047 159.562 145.991 159.431C145.94 159.3 145.854 159.198 145.732 159.123C145.616 159.048 145.459 159.011 145.263 159.011C145.053 159.011 144.864 159.06 144.696 159.158C144.533 159.251 144.402 159.377 144.304 159.536C144.211 159.695 144.164 159.867 144.164 160.054V162H143.527ZM149.489 163.316C149.214 163.316 148.939 163.276 148.663 163.197C148.393 163.118 148.162 163.008 147.97 162.868L148.173 162.364C148.299 162.448 148.435 162.52 148.579 162.581C148.729 162.646 148.88 162.695 149.034 162.728C149.188 162.761 149.335 162.777 149.475 162.777C149.849 162.777 150.138 162.684 150.343 162.497C150.553 162.31 150.658 162.051 150.658 161.72V161.125H150.623C150.535 161.354 150.383 161.54 150.168 161.685C149.954 161.825 149.702 161.895 149.412 161.895C149.086 161.895 148.799 161.825 148.551 161.685C148.309 161.54 148.12 161.34 147.984 161.083C147.849 160.826 147.781 160.525 147.781 160.18C147.781 159.835 147.849 159.534 147.984 159.277C148.12 159.02 148.309 158.822 148.551 158.682C148.799 158.537 149.086 158.465 149.412 158.465C149.702 158.465 149.956 158.54 150.175 158.689C150.395 158.834 150.549 159.03 150.637 159.277H150.658V158.528H151.253V161.671C151.253 162.007 151.181 162.296 151.036 162.539C150.896 162.786 150.693 162.978 150.427 163.113C150.166 163.248 149.853 163.316 149.489 163.316ZM149.524 161.377C149.865 161.377 150.136 161.267 150.336 161.048C150.537 160.829 150.637 160.539 150.637 160.18C150.637 159.816 150.537 159.527 150.336 159.312C150.136 159.097 149.865 158.99 149.524 158.99C149.184 158.99 148.913 159.097 148.712 159.312C148.512 159.527 148.411 159.816 148.411 160.18C148.411 160.539 148.512 160.829 148.712 161.048C148.913 161.267 149.184 161.377 149.524 161.377ZM155.849 162V157.632H154.078V157.065H158.264V157.632H156.493V162H155.849ZM160.254 162.063C159.862 162.063 159.523 161.993 159.239 161.853C158.954 161.708 158.735 161.501 158.581 161.23C158.431 160.959 158.357 160.635 158.357 160.257C158.357 159.912 158.424 159.606 158.56 159.34C158.7 159.069 158.898 158.857 159.155 158.703C159.416 158.544 159.729 158.465 160.093 158.465C160.438 158.465 160.73 158.54 160.968 158.689C161.21 158.834 161.392 159.039 161.514 159.305C161.64 159.571 161.703 159.886 161.703 160.25V160.446H158.826V159.998H161.29L161.157 160.145C161.157 159.762 161.063 159.468 160.877 159.263C160.695 159.058 160.433 158.955 160.093 158.955C159.873 158.955 159.677 159.004 159.505 159.102C159.337 159.2 159.204 159.34 159.106 159.522C159.012 159.699 158.966 159.919 158.966 160.18V160.25C158.966 160.535 159.017 160.773 159.12 160.964C159.227 161.151 159.376 161.293 159.568 161.391C159.764 161.489 159.997 161.538 160.268 161.538C160.454 161.538 160.648 161.512 160.849 161.461C161.054 161.41 161.243 161.316 161.416 161.181L161.626 161.636C161.448 161.785 161.234 161.895 160.982 161.965C160.734 162.03 160.492 162.063 160.254 162.063ZM164.345 162.063C163.986 162.063 163.673 161.991 163.407 161.846C163.141 161.697 162.936 161.487 162.791 161.216C162.647 160.945 162.574 160.628 162.574 160.264C162.574 159.895 162.647 159.576 162.791 159.305C162.941 159.034 163.148 158.827 163.414 158.682C163.68 158.537 163.993 158.465 164.352 158.465C164.595 158.465 164.824 158.507 165.038 158.591C165.258 158.67 165.44 158.778 165.584 158.913L165.36 159.389C165.225 159.268 165.073 159.177 164.905 159.116C164.737 159.051 164.572 159.018 164.408 159.018C164.035 159.018 163.741 159.128 163.526 159.347C163.316 159.562 163.211 159.87 163.211 160.271C163.211 160.663 163.316 160.969 163.526 161.188C163.741 161.403 164.033 161.51 164.401 161.51C164.565 161.51 164.73 161.48 164.898 161.419C165.066 161.354 165.213 161.265 165.339 161.153L165.563 161.629C165.428 161.76 165.253 161.865 165.038 161.944C164.824 162.023 164.593 162.063 164.345 162.063ZM166.407 162V157.065H167.023V159.256H167.037C167.145 159.013 167.308 158.822 167.527 158.682C167.747 158.537 167.999 158.465 168.283 158.465C168.573 158.465 168.813 158.516 169.004 158.619C169.2 158.722 169.345 158.878 169.438 159.088C169.536 159.293 169.585 159.552 169.585 159.865V162H168.955V159.9C168.955 159.718 168.927 159.562 168.871 159.431C168.82 159.3 168.734 159.198 168.612 159.123C168.496 159.048 168.339 159.011 168.143 159.011C167.933 159.011 167.744 159.06 167.576 159.158C167.413 159.251 167.282 159.377 167.184 159.536C167.091 159.695 167.044 159.867 167.044 160.054V162H166.407ZM170.864 162V158.528H171.452V159.27H171.473C171.59 159.023 171.758 158.827 171.977 158.682C172.201 158.537 172.456 158.465 172.74 158.465C173.03 158.465 173.27 158.516 173.461 158.619C173.657 158.722 173.802 158.878 173.895 159.088C173.993 159.293 174.042 159.552 174.042 159.865V162H173.412V159.9C173.412 159.718 173.384 159.562 173.328 159.431C173.277 159.3 173.191 159.198 173.069 159.123C172.953 159.048 172.796 159.011 172.6 159.011C172.39 159.011 172.201 159.06 172.033 159.158C171.87 159.251 171.739 159.377 171.641 159.536C171.548 159.695 171.501 159.867 171.501 160.054V162H170.864ZM176.854 162.063C176.5 162.063 176.192 161.988 175.93 161.839C175.669 161.69 175.468 161.48 175.328 161.209C175.188 160.938 175.118 160.621 175.118 160.257C175.118 159.898 175.188 159.585 175.328 159.319C175.468 159.048 175.669 158.838 175.93 158.689C176.192 158.54 176.497 158.465 176.847 158.465C177.207 158.465 177.515 158.54 177.771 158.689C178.028 158.838 178.226 159.048 178.366 159.319C178.511 159.585 178.583 159.898 178.583 160.257C178.583 160.621 178.513 160.938 178.373 161.209C178.233 161.48 178.033 161.69 177.771 161.839C177.515 161.988 177.209 162.063 176.854 162.063ZM176.847 161.517C177.193 161.517 177.463 161.403 177.659 161.174C177.855 160.945 177.953 160.64 177.953 160.257C177.953 159.874 177.855 159.571 177.659 159.347C177.463 159.123 177.195 159.011 176.854 159.011C176.509 159.011 176.236 159.123 176.035 159.347C175.839 159.571 175.741 159.874 175.741 160.257C175.741 160.64 175.839 160.945 176.035 161.174C176.236 161.403 176.507 161.517 176.847 161.517ZM180.719 162.063C180.388 162.063 180.129 161.967 179.942 161.776C179.76 161.58 179.669 161.309 179.669 160.964V157.065H180.306V160.894C180.306 161.029 180.327 161.146 180.369 161.244C180.411 161.337 180.469 161.41 180.544 161.461C180.623 161.512 180.719 161.538 180.831 161.538C180.896 161.538 180.962 161.536 181.027 161.531C181.092 161.522 181.162 161.508 181.237 161.489L181.258 161.979C181.174 162.007 181.09 162.028 181.006 162.042C180.922 162.056 180.826 162.063 180.719 162.063ZM183.478 162.063C183.124 162.063 182.816 161.988 182.554 161.839C182.293 161.69 182.092 161.48 181.952 161.209C181.812 160.938 181.742 160.621 181.742 160.257C181.742 159.898 181.812 159.585 181.952 159.319C182.092 159.048 182.293 158.838 182.554 158.689C182.816 158.54 183.121 158.465 183.471 158.465C183.831 158.465 184.139 158.54 184.395 158.689C184.652 158.838 184.85 159.048 184.99 159.319C185.135 159.585 185.207 159.898 185.207 160.257C185.207 160.621 185.137 160.938 184.997 161.209C184.857 161.48 184.657 161.69 184.395 161.839C184.139 161.988 183.833 162.063 183.478 162.063ZM183.471 161.517C183.817 161.517 184.087 161.403 184.283 161.174C184.479 160.945 184.577 160.64 184.577 160.257C184.577 159.874 184.479 159.571 184.283 159.347C184.087 159.123 183.819 159.011 183.478 159.011C183.133 159.011 182.86 159.123 182.659 159.347C182.463 159.571 182.365 159.874 182.365 160.257C182.365 160.64 182.463 160.945 182.659 161.174C182.86 161.403 183.131 161.517 183.471 161.517ZM187.798 163.316C187.523 163.316 187.247 163.276 186.972 163.197C186.701 163.118 186.47 163.008 186.279 162.868L186.482 162.364C186.608 162.448 186.743 162.52 186.888 162.581C187.037 162.646 187.189 162.695 187.343 162.728C187.497 162.761 187.644 162.777 187.784 162.777C188.157 162.777 188.447 162.684 188.652 162.497C188.862 162.31 188.967 162.051 188.967 161.72V161.125H188.932C188.843 161.354 188.692 161.54 188.477 161.685C188.262 161.825 188.01 161.895 187.721 161.895C187.394 161.895 187.107 161.825 186.86 161.685C186.617 161.54 186.428 161.34 186.293 161.083C186.158 160.826 186.09 160.525 186.09 160.18C186.09 159.835 186.158 159.534 186.293 159.277C186.428 159.02 186.617 158.822 186.86 158.682C187.107 158.537 187.394 158.465 187.721 158.465C188.01 158.465 188.265 158.54 188.484 158.689C188.703 158.834 188.857 159.03 188.946 159.277H188.967V158.528H189.562V161.671C189.562 162.007 189.49 162.296 189.345 162.539C189.205 162.786 189.002 162.978 188.736 163.113C188.475 163.248 188.162 163.316 187.798 163.316ZM187.833 161.377C188.174 161.377 188.444 161.267 188.645 161.048C188.846 160.829 188.946 160.539 188.946 160.18C188.946 159.816 188.846 159.527 188.645 159.312C188.444 159.097 188.174 158.99 187.833 158.99C187.492 158.99 187.222 159.097 187.021 159.312C186.82 159.527 186.72 159.816 186.72 160.18C186.72 160.539 186.82 160.829 187.021 161.048C187.222 161.267 187.492 161.377 187.833 161.377ZM191.286 163.26L191.937 161.769V162.252L190.369 158.528H191.055L192.154 161.349H192.161L193.26 158.528H193.925L191.951 163.26H191.286Z" fill="#FFF8F5"/>
<path d="M34.6765 32.5463C35.6503 68.2262 73.3017 63.3606 73.3017 63.3606C44.0894 52.6566 43.4404 40.331 43.4404 40.331L51.5549 37.736L73.9509 50.7104L81.0916 66.6043L79.7933 86.3903L71.7098 96.1214L60.6429 102.933L55.4497 104.879L54.476 100.987L58.371 84.7685L71.6787 78.6056C44.0895 77.6326 49.6073 110.718 49.6073 110.718C81.7406 112.988 86.2849 69.1991 86.2849 69.1991L98.619 83.4237V71.9698C98.619 71.9698 94.0747 68.2262 77.8458 48.7643C65.674 34.168 47.4774 32.3435 39.1397 32.3435C36.3605 32.3435 34.6765 32.5463 34.6765 32.5463Z" fill="url(#paint0_linear_201_12957)"/>
<path d="M119.393 48.7649C103.164 68.2268 98.6196 71.9704 98.6196 71.9704V83.4243L110.953 69.1997C110.953 69.1997 115.498 112.989 147.631 110.718C147.631 110.718 153.149 77.6332 125.56 78.6062L138.867 84.7692L142.763 100.987L141.789 104.88L136.595 102.933L125.529 96.122L117.445 86.3909L116.147 66.6049L123.288 50.711L145.684 37.7366L153.798 40.3316C153.798 40.3316 153.149 52.6572 123.937 63.3612C123.937 63.3612 161.588 68.2268 162.562 32.5469C162.562 32.5469 160.878 32.3441 158.099 32.3441C149.761 32.3441 131.564 34.1686 119.393 48.7649Z" fill="url(#paint1_linear_201_12957)"/>
<path d="M125.235 45.8452C109.006 59.4684 98.6196 77.957 98.6196 77.957C98.6196 77.957 88.2331 59.4684 72.004 45.8452C55.7749 32.2219 35.3264 34.1681 35.3264 34.1681C35.3514 34.386 35.378 34.602 35.4059 34.8163C39.0016 62.3628 66.4861 60.7659 66.4861 60.7659C39.8705 47.7913 43.4411 40.331 43.4411 40.331C43.4411 40.331 74.6006 41.304 79.1447 64.9824C85.1967 96.518 56.4242 102.609 56.4242 102.609C58.6962 82.4981 71.6793 78.6056 71.6793 78.6056C47.0112 76.3353 49.2833 108.123 49.2833 108.123C49.2833 108.123 56.4242 111.366 70.3812 101.311C89.2299 87.7316 86.2856 69.1992 86.2856 69.1992L98.6196 83.4237L110.954 69.1992C110.954 69.1992 108.009 87.7316 126.858 101.311C140.815 111.366 147.956 108.123 147.956 108.123C147.956 108.123 150.228 76.3353 125.56 78.6056C125.56 78.6056 138.543 82.4981 140.815 102.609C140.815 102.609 112.042 96.518 118.094 64.9824C122.639 41.304 153.798 40.331 153.798 40.331C153.798 40.331 157.369 47.7913 130.753 60.7659C130.753 60.7659 158.238 62.3628 161.833 34.8163C161.861 34.602 161.888 34.386 161.913 34.1681C161.913 34.1681 160.902 34.0719 159.154 34.0719C153.034 34.0717 137.859 35.2485 125.235 45.8452Z" fill="#FFF8F5"/>
<defs>
<linearGradient id="paint0_linear_201_12957" x1="34.6766" y1="71.5732" x2="98.6189" y2="71.5732" gradientUnits="userSpaceOnUse">
<stop stop-color="#141414"/>
<stop offset="1" stop-color="#838383"/>
</linearGradient>
<linearGradient id="paint1_linear_201_12957" x1="98.6196" y1="71.5738" x2="162.562" y2="71.5738" gradientUnits="userSpaceOnUse">
<stop stop-color="#141414"/>
<stop offset="1" stop-color="#838383"/>
</linearGradient>
</defs>
</svg>
