<svg width="305" height="304" viewBox="0 0 305 304" fill="none" xmlns="http://www.w3.org/2000/svg">
<path d="M45.08 227.834L49.804 196.723C49.9471 195.911 50.2334 195.482 50.6152 195.482C50.9969 195.482 51.2832 195.72 51.9035 196.961L64.9302 223.873L77.9092 196.627C78.2909 195.864 78.5295 195.482 78.959 195.482C79.3884 195.482 79.6747 195.959 79.8179 196.961L84.1601 226.45C84.5895 229.456 85.0667 230.84 86.4982 231.269C87.882 231.699 88.8363 231.747 89.4567 231.747C89.8861 231.747 90.2201 231.794 90.2201 232.081C90.2201 232.462 89.6475 232.606 88.9795 232.606C87.7866 232.606 81.2016 232.462 79.293 232.319C78.1955 232.224 77.9092 232.081 77.9092 231.794C77.9092 231.556 78.1 231.413 78.4341 231.269C78.7204 231.174 78.8635 230.554 78.6726 229.218L75.8096 208.222H75.6188L65.2165 229.886C64.119 232.128 63.8804 232.558 63.451 232.558C63.0215 232.558 62.5444 231.603 61.7809 230.172C60.6357 227.977 56.8661 220.676 56.2935 219.34C55.864 218.338 53.001 212.326 51.3309 208.747H51.14L48.6588 227.738C48.5633 228.597 48.5156 229.218 48.5156 229.981C48.5156 230.888 49.1359 231.317 49.9471 231.508C50.806 231.699 51.4741 231.747 51.9512 231.747C52.333 231.747 52.667 231.842 52.667 232.081C52.667 232.51 52.2375 232.606 51.5218 232.606C49.5177 232.606 47.3704 232.462 46.5115 232.462C45.6049 232.462 43.3145 232.606 41.7875 232.606C41.3104 232.606 40.9286 232.51 40.9286 232.081C40.9286 231.842 41.2149 231.747 41.6921 231.747C42.0738 231.747 42.4079 231.747 43.1236 231.603C44.4597 231.317 44.8414 229.456 45.08 227.834ZM109.216 233.13C97 233.13 92.0375 224.446 92.0375 217.241C92.0375 210.322 96.9046 201.351 109.645 201.351C120.238 201.351 126.823 207.22 126.823 216.525C126.823 225.83 120.047 233.13 109.216 233.13ZM110.933 230.935C113.892 230.935 120.572 229.552 120.572 218.004C120.572 209.033 115.18 203.498 108.404 203.498C103.728 203.498 98.2406 205.98 98.2406 216C98.2406 224.351 103.012 230.935 110.933 230.935ZM136.79 210.513L137.267 227.07C137.362 230.22 137.887 231.174 138.699 231.46C139.414 231.699 140.225 231.747 140.894 231.747C141.371 231.747 141.609 231.938 141.609 232.176C141.609 232.51 141.228 232.606 140.655 232.606C137.935 232.606 135.979 232.462 135.215 232.462C134.833 232.462 132.829 232.606 130.682 232.606C130.11 232.606 129.728 232.558 129.728 232.176C129.728 231.938 130.014 231.747 130.396 231.747C130.968 231.747 131.732 231.699 132.304 231.556C133.402 231.269 133.545 230.172 133.593 226.641L133.975 202.592C133.975 201.78 134.261 201.208 134.69 201.208C135.215 201.208 135.788 201.828 136.504 202.544C137.028 203.069 143.327 209.511 149.435 215.475C152.298 218.291 157.881 224.017 158.501 224.589H158.692L158.262 206.552C158.215 204.071 157.833 203.355 156.831 202.973C156.211 202.735 155.209 202.735 154.636 202.735C154.111 202.735 153.968 202.544 153.968 202.305C153.968 201.971 154.397 201.924 155.018 201.924C157.213 201.924 159.455 202.019 160.362 202.019C160.839 202.019 162.414 201.924 164.466 201.924C165.038 201.924 165.42 201.971 165.42 202.305C165.42 202.544 165.181 202.735 164.704 202.735C164.275 202.735 163.941 202.735 163.416 202.878C162.271 203.212 161.937 203.928 161.889 206.218L161.412 231.794C161.412 232.701 161.078 233.083 160.744 233.083C160.028 233.083 159.455 232.653 159.026 232.224C156.401 229.79 151.153 224.78 146.763 220.533C142.182 216.143 137.744 211.228 136.933 210.513H136.79ZM186.455 222.394H176.577C176.339 222.394 176.291 222.442 176.195 222.68L173.953 228.12C173.523 229.122 173.332 230.124 173.332 230.601C173.332 231.317 173.714 231.747 175.002 231.747H175.623C176.148 231.747 176.243 231.938 176.243 232.176C176.243 232.51 176.005 232.606 175.575 232.606C174.191 232.606 172.235 232.462 170.899 232.462C170.469 232.462 168.227 232.606 166.032 232.606C165.507 232.606 165.268 232.51 165.268 232.176C165.268 231.938 165.411 231.747 165.745 231.747C166.127 231.747 166.604 231.699 166.986 231.699C168.895 231.413 169.61 230.172 170.469 228.12L181.444 202.592C181.921 201.446 182.255 200.969 182.685 200.969C183.305 200.969 183.496 201.351 183.926 202.258C184.928 204.5 191.942 221.106 194.614 227.261C196.236 230.935 197.429 231.46 198.193 231.603C198.813 231.699 199.29 231.747 199.768 231.747C200.149 231.747 200.34 231.89 200.34 232.176C200.34 232.51 200.102 232.606 198.527 232.606C197.048 232.606 193.994 232.606 190.463 232.51C189.699 232.462 189.222 232.462 189.222 232.176C189.222 231.938 189.318 231.794 189.747 231.747C190.033 231.699 190.32 231.317 190.129 230.84L186.884 222.68C186.789 222.442 186.645 222.394 186.455 222.394ZM177.436 220.151H185.548C185.739 220.151 185.786 220.056 185.739 219.913L181.778 209.606C181.731 209.463 181.683 209.224 181.587 209.224C181.444 209.224 181.397 209.463 181.349 209.606L177.293 219.865C177.197 220.056 177.293 220.151 177.436 220.151ZM204.913 220.819V213.662C204.913 207.507 204.913 206.361 204.865 205.073C204.77 203.689 204.388 203.26 203.052 202.878C202.718 202.783 202.002 202.735 201.382 202.735C200.953 202.735 200.666 202.592 200.666 202.305C200.666 202.019 201 201.924 201.621 201.924C203.816 201.924 206.488 202.019 207.347 202.019C208.778 202.019 212.596 201.924 213.884 201.924C216.556 201.924 219.61 202.162 221.853 203.641C223.045 204.453 224.811 206.504 224.811 209.224C224.811 212.23 223.093 214.903 218.99 218.195C222.711 222.776 225.67 226.45 228.199 228.979C230.537 231.317 232.016 231.508 232.684 231.651C233.114 231.747 233.352 231.747 233.686 231.747C234.02 231.747 234.211 231.985 234.211 232.176C234.211 232.51 233.925 232.606 233.4 232.606H229.392C227.054 232.606 225.908 232.367 224.811 231.794C222.998 230.888 221.423 228.979 219.085 225.83C217.415 223.635 215.649 220.915 215.124 220.295C214.886 220.056 214.647 220.008 214.361 220.008L210.591 219.913C210.401 219.913 210.257 220.008 210.257 220.247V220.819C210.257 224.589 210.305 227.738 210.496 229.456C210.639 230.649 210.83 231.413 212.118 231.603C212.739 231.699 213.645 231.747 214.17 231.747C214.504 231.747 214.695 231.985 214.695 232.176C214.695 232.462 214.361 232.606 213.836 232.606C211.403 232.606 207.919 232.462 207.299 232.462C206.488 232.462 203.816 232.606 202.146 232.606C201.621 232.606 201.334 232.462 201.334 232.176C201.334 231.985 201.477 231.747 202.002 231.747C202.623 231.747 203.1 231.699 203.482 231.603C204.34 231.413 204.579 230.649 204.722 229.456C204.913 227.738 204.913 224.541 204.913 220.819ZM210.257 204.739V216.811C210.257 217.241 210.353 217.384 210.639 217.527C211.546 217.813 212.786 217.909 213.836 217.909C215.506 217.909 216.079 217.766 216.795 217.241C218.083 216.334 219.514 214.569 219.514 211.228C219.514 205.502 215.602 204.023 213.12 204.023C212.071 204.023 211.069 204.071 210.639 204.166C210.353 204.262 210.257 204.405 210.257 204.739ZM243.113 213.662V215.475H243.304C244.735 213.948 250.843 207.936 252.083 206.552C253.276 205.216 254.183 204.262 254.183 203.546C254.183 203.117 253.992 202.83 253.61 202.735C253.229 202.639 253.038 202.544 253.038 202.305C253.038 202.019 253.276 201.924 253.706 201.924C254.612 201.924 256.903 202.019 258.048 202.019C259.336 202.019 261.674 201.924 262.963 201.924C263.392 201.924 263.679 202.019 263.679 202.305C263.679 202.592 263.44 202.735 263.058 202.735C262.438 202.735 261.388 202.926 260.625 203.212C259.289 203.689 257.953 204.548 256.187 206.218C254.851 207.459 248.6 213.376 247.312 214.855C248.791 216.764 257.046 225.353 258.668 226.88C260.529 228.55 262.152 230.315 264.394 231.222C265.635 231.747 266.494 231.747 266.971 231.747C267.305 231.747 267.544 231.938 267.544 232.176C267.544 232.462 267.305 232.606 266.542 232.606H262.867C261.627 232.606 260.863 232.606 259.957 232.51C257.714 232.319 256.33 231.46 254.517 229.886C252.704 228.311 244.64 218.959 243.733 217.718L243.304 217.145H243.113V220.819C243.113 224.541 243.113 227.738 243.208 229.504C243.304 230.649 243.685 231.413 244.735 231.603C245.308 231.699 246.262 231.747 246.787 231.747C247.121 231.747 247.359 231.985 247.359 232.176C247.359 232.462 247.025 232.606 246.548 232.606C244.21 232.606 241.204 232.462 240.154 232.462C239.2 232.462 236.528 232.606 234.858 232.606C234.333 232.606 234.046 232.462 234.046 232.176C234.046 231.985 234.19 231.747 234.714 231.747C235.335 231.747 235.812 231.699 236.194 231.603C237.053 231.413 237.291 230.649 237.434 229.456C237.625 227.738 237.625 224.541 237.625 220.819V213.662C237.625 207.507 237.625 206.361 237.577 205.073C237.482 203.689 237.1 203.26 235.764 202.878C235.43 202.783 234.714 202.735 234.094 202.735C233.665 202.735 233.378 202.592 233.378 202.305C233.378 202.019 233.712 201.924 234.333 201.924C236.528 201.924 239.2 202.019 240.202 202.019C241.204 202.019 244.21 201.924 245.594 201.924C246.214 201.924 246.501 202.019 246.501 202.305C246.501 202.592 246.262 202.735 245.928 202.735C245.498 202.735 245.26 202.783 244.735 202.878C243.59 203.069 243.256 203.641 243.16 205.073C243.113 206.361 243.113 207.507 243.113 213.662Z" fill="#141414"/>
<path d="M53.1777 54.7043C54.6852 109.941 112.974 102.409 112.974 102.409C67.7502 85.8377 66.7454 66.756 66.7454 66.756L79.3076 62.7386L113.98 82.8247L125.034 107.43L123.024 138.062L110.51 153.127L93.3771 163.672L85.3374 166.685L83.8298 160.659L89.8599 135.551L110.462 126.01C67.7502 124.504 76.2926 175.723 76.2926 175.723C126.039 179.239 133.074 111.448 133.074 111.448L152.169 133.469V115.737C152.169 115.737 145.134 109.941 120.009 79.8119C101.166 57.215 72.9951 54.3904 60.0873 54.3904C55.7848 54.3904 53.1777 54.7043 53.1777 54.7043Z" fill="url(#paint0_linear_8_2304)"/>
<path d="M184.329 79.8122C159.205 109.942 152.17 115.737 152.17 115.737V133.469L171.264 111.448C171.264 111.448 178.3 179.239 228.046 175.724C228.046 175.724 236.588 124.504 193.877 126.01L214.479 135.551L220.509 160.659L219.001 166.685L210.961 163.672L193.829 153.127L181.314 138.062L179.305 107.431L190.359 82.8249L225.031 62.7389L237.594 66.7563C237.594 66.7563 236.588 85.8379 191.364 102.409C191.364 102.409 249.653 109.942 251.161 54.7046C251.161 54.7046 248.554 54.3906 244.251 54.3906C231.343 54.3906 203.173 57.2152 184.329 79.8122Z" fill="url(#paint1_linear_8_2304)"/>
<path d="M193.374 75.2928C168.249 96.3833 152.17 125.006 152.17 125.006C152.17 125.006 136.09 96.3833 110.965 75.2928C85.8405 54.2021 54.1836 57.2151 54.1836 57.2151C54.2223 57.5524 54.2635 57.8869 54.3067 58.2186C59.8733 100.864 102.423 98.3918 102.423 98.3918C61.2185 78.3055 66.7461 66.7561 66.7461 66.7561C66.7461 66.7561 114.985 68.2624 122.02 104.92C131.389 153.741 86.8456 163.17 86.8456 163.17C90.3631 132.036 110.463 126.01 110.463 126.01C72.2732 122.495 75.7906 171.706 75.7906 171.706C75.7906 171.706 86.8456 176.728 108.453 161.161C137.633 140.138 133.075 111.448 133.075 111.448L152.17 133.469L171.264 111.448C171.264 111.448 166.706 140.138 195.886 161.161C217.494 176.728 228.548 171.706 228.548 171.706C228.548 171.706 232.066 122.495 193.877 126.01C193.877 126.01 213.976 132.036 217.494 163.17C217.494 163.17 172.95 153.741 182.319 104.92C189.354 68.2624 237.594 66.7561 237.594 66.7561C237.594 66.7561 243.121 78.3055 201.916 98.3918C201.916 98.3918 244.466 100.864 250.033 58.2186C250.076 57.8869 250.117 57.5524 250.155 57.2151C250.155 57.2151 248.591 57.0662 245.884 57.0662C236.409 57.0659 212.917 58.8877 193.374 75.2928Z" fill="url(#paint2_linear_8_2304)"/>
<defs>
<linearGradient id="paint0_linear_8_2304" x1="53.1779" y1="115.123" x2="152.169" y2="115.123" gradientUnits="userSpaceOnUse">
<stop stop-color="#ED2723"/>
<stop offset="1" stop-color="#FBA60B"/>
</linearGradient>
<linearGradient id="paint1_linear_8_2304" x1="152.17" y1="115.123" x2="251.161" y2="115.123" gradientUnits="userSpaceOnUse">
<stop stop-color="#ED2723"/>
<stop offset="1" stop-color="#FBA60B"/>
</linearGradient>
<linearGradient id="paint2_linear_8_2304" x1="54.1836" y1="114.773" x2="250.156" y2="114.773" gradientUnits="userSpaceOnUse">
<stop stop-color="#ED2723"/>
<stop offset="1" stop-color="#FBA60B"/>
</linearGradient>
</defs>
</svg>
