<svg width="305" height="304" viewBox="0 0 305 304" fill="none" xmlns="http://www.w3.org/2000/svg">
<path d="M45.08 227.491L49.804 196.38C49.9471 195.569 50.2334 195.139 50.6152 195.139C50.9969 195.139 51.2832 195.378 51.9035 196.618L64.9302 223.531L77.9092 196.284C78.2909 195.521 78.5295 195.139 78.959 195.139C79.3884 195.139 79.6747 195.616 79.8179 196.618L84.1601 226.107C84.5895 229.113 85.0667 230.497 86.4982 230.927C87.882 231.356 88.8363 231.404 89.4567 231.404C89.8861 231.404 90.2201 231.452 90.2201 231.738C90.2201 232.12 89.6475 232.263 88.9795 232.263C87.7866 232.263 81.2016 232.12 79.293 231.976C78.1955 231.881 77.9092 231.738 77.9092 231.452C77.9092 231.213 78.1 231.07 78.4341 230.927C78.7204 230.831 78.8635 230.211 78.6726 228.875L75.8096 207.879H75.6188L65.2165 229.543C64.119 231.786 63.8804 232.215 63.451 232.215C63.0215 232.215 62.5444 231.261 61.7809 229.829C60.6357 227.634 56.8661 220.334 56.2935 218.998C55.864 217.995 53.001 211.983 51.3309 208.404H51.14L48.6588 227.396C48.5633 228.255 48.5156 228.875 48.5156 229.638C48.5156 230.545 49.1359 230.974 49.9471 231.165C50.806 231.356 51.4741 231.404 51.9512 231.404C52.333 231.404 52.667 231.499 52.667 231.738C52.667 232.167 52.2375 232.263 51.5218 232.263C49.5177 232.263 47.3704 232.12 46.5115 232.12C45.6049 232.12 43.3145 232.263 41.7875 232.263C41.3104 232.263 40.9286 232.167 40.9286 231.738C40.9286 231.499 41.2149 231.404 41.6921 231.404C42.0738 231.404 42.4079 231.404 43.1236 231.261C44.4597 230.974 44.8414 229.113 45.08 227.491ZM109.216 232.788C97 232.788 92.0375 224.103 92.0375 216.898C92.0375 209.979 96.9046 201.008 109.645 201.008C120.238 201.008 126.823 206.877 126.823 216.182C126.823 225.487 120.047 232.788 109.216 232.788ZM110.933 230.593C113.892 230.593 120.572 229.209 120.572 217.661C120.572 208.691 115.18 203.156 108.404 203.156C103.728 203.156 98.2406 205.637 98.2406 215.657C98.2406 224.008 103.012 230.593 110.933 230.593ZM136.79 210.17L137.267 226.728C137.362 229.877 137.887 230.831 138.699 231.118C139.414 231.356 140.225 231.404 140.894 231.404C141.371 231.404 141.609 231.595 141.609 231.833C141.609 232.167 141.228 232.263 140.655 232.263C137.935 232.263 135.979 232.12 135.215 232.12C134.833 232.12 132.829 232.263 130.682 232.263C130.11 232.263 129.728 232.215 129.728 231.833C129.728 231.595 130.014 231.404 130.396 231.404C130.968 231.404 131.732 231.356 132.304 231.213C133.402 230.927 133.545 229.829 133.593 226.298L133.975 202.249C133.975 201.438 134.261 200.865 134.69 200.865C135.215 200.865 135.788 201.485 136.504 202.201C137.028 202.726 143.327 209.168 149.435 215.132C152.298 217.948 157.881 223.674 158.501 224.246H158.692L158.262 206.209C158.215 203.728 157.833 203.012 156.831 202.631C156.211 202.392 155.209 202.392 154.636 202.392C154.111 202.392 153.968 202.201 153.968 201.963C153.968 201.629 154.397 201.581 155.018 201.581C157.213 201.581 159.455 201.676 160.362 201.676C160.839 201.676 162.414 201.581 164.466 201.581C165.038 201.581 165.42 201.629 165.42 201.963C165.42 202.201 165.181 202.392 164.704 202.392C164.275 202.392 163.941 202.392 163.416 202.535C162.271 202.869 161.937 203.585 161.889 205.875L161.412 231.452C161.412 232.358 161.078 232.74 160.744 232.74C160.028 232.74 159.455 232.31 159.026 231.881C156.401 229.447 151.153 224.437 146.763 220.19C142.182 215.8 137.744 210.886 136.933 210.17H136.79ZM186.455 222.051H176.577C176.339 222.051 176.291 222.099 176.195 222.338L173.953 227.777C173.523 228.779 173.332 229.782 173.332 230.259C173.332 230.974 173.714 231.404 175.002 231.404H175.623C176.148 231.404 176.243 231.595 176.243 231.833C176.243 232.167 176.005 232.263 175.575 232.263C174.191 232.263 172.235 232.12 170.899 232.12C170.469 232.12 168.227 232.263 166.032 232.263C165.507 232.263 165.268 232.167 165.268 231.833C165.268 231.595 165.411 231.404 165.745 231.404C166.127 231.404 166.604 231.356 166.986 231.356C168.895 231.07 169.61 229.829 170.469 227.777L181.444 202.249C181.921 201.104 182.255 200.627 182.685 200.627C183.305 200.627 183.496 201.008 183.926 201.915C184.928 204.158 191.942 220.763 194.614 226.918C196.236 230.593 197.429 231.118 198.193 231.261C198.813 231.356 199.29 231.404 199.768 231.404C200.149 231.404 200.34 231.547 200.34 231.833C200.34 232.167 200.102 232.263 198.527 232.263C197.048 232.263 193.994 232.263 190.463 232.167C189.699 232.12 189.222 232.12 189.222 231.833C189.222 231.595 189.318 231.452 189.747 231.404C190.033 231.356 190.32 230.974 190.129 230.497L186.884 222.338C186.789 222.099 186.645 222.051 186.455 222.051ZM177.436 219.809H185.548C185.739 219.809 185.786 219.713 185.739 219.57L181.778 209.263C181.731 209.12 181.683 208.882 181.587 208.882C181.444 208.882 181.397 209.12 181.349 209.263L177.293 219.522C177.197 219.713 177.293 219.809 177.436 219.809ZM204.913 220.477V213.319C204.913 207.164 204.913 206.019 204.865 204.73C204.77 203.346 204.388 202.917 203.052 202.535C202.718 202.44 202.002 202.392 201.382 202.392C200.953 202.392 200.666 202.249 200.666 201.963C200.666 201.676 201 201.581 201.621 201.581C203.816 201.581 206.488 201.676 207.347 201.676C208.778 201.676 212.596 201.581 213.884 201.581C216.556 201.581 219.61 201.819 221.853 203.299C223.045 204.11 224.811 206.162 224.811 208.882C224.811 211.888 223.093 214.56 218.99 217.852C222.711 222.433 225.67 226.107 228.199 228.636C230.537 230.974 232.016 231.165 232.684 231.308C233.114 231.404 233.352 231.404 233.686 231.404C234.02 231.404 234.211 231.642 234.211 231.833C234.211 232.167 233.925 232.263 233.4 232.263H229.392C227.054 232.263 225.908 232.024 224.811 231.452C222.998 230.545 221.423 228.636 219.085 225.487C217.415 223.292 215.649 220.572 215.124 219.952C214.886 219.713 214.647 219.666 214.361 219.666L210.591 219.57C210.401 219.57 210.257 219.666 210.257 219.904V220.477C210.257 224.246 210.305 227.396 210.496 229.113C210.639 230.306 210.83 231.07 212.118 231.261C212.739 231.356 213.645 231.404 214.17 231.404C214.504 231.404 214.695 231.642 214.695 231.833C214.695 232.12 214.361 232.263 213.836 232.263C211.403 232.263 207.919 232.12 207.299 232.12C206.488 232.12 203.816 232.263 202.146 232.263C201.621 232.263 201.334 232.12 201.334 231.833C201.334 231.642 201.477 231.404 202.002 231.404C202.623 231.404 203.1 231.356 203.482 231.261C204.34 231.07 204.579 230.306 204.722 229.113C204.913 227.396 204.913 224.199 204.913 220.477ZM210.257 204.396V216.469C210.257 216.898 210.353 217.041 210.639 217.184C211.546 217.471 212.786 217.566 213.836 217.566C215.506 217.566 216.079 217.423 216.795 216.898C218.083 215.991 219.514 214.226 219.514 210.886C219.514 205.16 215.602 203.68 213.12 203.68C212.071 203.68 211.069 203.728 210.639 203.824C210.353 203.919 210.257 204.062 210.257 204.396ZM243.113 213.319V215.132H243.304C244.735 213.606 250.843 207.593 252.083 206.209C253.276 204.873 254.183 203.919 254.183 203.203C254.183 202.774 253.992 202.487 253.61 202.392C253.229 202.297 253.038 202.201 253.038 201.963C253.038 201.676 253.276 201.581 253.706 201.581C254.612 201.581 256.903 201.676 258.048 201.676C259.336 201.676 261.674 201.581 262.963 201.581C263.392 201.581 263.679 201.676 263.679 201.963C263.679 202.249 263.44 202.392 263.058 202.392C262.438 202.392 261.388 202.583 260.625 202.869C259.289 203.346 257.953 204.205 256.187 205.875C254.851 207.116 248.6 213.033 247.312 214.512C248.791 216.421 257.046 225.01 258.668 226.537C260.529 228.207 262.152 229.972 264.394 230.879C265.635 231.404 266.494 231.404 266.971 231.404C267.305 231.404 267.544 231.595 267.544 231.833C267.544 232.12 267.305 232.263 266.542 232.263H262.867C261.627 232.263 260.863 232.263 259.957 232.167C257.714 231.976 256.33 231.118 254.517 229.543C252.704 227.968 244.64 218.616 243.733 217.375L243.304 216.803H243.113V220.477C243.113 224.199 243.113 227.396 243.208 229.161C243.304 230.306 243.685 231.07 244.735 231.261C245.308 231.356 246.262 231.404 246.787 231.404C247.121 231.404 247.359 231.642 247.359 231.833C247.359 232.12 247.025 232.263 246.548 232.263C244.21 232.263 241.204 232.12 240.154 232.12C239.2 232.12 236.528 232.263 234.858 232.263C234.333 232.263 234.046 232.12 234.046 231.833C234.046 231.642 234.19 231.404 234.714 231.404C235.335 231.404 235.812 231.356 236.194 231.261C237.053 231.07 237.291 230.306 237.434 229.113C237.625 227.396 237.625 224.199 237.625 220.477V213.319C237.625 207.164 237.625 206.019 237.577 204.73C237.482 203.346 237.1 202.917 235.764 202.535C235.43 202.44 234.714 202.392 234.094 202.392C233.665 202.392 233.378 202.249 233.378 201.963C233.378 201.676 233.712 201.581 234.333 201.581C236.528 201.581 239.2 201.676 240.202 201.676C241.204 201.676 244.21 201.581 245.594 201.581C246.214 201.581 246.501 201.676 246.501 201.963C246.501 202.249 246.262 202.392 245.928 202.392C245.498 202.392 245.26 202.44 244.735 202.535C243.59 202.726 243.256 203.299 243.16 204.73C243.113 206.019 243.113 207.164 243.113 213.319Z" fill="white"/>
<path d="M53.1777 54.3615C54.6852 109.599 112.974 102.066 112.974 102.066C67.7502 85.4949 66.7454 66.4133 66.7454 66.4133L79.3076 62.3958L113.98 82.4819L125.034 107.088L123.024 137.719L110.51 152.784L93.3771 163.329L85.3374 166.342L83.8298 160.316L89.8599 135.208L110.462 125.667C67.7502 124.161 76.2926 175.381 76.2926 175.381C126.039 178.896 133.074 111.105 133.074 111.105L152.169 133.126V115.394C152.169 115.394 145.134 109.599 120.009 79.4692C101.166 56.8722 72.9951 54.0476 60.0873 54.0476C55.7848 54.0476 53.1777 54.3615 53.1777 54.3615Z" fill="url(#paint0_linear_8_2326)"/>
<path d="M184.329 79.4694C159.205 109.599 152.17 115.394 152.17 115.394V133.127L171.264 111.105C171.264 111.105 178.3 178.896 228.046 175.381C228.046 175.381 236.588 124.161 193.877 125.667L214.479 135.209L220.509 160.316L219.001 166.342L210.961 163.329L193.829 152.784L181.314 137.719L179.305 107.088L190.359 82.4821L225.031 62.3961L237.594 66.4135C237.594 66.4135 236.588 85.4951 191.364 102.066C191.364 102.066 249.653 109.599 251.161 54.3618C251.161 54.3618 248.554 54.0479 244.251 54.0479C231.343 54.0479 203.173 56.8724 184.329 79.4694Z" fill="url(#paint1_linear_8_2326)"/>
<path d="M193.374 74.95C168.249 96.0405 152.17 124.663 152.17 124.663C152.17 124.663 136.09 96.0405 110.965 74.95C85.8405 53.8593 54.1836 56.8723 54.1836 56.8723C54.2223 57.2096 54.2635 57.5441 54.3067 57.8759C59.8733 100.521 102.423 98.0491 102.423 98.0491C61.2185 77.9628 66.7461 66.4134 66.7461 66.4134C66.7461 66.4134 114.985 67.9196 122.02 104.577C131.389 153.398 86.8456 162.827 86.8456 162.827C90.3631 131.693 110.463 125.667 110.463 125.667C72.2732 122.153 75.7906 171.364 75.7906 171.364C75.7906 171.364 86.8456 176.385 108.453 160.818C137.633 139.796 133.075 111.105 133.075 111.105L152.17 133.126L171.264 111.105C171.264 111.105 166.706 139.796 195.886 160.818C217.494 176.385 228.548 171.364 228.548 171.364C228.548 171.364 232.066 122.153 193.877 125.667C193.877 125.667 213.976 131.693 217.494 162.827C217.494 162.827 172.95 153.398 182.319 104.577C189.354 67.9196 237.594 66.4134 237.594 66.4134C237.594 66.4134 243.121 77.9628 201.916 98.0491C201.916 98.0491 244.466 100.521 250.033 57.8759C250.076 57.5441 250.117 57.2096 250.155 56.8723C250.155 56.8723 248.591 56.7234 245.884 56.7234C236.409 56.7231 212.917 58.5449 193.374 74.95Z" fill="white"/>
<defs>
<linearGradient id="paint0_linear_8_2326" x1="53.1779" y1="114.78" x2="152.169" y2="114.78" gradientUnits="userSpaceOnUse">
<stop stop-color="white"/>
<stop offset="1" stop-color="#838383"/>
</linearGradient>
<linearGradient id="paint1_linear_8_2326" x1="152.17" y1="114.781" x2="251.161" y2="114.781" gradientUnits="userSpaceOnUse">
<stop stop-color="white"/>
<stop offset="1" stop-color="#838383"/>
</linearGradient>
</defs>
</svg>
