<svg width="305" height="304" viewBox="0 0 305 304" fill="none" xmlns="http://www.w3.org/2000/svg">
<path d="M45.08 227.691L49.804 196.58C49.9471 195.769 50.2334 195.339 50.6152 195.339C50.9969 195.339 51.2832 195.578 51.9035 196.819L64.9302 223.731L77.9092 196.484C78.2909 195.721 78.5295 195.339 78.959 195.339C79.3884 195.339 79.6747 195.816 79.8179 196.819L84.1601 226.308C84.5895 229.314 85.0667 230.697 86.4982 231.127C87.882 231.556 88.8363 231.604 89.4567 231.604C89.8861 231.604 90.2201 231.652 90.2201 231.938C90.2201 232.32 89.6475 232.463 88.9795 232.463C87.7866 232.463 81.2016 232.32 79.293 232.177C78.1955 232.081 77.9092 231.938 77.9092 231.652C77.9092 231.413 78.1 231.27 78.4341 231.127C78.7204 231.031 78.8635 230.411 78.6726 229.075L75.8096 208.08H75.6188L65.2165 229.743C64.119 231.986 63.8804 232.415 63.451 232.415C63.0215 232.415 62.5444 231.461 61.7809 230.029C60.6357 227.834 56.8661 220.534 56.2935 219.198C55.864 218.196 53.001 212.183 51.3309 208.605H51.14L48.6588 227.596C48.5633 228.455 48.5156 229.075 48.5156 229.839C48.5156 230.745 49.1359 231.175 49.9471 231.365C50.806 231.556 51.4741 231.604 51.9512 231.604C52.333 231.604 52.667 231.7 52.667 231.938C52.667 232.368 52.2375 232.463 51.5218 232.463C49.5177 232.463 47.3704 232.32 46.5115 232.32C45.6049 232.32 43.3145 232.463 41.7875 232.463C41.3104 232.463 40.9286 232.368 40.9286 231.938C40.9286 231.7 41.2149 231.604 41.6921 231.604C42.0738 231.604 42.4079 231.604 43.1236 231.461C44.4597 231.175 44.8414 229.314 45.08 227.691ZM109.216 232.988C97 232.988 92.0375 224.303 92.0375 217.098C92.0375 210.179 96.9046 201.208 109.645 201.208C120.238 201.208 126.823 207.078 126.823 216.382C126.823 225.687 120.047 232.988 109.216 232.988ZM110.933 230.793C113.892 230.793 120.572 229.409 120.572 217.862C120.572 208.891 115.18 203.356 108.404 203.356C103.728 203.356 98.2406 205.837 98.2406 215.858C98.2406 224.208 103.012 230.793 110.933 230.793ZM136.79 210.37L137.267 226.928C137.362 230.077 137.887 231.031 138.699 231.318C139.414 231.556 140.225 231.604 140.894 231.604C141.371 231.604 141.609 231.795 141.609 232.034C141.609 232.368 141.228 232.463 140.655 232.463C137.935 232.463 135.979 232.32 135.215 232.32C134.833 232.32 132.829 232.463 130.682 232.463C130.11 232.463 129.728 232.415 129.728 232.034C129.728 231.795 130.014 231.604 130.396 231.604C130.968 231.604 131.732 231.556 132.304 231.413C133.402 231.127 133.545 230.029 133.593 226.498L133.975 202.449C133.975 201.638 134.261 201.065 134.69 201.065C135.215 201.065 135.788 201.686 136.504 202.401C137.028 202.926 143.327 209.368 149.435 215.333C152.298 218.148 157.881 223.874 158.501 224.447H158.692L158.262 206.41C158.215 203.928 157.833 203.213 156.831 202.831C156.211 202.592 155.209 202.592 154.636 202.592C154.111 202.592 153.968 202.401 153.968 202.163C153.968 201.829 154.397 201.781 155.018 201.781C157.213 201.781 159.455 201.876 160.362 201.876C160.839 201.876 162.414 201.781 164.466 201.781C165.038 201.781 165.42 201.829 165.42 202.163C165.42 202.401 165.181 202.592 164.704 202.592C164.275 202.592 163.941 202.592 163.416 202.735C162.271 203.069 161.937 203.785 161.889 206.076L161.412 231.652C161.412 232.558 161.078 232.94 160.744 232.94C160.028 232.94 159.455 232.511 159.026 232.081C156.401 229.648 151.153 224.637 146.763 220.391C142.182 216.001 137.744 211.086 136.933 210.37H136.79ZM186.455 222.252H176.577C176.339 222.252 176.291 222.299 176.195 222.538L173.953 227.978C173.523 228.98 173.332 229.982 173.332 230.459C173.332 231.175 173.714 231.604 175.002 231.604H175.623C176.148 231.604 176.243 231.795 176.243 232.034C176.243 232.368 176.005 232.463 175.575 232.463C174.191 232.463 172.235 232.32 170.899 232.32C170.469 232.32 168.227 232.463 166.032 232.463C165.507 232.463 165.268 232.368 165.268 232.034C165.268 231.795 165.411 231.604 165.745 231.604C166.127 231.604 166.604 231.556 166.986 231.556C168.895 231.27 169.61 230.029 170.469 227.978L181.444 202.449C181.921 201.304 182.255 200.827 182.685 200.827C183.305 200.827 183.496 201.208 183.926 202.115C184.928 204.358 191.942 220.963 194.614 227.119C196.236 230.793 197.429 231.318 198.193 231.461C198.813 231.556 199.29 231.604 199.768 231.604C200.149 231.604 200.34 231.747 200.34 232.034C200.34 232.368 200.102 232.463 198.527 232.463C197.048 232.463 193.994 232.463 190.463 232.368C189.699 232.32 189.222 232.32 189.222 232.034C189.222 231.795 189.318 231.652 189.747 231.604C190.033 231.556 190.32 231.175 190.129 230.697L186.884 222.538C186.789 222.299 186.645 222.252 186.455 222.252ZM177.436 220.009H185.548C185.739 220.009 185.786 219.913 185.739 219.77L181.778 209.463C181.731 209.32 181.683 209.082 181.587 209.082C181.444 209.082 181.397 209.32 181.349 209.463L177.293 219.723C177.197 219.913 177.293 220.009 177.436 220.009ZM204.913 220.677V213.519C204.913 207.364 204.913 206.219 204.865 204.93C204.77 203.547 204.388 203.117 203.052 202.735C202.718 202.64 202.002 202.592 201.382 202.592C200.953 202.592 200.666 202.449 200.666 202.163C200.666 201.876 201 201.781 201.621 201.781C203.816 201.781 206.488 201.876 207.347 201.876C208.778 201.876 212.596 201.781 213.884 201.781C216.556 201.781 219.61 202.02 221.853 203.499C223.045 204.31 224.811 206.362 224.811 209.082C224.811 212.088 223.093 214.76 218.99 218.052C222.711 222.633 225.67 226.308 228.199 228.836C230.537 231.175 232.016 231.365 232.684 231.509C233.114 231.604 233.352 231.604 233.686 231.604C234.02 231.604 234.211 231.843 234.211 232.034C234.211 232.368 233.925 232.463 233.4 232.463H229.392C227.054 232.463 225.908 232.224 224.811 231.652C222.998 230.745 221.423 228.836 219.085 225.687C217.415 223.492 215.649 220.772 215.124 220.152C214.886 219.913 214.647 219.866 214.361 219.866L210.591 219.77C210.401 219.77 210.257 219.866 210.257 220.104V220.677C210.257 224.447 210.305 227.596 210.496 229.314C210.639 230.507 210.83 231.27 212.118 231.461C212.739 231.556 213.645 231.604 214.17 231.604C214.504 231.604 214.695 231.843 214.695 232.034C214.695 232.32 214.361 232.463 213.836 232.463C211.403 232.463 207.919 232.32 207.299 232.32C206.488 232.32 203.816 232.463 202.146 232.463C201.621 232.463 201.334 232.32 201.334 232.034C201.334 231.843 201.477 231.604 202.002 231.604C202.623 231.604 203.1 231.556 203.482 231.461C204.34 231.27 204.579 230.507 204.722 229.314C204.913 227.596 204.913 224.399 204.913 220.677ZM210.257 204.596V216.669C210.257 217.098 210.353 217.241 210.639 217.384C211.546 217.671 212.786 217.766 213.836 217.766C215.506 217.766 216.079 217.623 216.795 217.098C218.083 216.192 219.514 214.426 219.514 211.086C219.514 205.36 215.602 203.881 213.12 203.881C212.071 203.881 211.069 203.928 210.639 204.024C210.353 204.119 210.257 204.262 210.257 204.596ZM243.113 213.519V215.333H243.304C244.735 213.806 250.843 207.793 252.083 206.41C253.276 205.074 254.183 204.119 254.183 203.403C254.183 202.974 253.992 202.688 253.61 202.592C253.229 202.497 253.038 202.401 253.038 202.163C253.038 201.876 253.276 201.781 253.706 201.781C254.612 201.781 256.903 201.876 258.048 201.876C259.336 201.876 261.674 201.781 262.963 201.781C263.392 201.781 263.679 201.876 263.679 202.163C263.679 202.449 263.44 202.592 263.058 202.592C262.438 202.592 261.388 202.783 260.625 203.069C259.289 203.547 257.953 204.405 256.187 206.076C254.851 207.316 248.6 213.233 247.312 214.712C248.791 216.621 257.046 225.21 258.668 226.737C260.529 228.407 262.152 230.173 264.394 231.079C265.635 231.604 266.494 231.604 266.971 231.604C267.305 231.604 267.544 231.795 267.544 232.034C267.544 232.32 267.305 232.463 266.542 232.463H262.867C261.627 232.463 260.863 232.463 259.957 232.368C257.714 232.177 256.33 231.318 254.517 229.743C252.704 228.168 244.64 218.816 243.733 217.575L243.304 217.003H243.113V220.677C243.113 224.399 243.113 227.596 243.208 229.361C243.304 230.507 243.685 231.27 244.735 231.461C245.308 231.556 246.262 231.604 246.787 231.604C247.121 231.604 247.359 231.843 247.359 232.034C247.359 232.32 247.025 232.463 246.548 232.463C244.21 232.463 241.204 232.32 240.154 232.32C239.2 232.32 236.528 232.463 234.858 232.463C234.333 232.463 234.046 232.32 234.046 232.034C234.046 231.843 234.19 231.604 234.714 231.604C235.335 231.604 235.812 231.556 236.194 231.461C237.053 231.27 237.291 230.507 237.434 229.314C237.625 227.596 237.625 224.399 237.625 220.677V213.519C237.625 207.364 237.625 206.219 237.577 204.93C237.482 203.547 237.1 203.117 235.764 202.735C235.43 202.64 234.714 202.592 234.094 202.592C233.665 202.592 233.378 202.449 233.378 202.163C233.378 201.876 233.712 201.781 234.333 201.781C236.528 201.781 239.2 201.876 240.202 201.876C241.204 201.876 244.21 201.781 245.594 201.781C246.214 201.781 246.501 201.876 246.501 202.163C246.501 202.449 246.262 202.592 245.928 202.592C245.498 202.592 245.26 202.64 244.735 202.735C243.59 202.926 243.256 203.499 243.16 204.93C243.113 206.219 243.113 207.364 243.113 213.519Z" fill="white"/>
<path d="M53.1777 54.5617C54.6852 109.799 112.974 102.266 112.974 102.266C67.7502 85.6951 66.7454 66.6135 66.7454 66.6135L79.3076 62.596L113.98 82.6821L125.034 107.288L123.024 137.919L110.51 152.984L93.3771 163.529L85.3374 166.542L83.8298 160.516L89.8599 135.409L110.462 125.867C67.7502 124.361 76.2926 175.581 76.2926 175.581C126.039 179.096 133.074 111.305 133.074 111.305L152.169 133.326V115.594C152.169 115.594 145.134 109.799 120.009 79.6694C101.166 57.0724 72.9951 54.2478 60.0873 54.2478C55.7848 54.2478 53.1777 54.5617 53.1777 54.5617Z" fill="url(#paint0_linear_8_2348)"/>
<path d="M184.329 79.6696C159.205 109.799 152.17 115.595 152.17 115.595V133.327L171.264 111.305C171.264 111.305 178.3 179.096 228.046 175.581C228.046 175.581 236.588 124.361 193.877 125.868L214.479 135.409L220.509 160.517L219.001 166.542L210.961 163.529L193.829 152.984L181.314 137.919L179.305 107.288L190.359 82.6823L225.031 62.5963L237.594 66.6137C237.594 66.6137 236.588 85.6953 191.364 102.267C191.364 102.267 249.653 109.799 251.161 54.562C251.161 54.562 248.554 54.248 244.251 54.248C231.343 54.248 203.173 57.0726 184.329 79.6696Z" fill="url(#paint1_linear_8_2348)"/>
<path d="M193.374 75.1502C168.249 96.2407 152.17 124.863 152.17 124.863C152.17 124.863 136.09 96.2407 110.965 75.1502C85.8405 54.0595 54.1836 57.0725 54.1836 57.0725C54.2223 57.4098 54.2635 57.7443 54.3067 58.0761C59.8733 100.722 102.423 98.2493 102.423 98.2493C61.2185 78.1629 66.7461 66.6136 66.7461 66.6136C66.7461 66.6136 114.985 68.1198 122.02 104.777C131.389 153.598 86.8456 163.027 86.8456 163.027C90.3631 131.894 110.463 125.868 110.463 125.868C72.2732 122.353 75.7906 171.564 75.7906 171.564C75.7906 171.564 86.8456 176.585 108.453 161.019C137.633 139.996 133.075 111.305 133.075 111.305L152.17 133.327L171.264 111.305C171.264 111.305 166.706 139.996 195.886 161.019C217.494 176.585 228.548 171.564 228.548 171.564C228.548 171.564 232.066 122.353 193.877 125.868C193.877 125.868 213.976 131.894 217.494 163.027C217.494 163.027 172.95 153.598 182.319 104.777C189.354 68.1198 237.594 66.6136 237.594 66.6136C237.594 66.6136 243.121 78.1629 201.916 98.2493C201.916 98.2493 244.466 100.722 250.033 58.0761C250.076 57.7443 250.117 57.4098 250.155 57.0725C250.155 57.0725 248.591 56.9236 245.884 56.9236C236.409 56.9233 212.917 58.7451 193.374 75.1502Z" fill="url(#paint2_linear_8_2348)"/>
<defs>
<linearGradient id="paint0_linear_8_2348" x1="53.1779" y1="114.98" x2="152.169" y2="114.98" gradientUnits="userSpaceOnUse">
<stop stop-color="#ED2723"/>
<stop offset="1" stop-color="#FBA60B"/>
</linearGradient>
<linearGradient id="paint1_linear_8_2348" x1="152.17" y1="114.981" x2="251.161" y2="114.981" gradientUnits="userSpaceOnUse">
<stop stop-color="#ED2723"/>
<stop offset="1" stop-color="#FBA60B"/>
</linearGradient>
<linearGradient id="paint2_linear_8_2348" x1="54.1836" y1="114.63" x2="250.156" y2="114.63" gradientUnits="userSpaceOnUse">
<stop stop-color="#ED2723"/>
<stop offset="1" stop-color="#FBA60B"/>
</linearGradient>
</defs>
</svg>
