<svg width="198" height="78" viewBox="0 0 198 78" fill="none" xmlns="http://www.w3.org/2000/svg">
<g clip-path="url(#clip0_61_1673)">
<path d="M187.731 1.09863H10.3977C5.42714 1.09863 1.39771 5.12807 1.39771 10.0986V67.2186C1.39771 72.1892 5.42714 76.2186 10.3977 76.2186H187.731C192.702 76.2186 196.731 72.1892 196.731 67.2186V10.0986C196.731 5.12807 192.702 1.09863 187.731 1.09863Z" fill="#141414" stroke="white" stroke-opacity="0.3" stroke-width="2"/>
<path fill-rule="evenodd" clip-rule="evenodd" d="M45.4303 46.8096C46.3188 47.6942 46.3632 49.1007 45.5636 50.0375L45.4303 50.1814L35.8506 59.7185C34.9152 60.6496 33.3991 60.6496 32.4638 59.7185C31.5752 58.8339 31.5308 57.4274 32.3305 56.4906L32.4638 56.3468L42.0435 46.8096C42.9788 45.8785 44.495 45.8785 45.4303 46.8096ZM31.7625 17.501C39.6983 17.501 46.1316 23.9057 46.1316 31.8062C46.1316 39.7068 39.6983 46.1114 31.7625 46.1114C23.8266 46.1114 17.3933 39.7068 17.3933 31.8062C17.3933 23.9057 23.8266 17.501 31.7625 17.501ZM31.7625 22.2694C26.472 22.2694 22.183 26.539 22.183 31.8062C22.183 37.0734 26.472 41.343 31.7625 41.343C37.0532 41.343 41.3419 37.0734 41.3419 31.8062C41.3419 26.539 37.0532 22.2694 31.7625 22.2694ZM48.5268 17.501C49.8493 17.501 50.9213 18.5682 50.9213 19.8852C50.9213 21.2022 49.8493 22.2694 48.5268 22.2694C47.2039 22.2694 46.1319 21.2022 46.1319 19.8852C46.1319 18.5682 47.2039 17.501 48.5268 17.501Z" fill="white"/>
<path d="M73.2153 56.1603V42.5745H77.7093V39.2967H65.3333V42.5745H69.7799V56.1603H73.2153ZM82.7679 56.1603V50.3649C82.7679 48.0848 83.8973 46.9923 85.3799 46.9923C86.7206 46.9923 87.4506 48.0373 87.4506 49.7475V56.1603H90.6739V49.2011C90.6739 46.1134 88.9799 44.0233 86.1326 44.0233C84.6033 44.0233 83.3799 44.6883 82.7679 45.6384V38.3467H79.5446V56.1603H82.7679ZM99.0499 56.4216C102.038 56.4216 104.367 54.6878 105.073 52.2888H101.709C101.333 53.0964 100.344 53.5952 99.2146 53.5952C97.2146 53.5952 96.1792 52.3839 96.0386 50.9825H105.215C105.379 46.5172 102.533 44.0233 99.0732 44.0233C95.4973 44.0233 92.8853 46.6597 92.8853 50.1987C92.8853 53.8089 95.4499 56.4216 99.0499 56.4216ZM101.685 48.8449H96.1559C96.4619 47.5385 97.4972 46.6597 98.9792 46.6597C100.085 46.6597 101.285 47.2535 101.685 48.8449ZM121.073 56.4453C126.037 56.4453 130.061 53.0013 129.308 46.0659H120.673V49.2961H125.779C125.403 51.6238 123.779 53.1201 121.073 53.1201C117.826 53.1201 115.709 50.745 115.709 47.7285C115.709 44.7121 117.826 42.3369 121.026 42.3369C122.626 42.3369 124.179 43.0495 125.003 44.2845H128.908C127.779 41.1019 124.532 39.0117 121.026 39.0117C115.967 39.0117 112.273 42.8357 112.273 47.7285C112.273 52.6214 115.967 56.4453 121.073 56.4453ZM134.932 56.1603V50.4837C134.932 48.5361 135.943 47.3247 137.473 47.3247C137.99 47.3247 138.437 47.4198 138.931 47.586V44.2845C138.531 44.1658 138.179 44.1421 137.849 44.1421C136.531 44.1421 135.332 45.0208 134.932 46.1847V44.2845H131.708V56.1603H134.932ZM145.355 56.4216C146.978 56.4216 148.225 55.5903 148.743 54.8303V56.1603H151.967V44.2845H148.743V45.6147C148.225 44.8546 146.978 44.0233 145.355 44.0233C142.225 44.0233 139.825 46.8497 139.825 50.2225C139.825 53.5952 142.225 56.4216 145.355 56.4216ZM146.037 53.4527C144.272 53.4527 143.072 52.0751 143.072 50.2225C143.072 48.3699 144.272 46.9923 146.037 46.9923C147.802 46.9923 149.001 48.3699 149.001 50.2225C149.001 52.0751 147.802 53.4527 146.037 53.4527ZM158.319 61.1244V54.8303C158.861 55.5903 160.107 56.4216 161.731 56.4216C164.86 56.4216 167.26 53.5952 167.26 50.2225C167.26 46.8497 164.86 44.0233 161.731 44.0233C160.107 44.0233 158.861 44.8546 158.319 45.6147V44.2845H155.095V61.1244H158.319ZM161.025 53.4527C159.261 53.4527 158.061 52.0751 158.061 50.2225C158.061 48.3699 159.261 46.9923 161.025 46.9923C162.789 46.9923 163.99 48.3699 163.99 50.2225C163.99 52.0751 162.789 53.4527 161.025 53.4527ZM172.837 56.1603V50.3649C172.837 48.0848 173.966 46.9923 175.448 46.9923C176.789 46.9923 177.519 48.0373 177.519 49.7475V56.1603H180.742V49.2011C180.742 46.1134 179.048 44.0233 176.201 44.0233C174.671 44.0233 173.448 44.6883 172.837 45.6384V38.3467H169.613V56.1603H172.837Z" fill="white"/>
<path d="M65.3792 31.5459V20.834H69.0756C70.011 20.834 70.7754 21.1206 71.3689 21.6939C71.9724 22.2673 72.2741 22.9663 72.2741 23.7911C72.2741 24.6762 71.9422 25.3652 71.2783 25.858C72.425 26.3307 72.9983 27.1807 72.9983 28.4078C72.9983 29.3029 72.6714 30.0523 72.0176 30.6558C71.3739 31.2492 70.5491 31.5459 69.5433 31.5459H65.3792ZM67.1444 29.9316H69.498C70.0613 29.9316 70.4988 29.7908 70.8106 29.5091C71.1224 29.2275 71.2783 28.8553 71.2783 28.3927C71.2783 27.9401 71.1224 27.5729 70.8106 27.2913C70.4988 26.9996 70.0613 26.8538 69.498 26.8538H67.1444V29.9316ZM67.1444 25.3451H68.9851C69.4578 25.3451 69.835 25.2093 70.1166 24.9377C70.3983 24.6661 70.5391 24.3191 70.5391 23.8967C70.5391 23.4944 70.3983 23.1524 70.1166 22.8707C69.835 22.5891 69.4578 22.4483 68.9851 22.4483H67.1444V25.3451ZM77.3574 31.6968C76.4924 31.6968 75.8085 31.4101 75.3056 30.8368C74.8027 30.2534 74.5512 29.4789 74.5512 28.5134V24.0023H76.2108V28.2418C76.2108 28.8453 76.3416 29.323 76.6031 29.6751C76.8646 30.0171 77.2367 30.188 77.7195 30.188C78.2828 30.188 78.7304 29.9768 79.0623 29.5544C79.3942 29.1219 79.5602 28.5083 79.5602 27.7137V24.0023H81.2198V31.5459H79.5602V30.52C79.1176 31.3045 78.3834 31.6968 77.3574 31.6968ZM84.2826 22.3578C83.9808 22.3578 83.7193 22.2522 83.498 22.041C83.2768 21.8197 83.1661 21.5531 83.1661 21.2413C83.1661 20.9396 83.2768 20.6831 83.498 20.4719C83.7193 20.2506 83.9808 20.14 84.2826 20.14C84.5944 20.14 84.8559 20.2506 85.0671 20.4719C85.2783 20.6831 85.3839 20.9396 85.3839 21.2413C85.3839 21.5531 85.2783 21.8197 85.0671 22.041C84.8559 22.2522 84.5944 22.3578 84.2826 22.3578ZM83.4528 31.5459V24.0023H85.1124V31.5459H83.4528ZM87.3425 31.5459V20.2305H89.0021V31.5459H87.3425ZM94.325 31.6968C93.2991 31.6968 92.4341 31.3146 91.73 30.5501C91.036 29.7857 90.689 28.8604 90.689 27.7741C90.689 26.6878 91.036 25.7625 91.73 24.998C92.4341 24.2336 93.2991 23.8514 94.325 23.8514C94.838 23.8514 95.3107 23.9671 95.7432 24.1984C96.1757 24.4197 96.5076 24.6913 96.739 25.0131V20.2305H98.3986V31.5459H96.739V30.5351C96.5076 30.8569 96.1757 31.1335 95.7432 31.3649C95.3107 31.5861 94.838 31.6968 94.325 31.6968ZM93.0124 29.494C93.4349 29.9567 93.973 30.188 94.6268 30.188C95.2805 30.188 95.8186 29.9567 96.2411 29.494C96.6635 29.0314 96.8747 28.458 96.8747 27.7741C96.8747 27.0901 96.6635 26.5168 96.2411 26.0542C95.8186 25.5915 95.2805 25.3601 94.6268 25.3601C93.973 25.3601 93.4349 25.5915 93.0124 26.0542C92.59 26.5168 92.3788 27.0901 92.3788 27.7741C92.3788 28.458 92.59 29.0314 93.0124 29.494ZM101.477 22.3578C101.175 22.3578 100.913 22.2522 100.692 22.041C100.471 21.8197 100.36 21.5531 100.36 21.2413C100.36 20.9396 100.471 20.6831 100.692 20.4719C100.913 20.2506 101.175 20.14 101.477 20.14C101.789 20.14 102.05 20.2506 102.261 20.4719C102.472 20.6831 102.578 20.9396 102.578 21.2413C102.578 21.5531 102.472 21.8197 102.261 22.041C102.05 22.2522 101.789 22.3578 101.477 22.3578ZM100.647 31.5459V24.0023H102.307V31.5459H100.647ZM104.537 31.5459V24.0023H106.196V25.0282C106.669 24.2437 107.433 23.8514 108.489 23.8514C109.364 23.8514 110.064 24.1381 110.587 24.7114C111.11 25.2847 111.371 26.0491 111.371 27.0046V31.5459H109.711V27.2762C109.711 26.6727 109.571 26.205 109.289 25.8731C109.007 25.5311 108.625 25.3601 108.142 25.3601C107.569 25.3601 107.101 25.5764 106.739 26.0089C106.377 26.4414 106.196 27.0499 106.196 27.8344V31.5459H104.537ZM116.904 34.85C115.878 34.85 115.034 34.5985 114.37 34.0956C113.716 33.5927 113.339 32.939 113.238 32.1343H114.868C115.159 32.9993 115.853 33.4318 116.95 33.4318C117.543 33.4318 118.031 33.2357 118.413 32.8434C118.805 32.4612 119.001 31.918 119.001 31.214V30.3238C118.76 30.6658 118.423 30.9474 117.991 31.1687C117.558 31.39 117.09 31.5006 116.587 31.5006C115.572 31.5006 114.712 31.1335 114.008 30.3993C113.314 29.655 112.967 28.7447 112.967 27.6685C112.967 26.6023 113.314 25.7021 114.008 24.9679C114.712 24.2236 115.572 23.8514 116.587 23.8514C117.09 23.8514 117.558 23.9621 117.991 24.1833C118.423 24.3946 118.76 24.6712 119.001 25.0131V24.0023H120.661V31.0782C120.661 32.3254 120.304 33.2658 119.59 33.8995C118.886 34.5332 117.991 34.85 116.904 34.85ZM115.29 29.3281C115.722 29.7606 116.256 29.9768 116.889 29.9768C117.523 29.9768 118.056 29.7606 118.488 29.3281C118.921 28.8855 119.137 28.3323 119.137 27.6685C119.137 27.0046 118.921 26.4565 118.488 26.024C118.056 25.5814 117.523 25.3601 116.889 25.3601C116.256 25.3601 115.722 25.5814 115.29 26.024C114.857 26.4565 114.641 27.0046 114.641 27.6685C114.641 28.3323 114.857 28.8855 115.29 29.3281ZM132.661 30.5652C131.907 31.3196 130.972 31.6968 129.855 31.6968C128.739 31.6968 127.798 31.3196 127.034 30.5652C126.28 29.8008 125.902 28.8704 125.902 27.7741C125.902 26.6778 126.28 25.7524 127.034 24.998C127.798 24.2336 128.739 23.8514 129.855 23.8514C130.972 23.8514 131.907 24.2336 132.661 24.998C133.426 25.7524 133.808 26.6778 133.808 27.7741C133.808 28.8704 133.426 29.8008 132.661 30.5652ZM129.855 30.1579C130.509 30.1579 131.047 29.9316 131.47 29.4789C131.902 29.0163 132.118 28.448 132.118 27.7741C132.118 27.1002 131.902 26.5369 131.47 26.0843C131.047 25.6217 130.509 25.3903 129.855 25.3903C129.191 25.3903 128.643 25.6217 128.211 26.0843C127.788 26.5369 127.577 27.1002 127.577 27.7741C127.577 28.448 127.788 29.0163 128.211 29.4789C128.643 29.9316 129.191 30.1579 129.855 30.1579ZM135.477 31.5459V24.0023H137.137V25.0282C137.609 24.2437 138.374 23.8514 139.43 23.8514C140.305 23.8514 141.004 24.1381 141.527 24.7114C142.05 25.2847 142.312 26.0491 142.312 27.0046V31.5459H140.652V27.2762C140.652 26.6727 140.511 26.205 140.23 25.8731C139.948 25.5311 139.566 25.3601 139.083 25.3601C138.51 25.3601 138.042 25.5764 137.68 26.0089C137.318 26.4414 137.137 27.0499 137.137 27.8344V31.5459H135.477Z" fill="white"/>
</g>
<defs>
<clipPath id="clip0_61_1673">
<rect width="198" height="77.3333" fill="white" transform="translate(0 0.0126953)"/>
</clipPath>
</defs>
</svg>
