<svg width="317" height="62" viewBox="0 0 317 62" fill="none" xmlns="http://www.w3.org/2000/svg">
<path d="M70.417 36.3154V61.589H63.0442V0.15863H84.9834C88.1418 0.15863 90.8938 0.61303 93.233 1.51863C95.5722 2.42743 97.5178 3.64023 99.0698 5.16023C100.619 6.68343 101.79 8.44983 102.58 10.469C103.371 12.4882 103.764 14.6098 103.764 16.8306V19.4642C103.764 21.6882 103.371 23.8226 102.58 25.8706C101.79 27.9186 100.606 29.7202 99.025 31.269C97.4442 32.821 95.4858 34.0498 93.1434 34.9554C90.8042 35.8642 88.081 36.3154 84.9802 36.3154H70.4106H70.417ZM70.417 29.4706H84.1066C92.2986 29.4706 96.3946 25.9602 96.3946 18.9394V17.3586C96.3946 14.2578 95.3866 11.7554 93.3674 9.85463C91.3482 7.95383 88.2634 7.00343 84.1098 7.00343H70.4202V29.4706H70.417Z" fill="#FFFFFE"/>
<path d="M112.103 0.15863H151.07V7.00343H135.271V54.7442H151.07V61.589H112.103V54.7442H127.902V7.00343H112.103V0.15863Z" fill="#FFFFFE"/>
<path d="M195.764 58.4338H196.817V0.15863H204.19V61.5922H189.447L171.719 3.32023H170.667V61.5922H163.294V0.15863H178.036L195.764 58.4306V58.4338Z" fill="#FFFFFE"/>
<path d="M251.143 46.3218H224.814L220.337 61.5922H212.439L231.044 0.15863H244.91L263.515 61.5922H255.617L251.14 46.3218H251.143ZM237.454 3.32023L226.836 39.477H249.127L238.51 3.32023H237.457H237.454Z" fill="#FFFFFE"/>
<path d="M278.875 0.15863L292.654 27.365H294.235L308.014 0.15863H316.087L300.731 30.261V31.3138L316.087 61.5922H308.014L294.235 34.2098H292.654L278.875 61.5922H270.801L286.158 31.3138V30.261L270.801 0.15863H278.875Z" fill="#FFFFFE"/>
<path d="M24.0202 0.33783L15.0794 8.26423V10.2226L24.0202 18.149L32.961 10.2226V8.26423L24.0202 0.33783ZM29.6682 9.86103L24.0202 14.8658L18.3722 9.86103V8.62263L24.0202 3.61783L29.6682 8.62263V9.86103Z" fill="#FFFFFE"/>
<path d="M24.0202 14.8658L15.0794 22.7922V24.7506L24.0202 32.677L32.961 24.7506V22.7922L24.0202 14.8658ZM29.6682 24.389L24.0202 29.3938L18.3722 24.389V23.1506L24.0202 18.1458L29.6682 23.1506V24.389Z" fill="#FFFFFE"/>
<path d="M24.0202 43.925L15.0794 51.8514V53.8098L24.0202 61.7362L32.961 53.8098V51.8514L24.0202 43.925ZM29.6682 53.4483L24.0202 58.4531L18.3722 53.4483V52.2098L24.0202 47.205L29.6682 52.2098V53.4483Z" fill="#FFFFFE"/>
<path d="M9.33222 14.8658L0.391418 22.7922V24.7506L9.33222 32.677L18.273 24.7506V22.7922L9.33222 14.8658ZM14.9802 24.389L9.33222 29.3938L3.68422 24.389V23.1506L9.33222 18.1458L14.9802 23.1506V24.389Z" fill="#FFFFFE"/>
<path d="M9.33222 29.3938L0.391418 37.3202V39.2786L9.33222 47.205L18.273 39.2786V37.3202L9.33222 29.3938ZM14.9802 38.917L9.33222 43.9218L3.68422 38.917V37.6786L9.33222 32.6738L14.9802 37.6786V38.917Z" fill="#FFFFFE"/>
<path d="M9.33222 43.925L0.391418 51.8514V53.8098L9.33222 61.7362L18.273 53.8098V51.8514L9.33222 43.925ZM14.9802 53.4483L9.33222 58.4531L3.68422 53.4483V52.2098L9.33222 47.205L14.9802 52.2098V53.4483Z" fill="#FFFFFE"/>
<path d="M38.7114 14.8658L29.7706 22.7922V24.7506L38.7114 32.677L47.6522 24.7506V22.7922L38.7114 14.8658ZM44.3594 24.389L38.7114 29.3938L33.0634 24.389V23.1506L38.7114 18.1458L44.3594 23.1506V24.389Z" fill="#FFFFFE"/>
<path d="M38.7114 29.3938L29.7706 37.3202V39.2786L38.7114 47.205L47.6522 39.2786V37.3202L38.7114 29.3938ZM44.3594 38.917L38.7114 43.9218L33.0634 38.917V37.6786L38.7114 32.6738L44.3594 37.6786V38.917Z" fill="#FFFFFE"/>
<path d="M38.7114 43.925L29.7706 51.8514V53.8098L38.7114 61.7362L47.6522 53.8098V51.8514L38.7114 43.925ZM44.3594 53.4483L38.7114 58.4531L33.0634 53.4483V52.2098L38.7114 47.205L44.3594 52.2098V53.4483Z" fill="#FFFFFE"/>
</svg>
