<svg width="380" height="64" viewBox="0 0 380 64" fill="none" xmlns="http://www.w3.org/2000/svg">
<g clip-path="url(#clip0_4153_1646)">
<path d="M100.853 15.7259H80.2986C79.4916 15.7259 78.717 16.0469 78.1462 16.6182L30.8146 64H0V18.3672L18.3269 0V50.8684H20.9454L68.7728 2.99112C70.6864 1.07555 73.2814 0 75.987 0H100.854L100.853 15.7259ZM151.544 0H120.729L73.3972 47.3818C72.8264 47.9532 72.0518 48.2742 71.245 48.2742H50.6908V63.9992H75.5356C78.2552 63.9992 80.8632 62.9184 82.7856 60.9932L130.598 13.1316H133.217V56.1108H103.688V64H133.217L135.937 61.274L138.474 58.7322L151.544 45.6336L151.544 0ZM175.175 5.24166H182.503L200.9 53.077L219.22 5.24166H226.548L205.632 58.7322H196.167L175.175 5.24166ZM242.88 35.5778L249.98 35.043V33.6674C249.98 26.1786 246.544 23.8096 241.278 23.8096C236.012 23.8096 232.424 26.6366 231.66 31.2214H224.714C226.088 23.198 232.88 18.2311 241.43 18.2311C250.59 18.2311 257.08 22.3572 257.08 34.66V46.5042C257.08 51.93 257.994 56.3612 258.91 58.7304H251.964C251.43 57.3548 250.972 55.3686 250.82 52.5406C248.606 56.7434 244.56 59.4946 237.614 59.4946C228.454 59.4946 223.492 54.0688 223.492 47.8798C223.492 40.7732 229.446 36.4188 242.88 35.5778ZM239.37 54.2992C246.24 54.2992 249.98 49.6376 249.98 43.9066V40.1626L244.254 40.6214C234.864 41.2328 230.59 43.0664 230.59 47.6512C230.59 51.09 233.264 54.2992 239.37 54.2992ZM280.664 53.917C287.076 53.917 291.274 49.409 291.274 40.85V18.9953H298.374V58.7304H291.274V51.7006C288.756 56.82 284.024 59.4946 278.146 59.4946C270.054 59.4946 264.634 54.5276 264.634 43.4476V18.9961H271.734V42.379C271.734 50.3266 275.016 53.917 280.664 53.917ZM313.792 5.24166V58.7322H306.692V5.24166H313.792ZM325.012 48.4154V24.7272H319.21V18.9961H325.012V9.8265H332.112V18.9961H339.516V24.7272H332.112V47.804C332.112 52.9236 335.164 53.917 339.516 53.3056V58.7312C330.43 59.8774 325.012 57.4324 325.012 48.4154ZM363.79 35.5778L370.888 35.043V33.6674C370.888 26.1786 367.454 23.8096 362.186 23.8096C356.92 23.8096 353.332 26.6366 352.568 31.2214H345.622C346.996 23.198 353.79 18.2311 362.34 18.2311C371.5 18.2311 377.988 22.3572 377.988 34.66V46.5042C377.988 51.93 378.904 56.3612 379.82 58.7304H372.872C372.338 57.3548 371.88 55.3686 371.728 52.5406C369.514 56.7434 365.468 59.4946 358.522 59.4946C349.362 59.4946 344.4 54.0688 344.4 47.8798C344.4 40.7732 350.354 36.4188 363.79 35.5778ZM360.278 54.2992C367.148 54.2992 370.888 49.6376 370.888 43.9066V40.1626L365.162 40.6214C355.774 41.2328 351.498 43.0664 351.498 47.6512C351.498 51.09 354.17 54.2992 360.276 54.2992H360.278Z" fill="white"/>
</g>
<defs>
<clipPath id="clip0_4153_1646">
<rect width="380" height="64" fill="white"/>
</clipPath>
</defs>
</svg>
