<svg width="232" height="39" viewBox="0 0 232 39" fill="none" xmlns="http://www.w3.org/2000/svg">
<g clip-path="url(#clip0_4153_1646)">
<path d="M61.4572 9.58296H48.932C48.4402 9.58296 47.9682 9.77857 47.6203 10.1267L18.7776 39H0V11.1925L11.1679 0V30.9979H12.7636L41.9084 1.82271C43.0745 0.655413 44.6559 0 46.3046 0H61.4577L61.4572 9.58296ZM92.3469 0H73.5692L44.7264 28.8733C44.3786 29.2215 43.9066 29.4171 43.4149 29.4171H30.8897V38.9995H46.0295C47.6868 38.9995 49.276 38.3409 50.4475 37.1677L79.5833 8.00209H81.1789V34.1925H63.185V39H81.1789L82.8367 37.3388L84.3824 35.7899L92.3474 27.808L92.3469 0ZM106.747 3.19414H111.213L122.423 32.3438L133.587 3.19414H138.053L125.307 35.7899H119.539L106.747 3.19414ZM148.005 21.6802L152.332 21.3543V20.5161C152.332 15.9526 150.238 14.509 147.029 14.509C143.82 14.509 141.633 16.2317 141.168 19.0255H136.935C137.772 14.1363 141.911 11.1096 147.121 11.1096C152.703 11.1096 156.658 13.6239 156.658 21.1209V28.3385C156.658 31.6448 157.215 34.3451 157.773 35.7888H153.541C153.215 34.9506 152.936 33.7402 152.843 32.0169C151.494 34.578 149.029 36.2545 144.796 36.2545C139.214 36.2545 136.19 32.9482 136.19 29.1768C136.19 24.8462 139.819 22.1927 148.005 21.6802ZM145.866 33.0886C150.052 33.0886 152.332 30.2479 152.332 26.7556V24.4741L148.842 24.7537C143.12 25.1262 140.516 26.2436 140.516 29.0374C140.516 31.133 142.145 33.0886 145.866 33.0886ZM171.03 32.8557C174.937 32.8557 177.495 30.1086 177.495 24.893V11.5752H181.822V35.7888H177.495V31.5051C175.961 34.6247 173.077 36.2545 169.495 36.2545C164.564 36.2545 161.261 33.2278 161.261 26.4759V11.5758H165.588V25.8247C165.588 30.6678 167.588 32.8557 171.03 32.8557ZM191.217 3.19414V35.7899H186.89V3.19414H191.217ZM198.054 29.5031V15.0681H194.519V11.5758H198.054V5.98802H202.381V11.5758H206.893V15.0681H202.381V29.1306C202.381 32.2503 204.241 32.8557 206.893 32.4831V35.7893C201.356 36.4878 198.054 34.9979 198.054 29.5031ZM221.685 21.6802L226.01 21.3543V20.5161C226.01 15.9526 223.917 14.509 220.707 14.509C217.498 14.509 215.312 16.2317 214.846 19.0255H210.613C211.451 14.1363 215.591 11.1096 220.801 11.1096C226.383 11.1096 230.336 13.6239 230.336 21.1209V28.3385C230.336 31.6448 230.895 34.3451 231.453 35.7888H227.219C226.893 34.9506 226.614 33.7402 226.522 32.0169C225.173 34.578 222.707 36.2545 218.474 36.2545C212.892 36.2545 209.869 32.9482 209.869 29.1768C209.869 24.8462 213.497 22.1927 221.685 21.6802ZM219.544 33.0886C223.731 33.0886 226.01 30.2479 226.01 26.7556V24.4741L222.521 24.7537C216.8 25.1262 214.194 26.2436 214.194 29.0374C214.194 31.133 215.822 33.0886 219.543 33.0886H219.544Z" fill="white"/>
</g>
<defs>
<clipPath id="clip0_4153_1646">
<rect width="231.562" height="39" fill="white"/>
</clipPath>
</defs>
</svg>
