<svg width="305" height="304" viewBox="0 0 305 304" fill="none" xmlns="http://www.w3.org/2000/svg">
<path d="M53.2979 91.7524C54.8054 146.99 113.095 139.457 113.095 139.457C67.8703 122.886 66.8655 103.804 66.8655 103.804L79.4277 99.7867L114.1 119.873L125.154 144.479L123.144 175.11L110.63 190.175L93.4972 200.72L85.4575 203.733L83.95 197.707L89.98 172.599L110.582 163.058C67.8703 161.552 76.4127 212.772 76.4127 212.772C126.159 216.287 133.194 148.496 133.194 148.496L152.289 170.517V152.785C152.289 152.785 145.254 146.99 120.129 116.86C101.286 94.2631 73.1152 91.4385 60.2074 91.4385C55.9049 91.4385 53.2979 91.7524 53.2979 91.7524Z" fill="url(#paint0_linear_2_2577)"/>
<path d="M184.449 116.86C159.325 146.99 152.29 152.785 152.29 152.785V170.517L171.384 148.496C171.384 148.496 178.42 216.287 228.166 212.772C228.166 212.772 236.709 161.552 193.997 163.058L214.599 172.599L220.629 197.707L219.121 203.733L211.081 200.72L193.949 190.175L181.434 175.11L179.425 144.479L190.479 119.873L225.151 99.787L237.714 103.804C237.714 103.804 236.709 122.886 191.484 139.457C191.484 139.457 249.773 146.99 251.281 91.7527C251.281 91.7527 248.674 91.4387 244.371 91.4387C231.464 91.4387 203.293 94.2633 184.449 116.86Z" fill="url(#paint1_linear_2_2577)"/>
<path d="M193.494 112.341C168.369 133.431 152.29 162.054 152.29 162.054C152.29 162.054 136.21 133.431 111.085 112.341C85.9606 91.2501 54.3037 94.2631 54.3037 94.2631C54.3424 94.6005 54.3836 94.935 54.4268 95.2667C59.9934 137.912 102.543 135.44 102.543 135.44C61.3386 115.354 66.8662 103.804 66.8662 103.804C66.8662 103.804 115.105 105.31 122.14 141.968C131.509 190.789 86.9657 200.218 86.9657 200.218C90.4832 169.084 110.583 163.058 110.583 163.058C72.3933 159.543 75.9107 208.754 75.9107 208.754C75.9107 208.754 86.9657 213.776 108.573 198.209C137.753 177.186 133.195 148.496 133.195 148.496L152.29 170.517L171.384 148.496C171.384 148.496 166.826 177.186 196.006 198.209C217.614 213.776 228.669 208.754 228.669 208.754C228.669 208.754 232.186 159.543 193.997 163.058C193.997 163.058 214.096 169.084 217.614 200.218C217.614 200.218 173.07 190.789 182.439 141.968C189.474 105.31 237.714 103.804 237.714 103.804C237.714 103.804 243.241 115.354 202.036 135.44C202.036 135.44 244.586 137.912 250.153 95.2667C250.196 94.935 250.237 94.6005 250.276 94.2631C250.276 94.2631 248.711 94.1143 246.005 94.1143C236.529 94.114 213.037 95.9358 193.494 112.341Z" fill="url(#paint2_linear_2_2577)"/>
<defs>
<linearGradient id="paint0_linear_2_2577" x1="53.298" y1="152.171" x2="152.289" y2="152.171" gradientUnits="userSpaceOnUse">
<stop stop-color="#ED2723"/>
<stop offset="1" stop-color="#FBA60B"/>
</linearGradient>
<linearGradient id="paint1_linear_2_2577" x1="152.29" y1="152.171" x2="251.281" y2="152.171" gradientUnits="userSpaceOnUse">
<stop stop-color="#ED2723"/>
<stop offset="1" stop-color="#FBA60B"/>
</linearGradient>
<linearGradient id="paint2_linear_2_2577" x1="54.3037" y1="151.821" x2="250.276" y2="151.821" gradientUnits="userSpaceOnUse">
<stop stop-color="#ED2723"/>
<stop offset="1" stop-color="#FBA60B"/>
</linearGradient>
</defs>
</svg>
