<svg width="305" height="304" viewBox="0 0 305 304" fill="none" xmlns="http://www.w3.org/2000/svg">
<path d="M53.2979 91.6103C54.8054 146.847 113.095 139.315 113.095 139.315C67.8703 122.744 66.8655 103.662 66.8655 103.662L79.4277 99.6446L114.1 119.731L125.154 144.336L123.144 174.968L110.63 190.033L93.4972 200.578L85.4575 203.591L83.95 197.565L89.98 172.457L110.582 162.916C67.8703 161.41 76.4127 212.629 76.4127 212.629C126.159 216.145 133.194 148.354 133.194 148.354L152.289 170.375V152.643C152.289 152.643 145.254 146.847 120.129 116.718C101.286 94.121 73.1152 91.2964 60.2074 91.2964C55.9049 91.2964 53.2979 91.6103 53.2979 91.6103Z" fill="url(#paint0_linear_5_3112)"/>
<path d="M184.449 116.718C159.325 146.847 152.29 152.643 152.29 152.643V170.375L171.384 148.354C171.384 148.354 178.42 216.145 228.166 212.629C228.166 212.629 236.709 161.41 193.997 162.916L214.599 172.457L220.629 197.565L219.121 203.591L211.081 200.578L193.949 190.033L181.434 174.968L179.425 144.336L190.479 119.731L225.151 99.6446L237.714 103.662C237.714 103.662 236.709 122.744 191.484 139.315C191.484 139.315 249.773 146.847 251.281 91.6103C251.281 91.6103 248.674 91.2964 244.371 91.2964C231.464 91.2964 203.293 94.121 184.449 116.718Z" fill="url(#paint1_linear_5_3112)"/>
<path d="M193.494 112.198C168.369 133.289 152.29 161.911 152.29 161.911C152.29 161.911 136.21 133.289 111.085 112.198C85.9606 91.1076 54.3037 94.1206 54.3037 94.1206C54.3424 94.4579 54.3836 94.7924 54.4268 95.1242C59.9934 137.77 102.543 135.297 102.543 135.297C61.3386 115.211 66.8662 103.662 66.8662 103.662C66.8662 103.662 115.105 105.168 122.14 141.825C131.509 190.646 86.9657 200.075 86.9657 200.075C90.4832 168.942 110.583 162.916 110.583 162.916C72.3933 159.401 75.9107 208.612 75.9107 208.612C75.9107 208.612 86.9657 213.633 108.573 198.067C137.753 177.044 133.195 148.353 133.195 148.353L152.29 170.375L171.384 148.353C171.384 148.353 166.826 177.044 196.006 198.067C217.614 213.633 228.669 208.612 228.669 208.612C228.669 208.612 232.186 159.401 193.997 162.916C193.997 162.916 214.096 168.942 217.614 200.075C217.614 200.075 173.07 190.646 182.439 141.825C189.474 105.168 237.714 103.662 237.714 103.662C237.714 103.662 243.241 115.211 202.036 135.297C202.036 135.297 244.586 137.77 250.153 95.1242C250.196 94.7924 250.237 94.4579 250.276 94.1206C250.276 94.1206 248.711 93.9717 246.005 93.9717C236.529 93.9714 213.037 95.7932 193.494 112.198Z" fill="url(#paint2_linear_5_3112)"/>
<defs>
<linearGradient id="paint0_linear_5_3112" x1="53.298" y1="152.029" x2="152.289" y2="152.029" gradientUnits="userSpaceOnUse">
<stop stop-color="#ED2723"/>
<stop offset="1" stop-color="#FBA60B"/>
</linearGradient>
<linearGradient id="paint1_linear_5_3112" x1="152.29" y1="152.029" x2="251.281" y2="152.029" gradientUnits="userSpaceOnUse">
<stop stop-color="#ED2723"/>
<stop offset="1" stop-color="#FBA60B"/>
</linearGradient>
<linearGradient id="paint2_linear_5_3112" x1="54.3037" y1="151.678" x2="250.276" y2="151.678" gradientUnits="userSpaceOnUse">
<stop stop-color="#ED2723"/>
<stop offset="1" stop-color="#FBA60B"/>
</linearGradient>
</defs>
</svg>
