<svg width="305" height="304" viewBox="0 0 305 304" fill="none" xmlns="http://www.w3.org/2000/svg">
<path d="M53.2979 91.4101C54.8054 146.647 113.095 139.115 113.095 139.115C67.8703 122.543 66.8655 103.462 66.8655 103.462L79.4277 99.4444L114.1 119.53L125.154 144.136L123.144 174.768L110.63 189.833L93.4972 200.378L85.4575 203.391L83.95 197.365L89.98 172.257L110.582 162.716C67.8703 161.21 76.4127 212.429 76.4127 212.429C126.159 215.945 133.194 148.153 133.194 148.153L152.289 170.175V152.443C152.289 152.443 145.254 146.647 120.129 116.518C101.286 93.9208 73.1152 91.0962 60.2074 91.0962C55.9049 91.0962 53.2979 91.4101 53.2979 91.4101Z" fill="url(#paint0_linear_5_3030)"/>
<path d="M184.449 116.518C159.325 146.647 152.29 152.443 152.29 152.443V170.175L171.384 148.153C171.384 148.153 178.42 215.945 228.166 212.429C228.166 212.429 236.709 161.21 193.997 162.716L214.599 172.257L220.629 197.365L219.121 203.391L211.081 200.378L193.949 189.833L181.434 174.768L179.425 144.136L190.479 119.53L225.151 99.4444L237.714 103.462C237.714 103.462 236.709 122.543 191.484 139.115C191.484 139.115 249.773 146.647 251.281 91.4101C251.281 91.4101 248.674 91.0962 244.371 91.0962C231.464 91.0962 203.293 93.9208 184.449 116.518Z" fill="url(#paint1_linear_5_3030)"/>
<path d="M193.494 111.998C168.369 133.089 152.29 161.711 152.29 161.711C152.29 161.711 136.21 133.089 111.085 111.998C85.9606 90.9074 54.3037 93.9204 54.3037 93.9204C54.3424 94.2577 54.3836 94.5922 54.4268 94.924C59.9934 137.569 102.543 135.097 102.543 135.097C61.3386 115.011 66.8662 103.461 66.8662 103.461C66.8662 103.461 115.105 104.968 122.14 141.625C131.509 190.446 86.9657 199.875 86.9657 199.875C90.4832 168.741 110.583 162.715 110.583 162.715C72.3933 159.201 75.9107 208.412 75.9107 208.412C75.9107 208.412 86.9657 213.433 108.573 197.866C137.753 176.844 133.195 148.153 133.195 148.153L152.29 170.174L171.384 148.153C171.384 148.153 166.826 176.844 196.006 197.866C217.614 213.433 228.669 208.412 228.669 208.412C228.669 208.412 232.186 159.201 193.997 162.715C193.997 162.715 214.096 168.741 217.614 199.875C217.614 199.875 173.07 190.446 182.439 141.625C189.474 104.968 237.714 103.461 237.714 103.461C237.714 103.461 243.241 115.011 202.036 135.097C202.036 135.097 244.586 137.569 250.153 94.924C250.196 94.5922 250.237 94.2577 250.276 93.9204C250.276 93.9204 248.711 93.7715 246.005 93.7715C236.529 93.7712 213.037 95.593 193.494 111.998Z" fill="white"/>
<defs>
<linearGradient id="paint0_linear_5_3030" x1="53.298" y1="151.829" x2="152.289" y2="151.829" gradientUnits="userSpaceOnUse">
<stop stop-color="white"/>
<stop offset="1" stop-color="#838383"/>
</linearGradient>
<linearGradient id="paint1_linear_5_3030" x1="152.29" y1="151.829" x2="251.281" y2="151.829" gradientUnits="userSpaceOnUse">
<stop stop-color="white"/>
<stop offset="1" stop-color="#838383"/>
</linearGradient>
</defs>
</svg>
