<svg width="96" height="113" viewBox="0 0 96 113" fill="none" xmlns="http://www.w3.org/2000/svg">
<g filter="url(#filter0_f_71_841)">
<path d="M46.3691 8.99982C54.4571 8.99982 61.73 10.6411 66.9439 13.2481C72.2176 15.8849 75.0988 19.3427 75.0988 22.8647C75.0988 26.3866 72.2176 29.8444 66.9439 32.4813C61.73 35.0882 54.4571 36.7295 46.3691 36.7295C38.281 36.7295 31.0081 35.0882 25.7942 32.4813C20.5205 29.8444 17.6394 26.3866 17.6394 22.8647C17.6394 19.3427 20.5205 15.8849 25.7942 13.2481C31.0081 10.6411 38.281 8.99982 46.3691 8.99982Z" stroke="white" stroke-width="2"/>
<path d="M74.8557 37.7298C74.8557 45.5962 62.1018 51.9731 46.369 51.9731C30.6363 51.9731 17.8823 45.5962 17.8823 37.7298" stroke="white" stroke-width="2"/>
<line x1="17.6394" y1="22.8647" x2="17.6394" y2="37.7296" stroke="white" stroke-width="2"/>
<line y1="-1" x2="14.8648" y2="-1" transform="matrix(4.37114e-08 1 1 -4.37114e-08 76.0986 22.8647)" stroke="white" stroke-width="2"/>
<path d="M72.6262 41.7442C78.4168 44.4565 82.0351 48.3143 82.0351 52.5946C82.0351 60.8043 69.9634 67.4595 53.5442 67.4595C37.1249 67.4595 25.0532 60.8043 25.0532 52.5946C25.0532 50.7712 25.7099 49.0244 26.9114 47.4102" stroke="white" stroke-width="2"/>
<path d="M82.0308 67.4593C82.0308 75.3257 69.2769 81.7026 53.5441 81.7026C37.8113 81.7026 25.0574 75.3257 25.0574 67.4593" stroke="white" stroke-width="2"/>
<line x1="24.8145" y1="52.5947" x2="24.8145" y2="67.4596" stroke="white" stroke-width="2"/>
<line y1="-1" x2="14.8648" y2="-1" transform="matrix(4.37114e-08 1 1 -4.37114e-08 83.2737 52.5947)" stroke="white" stroke-width="2"/>
<path d="M71.0189 79.028C67.4355 85.225 57.2426 89.7563 43.6943 89.7563C27.275 89.7563 13.9646 83.1011 13.9646 74.8915C13.9646 69.9076 18.08 65.5186 25.6085 62.8217" stroke="white" stroke-width="2"/>
<path d="M70.9424 89.7566C70.9424 97.623 58.1885 104 42.4557 104C26.7229 104 13.969 97.623 13.969 89.7566" stroke="white" stroke-width="2"/>
<line x1="13.7261" y1="74.8916" x2="13.7261" y2="89.7564" stroke="white" stroke-width="2"/>
<line y1="-1" x2="10.5353" y2="-1" transform="matrix(-4.37114e-08 1 1 4.37114e-08 72.1853 79.2212)" stroke="white" stroke-width="2"/>
</g>
<path d="M46.3691 8.99982C54.4571 8.99982 61.73 10.6411 66.9439 13.2481C72.2176 15.8849 75.0988 19.3427 75.0988 22.8647C75.0988 26.3866 72.2176 29.8444 66.9439 32.4813C61.73 35.0882 54.4571 36.7295 46.3691 36.7295C38.281 36.7295 31.0081 35.0882 25.7942 32.4813C20.5205 29.8444 17.6394 26.3866 17.6394 22.8647C17.6394 19.3427 20.5205 15.8849 25.7942 13.2481C31.0081 10.6411 38.281 8.99982 46.3691 8.99982Z" stroke="white" stroke-width="2"/>
<path d="M74.8557 37.7298C74.8557 45.5962 62.1018 51.9731 46.369 51.9731C30.6363 51.9731 17.8823 45.5962 17.8823 37.7298" stroke="white" stroke-width="2"/>
<line x1="17.6394" y1="22.8647" x2="17.6394" y2="37.7296" stroke="white" stroke-width="2"/>
<line y1="-1" x2="14.8648" y2="-1" transform="matrix(4.37114e-08 1 1 -4.37114e-08 76.0986 22.8647)" stroke="white" stroke-width="2"/>
<path d="M72.6262 41.7442C78.4168 44.4565 82.0351 48.3143 82.0351 52.5946C82.0351 60.8043 69.9634 67.4595 53.5442 67.4595C37.1249 67.4595 25.0532 60.8043 25.0532 52.5946C25.0532 50.7712 25.7099 49.0244 26.9114 47.4102" stroke="white" stroke-width="2"/>
<path d="M82.0308 67.4593C82.0308 75.3257 69.2769 81.7026 53.5441 81.7026C37.8113 81.7026 25.0574 75.3257 25.0574 67.4593" stroke="white" stroke-width="2"/>
<line x1="24.8145" y1="52.5947" x2="24.8145" y2="67.4596" stroke="white" stroke-width="2"/>
<line y1="-1" x2="14.8648" y2="-1" transform="matrix(4.37114e-08 1 1 -4.37114e-08 83.2737 52.5947)" stroke="white" stroke-width="2"/>
<path d="M71.0189 79.028C67.4355 85.225 57.2426 89.7563 43.6943 89.7563C27.275 89.7563 13.9646 83.1011 13.9646 74.8915C13.9646 69.9076 18.08 65.5186 25.6085 62.8217" stroke="white" stroke-width="2"/>
<path d="M70.9424 89.7566C70.9424 97.623 58.1885 104 42.4557 104C26.7229 104 13.969 97.623 13.969 89.7566" stroke="white" stroke-width="2"/>
<line x1="13.7261" y1="74.8916" x2="13.7261" y2="89.7564" stroke="white" stroke-width="2"/>
<line y1="-1" x2="10.5353" y2="-1" transform="matrix(-4.37114e-08 1 1 4.37114e-08 72.1853 79.2212)" stroke="white" stroke-width="2"/>
<defs>
<filter id="filter0_f_71_841" x="4.72607" y="0" width="86.5476" height="113" filterUnits="userSpaceOnUse" color-interpolation-filters="sRGB">
<feFlood flood-opacity="0" result="BackgroundImageFix"/>
<feBlend mode="normal" in="SourceGraphic" in2="BackgroundImageFix" result="shape"/>
<feGaussianBlur stdDeviation="4" result="effect1_foregroundBlur_71_841"/>
</filter>
</defs>
</svg>
