<svg width="227" height="268" viewBox="0 0 227 268" fill="none" xmlns="http://www.w3.org/2000/svg">
<g filter="url(#filter0_f_71_813)">
<path d="M163.423 226.347L205.711 201.309C208.71 199.533 210.55 196.306 210.55 192.82L210.55 183.765C210.55 181.327 209.646 178.974 208.014 177.162L201.873 170.346C200.003 168.269 197.339 167.083 194.543 167.083L156.105 167.083C153.995 167.083 151.941 167.76 150.244 169.013L143.674 173.865" stroke="#F0870C" stroke-width="4.93277" stroke-linecap="round"/>
<path d="M63.2949 226.347L21.0078 201.309C18.0082 199.533 16.1686 196.306 16.1686 192.82L16.1686 183.765C16.1686 181.327 17.0719 178.974 18.7042 177.162L24.8448 170.346C26.7157 168.269 29.3796 167.083 32.1748 167.083L70.6137 167.083C72.7233 167.083 74.7773 167.76 76.4743 169.013L83.0445 173.865" stroke="#F0870C" stroke-width="4.93277" stroke-linecap="round"/>
<path d="M86.8535 191.632L80.7129 198.448C79.0806 200.26 78.1772 202.612 78.1772 205.051L78.1772 228.708C78.1772 232.299 80.1281 235.606 83.2707 237.343L108.281 251.076C111.236 252.698 114.814 252.7 117.77 251.081L142.848 237.343C145.991 235.606 147.942 232.299 147.942 228.708V205.051C147.942 202.612 147.039 200.26 145.406 198.448L139.266 191.632C137.395 189.555 134.731 188.369 131.936 188.369L112.831 188.369L94.1834 188.369C91.3882 188.369 88.7243 189.555 86.8535 191.632Z" stroke="#F0870C" stroke-width="4.93277" stroke-linecap="round"/>
<circle cx="113.359" cy="155.784" r="21.1915" stroke="#F0870C" stroke-width="4.93277"/>
<circle cx="175.165" cy="134.799" r="21.1915" stroke="#F0870C" stroke-width="4.93277"/>
<circle cx="51.5529" cy="134.799" r="21.1915" stroke="#F0870C" stroke-width="4.93277"/>
<circle cx="113.359" cy="68.3548" r="52.2088" stroke="#F0870C" stroke-width="4.93277"/>
<path d="M140.111 68.3548C140.111 83.1293 136.906 96.3828 131.844 105.854C126.727 115.429 120.076 120.564 113.359 120.564C106.642 120.564 99.991 115.429 94.8738 105.854C89.8126 96.3828 86.607 83.1293 86.607 68.3548C86.607 53.5803 89.8126 40.3269 94.8738 30.8561C99.991 21.2806 106.642 16.1461 113.359 16.1461C120.076 16.1461 126.727 21.2806 131.844 30.8561C136.906 40.3269 140.111 53.5803 140.111 68.3548Z" stroke="#F0870C" stroke-width="4.93277"/>
<line x1="61.5957" y1="67.683" x2="165.122" y2="67.683" stroke="#F0870C" stroke-width="4.93277"/>
<line x1="113.225" y1="121.913" x2="113.225" y2="18.3863" stroke="#F0870C" stroke-width="4.93277"/>
<path d="M69.2529 98.8117C69.2529 98.8117 95.981 93.8914 113.284 93.8789C130.698 93.8663 157.603 98.8117 157.603 98.8117" stroke="#F0870C" stroke-width="4.93277"/>
<path d="M69.2529 37.9745C69.2529 37.9745 95.981 42.8947 113.284 42.9072C130.698 42.9198 157.603 37.9745 157.603 37.9745" stroke="#F0870C" stroke-width="4.93277"/>
</g>
<path d="M163.423 226.347L205.711 201.309C208.71 199.533 210.55 196.306 210.55 192.82L210.55 183.765C210.55 181.327 209.646 178.974 208.014 177.162L201.873 170.346C200.003 168.269 197.339 167.083 194.543 167.083L156.105 167.083C153.995 167.083 151.941 167.76 150.244 169.013L143.674 173.865" stroke="#F0870C" stroke-width="5" stroke-linecap="round"/>
<path d="M63.2949 226.347L21.0078 201.309C18.0082 199.533 16.1686 196.306 16.1686 192.82L16.1686 183.765C16.1686 181.327 17.0719 178.974 18.7042 177.162L24.8448 170.346C26.7157 168.269 29.3796 167.083 32.1748 167.083L70.6137 167.083C72.7233 167.083 74.7773 167.76 76.4743 169.013L83.0445 173.865" stroke="#F0870C" stroke-width="5" stroke-linecap="round"/>
<path d="M86.8535 191.632L80.7129 198.448C79.0806 200.26 78.1772 202.612 78.1772 205.051L78.1772 228.708C78.1772 232.299 80.1281 235.606 83.2707 237.343L108.281 251.076C111.236 252.698 114.814 252.7 117.77 251.081L142.848 237.343C145.991 235.606 147.942 232.299 147.942 228.708V205.051C147.942 202.612 147.039 200.26 145.406 198.448L139.266 191.632C137.395 189.555 134.731 188.369 131.936 188.369L112.831 188.369L94.1834 188.369C91.3882 188.369 88.7243 189.555 86.8535 191.632Z" stroke="#F0870C" stroke-width="5" stroke-linecap="round"/>
<circle cx="113.359" cy="155.784" r="21.1579" stroke="#F0870C" stroke-width="5"/>
<circle cx="175.165" cy="134.799" r="21.1579" stroke="#F0870C" stroke-width="5"/>
<circle cx="51.5529" cy="134.799" r="21.1579" stroke="#F0870C" stroke-width="5"/>
<circle cx="113.359" cy="68.3548" r="52.1751" stroke="#F0870C" stroke-width="5"/>
<path d="M140.078 68.3548C140.078 83.1249 136.873 96.3727 131.815 105.838C126.7 115.409 120.057 120.53 113.359 120.53C106.661 120.53 100.018 115.409 94.9034 105.838C89.8453 96.3727 86.6406 83.1249 86.6406 68.3548C86.6406 53.5847 89.8453 40.3369 94.9034 30.872C100.018 21.3008 106.661 16.1797 113.359 16.1797C120.057 16.1797 126.7 21.3008 131.815 30.872C136.873 40.3369 140.078 53.5847 140.078 68.3548Z" stroke="#F0870C" stroke-width="5"/>
<line x1="61.5957" y1="67.6494" x2="165.122" y2="67.6494" stroke="#F0870C" stroke-width="5"/>
<line x1="113.191" y1="121.913" x2="113.191" y2="18.3863" stroke="#F0870C" stroke-width="5"/>
<path d="M69.2529 98.8117C69.2529 98.8117 95.981 93.8914 113.284 93.8789C130.698 93.8663 157.603 98.8117 157.603 98.8117" stroke="#F0870C" stroke-width="5"/>
<path d="M69.2529 37.9745C69.2529 37.9745 95.981 42.8947 113.284 42.9072C130.698 42.9198 157.603 37.9745 157.603 37.9745" stroke="#F0870C" stroke-width="5"/>
<defs>
<filter id="filter0_f_71_813" x="0.548095" y="0.525634" width="225.622" height="267.389" filterUnits="userSpaceOnUse" color-interpolation-filters="sRGB">
<feFlood flood-opacity="0" result="BackgroundImageFix"/>
<feBlend mode="normal" in="SourceGraphic" in2="BackgroundImageFix" result="shape"/>
<feGaussianBlur stdDeviation="6.57703" result="effect1_foregroundBlur_71_813"/>
</filter>
</defs>
</svg>
