<svg width="97" height="96" viewBox="0 0 97 96" fill="none" xmlns="http://www.w3.org/2000/svg">
<g filter="url(#filter0_f_169_1151)">
<path d="M44.3298 68L52.3298 76C53.1178 76.7879 54.0532 77.413 55.0827 77.8394C56.1121 78.2658 57.2155 78.4853 58.3298 78.4853C59.4441 78.4853 60.5475 78.2658 61.577 77.8394C62.6065 77.413 63.5419 76.7879 64.3298 76C65.1178 75.2121 65.7428 74.2767 66.1692 73.2472C66.5956 72.2177 66.8151 71.1143 66.8151 70C66.8151 68.8857 66.5956 67.7823 66.1692 66.7528C65.7428 65.7233 65.1178 64.7879 64.3298 64" stroke="white" stroke-width="2" stroke-linecap="round" stroke-linejoin="round"/>
<path d="M56.3298 56.0001L66.3298 66.0001C67.9211 67.5914 70.0793 68.4853 72.3298 68.4853C74.5802 68.4853 76.7385 67.5914 78.3298 66.0001C79.9211 64.4088 80.815 62.2505 80.815 60.0001C80.815 57.7496 79.9211 55.5914 78.3298 54.0001L62.8098 38.4801C60.5598 36.2329 57.5098 34.9706 54.3298 34.9706C51.1498 34.9706 48.0998 36.2329 45.8498 38.4801L42.3298 42.0001C40.7385 43.5914 38.5802 44.4853 36.3298 44.4853C34.0793 44.4853 31.9211 43.5914 30.3298 42.0001C28.7385 40.4088 27.8445 38.2505 27.8445 36.0001C27.8445 33.7496 28.7385 31.5914 30.3298 30.0001L41.5698 18.7601C45.2187 15.1206 49.9774 12.8023 55.0923 12.172C60.2073 11.5416 65.3864 12.6354 69.8098 15.2801L71.6898 16.4001C73.3929 17.428 75.418 17.7845 77.3698 17.4001L84.3298 16.0001" stroke="#FFF8F5" stroke-width="2" stroke-linecap="round" stroke-linejoin="round"/>
<path d="M84.3298 12L88.3298 56H80.3298" stroke="#FFF8F5" stroke-width="2" stroke-linecap="round" stroke-linejoin="round"/>
<path d="M12.3298 12L8.32983 56L34.3298 82C35.9211 83.5913 38.0794 84.4853 40.3298 84.4853C42.5803 84.4853 44.7385 83.5913 46.3298 82C47.9211 80.4087 48.8151 78.2504 48.8151 76C48.8151 73.7496 47.9211 71.5913 46.3298 70" stroke="#FFF8F5" stroke-width="2" stroke-linecap="round" stroke-linejoin="round"/>
<path d="M12.3298 16H44.3298" stroke="#FFF8F5" stroke-width="2" stroke-linecap="round" stroke-linejoin="round"/>
</g>
<path d="M44.3298 68L52.3298 76C53.1178 76.7879 54.0532 77.413 55.0827 77.8394C56.1121 78.2658 57.2155 78.4853 58.3298 78.4853C59.4441 78.4853 60.5475 78.2658 61.577 77.8394C62.6065 77.413 63.5419 76.7879 64.3298 76C65.1178 75.2121 65.7428 74.2767 66.1692 73.2472C66.5956 72.2177 66.8151 71.1143 66.8151 70C66.8151 68.8857 66.5956 67.7823 66.1692 66.7528C65.7428 65.7233 65.1178 64.7879 64.3298 64" stroke="white" stroke-width="2" stroke-linecap="round" stroke-linejoin="round"/>
<path d="M56.3298 56.0001L66.3298 66.0001C67.9211 67.5914 70.0793 68.4853 72.3298 68.4853C74.5802 68.4853 76.7385 67.5914 78.3298 66.0001C79.9211 64.4088 80.815 62.2505 80.815 60.0001C80.815 57.7496 79.9211 55.5914 78.3298 54.0001L62.8098 38.4801C60.5598 36.2329 57.5098 34.9706 54.3298 34.9706C51.1498 34.9706 48.0998 36.2329 45.8498 38.4801L42.3298 42.0001C40.7385 43.5914 38.5802 44.4853 36.3298 44.4853C34.0793 44.4853 31.9211 43.5914 30.3298 42.0001C28.7385 40.4088 27.8445 38.2505 27.8445 36.0001C27.8445 33.7496 28.7385 31.5914 30.3298 30.0001L41.5698 18.7601C45.2187 15.1206 49.9774 12.8023 55.0923 12.172C60.2073 11.5416 65.3864 12.6354 69.8098 15.2801L71.6898 16.4001C73.3929 17.428 75.418 17.7845 77.3698 17.4001L84.3298 16.0001" stroke="#FFF8F5" stroke-width="2" stroke-linecap="round" stroke-linejoin="round"/>
<path d="M84.3298 12L88.3298 56H80.3298" stroke="#FFF8F5" stroke-width="2" stroke-linecap="round" stroke-linejoin="round"/>
<path d="M12.3298 12L8.32983 56L34.3298 82C35.9211 83.5913 38.0794 84.4853 40.3298 84.4853C42.5803 84.4853 44.7385 83.5913 46.3298 82C47.9211 80.4087 48.8151 78.2504 48.8151 76C48.8151 73.7496 47.9211 71.5913 46.3298 70" stroke="#FFF8F5" stroke-width="2" stroke-linecap="round" stroke-linejoin="round"/>
<path d="M12.3298 16H44.3298" stroke="#FFF8F5" stroke-width="2" stroke-linecap="round" stroke-linejoin="round"/>
<defs>
<filter id="filter0_f_169_1151" x="-1.67017" y="-2" width="100" height="100" filterUnits="userSpaceOnUse" color-interpolation-filters="sRGB">
<feFlood flood-opacity="0" result="BackgroundImageFix"/>
<feBlend mode="normal" in="SourceGraphic" in2="BackgroundImageFix" result="shape"/>
<feGaussianBlur stdDeviation="1" result="effect1_foregroundBlur_169_1151"/>
</filter>
</defs>
</svg>
