<svg width="97" height="97" viewBox="0 0 97 97" fill="none" xmlns="http://www.w3.org/2000/svg">
<g filter="url(#filter0_f_61_1122)">
<path d="M16.4182 56.5397C15.6612 56.5423 14.9191 56.33 14.278 55.9276C13.6369 55.5252 13.1231 54.9491 12.7964 54.2663C12.4696 53.5835 12.3434 52.8221 12.4322 52.0703C12.521 51.3186 12.8213 50.6075 13.2982 50.0197L52.8982 9.21971C53.1952 8.87684 53.6 8.64514 54.0461 8.56265C54.4922 8.48015 54.9531 8.55176 55.3531 8.76573C55.7531 8.9797 56.0685 9.3233 56.2475 9.74015C56.4265 10.157 56.4585 10.6223 56.3382 11.0597L48.6582 35.1397C48.4317 35.7458 48.3557 36.3978 48.4365 37.0397C48.5174 37.6817 48.7528 38.2944 49.1225 38.8254C49.4923 39.3564 49.9853 39.7898 50.5593 40.0884C51.1333 40.3869 51.7712 40.5418 52.4182 40.5397H80.4182C81.1751 40.5371 81.9173 40.7494 82.5584 41.1518C83.1995 41.5542 83.7132 42.1303 84.04 42.8131C84.3667 43.4959 84.493 44.2574 84.4042 45.0091C84.3154 45.7608 84.0151 46.4719 83.5382 47.0597L43.9382 87.8597C43.6411 88.2026 43.2363 88.4343 42.7903 88.5168C42.3442 88.5993 41.8833 88.5277 41.4833 88.3137C41.0832 88.0997 40.7678 87.7561 40.5888 87.3393C40.4098 86.9224 40.3779 86.4571 40.4982 86.0197L48.1782 61.9397C48.4046 61.3336 48.4807 60.6816 48.3998 60.0397C48.3189 59.3977 48.0835 58.785 47.7138 58.254C47.3441 57.723 46.8511 57.2897 46.2771 56.9911C45.7031 56.6925 45.0652 56.5376 44.4182 56.5397H16.4182Z" stroke="white" stroke-width="2" stroke-linecap="round" stroke-linejoin="round"/>
</g>
<path d="M16.4182 56.5397C15.6612 56.5423 14.9191 56.33 14.278 55.9276C13.6369 55.5252 13.1231 54.9491 12.7964 54.2663C12.4696 53.5835 12.3434 52.8221 12.4322 52.0703C12.521 51.3186 12.8213 50.6075 13.2982 50.0197L52.8982 9.21971C53.1952 8.87684 53.6 8.64514 54.0461 8.56265C54.4922 8.48015 54.9531 8.55176 55.3531 8.76573C55.7531 8.9797 56.0685 9.3233 56.2475 9.74015C56.4265 10.157 56.4585 10.6223 56.3382 11.0597L48.6582 35.1397C48.4317 35.7458 48.3557 36.3978 48.4365 37.0397C48.5174 37.6817 48.7528 38.2944 49.1225 38.8254C49.4923 39.3564 49.9853 39.7898 50.5593 40.0884C51.1333 40.3869 51.7712 40.5418 52.4182 40.5397H80.4182C81.1751 40.5371 81.9173 40.7494 82.5584 41.1518C83.1995 41.5542 83.7132 42.1303 84.04 42.8131C84.3667 43.4959 84.493 44.2574 84.4042 45.0091C84.3154 45.7608 84.0151 46.4719 83.5382 47.0597L43.9382 87.8597C43.6411 88.2026 43.2363 88.4343 42.7903 88.5168C42.3442 88.5993 41.8833 88.5277 41.4833 88.3137C41.0832 88.0997 40.7678 87.7561 40.5888 87.3393C40.4098 86.9224 40.3779 86.4571 40.4982 86.0197L48.1782 61.9397C48.4046 61.3336 48.4807 60.6816 48.3998 60.0397C48.3189 59.3977 48.0835 58.785 47.7138 58.254C47.3441 57.723 46.8511 57.2897 46.2771 56.9911C45.7031 56.6925 45.0652 56.5376 44.4182 56.5397H16.4182Z" stroke="white" stroke-width="2" stroke-linecap="round" stroke-linejoin="round"/>
<defs>
<filter id="filter0_f_61_1122" x="-1.58179" y="-1.46094" width="100" height="100" filterUnits="userSpaceOnUse" color-interpolation-filters="sRGB">
<feFlood flood-opacity="0" result="BackgroundImageFix"/>
<feBlend mode="normal" in="SourceGraphic" in2="BackgroundImageFix" result="shape"/>
<feGaussianBlur stdDeviation="1" result="effect1_foregroundBlur_61_1122"/>
</filter>
</defs>
</svg>
