<svg width="868" height="884" viewBox="0 0 868 884" fill="none" xmlns="http://www.w3.org/2000/svg">
<path d="M263.281 18.6267C242.037 2.77824 223.997 -2.78558 208.823 2.27244C197.527 5.81305 177.801 28.9113 177.463 39.3645C177.126 49.4806 166.504 87.0785 162.964 90.6191C161.278 92.3051 160.435 96.1829 160.941 99.0491C161.784 104.276 150.993 139.682 147.453 143.222C146.441 144.234 145.429 147.269 145.429 149.966C144.755 159.745 129.075 195.32 124.017 198.355C120.814 200.209 119.296 203.413 119.296 208.808C119.296 213.192 115.081 224.825 110.023 235.278C85.239 285.015 93.1632 309.8 144.418 345.206C173.248 364.932 173.248 365.269 156.894 359.705C138.011 353.636 105.808 354.142 85.9134 360.886C62.3093 368.641 28.0834 394.774 28.9264 404.385C29.2636 406.745 27.0718 412.646 24.5428 417.873C11.7292 441.477 5.15375 478.737 9.03156 505.208C11.7292 522.405 25.2172 566.241 30.9496 576.02C33.31 580.403 32.467 581.921 23.194 591.194C15.1012 599.287 11.392 601.647 7.51414 601.141C3.46773 600.467 1.95033 601.31 1.10732 605.188C0.432921 607.885 1.27592 611.426 2.96193 613.112C4.64793 614.798 8.18854 615.641 10.8861 614.966C14.764 614.123 15.607 612.606 15.1012 609.065C14.4268 605.356 16.9558 601.816 24.3742 594.734L34.3216 585.124L42.2458 595.746C46.6294 601.478 56.2397 612.438 63.8267 619.687C79.6751 635.199 91.4772 640.257 109.517 639.076C123.343 638.065 129.918 634.524 165.83 607.042C201.405 579.898 213.712 571.299 234.956 558.485C266.147 539.771 306.611 522.573 331.733 517.01C350.785 512.795 352.808 509.423 334.262 512.795C318.582 515.661 288.74 526.283 268.508 536.399C255.525 542.974 253.334 543.143 247.601 539.433C243.892 537.073 241.7 534.544 242.543 533.701C245.409 530.835 280.815 516.335 298.519 510.771C313.355 506.051 336.959 501.667 358.709 499.138C361.238 498.969 361.912 498.295 360.901 497.283C355.168 491.551 275.252 512.795 249.624 526.62C243.723 529.823 239.003 530.498 236.136 528.98C233.607 527.463 231.753 525.945 231.584 525.44C231.584 523.079 300.373 501.161 319.256 497.452C331.058 495.092 340.669 492.563 340.669 491.551C340.669 487.505 285.705 501.667 236.811 518.19C207.137 528.306 182.859 537.073 182.859 537.747C182.69 538.253 187.579 537.41 193.48 535.893C207.643 531.846 207.137 534.038 192.637 539.771C183.702 543.311 181.004 543.648 181.004 540.614C181.004 538.253 179.824 535.387 178.138 533.701C174.934 530.498 188.928 504.027 194.829 502.51C214.218 497.621 342.355 487.167 342.355 490.539C342.523 492.731 360.395 493.406 362.418 491.382C363.261 490.539 362.755 489.696 361.238 489.191C359.552 488.853 360.226 487.842 362.755 486.662C366.296 484.807 366.127 484.638 361.575 484.47C341.006 484.133 286.885 488.01 244.061 492.731C215.904 495.597 192.806 497.789 192.975 497.283C192.975 496.609 195.335 491.551 198.37 485.819L203.428 475.365L257.717 475.702C287.56 475.871 323.977 477.22 338.983 478.737C353.651 480.255 366.127 480.929 366.465 480.592C368.825 478.232 328.529 473.342 302.396 472.499C286.211 472.162 274.24 471.319 275.589 470.982C310.152 460.697 316.053 460.191 337.128 466.429C348.593 469.801 361.069 472.836 364.61 473.342C371.354 474.016 371.354 474.016 364.104 471.15C351.796 466.261 337.971 462.214 288.908 450.244C262.944 443.837 240.689 437.767 239.508 436.587C238.16 435.238 235.631 429.337 233.776 423.436C230.404 412.983 230.404 412.983 235.631 415.849C260.921 429.675 276.432 436.081 320.605 451.593C353.819 463.226 371.86 468.453 373.714 466.598C375.738 464.575 375.232 464.069 372.197 464.069C366.127 464.069 351.29 448.558 354.494 445.354C356.011 443.837 358.709 444.511 361.069 446.535C363.092 448.558 368.656 451.761 373.209 453.616C381.301 456.988 381.301 456.988 375.738 452.773C369.162 447.883 325.157 417.704 290.089 394.1C268.845 379.937 266.653 378.083 270.194 376.565C272.217 375.554 275.757 374.036 277.781 372.688C279.804 371.676 282.501 371.676 283.85 373.025C285.03 374.205 288.908 374.711 292.28 374.036C298.013 373.025 300.71 375.048 323.809 395.449C346.232 415.175 349.267 418.547 348.256 421.919C346.738 427.483 350.616 431.023 355.337 429C358.372 427.651 361.238 429.843 371.017 440.634C377.592 447.883 383.662 453.279 384.336 452.604C385.179 451.761 371.86 435.407 357.697 420.233C356.854 419.39 343.535 407.419 328.361 393.931C307.623 375.891 300.036 367.967 298.856 363.752C297.17 359.031 295.821 358.019 291.269 357.851C286.548 357.514 284.525 355.828 279.129 347.735C273.397 338.63 272.891 334.415 278.118 335.596C279.129 335.933 296.158 347.903 315.379 362.066L350.616 388.199L366.633 415.344C389.057 452.941 388.72 452.604 390.406 449.232C391.249 447.715 386.697 434.058 380.458 419.053C374.389 404.216 363.43 376.06 356.348 356.839C349.267 337.282 342.017 319.241 340.331 316.206C338.477 313.34 337.802 310.305 338.645 309.462C339.488 308.619 337.634 301.37 334.599 293.277C331.396 285.353 329.541 278.103 330.384 277.26C331.227 276.417 336.454 274.225 342.017 272.37C350.953 269.504 352.302 269.841 353.651 274.562C354.662 277.597 357.191 281.138 359.383 282.318C363.261 284.51 366.633 300.021 386.022 403.036C388.551 416.018 391.08 426.64 391.923 426.471C393.609 426.471 386.528 383.984 376.075 329.357C368.656 291.591 368.319 282.824 374.052 285.858C378.772 288.219 397.318 427.483 393.272 428.494C390.912 429.169 392.935 441.645 395.801 444.511C401.196 449.907 402.882 434.733 400.859 396.629C399.004 357.008 393.946 311.823 388.72 289.736C387.371 284.678 386.528 275.742 386.865 270.347C386.865 264.952 385.516 258.882 383.493 256.859C381.47 254.836 378.435 246.743 376.918 238.819C369.331 199.872 343.366 131.083 322.46 94.6655C317.065 85.2239 311.838 75.2764 310.826 72.5788C309.815 69.8812 307.286 66.3406 305.431 64.486C303.408 62.8 296.327 54.0328 289.414 45.0969C282.67 36.3297 276.095 28.4055 275.083 27.3939C274.071 26.7195 268.676 22.6731 263.281 18.6267ZM291.269 53.3584C298.856 64.6546 300.036 72.2416 295.484 80.1658C292.955 84.3809 291.606 84.0437 281.321 77.131C275.083 72.916 266.316 67.5208 261.764 64.6546C254.682 60.6082 253.502 59.0908 253.165 53.0212C253.165 49.312 251.816 44.2539 250.299 42.0621C247.938 39.0273 248.781 36.4983 255.02 29.5857L262.438 21.1557L273.228 31.9461C279.129 37.8471 287.222 47.626 291.269 53.3584ZM252.659 27.8997C244.735 35.8239 229.73 37.0041 219.445 30.4287C216.073 28.4055 208.655 26.3823 203.259 26.3823C197.527 26.3823 192.469 25.0335 191.794 23.6847C187.579 15.7605 212.027 2.10384 226.02 4.63284C234.788 5.98165 250.636 13.4001 256.2 18.6267C258.56 20.6499 257.886 22.6731 252.659 27.8997ZM326.843 111.526C333.25 124.002 343.029 145.92 348.256 159.914C358.035 184.867 358.035 185.204 351.628 183.181C345.389 181.326 343.703 178.291 331.058 150.809C323.303 133.949 312.175 112.706 306.274 103.433C294.978 86.0669 294.809 83.5379 304.757 78.9856C309.14 76.9624 310.489 78.9856 326.843 111.526ZM249.119 53.3584C249.287 62.9686 245.747 67.1836 236.642 68.8696C229.224 70.2184 219.108 61.4512 219.108 53.3584C218.939 45.7714 227.538 38.1843 235.968 38.5215C245.409 38.8587 249.287 43.4109 249.119 53.3584ZM295.484 94.6655C295.147 96.0143 292.955 97.8689 290.594 98.5433C286.885 99.5549 286.548 99.2177 287.054 95.0027C287.391 90.2819 291.775 87.5843 294.641 90.4505C295.484 91.2935 295.99 93.1481 295.484 94.6655ZM284.525 90.4505C282.67 92.3051 281.827 95.5085 282.67 97.3631C283.345 99.3863 283.513 101.578 282.67 102.421C280.478 104.613 268.339 91.7993 268.339 87.0785C268.339 84.3809 266.484 82.5262 262.944 81.0088C255.525 77.974 247.095 67.1836 249.793 64.486C251.31 62.9686 257.549 65.8348 266.99 71.9044C287.391 85.2239 288.402 86.5727 284.525 90.4505ZM315.716 128.723C333.925 163.792 343.872 189.588 340.669 192.791C339.151 194.308 337.465 193.634 335.611 190.431C333.925 187.733 326.843 176.268 319.762 164.803C312.85 153.17 301.722 135.973 295.147 126.362C284.356 110.177 281.996 101.41 288.74 103.096C290.426 103.433 292.955 102.253 294.809 100.398C296.495 98.7119 298.687 97.8689 299.53 98.7119C300.373 99.5549 307.454 113.043 315.716 128.723ZM221.637 38.6901C219.614 40.7133 203.765 36.6669 200.224 33.1263C194.829 27.7311 214.556 30.2601 223.323 36.3297C223.66 36.3297 222.817 37.5099 221.637 38.6901ZM253.839 79.9972C254.851 81.0088 254.851 83.032 253.671 84.2122C252.153 85.7297 249.793 84.3809 246.252 79.8286C242.88 75.445 241.869 72.4102 243.555 70.7242C245.409 68.8696 246.927 69.3754 248.95 73.0846C250.467 75.6136 252.659 78.817 253.839 79.9972ZM217.253 47.4574C215.736 49.9864 203.934 46.9516 200.056 43.0737C196.852 39.8703 202.079 38.3529 208.992 40.5447C217.928 43.0737 218.771 43.9167 217.253 47.4574ZM277.612 114.56C276.769 117.427 275.589 119.618 274.914 119.618C272.217 119.618 259.909 98.2061 261.764 96.3515C264.967 93.1481 266.316 93.8225 273.06 101.915C277.106 106.973 278.792 111.02 277.612 114.56ZM318.413 170.536C333.756 194.983 334.768 200.041 324.989 202.064C317.739 203.919 320.774 205.605 331.564 205.942C341.174 206.11 345.558 203.75 344.041 199.535C343.535 198.018 343.872 198.018 344.884 199.366C345.895 201.052 343.703 204.93 338.477 210.157L330.215 218.418L324.483 212.686C320.437 208.977 318.413 204.256 318.413 199.198C318.413 193.465 317.233 191.274 314.03 190.093C310.658 189.082 304.757 179.472 293.123 156.036C277.949 125.688 276.432 120.124 281.49 114.055C282.333 112.874 290.089 124.339 318.413 170.536ZM373.209 238.819C375.063 247.08 374.726 249.441 371.523 249.609C368.151 249.946 365.622 245.394 357.697 225.331C352.471 211.674 348.087 199.535 347.918 198.355C348.087 197.175 350.447 194.477 353.651 192.285L359.046 188.576L365.116 208.471C368.319 219.43 371.86 233.086 373.209 238.819ZM198.201 36.4983C198.201 45.6028 189.434 49.312 183.027 42.9051C180.498 40.3761 181.173 31.9461 184.039 29.0799C185.388 27.7311 195.335 28.2369 196.852 29.7543C197.695 30.5973 198.37 33.6321 198.201 36.4983ZM349.604 191.274C346.232 193.634 344.546 193.634 344.546 191.274C344.546 187.564 350.953 183.855 353.314 186.216C354.157 187.059 352.471 189.419 349.604 191.274ZM249.624 90.6191C249.624 92.9795 225.852 100.566 223.323 99.0491C220.119 97.5317 229.055 73.759 233.102 72.7474C235.293 72.2416 238.497 74.7706 243.049 80.6716C246.758 85.3925 249.624 89.9447 249.624 90.6191ZM210.678 63.8116C207.306 66.8464 204.102 69.0382 203.428 69.0382C201.067 69.0382 193.818 49.6492 195.504 47.9632C197.527 45.94 212.027 51.6724 214.893 55.5502C216.41 57.742 215.061 60.1024 210.678 63.8116ZM261.426 106.468C261.426 108.154 262.269 108.322 248.276 104.107C235.968 100.229 235.799 99.7235 246.758 96.1829C253.165 94.1597 254.851 94.8341 257.886 99.5549C259.74 102.758 261.426 105.793 261.426 106.468ZM221.468 85.3925C218.771 92.1365 215.904 97.7003 215.399 97.8689C213.038 97.8689 204.271 74.602 206.126 73.0846C207.306 72.2416 210.172 69.7126 212.701 67.5208C216.242 64.3174 217.928 64.3174 221.805 68.1952C225.852 72.2416 225.852 74.602 221.468 85.3925ZM269.688 131.589C266.147 138.164 264.461 139.513 260.415 139.513C256.874 139.682 255.357 140.862 254.177 144.74C252.828 148.786 250.13 150.472 240.183 152.664C233.607 154.181 227.369 154.013 226.863 152.495C223.66 145.583 221.3 109.84 223.829 107.311C230.067 101.072 258.054 108.154 268.676 118.438C273.228 122.99 273.228 124.676 269.688 131.589ZM305.263 189.756C305.263 190.093 304.082 192.622 302.396 195.32C300.205 199.872 299.699 199.704 297.507 194.814C295.99 191.948 289.246 181.832 281.996 172.222C268.17 153.676 266.147 144.908 272.554 134.118L275.757 128.891L290.426 159.071C298.687 175.762 305.431 189.588 305.263 189.756ZM195.166 60.7768C197.021 66.0034 198.876 70.5556 198.876 71.23C199.381 73.0846 172.911 90.1133 171.562 88.7645C170.045 87.2471 178.981 50.998 181.341 48.6376C183.027 46.9516 187.074 47.9632 190.277 50.4922C191.12 50.998 193.143 55.7188 195.166 60.7768ZM363.598 247.08C364.61 248.092 364.273 250.115 362.924 251.464C361.575 252.813 359.552 253.15 358.54 252.138C355 248.598 340.669 216.395 341.849 215.215C342.692 214.372 343.872 212.18 344.884 210.157C346.064 207.628 348.593 211.843 354.157 225.837C358.372 236.458 362.587 246.069 363.598 247.08ZM207.98 91.7993L210.846 98.3747L193.48 97.1945C184.039 96.5201 175.946 95.5085 175.609 94.4969C175.44 93.6539 180.667 89.1017 187.411 84.3809C200.562 74.9392 200.562 74.9392 207.98 91.7993ZM263.45 151.315C262.101 153.338 260.078 153.676 258.56 152.158C255.525 149.123 256.368 144.571 260.246 143.391C264.124 142.548 266.147 147.269 263.45 151.315ZM353.651 251.632C357.866 258.882 356.011 260.737 346.738 258.882C340.331 257.534 339.151 256.353 337.297 250.789C334.936 243.034 334.599 222.465 336.791 220.273C337.465 219.598 340.837 224.994 344.209 232.412C347.413 239.662 351.459 248.429 353.651 251.632ZM376.918 265.795C379.11 270.684 372.028 277.766 367.139 275.574C362.755 273.551 359.72 264.783 362.587 261.917C364.947 259.557 372.197 259.051 374.052 260.906C374.726 261.58 375.906 263.772 376.918 265.795ZM208.486 116.246C204.608 122.147 197.358 135.804 192.3 146.257C186.905 156.71 182.521 165.478 182.184 165.815C181.847 166.152 178.981 153.17 175.777 136.816C169.033 100.735 170.045 99.0491 195.166 101.241C204.945 102.253 213.375 103.601 213.881 104.107C214.556 104.782 212.027 110.345 208.486 116.246ZM287.728 186.721C303.577 208.302 304.925 212.011 306.78 237.807C307.286 242.022 284.019 256.185 277.106 256.016C273.734 256.016 269.856 256.859 268.508 258.208C267.159 259.557 260.752 259.22 254.345 257.534L242.543 254.499L238.665 237.807C236.474 228.871 235.799 219.767 237.148 217.744C238.328 215.552 238.16 212.686 236.979 211.506C235.293 209.82 239.171 200.547 248.781 182.844C256.706 168.512 263.787 156.71 264.798 156.71C265.641 156.879 267.665 158.565 269.182 161.094C270.868 163.454 279.129 175.088 287.728 186.721ZM222.48 153.844C222.648 155.362 221.974 156.71 220.625 156.71C216.579 156.71 212.195 115.572 215.904 111.863C217.085 110.683 221.468 137.996 222.48 153.844ZM325.832 224.151C325.663 227.017 322.797 230.557 318.413 233.592L311.164 238.482L309.983 230.557C306.949 209.651 306.949 207.628 311.501 208.471C317.57 209.82 326.338 219.261 325.832 224.151ZM244.904 182.001C238.834 193.128 233.27 202.401 232.596 202.401C232.09 202.233 230.91 196.669 230.067 190.093C228.549 178.46 228.887 177.448 236.811 170.873C261.764 149.966 262.438 150.641 244.904 182.001ZM388.383 308.619C392.429 331.212 396.307 369.484 397.487 400.675C397.993 409.611 395.801 396.629 392.429 372.013C389.394 347.398 384.673 317.387 382.482 305.416C380.121 293.277 379.278 282.655 380.29 281.306C382.987 278.609 382.987 279.283 388.383 308.619ZM239.003 164.635C233.439 169.187 228.212 172.39 227.706 171.884C227.032 171.21 226.526 168.344 226.358 165.14C226.189 159.914 226.695 159.408 237.822 156.71C244.229 155.362 249.624 154.687 249.624 155.362C249.624 156.036 244.904 160.082 239.003 164.635ZM332.576 244.72C335.105 256.353 334.599 257.196 320.437 259.22C314.873 260.063 314.873 260.063 312.681 251.464C310.658 244.045 311.164 242.191 316.222 238.819C319.425 236.627 323.134 233.929 324.314 232.749C327.686 229.377 329.71 232.412 332.576 244.72ZM213.881 151.652C214.893 154.687 215.736 157.891 215.904 158.396C215.904 158.734 208.992 161.6 200.562 164.972C191.963 168.175 185.388 169.693 185.725 168.344C186.062 166.321 196.009 147.269 208.317 123.833C210.172 120.63 210.846 122.653 211.352 132.601C211.689 139.682 212.87 148.28 213.881 151.652ZM343.366 268.661C339.32 268.998 332.07 271.527 326.843 274.056C317.233 278.946 314.536 277.597 316.39 269.673C317.739 263.603 331.227 259.557 343.703 261.58C354.157 263.603 354.157 267.312 343.366 268.661ZM170.551 99.8921C167.853 102.59 164.65 100.398 165.661 96.3515C166.504 92.8109 171.731 91.6307 172.574 94.8341C172.743 96.3515 171.9 98.5433 170.551 99.8921ZM174.597 150.809C178.644 167.332 178.644 169.355 173.417 174.582C168.19 179.809 167.516 179.809 164.313 174.582C153.354 156.542 151.668 152.495 153.859 150.304C155.208 148.955 155.377 146.763 154.197 145.583C152.511 143.897 158.58 122.316 165.661 105.119C165.999 104.107 167.347 109.84 168.359 117.932C169.202 126.194 172.068 140.862 174.597 150.809ZM223.66 176.943C221.468 177.111 218.771 162.949 220.794 160.925C221.637 160.082 223.154 163.286 223.997 168.175C224.672 172.896 224.672 176.943 223.66 176.943ZM309.646 253.15L310.489 259.725L296.158 260.568C288.065 260.906 283.344 260.568 285.199 259.388C287.222 258.377 292.955 254.667 297.844 250.79C307.792 243.54 308.635 243.708 309.646 253.15ZM214.556 184.698C211.689 186.89 209.16 188.745 208.823 188.745C208.486 188.745 203.934 185.204 198.538 180.82L188.76 173.065L202.248 168.344L215.904 163.792L217.759 172.053C219.276 178.629 218.433 181.495 214.556 184.698ZM228.718 206.953C228.212 207.459 224.334 204.593 219.782 200.715L211.858 193.465L218.939 187.059L225.683 180.652L227.706 193.128C228.718 200.209 229.055 206.279 228.718 206.953ZM305.768 274.225C298.856 280.126 297.507 280.463 290.932 276.585C280.31 270.347 282.67 265.626 297.001 264.446C313.018 263.266 315.379 265.964 305.768 274.225ZM331.901 296.649C332.744 299.515 332.744 301.875 331.901 301.707C329.541 301.707 318.413 282.486 319.931 280.969C323.471 277.428 327.686 282.655 331.901 296.649ZM309.815 283.667C306.106 288.05 304.251 288.893 302.396 287.039C300.373 285.015 301.385 282.655 305.768 278.271C313.355 270.684 316.896 275.237 309.815 283.667ZM336.454 318.398C346.57 337.282 355 360.886 351.628 360.886C349.267 360.886 343.535 352.456 334.43 334.921C326.843 320.59 318.245 304.91 315.379 300.021C311.501 293.445 310.826 290.073 313.018 287.882C316.053 284.847 316.559 285.353 324.314 297.829C328.867 304.742 334.262 314.183 336.454 318.398ZM233.607 213.529C234.619 215.552 234.113 218.418 232.764 219.767C229.392 223.139 225.009 216.058 228.044 211.674C230.573 207.796 231.247 208.134 233.607 213.529ZM196.852 199.704C191.794 203.413 187.579 205.605 187.074 204.762C185.893 202.233 184.882 176.605 185.725 175.762C186.399 175.088 204.608 190.262 205.62 192.285C205.788 192.454 201.742 195.826 196.852 199.704ZM223.491 215.889C224.166 223.308 214.218 246.743 210.509 246.743C209.666 246.574 204.439 238.313 198.876 228.028C189.94 211.337 189.265 208.977 193.143 206.785C195.672 205.267 200.224 201.727 203.259 198.692C208.486 193.465 208.823 193.465 215.904 200.547C220.457 205.436 222.986 210.325 223.491 215.889ZM299.362 294.794C294.304 299.515 285.874 300.864 282.333 297.323C280.31 295.3 281.153 294.12 288.234 289.736C294.472 286.196 297.676 285.69 299.867 287.882C302.059 290.073 301.891 292.265 299.362 294.794ZM329.878 334.415C337.971 349.589 344.041 363.415 343.198 364.932C342.186 366.955 341.174 366.618 339.994 364.089C338.983 361.729 329.878 349.252 319.594 335.933C297.844 308.114 295.147 302.381 301.048 296.48C304.757 292.771 305.6 292.94 309.983 299.684C312.85 303.561 321.785 319.241 329.878 334.415ZM284.862 288.05L277.275 292.265L261.426 276.417C252.828 267.818 246.084 260.4 246.421 260.063C246.758 259.725 251.479 260.4 256.706 261.58C264.124 263.266 266.316 264.783 267.496 268.998C269.013 273.213 270.362 274.225 275.42 273.888C278.961 273.719 284.187 275.911 287.222 278.946C292.617 284.004 292.617 284.004 284.862 288.05ZM235.462 240.673L238.665 254.33L227.032 252.476C220.625 251.464 215.061 250.284 214.724 249.947C214.387 249.609 216.579 245.057 219.614 239.999C222.648 234.941 226.02 229.209 226.863 227.017C229.392 221.453 231.921 225.331 235.462 240.673ZM182.521 190.093L182.184 199.535L177.969 193.634C175.609 190.599 174.26 187.227 174.934 186.553C175.777 185.71 176.958 183.518 177.969 181.495C180.498 175.594 182.859 179.977 182.521 190.093ZM161.109 176.1C165.493 180.483 165.661 179.977 149.982 189.588C138.18 197.006 133.796 198.692 133.964 195.826C133.964 194.477 148.127 156.036 148.801 155.362C149.139 155.024 151.162 158.734 153.354 163.623C155.545 168.175 159.086 173.739 161.109 176.1ZM362.755 385.838C365.959 395.111 370.342 406.576 372.703 411.297C378.098 421.75 376.243 422.593 370.174 412.477C367.813 408.431 361.406 398.315 356.011 389.885C344.378 371.845 343.198 367.967 348.424 365.775C353.988 363.246 356.348 366.618 362.755 385.838ZM153.185 215.383C144.249 229.714 135.819 242.528 134.47 243.877C133.121 245.226 131.941 240.673 131.941 232.918C131.941 223.813 133.29 218.081 136.493 214.878C139.023 212.349 140.54 208.471 139.866 206.11C138.685 202.233 140.034 200.884 152.173 192.791C172.743 178.966 173.08 184.361 153.185 215.383ZM178.812 200.547C183.533 205.605 181.004 211.168 160.772 241.179C144.586 265.458 138.348 273.045 135.482 273.213C132.616 273.045 131.773 270.516 132.447 263.435C133.29 256.185 138.348 246.406 152.848 223.139C163.638 206.279 172.743 192.117 173.08 191.779C173.417 191.442 174.26 192.96 175.272 194.983C176.283 197.006 177.801 199.535 178.812 200.547ZM274.071 293.108C271.88 294.963 254.514 303.561 253.502 303.224C252.491 302.55 242.543 263.94 243.386 263.097C243.723 262.76 250.973 269.336 259.235 277.597C267.665 286.027 274.24 292.94 274.071 293.108ZM283.007 308.788C283.513 327.503 270.025 334.584 261.595 319.747C259.403 315.869 256.031 311.823 254.514 310.98C251.648 309.8 260.246 304.236 274.914 297.323C279.298 295.3 282.501 300.189 283.007 308.788ZM322.966 346.386C340.5 369.99 345.558 377.746 343.872 377.746C343.029 377.577 330.721 368.978 316.559 358.188C302.228 347.566 287.728 337.113 284.188 334.921C278.118 330.875 278.118 330.2 282.67 324.299C293.123 310.137 298.013 313.003 322.966 346.386ZM243.386 280.632C246.421 292.097 248.444 302.55 248.107 303.899C247.938 305.079 243.892 305.079 239.171 303.73C232.09 301.707 226.358 296.986 208.992 279.957C197.021 267.987 187.748 258.039 188.085 257.702C189.771 256.016 204.439 253.15 205.62 254.33C206.294 255.005 213.207 255.848 220.625 255.848C228.212 256.016 235.125 256.859 236.136 257.871C237.148 258.882 240.351 269.167 243.386 280.632ZM198.538 250.958C188.254 253.824 184.545 249.104 183.196 231.569C181.341 209.145 184.376 208.808 196.178 230.726L205.957 248.935L198.538 250.958ZM175.777 258.208C172.743 259.894 163.638 264.952 155.208 269.673L139.866 277.934L155.208 256.185C163.638 244.383 172.405 231.569 174.597 227.691L178.644 220.61L179.824 237.639C180.835 252.476 180.33 255.342 175.777 258.208ZM259.909 326.491C258.56 327.165 255.525 327.165 252.828 326.491C249.119 325.817 248.276 324.299 248.95 319.916C249.287 316.881 250.636 314.183 251.648 313.846C254.682 313.172 262.607 325.142 259.909 326.491ZM246.252 317.218C244.735 320.759 243.218 323.625 242.88 323.625C240.52 323.288 197.864 301.201 198.033 300.358C198.201 299.852 199.719 295.974 201.067 291.928C202.585 287.713 203.934 283.667 204.439 282.486C204.777 281.475 208.149 283.835 212.195 287.882L219.276 294.963L211.184 293.951C200.393 292.602 200.73 295.974 211.521 297.66C216.41 298.503 222.143 301.201 224.503 303.561C226.863 305.922 229.561 307.271 230.573 306.259C231.921 304.91 244.904 307.439 247.601 309.8C248.107 310.305 247.433 313.677 246.252 317.218ZM267.327 335.596C267.833 338.462 241.869 374.205 239.171 374.205C237.991 374.374 244.398 336.607 246.421 331.549C247.095 329.863 263.955 329.863 265.979 331.549C266.484 332.055 266.99 333.91 267.327 335.596ZM282.67 362.74C281.49 368.304 278.286 370.159 261.932 376.397C239.34 384.827 238.16 381.623 255.863 359.874L270.531 342.171L276.938 350.938C280.478 355.828 283.007 361.054 282.67 362.74ZM199.044 283.835L198.201 291.759L186.736 292.097C165.661 292.602 134.808 283.329 143.743 279.114C145.261 278.609 154.871 273.719 165.156 268.493L183.702 259.388L191.794 267.481C198.707 274.394 199.887 276.923 199.044 283.835ZM238.665 352.118C236.136 364.763 233.945 375.722 233.607 376.734C232.764 378.926 175.103 343.183 173.417 339.473C172.574 337.282 176.283 330.2 183.702 320.084C190.108 311.317 195.672 304.067 196.178 304.236C198.538 304.91 239.846 326.322 241.363 327.503C242.375 328.514 241.194 339.473 238.665 352.118ZM350.279 442.825C349.436 443.668 348.087 444.006 347.413 443.331C346.57 442.488 343.872 440.802 341.343 439.285C338.477 437.767 337.128 435.744 338.14 434.733C339.657 433.215 341.849 434.058 350.616 440.128C351.29 440.802 351.29 441.814 350.279 442.825ZM128.569 245.394C128.401 268.155 127.895 270.01 121.825 274.056L115.081 278.44L110.529 265.795C106.314 254.162 106.314 251.801 111.709 239.999C125.534 209.651 128.738 210.494 128.569 245.394ZM335.948 433.552C334.599 434.901 329.878 433.89 324.652 430.686C314.873 424.954 255.863 391.571 248.95 387.693C244.904 385.333 245.072 385.164 254.008 383.309C263.281 381.118 263.618 381.455 299.53 404.89C319.425 418.041 336.116 429.337 337.128 430.012C337.971 430.518 337.297 432.204 335.948 433.552ZM354.662 456.988C356.348 460.697 354.831 460.866 345.558 456.651C336.454 452.604 334.768 450.918 334.262 446.703C333.925 442.32 334.262 441.982 338.983 442.657C344.546 443.5 351.459 449.738 354.662 456.988ZM331.227 444.343C330.384 447.546 329.372 450.244 328.698 450.244C324.314 450.244 267.159 428.157 255.694 422.088C230.404 408.6 230.235 408.431 232.596 398.652C234.619 390.222 235.125 389.716 240.689 389.885C243.723 389.885 259.235 397.64 275.083 406.745C290.932 415.849 309.983 426.471 317.233 430.349C324.652 434.058 331.058 437.43 331.564 437.936C332.239 438.273 332.07 441.139 331.227 444.343ZM179.824 319.241C174.091 327.334 168.19 333.91 166.842 333.91C162.458 333.572 141.383 314.183 144.081 312.834C145.429 312.16 153.522 308.114 162.121 304.236C173.248 298.841 179.318 297.155 184.207 298.672C187.748 299.852 190.614 301.707 190.614 302.718C190.446 303.899 185.725 311.317 179.824 319.241ZM159.423 301.538C152.005 304.91 144.081 308.451 142.057 309.462C139.528 310.643 137.337 309.8 135.819 306.933C134.133 303.899 134.807 300.864 139.023 295.974C144.249 289.736 145.429 289.568 158.412 292.434C166.167 294.12 172.574 295.469 172.574 295.469C172.743 295.637 166.842 298.503 159.423 301.538ZM132.11 289.399C125.534 294.288 119.465 289.23 125.029 283.667C128.401 280.295 130.255 280.126 132.953 282.824C135.482 285.353 135.482 287.039 132.11 289.399ZM229.392 397.809C227.032 414.669 229.224 429.675 234.956 435.407L238.834 439.285L229.224 441.139C223.997 442.32 216.242 444.343 212.195 446.029C207.98 447.883 204.439 448.389 203.934 447.546C203.428 446.366 202.753 437.262 202.585 426.977C202.079 409.611 202.416 408.6 207.811 408.262C218.939 407.588 220.794 393.594 210.34 390.559C207.474 389.716 194.829 380.443 182.016 369.99L158.58 350.938L163.975 347.566C167.01 345.88 169.539 344.363 169.876 344.363C171.225 344.363 229.392 379.937 230.404 381.623C231.078 382.298 230.573 389.548 229.392 397.809ZM114.407 289.23C115.587 295.469 116.093 304.404 115.418 309.125L114.575 317.724L109.18 308.957C102.099 297.829 98.8956 284.847 100.582 272.708C101.256 267.312 102.436 262.423 102.942 261.917C104.797 260.063 112.046 277.766 114.407 289.23ZM284.356 465.249C264.124 471.319 239.846 473.679 218.771 471.487C206.968 470.476 205.451 469.633 202.248 463.057C200.393 459.18 199.213 455.639 199.719 455.133C201.236 453.616 231.416 443.668 236.136 442.994C241.026 442.488 299.362 456.313 301.722 458.337C302.396 459.011 294.472 462.214 284.356 465.249ZM134.976 313.172C134.976 313.509 131.435 315.026 126.883 316.881L118.453 320.253V311.486C118.622 303.899 119.296 302.55 123.174 302.044C127.22 301.707 133.965 308.114 134.976 313.172ZM157.4 347.398C153.691 347.398 120.982 324.805 122.331 323.456C122.837 322.951 126.546 320.927 130.761 319.073C138.011 315.532 138.685 315.869 148.97 325.142C157.231 332.729 159.929 336.439 160.266 341.159C160.435 345.037 159.423 347.398 157.4 347.398ZM211.183 402.53C208.486 406.576 201.236 404.047 201.236 399.327C201.236 394.606 208.992 391.908 211.521 395.786C212.701 397.641 212.532 400.507 211.183 402.53ZM200.393 392.414C198.538 393.257 197.021 395.786 197.021 398.146C197.19 401.35 194.323 403.879 182.184 410.96L167.01 419.727L136.999 410.96C120.476 406.239 106.988 401.518 106.82 400.675C106.82 399.664 112.046 395.449 118.285 391.571C128.063 385.164 130.93 384.321 137.842 386.513C153.859 391.74 193.986 400.507 193.986 398.821C194.155 397.978 180.667 393.931 164.313 389.716C147.958 385.501 134.976 381.623 135.482 381.118C135.819 380.78 144.081 377.914 153.522 374.542C172.574 368.304 175.103 368.81 189.771 383.478C195.335 389.042 199.044 391.402 199.381 389.716C199.887 388.199 200.899 387.862 201.91 388.873C203.091 390.053 202.416 391.739 200.393 392.414ZM146.104 373.531C134.976 377.24 125.197 379.6 124.354 378.757C123.343 377.746 116.261 377.071 108.843 377.071H95.0178V368.978L94.8492 360.717L115.25 359.874C132.784 358.862 161.109 362.234 164.987 365.775C165.661 366.112 157.063 369.653 146.104 373.531ZM195.335 422.762C192.3 423.099 175.946 420.233 175.946 419.221C176.115 418.378 188.591 410.623 196.009 406.914C198.033 405.902 198.707 407.925 198.033 413.995C197.358 418.716 196.178 422.593 195.335 422.762ZM199.381 441.308C199.213 451.255 198.37 452.773 193.143 455.302C187.074 457.999 181.51 456.482 184.882 453.11C185.725 452.267 185.388 449.232 184.039 446.535C182.353 443.163 179.824 441.982 175.44 442.32C172.068 442.657 166.842 441.814 163.807 440.128C150.656 432.709 150.825 433.552 160.266 427.82C166.842 423.942 172.237 423.268 182.521 424.785C189.771 425.965 196.852 427.651 197.864 428.663C198.707 429.506 199.55 435.407 199.381 441.308ZM115.418 389.042C103.616 397.809 96.3666 396.629 94.0062 385.501C93.3318 382.129 95.6922 381.455 108.337 381.286C116.599 381.118 123.68 381.455 124.017 381.792C124.354 382.129 120.476 385.333 115.418 389.042ZM159.929 424.111C154.028 430.012 145.935 430.686 137.336 425.797C132.278 422.762 124.017 418.21 118.959 415.512C103.448 407.419 108.674 406.576 130.93 413.32C142.9 416.861 153.859 419.727 155.714 419.896C159.76 419.896 161.952 422.088 159.929 424.111ZM200.056 468.621C200.224 471.15 197.358 479.075 193.986 486.156C187.579 498.632 187.074 499.138 180.835 499.307C177.295 499.475 173.923 499.138 173.248 498.464C172.237 497.452 190.277 467.947 194.829 463.395C197.358 460.866 199.381 462.889 200.056 468.621ZM189.097 465.755C186.736 468.115 181.341 475.871 177.295 482.952C173.08 489.865 169.033 495.597 168.359 495.597C167.685 495.597 166.336 490.202 165.324 483.795L163.638 471.656L176.958 465.081C191.12 457.999 196.515 458.337 189.097 465.755ZM90.297 369.99C89.2854 371.002 87.2622 370.664 85.4076 369.484C82.8786 367.967 83.0472 366.787 85.7448 365.438C89.7912 363.752 92.826 366.787 90.297 369.99ZM173.754 459.18L179.992 461.371L172.068 463.9C165.83 466.092 163.638 465.586 161.615 461.877C160.266 459.18 156.388 452.604 153.016 447.209C149.476 441.645 147.284 436.756 147.958 436.081C148.464 435.576 153.016 437.43 157.906 440.634C164.65 445.017 166.673 447.378 167.179 451.593C167.516 455.639 168.865 457.325 173.754 459.18ZM91.3086 378.083C90.8028 378.589 86.082 379.6 81.024 380.275C69.0533 382.129 51.0131 388.03 47.6411 391.402C46.2923 392.751 44.4377 393.257 43.5947 392.414C42.7517 391.571 43.5947 389.716 45.6179 388.367C47.4725 387.187 55.0595 381.961 62.6465 376.734C75.4601 367.63 75.9659 367.461 80.6868 372.182C83.3844 374.879 86.4192 376.228 87.2622 375.385C88.2738 374.374 89.7912 374.542 90.6342 375.385C91.6458 376.397 91.8144 377.577 91.3086 378.083ZM85.9134 397.978C81.1926 404.385 79.1693 405.059 65.1755 404.89C51.0131 404.553 49.4957 404.047 48.6527 399.158C47.9783 393.763 48.3155 393.426 61.4663 389.379C84.0588 382.298 91.4772 381.623 91.14 386.681C91.14 389.042 88.7796 394.1 85.9134 397.978ZM139.191 434.733C138.854 435.07 129.918 439.285 119.296 444.511C95.0178 456.313 89.9598 454.965 89.7912 436.587L89.6226 423.942L97.3782 422.931C108.337 421.75 142.732 431.529 139.191 434.733ZM154.197 456.145C156.894 461.203 158.749 465.755 158.243 466.261C156.388 468.115 131.098 470.139 129.918 468.621C129.412 467.778 131.604 462.552 134.807 457.325C138.179 451.93 141.551 445.523 142.732 442.994C144.081 439.285 144.924 439.453 146.778 442.657C147.958 444.849 151.33 450.918 154.197 456.145ZM222.143 540.951C214.555 545.166 202.248 552.753 194.829 557.811C179.824 568.096 174.091 569.107 171.731 561.352C170.551 557.136 171.394 555.619 177.801 551.235C192.132 541.625 236.136 527.294 236.136 532.352C236.136 532.689 229.898 536.567 222.143 540.951ZM230.91 556.462C212.364 567.59 164.65 601.816 153.691 612.1C150.825 614.629 153.522 609.571 159.76 600.298C170.214 585.124 171.562 583.775 176.958 583.775C184.545 583.27 188.422 579.055 187.411 572.648C186.399 567.59 187.579 566.747 211.858 551.573C238.16 535.387 237.822 535.387 248.276 543.48C249.287 544.491 242.543 549.549 230.91 556.462ZM116.767 421.75C107.326 419.727 104.965 418.378 107.494 415.849C109.349 413.995 118.116 417.03 122.5 421.076C124.017 422.256 121.488 422.762 116.767 421.75ZM133.627 452.098C124.523 467.61 118.116 471.319 107.157 467.441C101.087 465.418 98.5584 463.563 99.0642 461.371C99.7386 458.674 140.203 437.43 140.034 439.959C140.203 440.465 136.999 446.029 133.627 452.098ZM100.582 410.286C98.3898 415.512 90.8028 413.995 91.3086 408.431C91.8144 405.902 93.1632 403.542 94.8492 403.204C98.8956 402.193 102.268 406.576 100.582 410.286ZM147.453 481.772C140.371 487.505 134.302 492.225 133.796 492.057C132.278 492.225 124.354 476.546 125.534 475.365C126.377 474.522 158.58 470.307 159.423 471.15C159.592 471.319 154.365 476.208 147.453 481.772ZM163.132 494.08C163.47 501.161 161.952 506.388 157.4 512.289C151.33 520.382 151.33 520.382 147.79 514.818C137.168 497.115 136.999 499.307 148.97 486.324C161.278 473.005 161.952 473.342 163.132 494.08ZM181.173 513.806C178.306 519.033 175.103 524.934 173.923 526.788C170.382 533.364 167.347 526.957 168.528 515.998C169.876 503.522 170.382 503.016 178.138 502.679C186.399 502.173 186.736 503.522 181.173 513.806ZM84.396 417.704C84.396 418.041 76.4717 421.919 66.8615 426.134C57.4199 430.18 47.4725 435.744 44.7749 438.105C38.1994 444.68 36.3448 441.477 39.211 427.82C42.0772 412.815 47.6411 408.6 65.5127 408.262C76.1345 408.094 80.0123 409.274 82.0356 412.646C83.2158 415.175 84.396 417.367 84.396 417.704ZM63.4895 449.064C50.8445 448.558 39.7168 447.883 38.7052 447.546C36.1762 446.366 54.0479 435.913 72.0881 427.989L86.4192 421.75V435.576L86.5878 449.569L63.4895 449.064ZM161.278 528.643C156.051 530.835 153.016 522.068 157.231 517.853C159.423 515.661 162.121 511.952 163.301 509.76C164.481 507.568 165.156 510.266 164.65 516.504C164.481 522.405 162.795 527.8 161.278 528.643ZM125.872 486.83C128.738 491.72 126.715 498.464 120.308 504.533C118.453 506.388 106.651 517.178 94.1748 528.306C74.6171 546.177 71.2451 548.538 69.2219 545.503C65.5127 540.108 83.7215 511.109 103.279 491.214C117.61 476.546 119.802 475.028 121.319 478.232C122.331 480.255 124.186 484.133 125.872 486.83ZM90.6342 462.046C85.5762 462.046 85.239 461.709 86.925 457.999C89.1168 453.11 96.3666 453.953 96.3666 458.674C96.3666 461.034 94.3434 462.046 90.6342 462.046ZM97.884 491.551C88.611 501.161 79.5065 511.952 77.9891 515.829C76.3031 519.539 74.6171 522.573 73.9427 522.573C73.2683 522.573 85.0704 484.133 90.9714 466.767C91.3086 465.755 111.203 471.15 114.07 473.342C114.744 473.679 107.326 481.772 97.884 491.551ZM145.092 533.364L141.046 543.817L116.767 545.503C103.279 546.515 88.7796 547.863 84.2273 548.706L76.3031 549.887L102.436 526.451C117.104 513.469 130.424 502.847 132.278 502.679C134.976 502.341 137.505 504.87 142.395 512.795C148.296 522.068 148.633 524.091 145.092 533.364ZM59.1059 462.214C38.1994 462.214 36.0076 461.709 36.0076 456.988C36.0076 452.267 38.368 451.93 60.4547 452.436C81.1926 453.279 84.5646 453.953 83.553 457.662C82.3727 461.203 77.4833 462.046 59.1059 462.214ZM170.719 543.48C170.214 544.997 168.528 546.346 167.179 546.346C163.132 546.346 161.615 539.096 165.324 538.085C169.202 537.242 171.562 539.602 170.719 543.48ZM153.522 537.747C151.499 543.143 148.801 544.829 146.104 542.131C145.092 541.12 150.15 528.306 152.342 526.114C154.365 524.091 155.377 532.858 153.522 537.747ZM35.6704 425.965C34.996 431.023 33.6472 438.105 33.1414 441.308C32.467 446.366 30.1066 449.064 22.5196 454.29L12.7408 461.034L20.1592 439.116C26.9032 419.559 32.2984 411.466 36.1762 415.344C36.8506 416.018 36.682 420.907 35.6704 425.965ZM78.6635 492.225C73.9427 506.388 69.0533 522.742 67.7045 528.474C66.3557 534.207 64.8383 538.422 64.1639 537.747C63.4895 537.073 57.9257 527.463 51.6875 516.167C43.2574 501.33 40.5598 494.249 41.74 489.359C42.4144 485.65 41.4028 481.266 39.211 479.075C37.1878 477.051 35.6704 473.173 36.0076 470.476C36.1762 466.261 39.8854 465.586 61.4663 465.586C75.1229 465.418 86.5878 465.755 86.7564 465.924C87.0936 466.261 83.3843 478.063 78.6635 492.225ZM179.992 577.706C178.306 579.392 175.777 580.235 174.429 579.56C171.562 578.043 173.923 570.962 177.801 570.119C181.847 569.107 183.364 574.334 179.992 577.706ZM154.702 572.985C148.801 580.909 142.9 587.147 142.057 586.979C141.046 586.642 141.551 579.392 142.732 570.793C145.092 556.968 144.755 550.561 142.057 553.259C141.72 553.596 140.371 561.014 139.191 569.613C138.011 578.212 135.65 585.967 133.964 586.642C132.278 587.316 131.098 591.531 131.098 595.577C131.267 606.199 124.86 625.42 121.994 622.891C115.25 617.495 109.517 595.915 113.564 591.868C114.744 590.688 115.25 587.822 114.575 585.461C113.564 582.089 116.599 577.706 130.592 563.375L147.958 545.672L155.714 551.404C159.929 554.608 164.144 557.474 164.818 557.811C165.324 558.317 160.941 565.061 154.702 572.985ZM169.202 577.369C167.347 582.258 165.324 583.944 159.255 585.63C148.97 588.159 147.115 590.688 156.051 589.508L163.301 588.665L156.388 599.287C148.296 611.763 130.087 630.646 128.063 628.623C127.22 627.78 128.569 621.71 131.098 614.798C134.976 604.513 136.325 602.49 140.371 602.153C144.586 601.647 145.767 600.467 147.284 594.566C148.801 588.665 161.615 567.421 166.842 562.195C169.708 559.328 171.562 571.299 169.202 577.369ZM123.68 564.892L107.831 580.741L92.9946 568.264C84.9017 561.52 78.3263 555.282 78.1577 554.439C78.3263 552.922 137.336 546.852 138.685 548.201C139.191 548.706 132.447 556.125 123.68 564.892ZM27.0718 460.528C19.4848 461.034 19.4848 460.023 26.566 455.302C30.9496 452.267 32.1298 452.436 32.467 455.808C32.8042 459.517 31.9612 460.36 27.0718 460.528ZM32.467 470.982C32.1298 473.679 31.1182 478.4 30.1066 481.435C29.095 484.47 30.1066 488.516 32.467 490.877C34.6588 493.406 40.2226 502.341 44.6062 510.771C49.1585 519.37 55.0595 529.992 57.9257 534.544C65.8499 547.526 43.5947 520.887 32.1298 504.027C22.0138 488.853 14.9326 466.598 19.822 465.418C30.4438 462.214 33.1414 463.563 32.467 470.982ZM17.293 482.784C18.979 491.214 23.3626 507.062 27.0718 518.19C30.781 529.317 33.8158 539.096 33.8158 539.771C33.8158 540.445 31.1182 541.119 27.7462 541.457C21.6766 541.794 21.3394 541.457 17.293 526.957C13.7524 513.975 10.3804 464.069 13.2466 466.598C13.921 467.272 15.7756 474.522 17.293 482.784ZM48.1469 530.835C63.6581 548.369 65.1755 552.584 59.4431 558.317C54.0479 563.712 47.4725 562.532 42.7516 555.113C36.682 545.672 38.7052 543.648 50.3387 547.526C56.0711 549.212 60.7919 549.887 60.9605 548.706C60.7919 547.526 55.7339 545.166 49.4957 543.311L38.0308 539.939L31.624 520.719C24.5428 500.15 24.037 496.272 30.2752 507.568C32.2984 511.277 40.5598 521.899 48.1469 530.835ZM105.977 593.048C107.326 594.397 109.18 599.287 109.855 604.007L111.541 612.437L103.279 602.153C88.4424 583.607 72.4253 558.485 75.1229 558.485C79.8437 558.485 102.436 580.741 103.111 585.799C103.279 588.328 104.628 591.7 105.977 593.048ZM81.8669 579.055C89.454 590.351 99.4014 603.333 103.616 607.885C122.5 627.443 115.756 625.42 92.826 604.513C52.1933 567.59 52.6991 568.433 58.2629 562.869C62.1407 558.991 66.5243 556.968 67.7045 558.148C67.8731 558.317 74.1113 567.59 81.8669 579.055ZM124.523 631.489C122.5 633.513 116.936 632.332 116.936 629.972C116.936 627.612 122.5 626.431 124.523 628.455C125.366 629.298 125.366 630.646 124.523 631.489ZM38.1994 553.933C40.2226 558.654 40.897 563.375 39.7168 564.555C38.7052 565.567 37.525 569.107 37.525 572.479C37.0192 580.403 34.3216 577.031 28.252 560.846C23.3626 548.538 23.3626 547.189 28.252 545.672C34.4902 543.817 33.8158 543.143 38.1994 553.933ZM112.552 632.332C110.36 637.222 94.0062 636.042 82.5413 629.972C71.9195 624.071 54.0479 606.199 44.9434 592.374C41.0656 586.473 38.0308 581.078 37.8622 580.572C37.8622 579.56 47.3038 576.863 54.5537 575.683C55.0595 575.514 67.7045 586.473 82.5413 599.961C97.3782 613.449 110.698 625.42 111.878 626.6C113.227 627.612 113.564 630.309 112.552 632.332Z" fill="#F0870C"/>
<path d="M222.143 193.297C222.648 197.512 223.829 201.727 224.672 202.57C225.683 203.581 226.02 200.884 225.515 196.669C225.009 192.454 223.997 188.407 222.986 187.396C222.143 186.553 221.637 189.082 222.143 193.297Z" fill="#F0870C"/>
<path d="M479.258 234.604C474.875 235.615 475.043 239.83 479.764 253.656C484.991 268.324 483.81 277.597 470.828 318.904C466.445 333.067 460.881 354.816 458.689 367.461C456.497 380.106 453.294 397.135 451.608 405.228C450.09 413.489 449.753 419.559 451.102 418.884C452.282 418.378 454.811 410.454 456.329 401.518C466.276 349.421 468.974 337.282 477.404 310.98C486.677 281.138 490.049 255.51 485.834 242.865C483.305 234.267 482.799 233.761 479.258 234.604Z" fill="#F0870C"/>
<path d="M637.911 396.292C623.412 392.582 600.988 395.786 569.797 405.733C541.303 414.669 530.176 417.367 484.148 425.965C473.357 427.989 463.916 430.349 463.073 431.192C459.869 434.395 464.59 435.407 471.165 432.878C474.875 431.529 490.217 428.326 505.391 425.965C520.397 423.436 548.384 416.692 567.436 410.791C610.092 397.809 614.644 397.303 630.661 402.867C637.911 405.396 644.655 406.408 646.004 405.059C649.713 401.35 647.016 398.315 637.911 396.292Z" fill="#F0870C"/>
<path d="M830.959 587.653C821.686 580.403 812.076 573.828 810.221 572.985C808.366 572.142 802.128 568.601 796.396 565.229C765.036 545.672 684.276 514.143 644.824 506.388C636.562 504.533 628.133 501.498 625.941 499.307C623.749 497.115 618.691 495.766 614.139 496.272C609.755 496.946 600.313 495.935 593.232 494.249C571.989 489.528 534.728 484.976 499.322 482.615C453.125 479.58 440.817 480.086 439.637 484.638C438.963 487.673 445.538 489.865 470.828 494.923C584.634 517.01 597.784 520.044 602.168 524.091C604.866 526.451 608.238 529.149 609.924 530.16C611.778 531.341 611.778 536.399 609.924 543.311L606.72 554.608L591.883 548.875C583.622 545.672 576.372 543.817 575.361 544.829C574.349 545.84 568.111 543.986 561.704 540.951C555.128 537.747 532.367 528.812 511.292 521.225C490.217 513.638 464.927 503.522 455.148 499.138C441.492 492.9 436.265 491.72 433.905 494.08C431.713 496.272 431.882 497.452 435.085 498.969C442.841 502.004 473.526 519.539 486.002 527.631C496.961 535.219 500.839 539.433 522.251 569.276C544.675 600.13 549.396 608.56 544.675 608.56C539.954 608.56 528.152 597.769 526.466 591.7C524.78 586.642 523.263 585.124 519.217 584.113C512.978 582.595 468.131 534.713 467.456 528.643C467.119 525.945 465.939 524.765 463.241 524.765C460.881 524.765 454.137 519.707 447.899 513.469C435.254 500.824 430.195 497.789 426.992 500.993C424.969 503.016 435.591 524.091 444.021 534.544C446.044 537.242 448.573 540.445 449.753 541.625C450.596 542.805 450.596 544.829 449.585 545.84C448.236 547.189 446.213 545.503 443.346 541.288C436.602 530.835 417.045 510.94 415.864 513.132C415.359 514.312 422.44 536.904 431.882 563.543C447.73 608.391 456.329 629.129 466.613 645.146L470.491 651.384L463.241 650.541C459.363 650.035 453.462 647.169 450.259 643.966C444.358 638.065 443.009 634.018 421.934 551.91C416.707 531.509 411.818 514.818 410.806 514.818C409.963 514.649 409.626 517.01 410.469 519.876C411.144 522.573 414.178 534.375 417.045 546.009C421.766 564.892 421.934 569.782 418.056 586.473C415.359 596.926 413.167 605.862 412.661 606.368C412.155 606.874 411.481 598.106 411.481 586.642C410.975 562.532 405.074 516.167 402.714 518.527C401.702 519.539 402.545 530.835 404.231 543.986C408.615 576.694 410.132 678.36 406.254 680.889C404.568 681.901 399.004 684.43 394.115 686.284L384.842 689.825L390.237 645.652C396.644 592.374 399.51 521.393 395.464 521.393C393.441 521.393 391.586 526.62 390.743 534.544C388.383 555.113 380.29 589.171 370.005 620.025C359.721 650.541 358.035 653.913 354.494 648.687C353.145 646.663 355.843 636.547 362.081 621.542C367.476 608.391 373.883 591.868 376.075 584.956C380.796 570.119 388.045 524.428 386.022 522.405C385.179 521.562 381.301 524.091 376.918 527.8C370.68 533.701 368.656 537.747 365.79 551.404C357.023 594.566 328.529 647.338 277.612 716.127C246.758 757.434 244.566 761.649 244.398 778.003C243.892 800.427 256.874 819.479 285.705 838.868L299.193 847.972L289.246 857.92C283.85 863.315 277.106 868.373 274.24 868.879C267.665 870.396 264.967 876.803 269.351 881.187C273.734 885.57 280.141 882.873 281.659 876.297C282.164 873.431 287.56 866.35 293.461 860.449L304.251 849.658L313.524 854.885C318.582 857.583 333.925 863.146 347.413 867.193C382.482 877.646 415.527 877.309 445.707 866.687C457.846 862.303 471.84 857.414 476.729 855.897C484.316 853.368 487.52 850.501 499.49 836.508C515.507 817.456 523.432 801.439 526.298 781.712C529.164 762.323 528.49 748.498 523.937 729.446C520.397 714.441 520.565 713.598 524.949 720.005C555.634 764.515 561.535 771.428 578.227 780.364C597.279 790.648 624.423 787.108 655.109 770.248C662.696 766.033 669.44 764.009 672.643 764.852C676.521 766.032 679.218 765.021 682.928 760.637C688.154 754.399 730.473 735.347 733.171 738.045C734.014 738.888 735.7 738.551 736.88 737.37C741.095 733.155 779.367 721.185 783.076 722.871C785.268 723.714 788.303 723.039 790.158 721.185C794.541 716.801 838.209 705.842 844.278 707.528C847.987 708.54 852.203 706.348 862.993 697.244C875.469 687.128 877.83 684.093 881.033 674.82C889.126 650.878 870.074 617.664 830.959 587.653ZM854.563 629.129C846.976 635.704 845.627 636.042 840.063 632.838C836.86 630.984 831.465 629.298 828.598 629.129C823.54 628.792 818.482 622.722 801.791 595.915C798.419 590.519 801.285 586.304 808.704 586.304C811.401 586.304 814.436 585.63 815.448 584.618C816.291 583.775 820.506 585.293 824.552 588.328C828.598 591.025 832.982 594.06 834.162 594.566C835.511 595.24 842.424 601.478 849.673 608.728L862.993 621.711L854.563 629.129ZM876.312 648.855C881.37 664.029 879.01 676.168 869.568 685.61C862.318 692.86 860.97 693.534 859.452 689.994C858.441 687.633 857.935 683.418 858.441 680.552C858.778 677.854 857.092 671.448 854.563 666.558C851.697 661.669 849.505 653.407 849.336 647.844C848.999 639.076 849.842 637.559 856.923 632.501C864.847 626.937 865.185 626.937 869.062 633.175C871.591 636.716 874.626 643.797 876.312 648.855ZM805.163 579.392C801.622 587.316 797.239 589.676 793.024 585.461C787.123 579.56 754.583 562.195 727.607 550.393C711.253 543.48 703.665 538.928 703.665 536.567C703.665 529.823 699.282 528.812 694.224 533.87C690.852 537.242 687.817 538.253 685.288 537.073C683.096 535.893 670.283 530.835 657.132 525.777C636.394 517.853 632.853 515.661 632.685 511.783C632.853 507.905 635.888 507.905 653.76 512.626C665.225 515.661 680.23 520.213 686.974 522.573C693.887 525.102 700.125 526.957 701.136 526.957C707.543 526.283 797.407 566.915 804.826 573.659C806.006 574.84 806.175 577.369 805.163 579.392ZM792.181 593.723C787.123 597.095 782.739 593.723 786.786 589.676C788.809 587.653 791.338 587.147 793.024 588.833C794.541 590.351 794.204 592.374 792.181 593.723ZM845.964 648.518C845.964 655.262 839.389 663.861 833.488 665.041C819.157 667.907 808.704 648.687 818.82 638.571C824.046 633.344 827.587 632.501 834.668 634.524C842.592 636.716 845.964 641.1 845.964 648.518ZM781.559 591.194C779.873 595.24 777.512 598.612 775.995 598.444C771.106 598.275 696.247 549.718 694.561 545.672C692.875 541.962 693.381 541.794 697.933 542.637C707.712 544.323 770.937 574.165 783.414 582.932C784.088 583.27 783.076 586.979 781.559 591.194ZM813.762 621.036C817.471 626.769 819.663 632.67 818.82 634.524C817.471 637.222 815.448 635.536 807.018 625.42C800.948 618.001 796.227 613.955 795.384 614.798C794.372 615.81 790.157 612.943 785.774 608.56L778.018 600.804L785.437 600.467C789.652 600.298 794.035 599.287 795.216 598.106C797.239 596.083 799.936 599.118 813.762 621.036ZM855.406 678.192C855.743 678.529 854.9 680.046 853.551 681.395C850.348 684.599 850.011 684.261 846.301 673.471C842.086 661.163 846.47 657.117 851.191 668.919C853.214 673.639 855.069 677.854 855.406 678.192ZM812.413 640.594C811.57 642.111 808.198 640.762 803.477 637.053C798.588 632.838 796.733 630.309 798.25 628.792C801.96 625.083 814.773 635.873 812.413 640.594ZM789.483 620.362C789.146 623.734 786.786 623.059 776.838 617.496C770.094 613.786 764.362 610.077 764.362 609.403C764.53 608.56 766.553 606.874 769.082 605.693C771.949 604.176 775.489 605.019 779.536 608.054C782.908 610.752 786.617 613.449 787.628 614.461C788.809 615.304 789.82 618.001 789.483 620.362ZM845.121 681.395C844.278 685.61 839.726 682.744 836.354 675.663C834.331 671.279 834.162 668.076 836.017 667.233C838.377 666.221 839.895 667.401 842.424 672.628C844.278 676.168 845.29 680.215 845.121 681.395ZM765.036 604.345C759.978 606.705 756.606 606.368 751.885 602.996C748.176 600.635 734.014 593.217 720.357 586.979C704.508 579.56 694.224 573.322 691.863 569.95C689.672 566.41 686.637 564.724 683.602 565.061C680.399 565.229 676.015 562.869 671.126 557.98L663.707 550.561L671.294 545.335C680.399 538.928 682.59 538.422 683.265 541.794C683.602 543.143 682.759 544.66 681.242 544.829C678.038 545.672 677.195 552.922 679.387 560.171C681.073 565.567 681.073 565.567 681.579 558.654C681.916 551.91 682.085 551.741 687.648 552.584C690.683 552.922 696.753 555.282 700.968 557.474C707.375 560.846 765.542 596.758 770.263 600.13C770.937 600.804 768.577 602.49 765.036 604.345ZM856.417 693.703C857.766 703.819 842.086 708.371 837.703 698.93C835.68 694.209 839.726 687.465 845.964 685.61C851.865 683.755 855.069 686.285 856.417 693.703ZM811.401 650.71C810.727 654.082 786.448 663.523 784.931 660.657C783.919 658.634 789.82 637.559 792.349 634.693C794.71 631.995 812.413 646.663 811.401 650.71ZM787.291 637.728C785.437 641.943 783.582 645.483 783.076 645.652C782.739 645.652 780.716 639.919 778.693 632.838C775.321 620.699 775.489 620.193 780.379 623.059C789.652 628.286 790.495 629.803 787.291 637.728ZM835.342 682.07C836.523 684.936 837.197 687.633 836.691 688.139C835.511 689.319 815.11 682.407 815.11 680.721C814.942 679.878 816.628 676.168 818.82 672.628C823.878 663.186 827.587 665.209 835.342 682.07ZM814.267 672.796L810.39 680.046L797.745 674.482C790.832 671.279 784.931 668.413 784.425 667.907C784.088 667.57 790.158 664.872 797.913 661.837C810.052 657.117 812.75 657.117 815.11 660.826C817.302 663.692 816.965 667.738 814.267 672.796ZM773.803 628.623C778.861 641.437 780.547 656.611 776.838 660.32C774.14 663.018 766.553 662.512 729.967 657.96C725.246 657.285 732.833 633.175 739.072 629.635C741.432 628.286 743.792 624.914 743.961 622.385C744.298 619.013 746.153 617.158 752.391 613.955C759.135 610.583 760.99 610.751 765.205 614.966C767.902 617.664 771.78 623.902 773.803 628.623ZM749.525 611.426C741.432 616.147 728.618 615.472 722.886 609.74C720.357 607.211 710.915 600.13 702.317 594.229C693.718 588.328 686.468 583.438 686.3 583.27C686.3 583.27 687.986 581.921 690.346 580.572C693.381 578.886 699.619 580.741 712.77 587.485C722.886 592.205 736.374 598.949 742.444 601.984C748.85 605.019 754.077 607.548 754.414 607.885C754.751 607.885 752.391 609.571 749.525 611.426ZM675.003 539.602C670.62 543.986 662.527 542.3 647.184 534.038C630.999 525.271 627.795 522.742 629.818 520.719C630.999 519.539 672.474 533.364 676.015 536.23C676.858 536.736 676.352 538.253 675.003 539.602ZM835.005 699.267C834.837 702.133 829.441 704.493 815.448 708.371C804.826 711.237 795.721 712.586 795.216 711.406C794.541 710.057 797.913 703.65 802.803 696.738L811.233 684.261L821.18 688.139C833.488 692.691 835.68 694.209 835.005 699.267ZM799.599 694.883C795.384 701.121 791.338 706.517 790.158 707.022C789.146 707.36 787.628 699.773 786.617 689.994C785.437 675.326 785.774 672.291 789.146 673.977C791.338 675.157 795.216 677.011 797.913 678.023C806.849 681.564 807.018 683.755 799.599 694.883ZM740.926 623.059C740.926 626.769 734.351 627.949 731.147 624.745C728.113 621.711 730.136 616.99 734.688 617.158C737.554 616.99 740.926 620.362 740.926 623.059ZM621.051 518.696C618.185 522.236 615.993 523.079 612.453 521.225C604.191 517.01 606.214 505.882 614.982 505.882C622.063 505.882 625.603 513.132 621.051 518.696ZM656.457 548.032C655.109 549.381 647.69 549.044 640.103 547.189C627.458 544.66 625.941 543.48 624.086 537.916C623.074 534.544 621.557 531.678 620.545 531.678C619.534 531.678 620.208 535.724 621.557 540.782C625.435 553.09 616.499 570.793 608.406 567.421C605.203 565.904 607.057 556.968 611.272 552.753C611.947 552.079 613.464 546.852 614.644 540.951C616.499 531.003 617.005 530.16 622.906 529.317C626.784 528.474 634.202 530.835 641.789 535.05C657.806 543.986 659.324 545.166 656.457 548.032ZM726.764 619.35C721.874 624.577 674.498 649.024 672.812 647.338C671.631 646.158 668.259 645.82 665.056 646.663C662.021 647.338 652.411 646.158 643.812 643.966L628.132 640.425L625.435 627.949C623.917 621.373 624.086 614.461 625.435 612.775C627.121 611.089 627.795 607.717 626.784 605.019C625.941 601.816 627.795 597.263 632.516 591.194C636.394 586.304 640.44 580.572 641.283 578.717C643.475 574.165 670.788 577.874 680.904 583.944C687.648 587.99 720.02 611.257 725.752 616.315C726.932 617.158 727.438 618.676 726.764 619.35ZM771.78 668.75C766.553 670.267 728.618 667.064 727.101 664.872C725.078 662.175 730.642 662.006 752.728 664.198C765.373 665.378 775.995 666.558 776.332 666.895C776.669 666.895 774.646 667.907 771.78 668.75ZM782.908 688.982C785.437 714.104 783.582 714.947 747.502 708.203C731.147 704.999 717.491 702.133 717.154 701.796C716.816 701.459 722.043 698.592 728.618 695.389C735.025 692.354 749.019 685.104 759.641 679.203C770.263 673.639 779.198 669.424 779.873 670.099C780.547 670.773 781.896 679.203 782.908 688.982ZM674.835 572.816C674.498 575.851 671.126 576.188 660.335 574.84L646.004 572.648L649.882 565.735C652.748 560.846 654.94 558.991 658.986 558.654C665.562 558.148 675.509 567.084 674.835 572.816ZM600.988 502.341C599.639 503.69 588.006 502.51 575.361 499.981C562.378 497.452 537.425 493.743 520.06 491.888C502.694 490.034 482.63 487.505 475.212 486.493C462.735 484.47 463.073 484.47 480.101 484.976C510.955 486.156 599.133 496.778 602.842 499.812C603.011 499.981 602.168 501.161 600.988 502.341ZM715.973 641.943L705.183 655.093L692.706 653.07C685.794 652.227 680.061 650.878 680.23 650.373C680.061 649.867 685.625 646.663 692.369 643.291C699.113 639.919 709.735 634.018 715.805 630.309C722.043 626.769 726.932 624.914 726.932 626.263C726.764 627.78 722.043 634.861 715.973 641.943ZM727.101 644.64L722.717 657.791L715.805 657.622C711.927 657.791 708.892 657.117 708.892 656.105C709.061 654.588 730.136 630.478 730.81 631.152C730.979 631.321 729.293 637.39 727.101 644.64ZM648.702 560.509C647.016 563.206 644.824 567.084 643.981 568.939C643.307 570.962 638.586 571.636 632.179 570.962L621.726 569.613L625.266 558.991C626.952 553.259 628.975 548.538 629.481 548.707C636.562 550.055 649.713 553.427 650.556 554.27C651.231 554.945 650.388 557.811 648.702 560.509ZM597.953 513.132C597.11 515.324 589.017 514.649 573.843 510.94C561.367 507.905 532.199 502.341 508.426 498.464C436.602 486.662 434.916 484.976 503.2 493.237C548.047 498.632 595.93 506.388 598.29 508.748C598.965 509.423 598.796 511.277 597.953 513.132ZM739.577 685.779C726.764 692.523 715.636 697.918 714.793 698.087C713.95 697.918 715.973 691.174 718.84 682.912C723.56 669.087 724.572 667.738 728.45 668.919C730.81 669.593 739.409 670.773 747.502 671.785C755.594 672.459 762.507 673.302 762.676 673.471C762.844 673.302 752.391 679.035 739.577 685.779ZM787.291 718.319C781.559 718.319 780.884 712.249 786.448 711.743C789.483 711.406 791 712.249 791 714.947C791 717.307 789.989 718.319 787.291 718.319ZM629.818 589.845C626.446 594.566 623.074 597.601 622.4 596.589C621.726 595.915 621.557 590.351 622.231 584.281L623.074 573.322L630.324 574.502C638.754 575.514 638.586 577.369 629.818 589.845ZM762.001 723.714C738.397 731.469 728.281 731.469 715.636 723.208C709.904 719.499 705.352 716.295 705.352 715.958C705.352 715.621 707.038 712.923 708.724 709.889C711.758 704.831 713.781 704.831 736.374 709.889C749.693 712.755 764.362 715.284 769.082 715.284C782.908 715.284 781.222 717.307 762.001 723.714ZM716.142 663.692C706.194 662.512 703.16 659.14 712.601 660.151C716.648 660.489 720.694 661.5 721.874 662.68C722.886 663.692 720.357 664.198 716.142 663.692ZM710.915 694.546C710.578 694.546 706.532 689.825 701.642 683.924C693.549 673.808 693.212 673.134 697.596 668.75C701.136 665.209 704.846 664.535 711.421 666.052L720.188 668.076L715.973 681.395C713.444 688.645 711.253 694.546 710.915 694.546ZM601.662 561.689C599.47 563.206 594.75 561.857 588.174 557.98C575.698 550.561 577.721 547.526 591.883 552.922C604.866 557.811 605.877 558.823 601.662 561.689ZM619.197 584.956C619.028 599.287 614.644 601.984 607.226 592.543C601.999 585.967 601.999 585.63 609.249 578.38C613.296 574.334 617.342 571.636 618.016 572.311C618.691 572.985 619.365 578.717 619.197 584.956ZM701.979 660.994C701.474 661.5 696.416 660.489 690.683 658.803C678.544 655.431 676.352 657.285 687.986 661.163C697.764 664.198 698.27 664.704 694.392 668.581C691.863 671.11 689.503 670.436 683.433 665.041C673.317 656.611 675.846 653.07 690.009 655.768C699.619 657.622 703.497 659.477 701.979 660.994ZM604.36 577.2C598.122 585.124 593.401 582.764 598.627 574.165C601.156 569.613 606.046 567.758 609.249 570.287C609.418 570.456 607.226 573.659 604.36 577.2ZM594.918 571.805C592.726 573.322 587.837 571.468 579.407 566.072C572.663 561.689 556.983 552.753 544.338 546.515C527.141 537.747 521.746 534.038 522.757 532.015C524.106 528.643 528.321 530.16 555.466 542.805C570.471 549.718 586.994 559.834 595.087 566.578C597.279 568.433 597.11 570.287 594.918 571.805ZM673.149 654.082C672.643 656.948 663.201 656.611 663.37 653.745C663.201 650.878 670.114 648.012 672.137 650.035C672.98 650.878 673.486 652.733 673.149 654.082ZM684.614 679.709C675.172 693.872 673.486 694.209 660.672 687.128C642.464 677.349 636.225 672.796 638.08 670.942C639.091 669.93 644.318 667.064 649.713 664.366C664.382 657.454 671.969 658.634 684.951 669.93C687.817 672.459 687.817 674.82 684.614 679.709ZM703.16 691.174L710.072 698.087L694.392 697.244C677.027 696.063 676.184 694.209 687.48 682.575C691.695 678.023 693.212 677.517 694.561 680.552C695.573 682.575 699.282 687.296 703.16 691.174ZM585.814 581.584C580.25 587.147 574.349 584.281 547.373 563.712C534.559 553.933 522.42 545.166 520.06 544.154C517.362 542.805 517.193 541.962 519.385 540.782C522.251 539.265 527.815 541.794 566.087 562.532C588.68 574.671 590.703 576.694 585.814 581.584ZM594.412 592.88C590.029 601.984 588.511 603.502 586.151 601.141C583.116 598.107 585.477 586.304 589.692 583.775C595.593 580.235 598.122 585.124 594.412 592.88ZM608.912 605.693C608.743 608.56 610.935 612.438 614.139 615.304C620.04 620.193 625.603 632.838 623.074 635.367C621.388 637.053 591.378 607.38 592.221 604.513C592.558 603.502 594.244 600.13 596.267 596.758C599.47 591.531 600.145 591.531 604.697 596.083C607.395 598.781 609.249 602.996 608.912 605.693ZM649.545 660.489C643.812 663.523 637.911 666.727 636.225 667.401C634.371 668.581 632.853 665.715 631.167 657.622C629.818 651.216 630.156 646.158 631.842 646.158C637.911 646.158 659.155 651.553 659.661 653.407C659.998 654.419 655.446 657.622 649.545 660.489ZM700.799 705.674C697.09 707.36 692.875 707.865 691.695 706.685C690.515 705.505 687.48 703.482 685.288 702.302C682.759 701.121 685.625 700.278 693.044 700.278C707.712 700.11 709.566 701.29 700.799 705.674ZM700.968 713.261C697.933 713.261 697.764 712.418 700.968 709.214C704.171 706.011 705.014 706.179 705.014 709.214C705.014 712.249 704.003 713.261 700.968 713.261ZM515.845 536.23C512.978 538.422 506.74 535.556 484.822 522.405C469.985 513.3 457.677 505.376 457.509 504.87C457.677 504.365 462.567 506.219 468.636 508.917C474.875 511.783 488.7 517.178 499.659 521.056C519.554 527.8 523.094 531.341 515.845 536.23ZM724.572 735.516C723.729 736.022 715.13 739.562 705.689 743.271C696.247 747.318 687.48 749.678 686.468 748.667C684.782 746.981 700.968 720.342 703.497 720.51C705.014 720.679 721.031 729.952 724.066 732.65C725.583 733.83 725.752 735.01 724.572 735.516ZM566.256 591.025C564.57 596.083 553.105 605.188 551.082 603.164C550.408 602.49 543.326 592.711 535.402 581.078C527.478 569.782 517.193 555.451 512.473 549.381C507.752 543.311 504.38 538.253 505.054 538.253C507.92 538.422 550.07 569.107 558.669 577.369C565.919 584.281 567.268 586.979 566.256 591.025ZM580.924 617.495L574.349 629.129L563.053 620.867C556.814 616.315 552.599 612.438 553.948 612.1C555.128 611.932 555.466 610.92 554.454 609.909C551.251 606.705 565.582 599.118 573.843 599.961C586.994 600.973 588.343 604.345 580.924 617.495ZM620.883 640.594C620.208 640.594 610.429 638.233 599.133 635.367L578.901 629.972L584.296 619.182L590.029 608.391L606.214 624.577C614.982 633.344 621.557 640.594 620.883 640.594ZM664.55 727.423C651.905 735.684 638.754 744.114 635.214 746.306C626.952 751.87 612.284 752.713 610.092 747.824C609.249 745.632 609.755 743.44 611.441 742.766C612.958 741.923 627.121 732.481 642.969 721.691C658.818 710.9 672.643 701.796 673.655 701.459C676.858 700.616 689.672 708.708 688.66 710.732C688.323 711.743 677.364 719.33 664.55 727.423ZM695.741 723.208C693.549 726.411 690.177 732.144 687.817 736.19C684.276 741.754 681.916 743.44 676.352 744.283C672.306 744.62 668.259 746.643 666.911 748.667C665.562 751.027 660.167 752.039 650.725 751.027C637.743 749.847 637.068 749.51 641.283 746.643C658.312 736.022 693.044 713.766 693.549 713.261C693.887 712.923 695.404 713.766 696.753 715.115C698.102 716.464 697.596 720.005 695.741 723.208ZM627.964 657.791L629.818 668.076L616.836 672.628L603.854 676.843L592.895 664.198C581.936 651.89 575.36 637.896 579.07 635.873C581.599 634.693 621.726 643.797 624.255 645.989C625.266 647.001 626.952 652.396 627.964 657.791ZM671.463 698.255C668.597 701.121 637.574 699.773 634.539 696.738C631.673 693.872 631.167 694.04 631.842 697.412C632.516 700.11 632.01 700.953 630.661 699.604C628.975 697.918 633.865 676.506 635.719 677.349C636.057 677.686 644.149 682.069 653.76 687.296C663.201 692.691 671.294 697.075 671.8 697.244C671.969 697.412 671.969 697.749 671.463 698.255ZM652.917 710.394C648.365 713.261 635.888 721.691 625.098 729.109L605.371 743.103L616.162 723.545L626.615 703.988L643.812 703.65C653.254 703.313 661.01 703.65 661.01 704.325C661.178 705.168 657.469 707.865 652.917 710.394ZM629.144 684.936C627.795 689.319 626.278 692.86 625.603 692.86C623.412 692.691 608.069 680.721 608.912 679.878C611.778 677.011 627.795 673.134 629.65 674.988C630.83 676.168 630.661 680.721 629.144 684.936ZM569.291 631.827C568.279 632.838 565.244 634.187 562.21 635.199C556.983 636.716 556.983 636.716 556.814 628.455L556.477 620.362L562.378 624.24C571.146 629.635 571.314 629.803 569.291 631.827ZM577.89 653.576C578.395 655.768 580.419 659.814 582.273 662.68C586.151 668.919 588.511 686.116 585.139 686.116C583.116 686.116 560.861 644.977 560.524 640.931C560.524 640.257 563.221 638.571 566.593 637.222C573.337 634.861 573.674 635.199 577.89 653.576ZM531.693 641.437C519.554 643.797 509.269 645.652 508.763 645.146C506.909 643.291 544.507 615.81 547.879 616.484C549.733 616.99 551.756 621.373 552.431 627.106L553.78 636.885L531.693 641.437ZM454.98 528.98C453.125 533.532 457.003 537.41 462.061 536.061C467.962 534.207 510.281 581.921 509.101 589.171C508.763 591.868 509.101 594.903 509.944 595.746C512.473 598.275 511.461 604.345 507.752 610.751L504.38 616.147L480.101 580.403C434.748 513.469 428.004 502.679 431.713 503.69C433.736 504.027 440.143 509.085 446.044 514.986C453.968 522.911 456.16 526.451 454.98 528.98ZM532.199 620.362C509.944 637.896 505.054 641.437 503.368 639.751C502.525 638.908 504.886 630.141 508.258 620.362C516.013 599.455 519.554 597.263 532.536 605.525C537.425 608.391 541.64 611.257 542.146 611.426C542.652 611.594 537.931 615.641 532.199 620.362ZM596.941 680.721C591.715 682.575 590.703 682.238 590.366 678.192C590.197 675.663 589.354 671.11 588.511 668.244C587.331 663.692 588.174 664.198 595.087 670.773C602.674 678.36 602.842 678.529 596.941 680.721ZM613.633 720.005C607.732 730.964 601.999 740.068 600.988 740.068C595.93 740.068 587.837 690.837 592.221 686.453C597.447 681.227 607.9 683.587 616.33 692.017L624.255 699.941L613.633 720.005ZM568.111 664.704C574.518 676.843 579.913 687.296 579.913 687.633C580.081 688.139 572.326 693.534 562.715 700.11C549.902 708.877 544.507 711.237 542.652 709.383C539.786 706.517 506.572 653.07 506.572 651.047C506.572 649.698 554.454 640.257 555.634 641.437C555.971 641.774 561.704 652.227 568.111 664.704ZM479.595 585.967C502.862 620.362 503.031 620.53 500.839 629.466C499.659 634.356 498.141 637.896 497.804 637.559C496.961 636.716 465.433 581.584 454.643 562.026C450.596 554.608 449.247 549.549 450.933 547.864C452.282 546.515 454.137 546.683 454.811 548.369C455.654 549.887 466.782 566.747 479.595 585.967ZM666.911 760.132C666.573 760.469 658.143 764.515 648.196 769.405C630.661 777.835 629.65 777.835 618.859 773.451C606.383 768.393 606.214 768.224 610.935 760.469C613.97 755.411 617.173 754.905 638.754 755.242C652.074 755.411 664.044 756.591 665.056 757.602C666.236 758.783 667.079 759.963 666.911 760.132ZM443.515 548.201C443.684 549.044 440.649 549.718 437.108 549.549C431.039 549.549 430.701 549.212 426.655 538.422C422.946 528.98 423.114 527.8 427.161 529.486C431.713 531.341 443.515 544.829 443.515 548.201ZM492.746 635.873C493.926 637.053 494.601 640.088 494.432 642.617C494.095 646.326 492.241 647.506 485.328 649.361C475.212 652.059 472.008 649.192 461.049 627.106C454.137 613.449 434.411 561.689 434.073 556.968C433.905 555.451 436.265 553.765 439.131 552.922C444.189 551.91 445.201 553.259 467.625 592.88C480.27 615.304 491.566 634.693 492.746 635.873ZM586.151 701.627C586.825 704.662 574.18 734.841 570.977 738.045C568.785 740.237 549.227 720.005 550.07 716.464C550.576 714.947 557.32 708.877 565.413 703.145C580.081 692.86 584.128 692.523 586.151 701.627ZM592.726 731.469C593.401 735.516 591.883 739.056 587.163 743.777C581.262 749.678 579.913 750.016 576.709 746.812C574.518 744.62 573.169 742.597 573.674 742.091C574.012 741.754 577.552 734.504 581.43 725.906L588.343 710.563L590.197 718.15C591.04 722.365 592.221 728.266 592.726 731.469ZM394.958 534.713L394.115 545.672L393.609 535.387C393.441 529.486 393.778 524.091 394.789 523.079C395.632 522.236 396.138 522.068 396.138 522.742C395.97 523.248 395.464 528.812 394.958 534.713ZM378.772 558.991C374.726 581.921 356.517 632.164 350.279 638.402C349.267 639.414 346.57 638.065 343.872 635.367C339.657 631.152 339.994 629.466 346.907 615.472C357.023 594.903 370.005 556.631 371.017 545.166C371.523 539.265 373.883 533.87 377.424 530.329L383.325 524.765L382.482 534.038C382.144 539.096 380.29 550.393 378.772 558.991ZM517.868 677.854C525.961 691.68 534.222 704.325 535.908 706.011C537.763 707.865 537.931 712.418 536.582 717.138L533.885 725.231L520.228 709.214C512.641 700.278 502.694 687.633 498.142 681.058C493.589 674.482 488.025 667.233 486.002 664.535C477.909 655.093 478.078 655.262 486.002 653.407C490.217 652.564 495.612 652.227 498.142 652.396C500.671 652.564 502.694 652.902 502.862 652.733C502.862 652.733 509.438 664.029 517.868 677.854ZM602.505 756.422C602.505 759.12 601.494 760.469 598.459 760.806C590.366 761.48 588.174 753.219 595.761 749.678C599.133 747.992 602.505 751.027 602.505 756.422ZM393.103 576.02C392.26 591.362 389.057 623.565 386.191 648.012L380.964 692.017L366.97 700.278C344.209 713.598 344.041 710.057 365.453 645.146C375.906 614.461 386.022 579.392 388.383 567.59C390.574 555.619 393.103 546.346 393.609 547.189C394.284 547.863 393.946 561.014 393.103 576.02ZM432.556 608.391C436.265 623.228 440.143 636.885 441.155 639.245C443.178 643.629 430.364 684.093 426.655 684.767C425.306 685.104 421.766 682.912 418.731 679.878C410.469 671.616 410.469 622.048 418.731 595.915C421.934 585.63 424.8 578.043 425.138 579.392C425.475 580.403 428.847 593.554 432.556 608.391ZM619.028 781.375C605.54 785.422 579.576 780.026 571.146 771.596L567.605 768.056L575.361 767.044C583.116 766.033 590.703 767.55 610.598 774.294C623.243 778.509 624.592 779.858 619.028 781.375ZM564.064 753.388C562.041 758.108 560.355 762.155 560.186 762.323C560.018 762.492 554.623 755.411 548.216 746.643C541.809 737.539 536.077 729.783 535.402 729.109C533.21 726.917 537.594 723.882 542.989 723.545C546.867 723.377 550.408 725.906 557.826 733.998C567.268 744.789 567.436 745.295 564.064 753.388ZM580.924 756.422C583.285 761.818 579.744 764.347 570.64 764.009C563.558 763.672 563.053 763.504 565.076 759.794C566.425 757.771 567.942 754.23 568.954 751.87C570.134 749.341 571.82 748.667 574.518 750.353C576.709 751.533 578.564 752.713 578.901 752.713C579.07 752.882 579.913 754.399 580.924 756.422ZM479.764 662.006C480.776 664.029 479.595 667.57 477.404 669.762C475.38 671.785 474.032 675.494 474.706 677.517C475.549 680.721 471.165 681.395 453.968 681.395C441.492 681.395 433.23 680.215 434.748 678.697C436.097 677.349 438.963 669.424 440.986 660.994L444.864 645.989L450.765 649.867C454.137 652.227 460.881 654.25 466.107 654.756C475.886 655.431 477.066 656.274 479.764 662.006ZM488.531 675.157C489.543 679.878 482.799 683.25 479.258 679.709C477.741 678.192 478.247 675.663 480.944 672.965C485.496 668.413 487.014 668.919 488.531 675.157ZM511.124 706.854C514.833 712.586 514.664 715.452 509.269 729.278C505.897 738.045 502.694 745.295 502.019 745.295C499.322 745.295 485.328 685.442 487.857 684.599C490.723 684.093 504.548 697.244 511.124 706.854ZM523.937 760.132C523.937 781.038 521.914 788.794 516.35 789.299C509.606 789.974 506.909 786.265 506.74 775.98C506.572 771.091 505.729 764.178 504.717 760.469C503.705 756.422 505.391 747.992 508.763 740.237C518.542 716.633 518.542 716.633 521.408 732.312C522.926 739.899 523.937 752.376 523.937 760.132ZM498.142 752.207C498.479 755.579 484.991 775.474 482.293 775.474C481.619 775.474 477.741 763.166 473.694 747.992C469.479 732.987 465.602 720.005 464.927 719.33C464.253 718.656 467.119 712.08 471.165 704.662C475.38 697.412 479.427 689.994 480.101 688.308C481.281 685.779 497.467 742.766 498.142 752.207ZM470.322 698.424C464.084 709.72 463.41 709.383 461.387 692.523L460.544 684.936L469.142 684.767C473.863 684.767 477.404 685.273 476.729 686.284C476.392 687.296 473.357 692.691 470.322 698.424ZM459.195 701.121C460.544 710.563 459.869 716.295 455.991 723.208C450.428 733.493 451.776 733.83 443.852 719.836C442.335 717.307 441.323 712.249 441.323 708.877C441.323 700.784 437.783 697.244 431.882 698.761C427.329 699.941 426.992 699.604 427.667 694.209C428.172 691.005 429.353 687.465 430.533 686.284C432.556 684.261 453.968 684.767 456.16 686.959C456.834 687.633 458.183 694.04 459.195 701.121ZM502.862 780.532C502.525 786.939 502.019 787.445 497.298 787.445C489.206 787.445 486.508 779.689 491.566 771.934C493.927 768.224 496.961 763.504 498.142 761.312C500.333 757.434 500.502 757.602 501.851 765.358C502.525 770.079 503.2 776.823 502.862 780.532ZM469.985 749.341C473.694 762.492 475.38 772.271 474.032 771.596C470.997 769.91 454.474 743.946 453.294 738.719C452.451 735.179 461.218 721.016 462.398 723.882C462.904 725.063 466.276 736.527 469.985 749.341ZM419.405 689.656C417.213 690.837 408.109 696.569 399.342 702.302L383.156 712.755L383.999 703.819C384.505 698.93 386.191 694.546 387.371 694.04C388.72 693.366 394.789 690.331 401.365 687.128C411.649 681.901 415.359 681.901 421.428 686.284C422.271 687.128 421.26 688.476 419.405 689.656ZM414.178 713.429C410.469 717.813 407.434 718.487 396.307 717.476C386.022 716.633 383.662 715.621 387.202 714.104C389.731 712.923 399.51 706.854 408.783 700.616L425.812 689.319L422.103 698.761C420.079 703.819 416.37 710.563 414.178 713.429ZM518.036 797.729C516.688 799.078 514.327 799.078 512.978 797.729C511.461 796.212 511.967 794.695 513.99 793.683C516.013 793.009 518.205 792.84 519.048 793.683C519.891 794.526 519.385 796.381 518.036 797.729ZM431.039 716.464C436.602 717.644 450.596 733.661 448.236 736.022C447.056 737.202 417.045 720.005 417.382 718.319C417.888 716.127 423.114 703.819 423.957 702.976C424.463 702.47 425.137 704.831 425.306 708.708C425.643 714.104 426.486 715.284 431.039 716.464ZM507.92 796.381C507.415 797.898 509.269 800.764 511.798 802.282C515.676 805.148 515.676 806.834 511.292 814.252C508.258 818.973 502.357 827.572 497.804 833.135L489.543 843.42L495.444 825.717C498.816 815.938 502.357 803.968 503.368 798.91C504.211 794.02 505.897 790.648 506.74 791.491C507.752 792.503 508.258 794.695 507.92 796.381ZM496.118 812.229C490.217 833.641 489.374 835.496 482.967 834.822C475.886 834.147 477.909 806.159 485.328 797.729C490.555 791.828 497.467 788.962 500.165 791.66C500.839 792.334 498.985 801.607 496.118 812.229ZM342.017 653.407C339.488 657.622 332.407 669.424 326 679.54C315.716 696.232 314.198 698.087 310.489 697.075C304.925 695.558 297.844 702.639 299.362 708.203C300.373 711.912 298.687 713.598 284.693 723.882C275.926 729.952 268.845 735.01 268.845 734.673C268.845 734.336 278.286 721.185 289.92 705.505C301.553 690.162 316.896 667.738 324.146 656.105C331.227 644.303 337.128 634.693 337.465 634.356C337.634 634.187 339.826 636.379 342.186 639.751C345.727 644.303 345.727 647.001 342.017 653.407ZM427.498 747.318L413.167 755.579L414.853 739.394C416.033 728.435 417.551 723.882 419.574 724.894C426.318 728.266 441.66 737.539 441.829 738.382C441.829 738.719 435.422 742.766 427.498 747.318ZM457.509 763.504C460.038 772.102 461.555 782.724 461.049 786.939L460.206 794.526L447.561 794.357C428.51 794.189 426.318 788.625 437.614 767.887C442.166 758.951 446.718 750.015 447.73 747.992C450.259 742.428 452.619 746.138 457.509 763.504ZM345.389 678.023C335.442 704.831 329.372 713.598 321.28 712.249C317.065 711.743 316.39 710.394 317.065 704.662C317.57 700.784 319.256 696.401 321.111 694.546C322.797 692.86 329.71 682.238 336.454 670.773C350.953 646.495 349.604 647.844 352.471 650.71C353.82 652.059 350.616 664.366 345.389 678.023ZM422.946 783.567C419.911 784.916 419.068 784.073 416.539 776.823C412.324 765.19 415.19 759.289 429.184 751.027C435.591 747.318 441.998 743.946 443.515 743.44C447.056 742.597 427.161 781.712 422.946 783.567ZM468.805 774.125C469.142 780.869 464.759 776.486 462.061 767.044L459.195 757.097L463.916 764.178C466.613 767.887 468.805 772.439 468.805 774.125ZM479.427 788.794C479.09 791.828 477.741 792.84 475.043 792.84C469.648 792.84 468.299 791.154 470.322 786.77C473.357 779.689 479.933 781.207 479.427 788.794ZM401.871 756.422C398.161 755.073 394.284 752.882 393.103 752.039C390.912 749.847 396.813 740.237 406.423 730.626L413.167 723.882L408.783 759.289L401.871 756.422ZM393.946 739.056L385.685 746.306L375.063 739.394L364.104 732.481L370.174 726.411C375.063 721.522 378.604 720.679 391.417 721.016C406.254 721.691 406.591 722.028 404.4 726.917C403.051 729.615 398.33 735.347 393.946 739.056ZM380.458 704.662C379.953 707.528 378.604 711.237 377.086 712.755C374.22 715.621 354.663 715.958 354.831 713.092C354.831 710.732 378.772 697.244 380.121 698.592C380.627 699.098 380.796 701.964 380.458 704.662ZM475.043 820.153C474.369 828.583 472.008 837.013 469.985 839.036C467.962 841.06 460.544 843.757 453.125 845.106L439.806 847.635L445.538 839.205C448.742 834.99 454.305 824.031 458.183 815.432C463.747 802.45 465.602 799.584 468.636 800.258C475.549 801.776 476.561 804.811 475.043 820.153ZM347.413 691.511C345.221 700.447 341.343 707.36 341.174 702.47C341.343 699.604 348.593 680.552 349.436 681.395C349.604 681.564 348.762 686.116 347.413 691.511ZM441.155 839.542L435.928 847.129L435.254 823.525C434.916 810.712 433.736 799.415 432.725 798.404C431.713 797.392 437.951 796.886 446.55 797.392L462.061 798.067L454.305 814.927C450.09 824.2 444.189 835.159 441.155 839.542ZM366.465 725.063C362.924 727.254 359.552 728.603 358.709 727.76C358.035 727.086 356.18 728.266 355 730.458C351.965 735.516 341.849 738.888 340.837 734.841C340.5 733.155 339.32 733.661 337.971 736.022C336.454 738.888 330.047 740.574 316.559 741.248C306.106 741.585 297.338 741.248 297.507 740.068C297.507 738.382 303.577 733.998 321.785 722.534C325.157 720.51 326.843 721.185 330.89 726.243C335.442 731.807 336.959 732.312 345.221 730.121C351.29 728.772 354.831 726.58 355.506 723.882C356.349 721.016 359.215 719.499 364.61 718.824C374.389 717.813 374.895 719.667 366.465 725.063ZM378.435 793.009C357.529 808.857 339.994 817.624 337.297 813.578C335.611 810.88 338.983 806.159 358.372 784.747C384.505 755.917 389.226 752.882 399.51 759.12C406.086 762.998 406.086 762.998 400.016 772.102C396.138 778.003 388.214 785.59 378.435 793.009ZM414.347 780.026C416.202 785.59 416.876 790.985 416.033 791.828C413.504 794.357 363.093 810.712 363.261 809.194C363.093 808.351 366.633 805.822 370.68 803.462C374.726 801.439 385.179 792.334 393.609 783.904C402.208 775.306 409.626 768.562 410.132 769.067C410.638 769.573 412.661 774.631 414.347 780.026ZM427.667 795.032C425.643 795.706 423.114 795.538 421.766 794.189C420.417 792.84 420.585 790.648 421.934 789.299C423.283 787.951 425.98 788.288 427.835 790.142C430.027 792.334 430.027 794.02 427.667 795.032ZM356.854 781.207C344.546 794.526 334.43 804.305 334.43 802.619C334.599 799.078 339.488 753.725 340.5 746.981C341.006 742.766 343.029 741.08 350.953 737.539C360.058 733.83 361.238 733.998 370.68 740.742C378.772 746.475 380.627 748.667 379.953 752.376C379.615 754.736 369.331 767.719 356.854 781.207ZM346.064 718.824C345.052 722.534 338.645 722.534 337.634 718.824C336.959 715.79 343.029 712.08 345.221 714.272C346.064 715.115 346.401 717.138 346.064 718.824ZM431.713 823.019C432.219 835.664 432.05 846.624 431.544 847.129C430.87 847.804 428.341 848.647 426.149 849.153C422.777 849.827 422.103 845.443 421.934 825.043C421.934 810.543 423.114 799.584 424.969 798.741C426.824 797.898 428.847 797.898 429.521 798.572C430.196 799.247 431.207 810.374 431.713 823.019ZM417.55 822.682C417.382 842.409 416.202 847.972 412.998 848.478C410.806 848.647 407.097 846.961 404.905 844.769C402.714 842.577 398.667 841.566 395.97 842.24C392.766 843.42 382.987 839.711 367.476 831.955C354.494 825.38 344.547 819.479 345.389 819.31C351.122 816.95 417.045 796.212 417.382 796.549C417.719 796.886 417.888 808.52 417.55 822.682ZM466.276 854.548C458.352 859.437 424.126 870.733 423.62 868.542C423.452 867.699 426.149 863.652 429.858 859.606C435.422 853.368 439.3 851.513 451.776 849.153C468.636 846.118 476.055 848.815 466.276 854.548ZM311.332 709.383C309.646 711.069 306.611 711.406 304.757 710.226C301.216 707.697 304.925 701.29 309.983 701.29C313.861 701.458 314.704 706.011 311.332 709.383ZM320.942 719.33C318.751 720.173 312.175 724.388 305.768 728.435L294.641 735.853L297.001 726.411C298.856 717.476 299.362 716.97 305.937 715.452C317.739 713.092 328.867 715.79 320.942 719.33ZM333.587 777.497C331.564 794.02 329.541 807.508 328.867 807.508C328.361 807.34 322.46 800.09 315.547 791.154C307.286 780.532 303.745 774.294 305.431 772.945C306.611 772.102 313.861 765.19 321.448 757.94C328.867 750.521 335.611 745.126 336.285 746.138C336.959 746.812 335.611 760.974 333.587 777.497ZM316.727 757.265C308.466 764.515 300.71 769.91 299.53 769.405C298.35 768.899 295.147 769.405 292.28 770.585C286.379 773.451 260.246 766.201 260.246 761.818C260.246 758.108 280.647 750.859 287.897 752.039C290.763 752.544 294.472 751.533 296.327 749.678C299.024 746.981 328.867 741.754 330.89 743.777C331.227 744.114 324.989 750.353 316.727 757.265ZM426.655 858.763C422.44 862.978 422.103 862.978 422.103 857.92C422.103 854.885 423.452 852.187 424.969 851.682C430.533 850.501 431.207 854.211 426.655 858.763ZM288.234 736.19C284.862 738.551 281.659 742.091 281.153 744.283C280.647 747.149 276.095 749.678 267.496 752.544C256.537 756.085 255.02 755.917 256.2 752.039C257.38 747.487 280.984 728.603 290.257 724.388C296.664 721.691 294.809 731.638 288.234 736.19ZM419.405 859.269C417.213 866.181 414.684 866.687 400.016 861.798C387.371 857.583 367.813 844.769 356.349 832.967C350.279 826.897 351.628 827.234 368.319 836.17C378.772 841.565 389.057 848.141 391.417 850.839C394.452 854.211 397.656 855.054 401.533 853.873C408.952 851.513 417.888 851.007 419.574 852.693C420.417 853.536 420.248 856.402 419.405 859.269ZM394.958 871.576C367.813 870.733 345.727 864.832 343.535 857.583C342.692 854.716 342.523 851.85 343.198 851.176C344.041 850.333 352.639 852.525 362.418 855.897C372.197 859.269 388.045 863.652 397.487 865.675C406.929 867.361 414.853 869.553 414.853 870.565C414.853 871.576 405.748 871.914 394.958 871.576ZM365.284 852.693L344.209 845.106L337.465 822.851L351.965 834.99C359.889 841.566 370.342 849.321 374.726 852.019C388.214 860.449 387.202 860.449 365.284 852.693ZM320.268 802.619C323.809 807.171 326.169 810.88 325.495 810.88C323.134 810.88 273.903 774.8 273.734 773.282C273.903 772.439 278.961 773.451 285.199 775.643C291.437 777.835 297.507 779.521 298.856 779.183C301.048 778.678 304.925 783.23 320.268 802.619ZM337.465 843.083C335.779 845.781 323.64 839.036 321.448 834.484C319.762 830.775 327.349 821.165 331.564 820.996C334.262 820.996 339.488 840.385 337.465 843.083ZM323.134 823.357C321.28 825.886 318.245 827.909 316.559 827.909C314.536 827.909 302.902 816.613 285.705 797.729C270.531 781.207 258.56 767.55 259.235 767.55C260.078 767.719 268.508 774.125 278.118 781.712C287.897 789.468 301.385 799.247 308.129 803.63C324.652 814.084 327.349 817.793 323.134 823.357ZM255.357 765.358C252.322 768.393 249.456 764.515 252.153 760.806C253.334 758.614 254.851 758.445 255.863 760.469C256.537 762.155 256.368 764.346 255.357 765.358ZM336.959 855.054C335.611 857.751 333.925 859.774 333.756 859.606C328.529 858.088 307.623 848.31 307.454 847.467C307.454 843.757 323.134 842.24 329.71 845.106C340.163 850.164 339.994 849.995 336.959 855.054ZM297.844 817.287C307.792 828.92 308.466 830.606 306.443 836.676C305.094 840.048 303.577 843.589 302.902 844.263C301.048 846.118 277.949 829.089 266.147 817.287C254.345 805.485 248.613 793.346 248.276 780.195C247.938 766.033 252.828 767.55 271.205 787.613C279.804 796.886 291.943 810.374 297.844 817.287ZM318.751 838.531C317.908 839.374 315.379 840.217 313.187 840.723C309.478 841.397 309.14 841.06 309.983 837.519C310.489 835.327 311.838 833.304 312.85 832.967C315.547 832.293 320.437 836.845 318.751 838.531Z" fill="#F0870C"/>
<path d="M447.73 428.326C444.864 432.541 441.492 434.227 434.41 434.901C418.562 436.25 417.719 439.453 430.364 452.098C442.672 464.406 445.875 463.9 447.561 450.075C448.067 445.86 451.102 439.791 454.137 436.756C459.026 431.866 459.363 430.518 455.654 426.808C451.945 423.099 451.102 423.268 447.73 428.326ZM440.312 447.209C438.963 448.558 436.771 448.389 435.422 447.04C432.556 444.174 432.724 443.668 437.951 441.477C442.166 439.622 444.021 443.5 440.312 447.209Z" fill="#F0870C"/>
<path d="M437.951 417.873C431.881 417.873 424.294 424.448 425.475 428.663C426.486 433.384 438.12 432.541 443.346 427.314C448.742 421.919 446.381 417.873 437.951 417.873Z" fill="#F0870C"/>
<path d="M457.509 437.767C452.788 439.791 449.079 452.267 452.282 455.47C455.991 459.18 463.747 452.098 464.084 445.017C464.421 437.599 462.567 435.407 457.509 437.767Z" fill="#F0870C"/>
<path d="M417.888 449.064C415.864 455.47 413.167 458.505 411.144 456.482C410.301 455.639 410.806 453.11 412.324 450.918C421.26 438.61 399.342 444.68 385.516 458.168C353.988 489.359 363.261 526.957 399.679 515.155C415.021 510.266 429.352 497.283 435.928 482.952C441.829 469.97 439.637 461.371 432.05 468.958C429.69 471.319 427.329 472.331 426.992 470.982C426.655 469.633 428.341 467.272 430.701 465.924C433.905 464.069 434.073 462.552 431.376 459.854C428.004 456.482 426.823 457.325 402.545 480.592L377.086 505.039L401.702 479.749C415.19 465.924 425.475 453.953 424.632 453.11C423.789 452.267 422.271 449.738 421.428 447.546C419.742 444.174 419.236 444.343 417.888 449.064ZM426.655 483.795C423.62 491.888 419.574 495.935 408.277 502.173C397.993 508.074 392.26 509.085 391.586 505.713C390.912 503.016 419.405 473.848 422.777 473.848C427.329 473.679 428.847 477.894 426.655 483.795ZM405.243 462.046C404.568 466.429 377.592 493.743 375.569 491.72C371.86 488.01 388.72 462.046 398.161 457.325C403.557 454.29 405.748 455.808 405.243 462.046Z" fill="#F0870C"/>
<path d="M353.988 513.3C345.389 523.585 345.389 523.922 350.279 529.823C357.192 538.422 362.755 538.253 371.691 529.317L379.11 521.899L372.366 517.178C368.488 514.649 364.947 510.434 364.104 507.905C362.587 503.353 361.912 503.69 353.988 513.3ZM362.924 524.597C361.575 525.945 359.72 526.451 358.878 525.608C356.686 523.416 357.866 519.201 360.564 519.201C364.273 519.201 365.453 522.068 362.924 524.597Z" fill="#F0870C"/>
<path d="M331.733 529.149C315.379 539.771 314.367 541.119 319.594 550.73C324.146 558.991 336.959 568.096 342.523 566.915C343.703 566.41 348.424 560.677 353.145 553.933C360.058 543.986 360.732 541.288 357.866 540.108C349.942 536.904 345.221 532.858 343.703 527.631C342.186 522.742 341.343 522.911 331.733 529.149ZM347.076 544.154C350.448 555.619 333.082 560.509 327.518 549.887C323.64 542.637 338.14 531.846 344.041 537.747C344.715 538.422 346.064 541.457 347.076 544.154Z" fill="#F0870C"/>
<path d="M307.454 547.02C303.745 551.404 303.745 554.102 307.623 561.689C311.332 569.444 313.524 571.636 321.954 576.02C330.384 580.403 332.239 580.572 335.442 576.357C339.994 570.119 339.826 568.939 335.273 568.433C326.169 567.421 319.762 560.677 313.524 546.009C312.007 542.131 310.995 542.468 307.454 547.02Z" fill="#F0870C"/>
<path d="M295.484 558.991C286.379 570.456 310.658 596.758 323.303 589.171C330.384 585.124 330.384 583.101 323.303 581.078C316.222 579.055 302.396 565.229 302.396 560.509C302.396 554.102 299.699 553.765 295.484 558.991Z" fill="#F0870C"/>
<path d="M283.682 570.119C278.624 575.177 281.321 582.932 290.931 592.543C301.891 603.502 306.274 604.85 311.838 599.287C316.053 595.072 316.053 594.397 311.669 593.048C305.263 591.025 289.583 575.345 290.426 571.805C291.606 566.915 287.897 565.904 283.682 570.119Z" fill="#F0870C"/>
<path d="M272.554 584.618L267.665 589.508L278.455 600.298C292.112 613.955 295.652 615.472 300.879 610.246C304.251 606.874 304.251 605.525 301.048 604.345C292.449 600.467 284.187 593.217 280.984 586.642C277.781 579.729 277.443 579.729 272.554 584.618Z" fill="#F0870C"/>
<path d="M263.955 593.217C263.45 593.723 262.269 595.915 261.258 597.938C257.549 606.368 279.467 625.588 286.885 620.193C290.089 617.664 289.414 616.315 277.781 604.682C270.868 597.769 264.63 592.543 263.955 593.217Z" fill="#F0870C"/>
<path d="M254.682 607.548C250.973 614.292 252.153 621.205 257.549 626.6C262.607 631.658 272.217 632.164 276.769 627.612C279.129 625.251 278.624 624.071 274.746 622.216C268.17 619.013 263.45 614.292 260.246 607.717C257.717 602.827 257.38 602.827 254.682 607.548Z" fill="#F0870C"/>
<path d="M246.421 620.867C245.072 622.216 242.375 627.274 240.52 631.827C235.631 643.46 241.026 646.495 254.851 640.088L265.641 635.03L259.74 632.838C255.188 630.984 253.165 628.96 251.31 624.408C249.456 619.181 248.613 618.676 246.421 620.867Z" fill="#F0870C"/>
</svg>
