<svg width="569" height="571" viewBox="0 0 569 571" fill="none" xmlns="http://www.w3.org/2000/svg">
<g opacity="0.9">
<path d="M169.28 12.7018C155.575 2.47734 143.937 -1.11211 134.147 2.15102C126.86 4.43521 114.133 19.3368 113.916 26.0806C113.698 32.6069 106.846 56.8628 104.562 59.147C103.474 60.2347 102.93 62.7364 103.256 64.5856C103.8 67.9575 96.8388 90.7994 94.5546 93.0835C93.902 93.7362 93.2494 95.6941 93.2494 97.4344C92.8143 103.743 82.6986 126.694 79.4355 128.652C77.3688 129.848 76.3899 131.915 76.3899 135.395C76.3899 138.223 73.6706 145.729 70.4075 152.472C54.4181 184.56 59.5304 200.549 92.5967 223.391C111.197 236.117 111.197 236.335 100.646 232.745C88.4635 228.83 67.6882 229.156 54.8532 233.507C39.6253 238.51 17.5448 255.37 18.0886 261.57C18.3062 263.093 16.8921 266.9 15.2606 270.271C6.99399 285.499 2.75192 309.538 5.25365 326.615C6.99399 337.709 15.6957 365.99 19.3939 372.299C20.9167 375.127 20.3728 376.106 14.3904 382.088C9.1694 387.309 6.77644 388.832 4.2747 388.505C1.6642 388.07 0.685262 388.614 0.141407 391.116C-0.293677 392.856 0.250178 395.141 1.33789 396.228C2.4256 397.316 4.70979 397.86 6.45012 397.425C8.95186 396.881 9.49571 395.902 9.1694 393.618C8.73431 391.225 10.3659 388.941 15.1518 384.372L21.5693 378.172L26.6815 385.025C29.5096 388.723 35.7095 395.793 40.6042 400.47C50.8287 410.477 58.4426 413.74 70.0811 412.979C79.0004 412.326 83.2424 410.042 106.411 392.312C129.361 374.8 137.302 369.253 151.007 360.986C171.129 348.913 197.234 337.818 213.441 334.229C225.732 331.509 227.038 329.334 215.073 331.51C204.957 333.359 185.705 340.211 172.652 346.737C164.277 350.98 162.863 351.088 159.165 348.695C156.772 347.173 155.358 345.541 155.901 344.997C157.751 343.148 180.592 333.794 192.013 330.204C201.585 327.159 216.813 324.331 230.845 322.699C232.476 322.59 232.911 322.155 232.259 321.503C228.56 317.804 177.003 331.509 160.47 340.429C156.663 342.495 153.617 342.93 151.768 341.952C150.137 340.973 148.94 339.994 148.831 339.667C148.831 338.145 193.21 324.004 205.392 321.611C213.006 320.089 219.206 318.457 219.206 317.804C219.206 315.194 183.747 324.331 152.203 334.99C133.06 341.516 117.397 347.172 117.397 347.608C117.288 347.934 120.442 347.39 124.249 346.411C133.386 343.801 133.06 345.215 123.705 348.913C117.94 351.197 116.2 351.415 116.2 349.457C116.2 347.934 115.439 346.085 114.351 344.997C112.284 342.93 121.312 325.853 125.119 324.874C137.628 321.72 220.294 314.976 220.294 317.152C220.403 318.566 231.932 319.001 233.238 317.696C233.781 317.152 233.455 316.608 232.476 316.282C231.388 316.064 231.824 315.411 233.455 314.65C235.739 313.454 235.631 313.345 232.694 313.236C219.424 313.018 184.508 315.52 156.88 318.566C138.716 320.415 123.814 321.829 123.923 321.503C123.923 321.067 125.446 317.804 127.403 314.106L130.667 307.362L165.691 307.58C184.943 307.689 208.438 308.559 218.118 309.538C227.582 310.517 235.631 310.952 235.848 310.734C237.371 309.211 211.375 306.057 194.515 305.513C184.073 305.296 176.35 304.752 177.221 304.534C199.519 297.899 203.326 297.573 216.922 301.597C224.318 303.773 232.367 305.731 234.652 306.057C239.002 306.492 239.002 306.492 234.325 304.643C226.385 301.489 217.466 298.878 185.813 291.155C169.063 287.022 154.705 283.106 153.944 282.345C153.073 281.475 151.442 277.668 150.245 273.861C148.07 267.117 148.07 267.117 151.442 268.966C167.757 277.885 177.764 282.019 206.262 292.026C227.69 299.531 239.329 302.903 240.525 301.706C241.831 300.401 241.504 300.075 239.546 300.075C235.631 300.075 226.059 290.068 228.125 288.001C229.104 287.022 230.845 287.457 232.367 288.763C233.673 290.068 237.262 292.134 240.199 293.331C245.42 295.506 245.42 295.506 241.831 292.787C237.588 289.633 209.199 270.163 186.575 254.935C172.87 245.798 171.456 244.601 173.74 243.623C175.045 242.97 177.329 241.991 178.635 241.121C179.94 240.468 181.68 240.468 182.55 241.338C183.312 242.1 185.813 242.426 187.989 241.991C191.687 241.338 193.427 242.644 208.329 255.805C222.796 268.531 224.753 270.707 224.101 272.882C223.122 276.471 225.624 278.756 228.669 277.45C230.627 276.58 232.476 277.994 238.785 284.956C243.027 289.633 246.943 293.113 247.378 292.678C247.922 292.134 239.329 281.584 230.192 271.794C229.648 271.25 221.055 263.528 211.266 254.826C197.887 243.187 192.992 238.075 192.231 235.356C191.143 232.31 190.273 231.658 187.336 231.549C184.291 231.331 182.985 230.244 179.505 225.023C175.807 219.149 175.48 216.43 178.852 217.191C179.505 217.409 190.491 225.131 202.891 234.268L225.624 251.128L235.957 268.64C250.423 292.896 250.206 292.678 251.294 290.503C251.837 289.524 248.901 280.713 244.876 271.033C240.96 261.461 233.89 243.296 229.322 230.896C224.753 218.279 220.076 206.64 218.989 204.683C217.792 202.833 217.357 200.876 217.901 200.332C218.445 199.788 217.248 195.111 215.29 189.89C213.224 184.777 212.027 180.1 212.571 179.556C213.115 179.013 216.487 177.599 220.076 176.402C225.841 174.553 226.711 174.771 227.582 177.816C228.234 179.774 229.866 182.058 231.28 182.82C233.781 184.234 235.957 194.241 248.466 260.7C250.097 269.075 251.729 275.928 252.273 275.819C253.36 275.819 248.792 248.408 242.048 213.167C237.262 188.802 237.045 183.146 240.743 185.104C243.788 186.627 255.753 276.471 253.143 277.124C251.62 277.559 252.925 285.608 254.774 287.457C258.255 290.938 259.343 281.149 258.037 256.566C256.841 231.005 253.578 201.855 250.206 187.606C249.336 184.342 248.792 178.578 249.009 175.097C249.009 171.616 248.139 167.7 246.834 166.395C245.529 165.09 243.571 159.869 242.592 154.757C237.697 129.631 220.946 85.252 207.459 61.7575C203.978 55.6663 200.606 49.2489 199.954 47.5085C199.301 45.7682 197.67 43.484 196.473 42.2875C195.168 41.1998 190.599 35.5437 186.14 29.7788C181.789 24.1228 177.547 19.0105 176.894 18.3579C176.242 17.9228 172.761 15.3123 169.28 12.7018ZM187.336 35.1086C192.231 42.3963 192.992 47.291 190.056 52.4032C188.424 55.1225 187.554 54.9049 180.919 50.4453C176.894 47.7261 171.238 44.2454 168.301 42.3963C163.733 39.7858 162.972 38.8068 162.754 34.8911C162.754 32.4981 161.884 29.235 160.905 27.821C159.382 25.8631 159.926 24.2315 163.951 19.7719L168.736 14.3334L175.698 21.2947C179.505 25.1017 184.726 31.4104 187.336 35.1086ZM162.428 18.6842C157.315 23.7964 147.635 24.5578 141 20.3158C138.824 19.0105 134.038 17.7053 130.558 17.7053C126.86 17.7053 123.596 16.8351 123.161 15.9649C120.442 10.8527 136.214 2.04225 145.242 3.67382C150.898 4.54398 161.122 9.32991 164.712 12.7018C166.235 14.0071 165.8 15.3123 162.428 18.6842ZM210.287 72.6346C214.42 80.6837 220.729 94.8239 224.101 103.852C230.41 119.95 230.41 120.168 226.276 118.862C222.252 117.666 221.164 115.708 213.006 97.9782C208.003 87.1011 200.824 73.396 197.017 67.4136C189.729 56.2102 189.62 54.5786 196.038 51.6418C198.866 50.3366 199.736 51.6418 210.287 72.6346ZM160.144 35.1086C160.252 41.3086 157.968 44.0278 152.094 45.1156C147.309 45.9857 140.782 40.3296 140.782 35.1086C140.674 30.2139 146.221 25.3192 151.659 25.5368C157.751 25.7543 160.252 28.6911 160.144 35.1086ZM190.056 61.7575C189.838 62.6277 188.424 63.8242 186.901 64.2592C184.508 64.9119 184.291 64.6943 184.617 61.9751C184.835 58.9295 187.663 57.1891 189.512 59.0382C190.056 59.5821 190.382 60.7786 190.056 61.7575ZM182.985 59.0382C181.789 60.2347 181.245 62.3014 181.789 63.4978C182.224 64.8031 182.333 66.2171 181.789 66.761C180.375 68.175 172.543 59.9084 172.543 56.8628C172.543 55.1225 171.347 53.926 169.063 52.9471C164.277 50.9892 158.838 44.0278 160.579 42.2875C161.558 41.3086 165.582 43.1577 171.673 47.0734C184.835 55.6663 185.487 56.5365 182.985 59.0382ZM203.108 83.7292C214.855 106.354 221.273 122.996 219.206 125.062C218.227 126.041 217.14 125.606 215.943 123.539C214.855 121.799 210.287 114.403 205.719 107.006C201.259 99.501 194.08 88.4064 189.838 82.2065C182.877 71.7644 181.354 66.1083 185.705 67.1961C186.792 67.4136 188.424 66.6522 189.62 65.4557C190.708 64.368 192.122 63.8242 192.666 64.368C193.21 64.9119 197.778 73.6135 203.108 83.7292ZM142.414 25.6456C141.109 26.9508 130.884 24.3403 128.6 22.0561C125.119 18.5754 137.845 20.207 143.502 24.1228C143.719 24.1228 143.175 24.8842 142.414 25.6456ZM163.189 52.2944C163.842 52.9471 163.842 54.2523 163.08 55.0137C162.101 55.9926 160.579 55.1225 158.294 52.1857C156.119 49.3576 155.466 47.3997 156.554 46.312C157.751 45.1156 158.73 45.4419 160.035 47.8348C161.014 49.4664 162.428 51.533 163.189 52.2944ZM139.586 31.3016C138.607 32.9332 130.993 30.9753 128.491 28.4736C126.425 26.4069 129.796 25.428 134.256 26.842C140.021 28.4736 140.565 29.0175 139.586 31.3016ZM178.526 74.5925C177.982 76.4416 177.221 77.8556 176.785 77.8556C175.045 77.8556 167.105 64.0417 168.301 62.8452C170.368 60.7786 171.238 61.2137 175.589 66.4347C178.2 69.6978 179.287 72.3083 178.526 74.5925ZM204.848 110.704C214.747 126.476 215.399 129.739 209.09 131.045C204.413 132.241 206.371 133.329 213.333 133.546C219.532 133.655 222.361 132.132 221.382 129.413C221.055 128.434 221.273 128.434 221.925 129.304C222.578 130.392 221.164 132.894 217.792 136.266L212.462 141.595L208.764 137.897C206.154 135.504 204.848 132.459 204.848 129.196C204.848 125.497 204.087 124.083 202.02 123.322C199.845 122.669 196.038 116.469 188.533 101.35C178.743 81.7714 177.764 78.1819 181.028 74.2662C181.571 73.5048 186.575 80.9012 204.848 110.704ZM240.199 154.757C241.395 160.086 241.178 161.609 239.111 161.718C236.936 161.936 235.304 158.999 230.192 146.055C226.82 137.245 223.992 129.413 223.883 128.652C223.992 127.89 225.515 126.15 227.582 124.736L231.062 122.343L234.978 135.178C237.045 142.248 239.329 151.058 240.199 154.757ZM127.295 24.2315C127.295 30.1052 121.639 32.4981 117.505 28.3648C115.874 26.7333 116.309 21.2947 118.158 19.4456C119.028 18.5754 125.446 18.9018 126.425 19.8807C126.968 20.4245 127.403 22.3824 127.295 24.2315ZM224.971 124.083C222.796 125.606 221.708 125.606 221.708 124.083C221.708 121.69 225.841 119.297 227.364 120.82C227.908 121.364 226.82 122.887 224.971 124.083ZM160.47 59.147C160.47 60.6698 145.133 65.5645 143.502 64.5856C141.435 63.6066 147.2 48.2699 149.81 47.6173C151.224 47.291 153.291 48.9225 156.228 52.7295C158.621 55.7751 160.47 58.7119 160.47 59.147ZM135.344 41.8524C133.168 43.8103 131.102 45.2243 130.667 45.2243C129.144 45.2243 124.467 32.7157 125.554 31.628C126.86 30.3227 136.214 34.0209 138.063 36.5226C139.042 37.9367 138.172 39.4595 135.344 41.8524ZM168.084 69.3715C168.084 70.4592 168.628 70.568 159.6 67.8487C151.659 65.347 151.551 65.0206 158.621 62.7364C162.754 61.4312 163.842 61.8663 165.8 64.9119C166.996 66.9785 168.084 68.9364 168.084 69.3715ZM142.305 55.7751C140.565 60.1259 138.716 63.7154 138.389 63.8242C136.867 63.8242 131.21 48.8138 132.407 47.8348C133.168 47.291 135.017 45.6594 136.649 44.2454C138.933 42.1787 140.021 42.1787 142.523 44.6805C145.133 47.291 145.133 48.8138 142.305 55.7751ZM173.414 85.5784C171.129 89.8204 170.042 90.6906 167.431 90.6906C165.147 90.7994 164.168 91.5608 163.407 94.0625C162.536 96.673 160.796 97.7607 154.379 99.1747C150.137 100.154 146.112 100.045 145.786 99.066C143.719 94.6063 142.196 71.5469 143.828 69.9153C147.852 65.8908 165.908 70.4592 172.761 77.0942C175.698 80.031 175.698 81.1187 173.414 85.5784ZM196.364 123.104C196.364 123.322 195.603 124.953 194.515 126.694C193.101 129.631 192.775 129.522 191.361 126.367C190.382 124.518 186.031 117.992 181.354 111.792C172.435 99.8274 171.129 94.1713 175.263 87.2099L177.329 83.838L186.792 103.308C192.122 114.076 196.473 122.996 196.364 123.104ZM125.337 39.8945C126.533 43.2664 127.73 46.2033 127.73 46.6383C128.056 47.8348 110.979 58.8207 110.109 57.9505C109.13 56.9716 114.895 33.5858 116.418 32.063C117.505 30.9753 120.116 31.628 122.182 33.2595C122.726 33.5858 124.032 36.6314 125.337 39.8945ZM233.999 160.086C234.652 160.739 234.434 162.044 233.564 162.915C232.694 163.785 231.389 164.002 230.736 163.35C228.452 161.065 219.206 140.29 219.968 139.529C220.511 138.985 221.273 137.571 221.925 136.266C222.687 134.634 224.318 137.353 227.908 146.381C230.627 153.234 233.346 159.434 233.999 160.086ZM133.603 59.9084L135.453 64.1505L124.249 63.3891C118.158 62.954 112.937 62.3014 112.719 61.6487C112.611 61.1049 115.983 58.1681 120.333 55.1225C128.817 49.0313 128.817 49.0313 133.603 59.9084ZM169.389 98.3046C168.519 99.6098 167.214 99.8273 166.235 98.8484C164.277 96.8905 164.821 93.9537 167.322 93.1923C169.824 92.6485 171.129 95.694 169.389 98.3046ZM227.582 163.023C230.301 167.7 229.104 168.897 223.122 167.7C218.989 166.83 218.227 166.069 217.031 162.479C215.508 157.476 215.29 144.206 216.704 142.792C217.14 142.357 219.315 145.837 221.49 150.623C223.557 155.301 226.167 160.957 227.582 163.023ZM242.592 172.16C244.006 175.314 239.438 179.883 236.283 178.469C233.455 177.163 231.497 171.507 233.346 169.658C234.869 168.136 239.546 167.809 240.743 169.006C241.178 169.441 241.939 170.855 242.592 172.16ZM133.93 75.6802C131.428 79.4872 126.751 88.2976 123.488 95.0414C120.007 101.785 117.179 107.441 116.961 107.659C116.744 107.876 114.895 99.501 112.828 88.9503C108.477 65.6733 109.13 64.5856 125.337 65.9996C131.646 66.6522 137.084 67.5224 137.41 67.8487C137.845 68.2838 136.214 71.8732 133.93 75.6802ZM185.052 121.146C195.277 135.069 196.147 137.462 197.343 154.104C197.67 156.823 182.659 165.96 178.2 165.851C176.024 165.851 173.522 166.395 172.652 167.265C171.782 168.136 167.649 167.918 163.515 166.83L155.901 164.872L153.4 154.104C151.986 148.339 151.551 142.466 152.421 141.16C153.182 139.746 153.073 137.897 152.312 137.136C151.224 136.048 153.726 130.066 159.926 118.645C165.038 109.399 169.607 101.785 170.259 101.785C170.803 101.894 172.108 102.982 173.087 104.613C174.175 106.136 179.505 113.641 185.052 121.146ZM142.958 99.9361C143.066 100.915 142.631 101.785 141.761 101.785C139.151 101.785 136.323 75.2451 138.716 72.8522C139.477 72.0908 142.305 89.7116 142.958 99.9361ZM209.634 145.294C209.526 147.143 207.676 149.427 204.848 151.385L200.171 154.539L199.41 149.427C197.452 135.939 197.452 134.634 200.389 135.178C204.305 136.048 209.961 142.139 209.634 145.294ZM157.424 118.101C153.508 125.28 149.919 131.262 149.484 131.262C149.158 131.153 148.396 127.564 147.852 123.322C146.873 115.817 147.091 115.164 152.203 110.922C168.301 97.4344 168.736 97.8695 157.424 118.101ZM249.988 199.788C252.599 214.363 255.101 239.054 255.862 259.177C256.188 264.942 254.774 256.566 252.599 240.686C250.641 224.805 247.595 205.444 246.181 197.721C244.659 189.89 244.115 183.037 244.767 182.167C246.508 180.427 246.508 180.862 249.988 199.788ZM153.617 106.897C150.028 109.834 146.656 111.901 146.33 111.575C145.895 111.14 145.568 109.29 145.459 107.224C145.351 103.852 145.677 103.526 152.856 101.785C156.989 100.915 160.47 100.48 160.47 100.915C160.47 101.35 157.424 103.961 153.617 106.897ZM213.985 158.564C215.617 166.069 215.29 166.613 206.154 167.918C202.564 168.462 202.564 168.462 201.15 162.915C199.845 158.129 200.171 156.932 203.434 154.757C205.501 153.343 207.894 151.602 208.655 150.841C210.831 148.666 212.136 150.623 213.985 158.564ZM137.41 98.5221C138.063 100.48 138.607 102.547 138.716 102.873C138.716 103.09 134.256 104.94 128.817 107.115C123.27 109.182 119.028 110.161 119.246 109.29C119.463 107.985 125.881 95.694 133.821 80.5749C135.017 78.5082 135.453 79.8135 135.779 86.231C135.996 90.7994 136.758 96.3467 137.41 98.5221ZM220.946 174.009C218.336 174.227 213.659 175.858 210.287 177.49C204.087 180.644 202.347 179.774 203.543 174.662C204.413 170.746 213.115 168.136 221.164 169.441C227.908 170.746 227.908 173.139 220.946 174.009ZM109.456 65.1294C107.716 66.8697 105.649 65.4557 106.302 62.8452C106.846 60.561 110.218 59.7996 110.762 61.8663C110.87 62.8452 110.326 64.2592 109.456 65.1294ZM112.067 97.9782C114.677 108.638 114.677 109.943 111.305 113.315C107.933 116.687 107.498 116.687 105.432 113.315C98.3616 101.676 97.2739 99.066 98.6879 97.6519C99.5581 96.7818 99.6669 95.3677 98.9055 94.6063C97.8178 93.5186 101.734 79.596 106.302 68.5013C106.519 67.8487 107.39 71.5469 108.042 76.7679C108.586 82.0977 110.435 91.5608 112.067 97.9782ZM143.719 114.838C142.305 114.947 140.565 105.81 141.87 104.504C142.414 103.961 143.393 106.027 143.937 109.182C144.372 112.227 144.372 114.838 143.719 114.838ZM199.192 164.002L199.736 168.244L190.491 168.788C185.27 169.006 182.224 168.788 183.421 168.027C184.726 167.374 188.424 164.981 191.578 162.479C197.996 157.802 198.54 157.911 199.192 164.002ZM137.845 119.841C135.996 121.255 134.365 122.452 134.147 122.452C133.93 122.452 130.993 120.168 127.512 117.339L121.204 112.336L129.905 109.29L138.716 106.354L139.912 111.683C140.891 115.925 140.347 117.775 137.845 119.841ZM146.982 134.199C146.656 134.525 144.154 132.676 141.217 130.174L136.105 125.497L140.674 121.364L145.024 117.231L146.33 125.28C146.982 129.848 147.2 133.764 146.982 134.199ZM196.691 177.599C192.231 181.406 191.361 181.623 187.119 179.121C180.266 175.097 181.789 172.051 191.034 171.29C201.368 170.528 202.891 172.269 196.691 177.599ZM213.55 192.065C214.094 193.914 214.094 195.437 213.55 195.328C212.027 195.328 204.848 182.928 205.827 181.949C208.112 179.665 210.831 183.037 213.55 192.065ZM199.301 183.69C196.908 186.518 195.712 187.062 194.515 185.865C193.21 184.56 193.863 183.037 196.691 180.209C201.585 175.314 203.869 178.251 199.301 183.69ZM216.487 206.097C223.013 218.279 228.452 233.507 226.276 233.507C224.753 233.507 221.055 228.068 215.182 216.756C210.287 207.511 204.74 197.395 202.891 194.241C200.389 189.998 199.954 187.823 201.368 186.409C203.326 184.451 203.652 184.777 208.655 192.827C211.592 197.286 215.073 203.377 216.487 206.097ZM150.137 138.441C150.789 139.746 150.463 141.595 149.593 142.466C147.417 144.641 144.589 140.073 146.547 137.245C148.179 134.743 148.614 134.96 150.137 138.441ZM126.425 129.522C123.161 131.915 120.442 133.329 120.116 132.785C119.354 131.153 118.702 114.62 119.246 114.076C119.681 113.641 131.428 123.431 132.081 124.736C132.189 124.845 129.579 127.02 126.425 129.522ZM143.61 139.964C144.045 144.75 137.628 159.869 135.235 159.869C134.691 159.76 131.319 154.43 127.73 147.795C121.965 137.027 121.53 135.504 124.032 134.09C125.663 133.111 128.6 130.827 130.558 128.869C133.93 125.497 134.147 125.497 138.716 130.066C141.652 133.22 143.284 136.374 143.61 139.964ZM192.557 190.869C189.294 193.914 183.856 194.784 181.571 192.5C180.266 191.195 180.81 190.434 185.378 187.606C189.403 185.321 191.47 184.995 192.884 186.409C194.298 187.823 194.189 189.237 192.557 190.869ZM212.245 216.43C217.466 226.219 221.382 235.138 220.838 236.117C220.185 237.423 219.532 237.205 218.771 235.574C218.118 234.051 212.245 226.002 205.61 217.409C191.578 199.462 189.838 195.763 193.645 191.956C196.038 189.563 196.582 189.672 199.41 194.023C201.259 196.525 207.024 206.64 212.245 216.43ZM183.203 186.518L178.308 189.237L168.084 179.013C162.536 173.465 158.186 168.679 158.403 168.462C158.621 168.244 161.666 168.679 165.038 169.441C169.824 170.528 171.238 171.507 172 174.227C172.979 176.946 173.849 177.599 177.112 177.381C179.396 177.272 182.768 178.686 184.726 180.644C188.206 183.907 188.206 183.907 183.203 186.518ZM151.333 155.953L153.4 164.764L145.895 163.567C141.761 162.915 138.172 162.153 137.954 161.936C137.737 161.718 139.151 158.781 141.109 155.518C143.066 152.255 145.242 148.557 145.786 147.143C147.417 143.553 149.049 146.055 151.333 155.953ZM117.179 123.322L116.961 129.413L114.242 125.606C112.719 123.648 111.849 121.473 112.284 121.038C112.828 120.494 113.59 119.08 114.242 117.775C115.874 113.968 117.397 116.796 117.179 123.322ZM103.365 114.294C106.193 117.122 106.302 116.796 96.1862 122.996C88.5722 127.781 85.7442 128.869 85.8529 127.02C85.8529 126.15 94.9897 101.35 95.4248 100.915C95.6423 100.698 96.9476 103.09 98.3616 106.245C99.7756 109.182 102.06 112.771 103.365 114.294ZM233.455 249.605C235.522 255.587 238.35 262.984 239.873 266.029C243.353 272.773 242.157 273.317 238.241 266.791C236.718 264.18 232.585 257.654 229.104 252.215C221.599 240.577 220.838 238.075 224.21 236.661C227.799 235.03 229.322 237.205 233.455 249.605ZM98.2528 139.638C92.488 148.883 87.0494 157.15 86.1793 158.02C85.3091 158.89 84.5477 155.953 84.5477 150.95C84.5477 145.076 85.4179 141.378 87.4845 139.311C89.1161 137.68 90.095 135.178 89.6599 133.655C88.8985 131.153 89.7687 130.283 97.6002 125.062C110.87 116.143 111.088 119.624 98.2528 139.638ZM114.786 130.066C117.832 133.329 116.2 136.918 103.148 156.279C92.7055 171.942 88.681 176.837 86.8319 176.946C84.9828 176.837 84.4389 175.206 84.874 170.637C85.4179 165.96 88.681 159.651 98.0353 144.641C104.997 133.764 110.87 124.627 111.088 124.41C111.305 124.192 111.849 125.171 112.502 126.476C113.154 127.781 114.133 129.413 114.786 130.066ZM176.242 189.781C174.828 190.977 163.624 196.525 162.972 196.307C162.319 195.872 155.901 170.964 156.445 170.42C156.663 170.202 161.34 174.444 166.67 179.774C172.108 185.213 176.35 189.672 176.242 189.781ZM182.006 199.897C182.333 211.97 173.631 216.539 168.193 206.967C166.779 204.465 164.603 201.855 163.624 201.311C161.775 200.549 167.322 196.96 176.785 192.5C179.614 191.195 181.68 194.349 182.006 199.897ZM207.785 224.153C219.097 239.38 222.361 244.384 221.273 244.384C220.729 244.275 212.789 238.728 203.652 231.767C194.406 224.914 185.052 218.17 182.768 216.756C178.852 214.146 178.852 213.711 181.789 209.904C188.533 200.767 191.687 202.616 207.785 224.153ZM156.445 181.732C158.403 189.128 159.708 195.872 159.491 196.742C159.382 197.504 156.772 197.504 153.726 196.634C149.158 195.328 145.459 192.283 134.256 181.297C126.533 173.574 120.551 167.157 120.768 166.939C121.856 165.851 131.319 164.002 132.081 164.764C132.516 165.199 136.975 165.743 141.761 165.743C146.656 165.851 151.116 166.395 151.768 167.048C152.421 167.7 154.487 174.335 156.445 181.732ZM127.512 162.588C120.877 164.437 118.484 161.392 117.614 150.08C116.418 135.613 118.375 135.395 125.989 149.536L132.298 161.283L127.512 162.588ZM112.828 167.265C110.87 168.353 104.997 171.616 99.5581 174.662L89.6599 179.992L99.5581 165.96C104.997 158.346 110.653 150.08 112.067 147.578L114.677 143.009L115.439 153.995C116.091 163.567 115.765 165.416 112.828 167.265ZM167.105 211.318C166.235 211.753 164.277 211.753 162.536 211.318C160.144 210.882 159.6 209.904 160.035 207.076C160.252 205.118 161.122 203.377 161.775 203.16C163.733 202.725 168.845 210.447 167.105 211.318ZM158.294 205.335C157.315 207.619 156.337 209.468 156.119 209.468C154.596 209.251 127.077 195.002 127.186 194.458C127.295 194.132 128.274 191.63 129.144 189.02C130.123 186.3 130.993 183.69 131.319 182.928C131.537 182.276 133.712 183.799 136.323 186.409L140.891 190.977L135.67 190.325C128.709 189.455 128.926 191.63 135.888 192.718C139.042 193.262 142.74 195.002 144.263 196.525C145.786 198.048 147.526 198.918 148.179 198.265C149.049 197.395 157.424 199.026 159.165 200.549C159.491 200.876 159.056 203.051 158.294 205.335ZM171.891 217.191C172.217 219.04 155.466 242.1 153.726 242.1C152.965 242.209 157.098 217.844 158.403 214.581C158.838 213.493 169.715 213.493 171.021 214.581C171.347 214.907 171.673 216.104 171.891 217.191ZM181.789 234.703C181.028 238.293 178.961 239.489 168.41 243.514C153.835 248.952 153.073 246.886 164.494 232.854L173.957 221.433L178.091 227.089C180.375 230.244 182.006 233.616 181.789 234.703ZM127.839 183.799L127.295 188.911L119.898 189.128C106.302 189.455 86.3968 183.472 92.1617 180.753C93.1406 180.427 99.3405 177.272 105.976 173.9L117.94 168.027L123.161 173.248C127.621 177.707 128.382 179.339 127.839 183.799ZM153.4 227.851C151.768 236.009 150.354 243.079 150.137 243.731C149.593 245.145 112.393 222.086 111.305 219.693C110.762 218.279 113.154 213.711 117.94 207.184C122.074 201.528 125.663 196.851 125.989 196.96C127.512 197.395 154.161 211.209 155.14 211.97C155.793 212.623 155.031 219.693 153.4 227.851ZM225.406 286.37C224.862 286.913 223.992 287.131 223.557 286.696C223.013 286.152 221.273 285.064 219.641 284.085C217.792 283.106 216.922 281.801 217.575 281.149C218.554 280.17 219.968 280.713 225.624 284.629C226.059 285.064 226.059 285.717 225.406 286.37ZM82.3723 158.999C82.2635 173.683 81.9372 174.879 78.0214 177.49L73.6706 180.318L70.7338 172.16C68.0145 164.655 68.0145 163.132 71.4952 155.518C80.4144 135.939 82.481 136.483 82.3723 158.999ZM216.161 280.387C215.29 281.257 212.245 280.605 208.873 278.538C202.564 274.84 164.494 253.303 160.035 250.801C157.424 249.279 157.533 249.17 163.298 247.973C169.28 246.559 169.498 246.777 192.666 261.896C205.501 270.38 216.269 277.668 216.922 278.103C217.466 278.429 217.031 279.517 216.161 280.387ZM228.234 295.506C229.322 297.899 228.343 298.008 222.361 295.289C216.487 292.678 215.399 291.591 215.073 288.871C214.855 286.043 215.073 285.826 218.118 286.261C221.708 286.805 226.167 290.829 228.234 295.506ZM213.115 287.348C212.571 289.415 211.918 291.155 211.483 291.155C208.655 291.155 171.782 276.906 164.386 272.991C148.07 264.289 147.961 264.18 149.484 257.872C150.789 252.433 151.116 252.107 154.705 252.215C156.663 252.215 166.67 257.219 176.894 263.093C187.119 268.966 199.41 275.819 204.087 278.32C208.873 280.713 213.006 282.889 213.333 283.215C213.768 283.433 213.659 285.282 213.115 287.348ZM115.439 206.64C111.74 211.861 107.933 216.104 107.063 216.104C104.235 215.886 90.6389 203.377 92.3792 202.507C93.2494 202.072 98.4704 199.462 104.018 196.96C111.197 193.479 115.112 192.391 118.267 193.37C120.551 194.132 122.4 195.328 122.4 195.981C122.291 196.742 119.246 201.528 115.439 206.64ZM102.277 195.219C97.4914 197.395 92.3792 199.679 91.074 200.332C89.4424 201.093 88.0284 200.549 87.0494 198.7C85.9617 196.742 86.3968 194.784 89.1161 191.63C92.488 187.606 93.2494 187.497 101.625 189.346C106.628 190.434 110.762 191.304 110.762 191.304C110.87 191.413 107.063 193.262 102.277 195.219ZM84.6565 187.388C80.4144 190.542 76.4986 187.279 80.0881 183.69C82.2635 181.514 83.46 181.406 85.2003 183.146C86.8319 184.777 86.8319 185.865 84.6565 187.388ZM147.417 257.328C145.895 268.205 147.309 277.885 151.007 281.584L153.508 284.085L147.309 285.282C143.937 286.043 138.933 287.348 136.323 288.436C133.603 289.633 131.319 289.959 130.993 289.415C130.667 288.654 130.231 282.78 130.123 276.145C129.796 264.942 130.014 264.289 133.495 264.072C140.674 263.636 141.87 254.608 135.126 252.651C133.277 252.107 125.119 246.124 116.853 239.38L101.734 227.089L105.214 224.914C107.172 223.826 108.804 222.847 109.021 222.847C109.891 222.847 147.417 245.798 148.07 246.886C148.505 247.321 148.179 251.998 147.417 257.328ZM73.2355 187.279C73.9969 191.304 74.3232 197.069 73.8881 200.114L73.3443 205.661L69.8636 200.005C65.2952 192.827 63.2286 184.451 64.3163 176.62C64.7514 173.139 65.5128 169.985 65.8391 169.658C67.0356 168.462 71.7127 179.883 73.2355 187.279ZM182.877 300.836C169.824 304.752 154.161 306.275 140.565 304.861C132.951 304.208 131.972 303.664 129.905 299.422C128.709 296.92 127.947 294.636 128.274 294.31C129.253 293.331 148.723 286.913 151.768 286.478C154.923 286.152 192.557 295.071 194.08 296.376C194.515 296.812 189.403 298.878 182.877 300.836ZM86.5056 202.725C86.5056 202.942 84.2214 203.921 81.2846 205.118L75.846 207.293V201.637C75.9548 196.742 76.3899 195.872 78.8916 195.546C81.5021 195.328 85.8529 199.462 86.5056 202.725ZM100.972 224.805C98.5792 224.805 77.4776 210.23 78.3478 209.36C78.6741 209.033 81.067 207.728 83.7863 206.532C88.4635 204.247 88.8985 204.465 95.5336 210.447C100.863 215.342 102.604 217.735 102.821 220.781C102.93 223.282 102.277 224.805 100.972 224.805ZM135.67 260.373C133.93 262.984 129.253 261.352 129.253 258.307C129.253 255.261 134.256 253.521 135.888 256.022C136.649 257.219 136.54 259.068 135.67 260.373ZM128.709 253.847C127.512 254.391 126.533 256.022 126.533 257.545C126.642 259.612 124.793 261.243 116.961 265.812L107.172 271.468L87.8108 265.812C77.1513 262.766 68.4496 259.721 68.3408 259.177C68.3408 258.524 71.7127 255.805 75.7372 253.303C82.046 249.17 83.8951 248.626 88.3547 250.04C98.6879 253.412 124.575 259.068 124.575 257.98C124.684 257.436 115.982 254.826 105.432 252.107C94.8809 249.387 86.5056 246.886 86.8319 246.559C87.0494 246.342 92.3792 244.493 98.4704 242.317C110.762 238.293 112.393 238.619 121.856 248.082C125.446 251.672 127.839 253.194 128.056 252.107C128.382 251.128 129.035 250.91 129.688 251.563C130.449 252.324 130.014 253.412 128.709 253.847ZM93.6845 241.665C86.5056 244.058 80.1969 245.58 79.653 245.037C79.0004 244.384 74.432 243.949 69.6461 243.949H60.7269V238.728L60.6181 233.398L73.7794 232.854C85.0915 232.202 103.365 234.377 105.867 236.661C106.302 236.879 100.755 239.163 93.6845 241.665ZM125.446 273.426C123.488 273.643 112.937 271.794 112.937 271.142C113.046 270.598 121.095 265.594 125.881 263.201C127.186 262.549 127.621 263.854 127.186 267.77C126.751 270.815 125.989 273.317 125.446 273.426ZM128.056 285.391C127.947 291.808 127.403 292.787 124.032 294.419C120.116 296.159 116.526 295.18 118.702 293.005C119.246 292.461 119.028 290.503 118.158 288.763C117.07 286.587 115.439 285.826 112.611 286.043C110.435 286.261 107.063 285.717 105.105 284.629C96.6213 279.843 96.73 280.387 102.821 276.689C107.063 274.187 110.544 273.752 117.179 274.731C121.856 275.492 126.425 276.58 127.077 277.233C127.621 277.777 128.165 281.584 128.056 285.391ZM73.8881 251.672C66.2742 257.328 61.597 256.566 60.0742 249.387C59.6391 247.212 61.1619 246.777 69.3198 246.668C74.6495 246.559 79.2179 246.777 79.4355 246.994C79.653 247.212 77.1513 249.279 73.8881 251.672ZM102.604 274.296C98.7967 278.103 93.5757 278.538 88.0284 275.384C84.7652 273.426 79.4355 270.489 76.1723 268.749C66.1654 263.528 69.5373 262.984 83.8951 267.335C91.6178 269.619 98.6879 271.468 99.8844 271.577C102.495 271.577 103.909 272.991 102.604 274.296ZM128.491 303.012C128.6 304.643 126.751 309.755 124.575 314.324C120.442 322.373 120.116 322.699 116.091 322.808C113.807 322.917 111.632 322.699 111.197 322.264C110.544 321.611 122.182 302.576 125.119 299.64C126.751 298.008 128.056 299.313 128.491 303.012ZM121.421 301.162C119.898 302.685 116.418 307.689 113.807 312.257C111.088 316.717 108.477 320.415 108.042 320.415C107.607 320.415 106.737 316.934 106.084 312.801L104.997 304.969L113.59 300.727C122.726 296.159 126.207 296.376 121.421 301.162ZM57.6813 239.38C57.0286 240.033 55.7234 239.816 54.5269 239.054C52.8953 238.075 53.0041 237.314 54.7444 236.444C57.355 235.356 59.3128 237.314 57.6813 239.38ZM111.523 296.92L115.547 298.334L110.435 299.966C106.411 301.38 104.997 301.054 103.691 298.661C102.821 296.92 100.319 292.678 98.1441 289.198C95.8599 285.608 94.4458 282.454 94.8809 282.019C95.2072 281.692 98.1441 282.889 101.298 284.956C105.649 287.784 106.955 289.306 107.281 292.026C107.498 294.636 108.369 295.724 111.523 296.92ZM58.3339 244.602C58.0076 244.928 54.962 245.58 51.6989 246.016C43.9761 247.212 32.3376 251.019 30.1622 253.194C29.292 254.065 28.0956 254.391 27.5517 253.847C27.0078 253.303 27.5517 252.107 28.857 251.237C30.0534 250.475 34.9481 247.103 39.8428 243.731C48.1094 237.858 48.4357 237.749 51.4813 240.795C53.2217 242.535 55.1795 243.405 55.7234 242.861C56.376 242.209 57.3549 242.317 57.8988 242.861C58.5514 243.514 58.6602 244.275 58.3339 244.602ZM54.8532 257.436C51.8076 261.57 50.5024 262.005 41.4744 261.896C32.3376 261.679 31.3587 261.352 30.8148 258.198C30.3797 254.717 30.5973 254.5 39.0814 251.889C53.6567 247.321 58.4427 246.886 58.2251 250.149C58.2251 251.672 56.7023 254.935 54.8532 257.436ZM89.2248 281.149C89.0073 281.366 83.2424 284.085 76.3899 287.457C60.7268 295.071 57.4637 294.201 57.3549 282.345L57.2462 274.187L62.2496 273.535C69.3198 272.773 91.509 279.082 89.2248 281.149ZM98.9055 294.962C100.646 298.226 101.842 301.162 101.516 301.489C100.319 302.685 84.0038 303.99 83.2424 303.012C82.9161 302.468 84.3301 299.096 86.3968 295.724C88.5722 292.243 90.7476 288.11 91.509 286.478C92.3792 284.085 92.9231 284.194 94.1195 286.261C94.8809 287.675 97.0563 291.591 98.9055 294.962ZM142.74 349.674C137.845 352.394 129.905 357.288 125.119 360.551C115.439 367.186 111.74 367.839 110.218 362.836C109.456 360.116 110 359.137 114.133 356.309C123.379 350.109 151.768 340.864 151.768 344.127C151.768 344.344 147.744 346.846 142.74 349.674ZM148.396 359.681C136.431 366.86 105.649 388.941 98.5791 395.576C96.73 397.207 98.4704 393.944 102.495 387.962C109.239 378.172 110.109 377.302 113.59 377.302C118.484 376.976 120.986 374.256 120.333 370.123C119.681 366.86 120.442 366.316 136.105 356.527C153.073 346.085 152.856 346.085 159.6 351.306C160.252 351.958 155.901 355.222 148.396 359.681ZM74.7583 272.773C68.6671 271.468 67.1443 270.598 68.7759 268.966C69.9724 267.77 75.6285 269.728 78.4565 272.338C79.4355 273.099 77.8039 273.426 74.7583 272.773ZM85.6354 292.352C79.7618 302.359 75.6285 304.752 68.5584 302.25C64.6426 300.945 63.011 299.748 63.3373 298.334C63.7724 296.594 89.8775 282.889 89.7687 284.52C89.8775 284.847 87.8108 288.436 85.6354 292.352ZM64.3163 265.377C62.9023 268.749 58.0076 267.77 58.3339 264.18C58.6602 262.549 59.5304 261.026 60.6181 260.808C63.2286 260.156 65.404 262.984 64.3163 265.377ZM94.5546 311.496C89.9862 315.194 86.0705 318.239 85.7442 318.131C84.7652 318.239 79.653 308.124 80.4144 307.362C80.9582 306.818 101.734 304.099 102.277 304.643C102.386 304.752 99.0142 307.906 94.5546 311.496ZM104.67 319.436C104.888 324.004 103.909 327.376 100.972 331.183C97.0563 336.404 97.0563 336.404 94.7722 332.815C87.9196 321.394 87.8108 322.808 95.5336 314.432C103.474 305.84 103.909 306.057 104.67 319.436ZM116.309 332.162C114.46 335.534 112.393 339.341 111.632 340.537C109.347 344.78 107.39 340.646 108.151 333.576C109.021 325.527 109.347 325.201 114.351 324.983C119.681 324.657 119.898 325.527 116.309 332.162ZM53.8743 270.163C53.8743 270.38 48.762 272.882 42.5621 275.601C36.4709 278.212 30.0534 281.801 28.3131 283.324C24.071 287.566 22.8746 285.499 24.7237 276.689C26.5728 267.008 30.1622 264.289 41.6919 264.072C48.5445 263.963 51.0462 264.724 52.3515 266.9C53.1129 268.531 53.8743 269.945 53.8743 270.163ZM40.3867 290.394C32.2289 290.068 25.05 289.633 24.3973 289.415C22.7658 288.654 34.2955 281.91 45.934 276.798L55.1795 272.773V281.692L55.2883 290.72L40.3867 290.394ZM103.474 341.734C100.102 343.148 98.1441 337.492 100.863 334.773C102.277 333.359 104.018 330.966 104.779 329.552C105.54 328.138 105.976 329.878 105.649 333.902C105.54 337.709 104.453 341.19 103.474 341.734ZM80.6319 314.759C82.481 317.913 81.1758 322.264 77.0425 326.18C75.846 327.376 68.232 334.338 60.183 341.516C47.5656 353.046 45.3901 354.569 44.0849 352.611C41.6919 349.13 53.4392 330.422 66.0566 317.587C75.3022 308.124 76.7162 307.145 77.6951 309.211C78.3477 310.517 79.5442 313.018 80.6319 314.759ZM57.8988 298.769C54.6357 298.769 54.4181 298.552 55.5058 296.159C56.9199 293.005 61.597 293.548 61.597 296.594C61.597 298.117 60.2918 298.769 57.8988 298.769ZM62.5759 317.804C56.5935 324.004 50.7199 330.966 49.741 333.467C48.6533 335.86 47.5656 337.818 47.1305 337.818C46.6954 337.818 54.3094 313.018 58.1163 301.815C58.3339 301.162 71.1689 304.643 73.018 306.057C73.453 306.275 68.6671 311.496 62.5759 317.804ZM93.0318 344.78L90.4213 351.523L74.7583 352.611C66.0566 353.264 56.7023 354.134 53.7655 354.678L48.6533 355.439L65.5128 340.32C74.9758 331.945 83.5687 325.092 84.7652 324.983C86.5056 324.766 88.1371 326.397 91.2915 331.51C95.0985 337.492 95.316 338.797 93.0318 344.78ZM37.5586 298.878C24.071 298.878 22.657 298.552 22.657 295.506C22.657 292.461 24.1798 292.243 38.4288 292.569C51.8076 293.113 53.983 293.548 53.3304 295.941C52.569 298.226 49.4147 298.769 37.5586 298.878ZM109.565 351.306C109.239 352.285 108.151 353.155 107.281 353.155C104.67 353.155 103.691 348.478 106.084 347.825C108.586 347.281 110.109 348.804 109.565 351.306ZM98.4704 347.608C97.1651 351.088 95.4248 352.176 93.6844 350.436C93.0318 349.783 96.295 341.516 97.709 340.102C99.0142 338.797 99.6669 344.453 98.4704 347.608ZM22.4395 275.492C22.0044 278.756 21.1342 283.324 20.8079 285.391C20.3728 288.654 18.85 290.394 13.9553 293.766L7.64661 298.117L12.4325 283.977C16.7834 271.359 20.264 266.138 22.7658 268.64C23.2009 269.075 23.0921 272.229 22.4395 275.492ZM50.1761 318.239C47.1305 327.376 43.9761 337.927 43.1059 341.625C42.2358 345.323 41.2568 348.043 40.8218 347.608C40.3867 347.173 36.7972 340.973 32.7727 333.685C27.3342 324.113 25.5938 319.545 26.3552 316.39C26.7903 313.997 26.1377 311.169 24.7237 309.755C23.4184 308.45 22.4395 305.948 22.657 304.208C22.7658 301.489 25.1587 301.054 39.0814 301.054C47.8919 300.945 55.2883 301.162 55.3971 301.271C55.6146 301.489 53.2216 309.103 50.1761 318.239ZM115.547 373.386C114.46 374.474 112.828 375.018 111.958 374.583C110.109 373.604 111.632 369.035 114.133 368.492C116.744 367.839 117.723 371.211 115.547 373.386ZM99.2318 370.341C95.4248 375.453 91.6178 379.478 91.0739 379.369C90.4213 379.151 90.7476 374.474 91.509 368.927C93.0318 360.007 92.8143 355.874 91.0739 357.615C90.8564 357.832 89.9862 362.618 89.2248 368.165C88.4634 373.713 86.9406 378.716 85.8529 379.151C84.7652 379.586 84.0038 382.306 84.0038 384.916C84.1126 391.769 79.9793 404.168 78.1302 402.537C73.7794 399.056 70.0811 385.134 72.6916 382.523C73.453 381.762 73.7794 379.913 73.3443 378.39C72.6916 376.214 74.6495 373.386 83.6775 364.141L94.8809 352.72L99.8844 356.418C102.604 358.485 105.323 360.334 105.758 360.551C106.084 360.878 103.256 365.229 99.2318 370.341ZM108.586 373.169C107.39 376.323 106.084 377.411 102.169 378.499C95.5336 380.13 94.3371 381.762 100.102 381L104.779 380.456L100.319 387.309C95.0985 395.358 83.3512 407.54 82.0459 406.235C81.5021 405.691 82.3723 401.776 84.0038 397.316C86.5056 390.681 87.3757 389.376 89.9862 389.158C92.7055 388.832 93.4669 388.07 94.4458 384.263C95.4248 380.456 103.691 366.751 107.063 363.379C108.912 361.53 110.109 369.253 108.586 373.169ZM79.2179 365.12L68.9934 375.344L59.4216 367.295C54.2006 362.944 49.9585 358.92 49.8497 358.376C49.9585 357.397 88.0284 353.481 88.8985 354.351C89.2248 354.678 84.874 359.464 79.2179 365.12ZM16.8921 297.791C11.9975 298.117 11.9975 297.464 16.5658 294.419C19.3939 292.461 20.1553 292.569 20.3728 294.745C20.5904 297.138 20.0465 297.682 16.8921 297.791ZM20.3728 304.534C20.1553 306.275 19.5026 309.32 18.85 311.278C18.1974 313.236 18.85 315.846 20.3728 317.369C21.7868 319.001 25.3763 324.766 28.2043 330.204C31.1411 335.752 34.9481 342.604 36.7972 345.541C41.9095 353.916 27.5517 336.731 20.1553 325.853C13.629 316.064 9.06064 301.706 12.215 300.945C19.0676 298.878 20.8079 299.748 20.3728 304.534ZM10.5834 312.148C11.6711 317.587 14.4992 327.811 16.8921 334.99C19.2851 342.169 21.243 348.478 21.243 348.913C21.243 349.348 19.5026 349.783 17.3272 350.001C13.4115 350.218 13.1939 350.001 10.5834 340.646C8.29924 332.271 6.12382 300.075 7.97293 301.706C8.40801 302.141 9.60449 306.818 10.5834 312.148ZM30.4885 343.148C40.4954 354.46 41.4744 357.179 37.7762 360.878C34.2955 364.358 30.0534 363.597 27.0078 358.811C23.0921 352.72 24.3973 351.415 31.9025 353.916C35.6007 355.004 38.6463 355.439 38.7551 354.678C38.6463 353.916 35.3832 352.394 31.3587 351.197L23.9623 349.022L19.829 336.622C15.2606 323.352 14.9343 320.85 18.9588 328.138C20.264 330.531 25.5938 337.383 30.4885 343.148ZM67.797 383.284C68.6671 384.155 69.8636 387.309 70.2987 390.355L71.3864 395.793L66.0566 389.158C56.4848 377.193 46.1515 360.986 47.8919 360.986C50.9375 360.986 65.5128 375.344 65.9478 378.607C66.0566 380.239 66.9268 382.414 67.797 383.284ZM52.2427 374.256C57.1374 381.544 63.5549 389.92 66.2742 392.856C78.4565 405.474 74.1057 404.169 59.3128 390.681C33.099 366.86 33.4253 367.404 37.0148 363.814C39.5165 361.313 42.3445 360.007 43.1059 360.769C43.2147 360.878 47.2392 366.86 52.2427 374.256ZM79.7618 408.084C78.4565 409.39 74.8671 408.628 74.8671 407.105C74.8671 405.583 78.4565 404.821 79.7618 406.126C80.3056 406.67 80.3056 407.54 79.7618 408.084ZM24.071 358.05C25.3763 361.095 25.8114 364.141 25.05 364.902C24.3973 365.555 23.6359 367.839 23.6359 370.014C23.3096 375.127 21.5693 372.951 17.6535 362.509C14.4992 354.569 14.4992 353.699 17.6535 352.72C21.6781 351.523 21.243 351.088 24.071 358.05ZM72.039 408.628C70.625 411.782 60.0742 411.021 52.6778 407.105C45.8252 403.298 34.2955 391.769 28.4219 382.849C25.9201 379.042 23.9622 375.562 23.8535 375.235C23.8535 374.583 29.9447 372.842 34.6218 372.081C34.9481 371.972 43.1059 379.042 52.6778 387.744C62.2496 396.446 70.8425 404.169 71.6039 404.93C72.4741 405.583 72.6916 407.323 72.039 408.628Z" fill="#F0870C"/>
<path d="M142.74 125.389C143.066 128.108 143.828 130.827 144.372 131.371C145.024 132.024 145.242 130.283 144.916 127.564C144.589 124.845 143.937 122.234 143.284 121.582C142.74 121.038 142.414 122.669 142.74 125.389Z" fill="#F0870C"/>
<path d="M308.616 152.037C305.788 152.69 305.897 155.409 308.942 164.329C312.314 173.792 311.553 179.774 303.177 206.423C300.349 215.56 296.76 229.591 295.346 237.749C293.932 245.907 291.865 256.893 290.777 262.114C289.799 267.443 289.581 271.359 290.451 270.924C291.213 270.598 292.844 265.486 293.823 259.721C300.241 226.11 301.981 218.279 307.419 201.311C313.402 182.058 315.577 165.525 312.858 157.367C311.226 151.82 310.9 151.494 308.616 152.037Z" fill="#F0870C"/>
<path d="M410.969 256.349C401.615 253.956 387.149 256.022 367.026 262.44C348.644 268.205 341.465 269.945 311.77 275.492C304.809 276.798 298.718 278.32 298.174 278.864C296.107 280.931 299.153 281.584 303.395 279.952C305.788 279.082 315.686 277.015 325.475 275.492C335.156 273.861 353.212 269.51 365.503 265.703C393.022 257.328 395.959 257.001 406.292 260.591C410.969 262.222 415.32 262.875 416.19 262.005C418.583 259.612 416.843 257.654 410.969 256.349Z" fill="#F0870C"/>
<path d="M535.512 379.804C529.53 375.127 523.33 370.885 522.133 370.341C520.937 369.797 516.912 367.513 513.214 365.337C492.983 352.72 440.881 332.38 415.429 327.376C410.099 326.18 404.661 324.222 403.247 322.808C401.833 321.394 398.57 320.524 395.633 320.85C392.805 321.285 386.713 320.632 382.145 319.545C368.44 316.499 344.402 313.562 321.56 312.04C291.756 310.082 283.816 310.408 283.055 313.345C282.62 315.303 286.862 316.717 303.177 319.98C376.598 334.229 385.082 336.187 387.91 338.797C389.65 340.32 391.826 342.06 392.913 342.713C394.11 343.474 394.11 346.737 392.913 351.197L390.847 358.485L381.275 354.787C375.945 352.72 371.268 351.523 370.615 352.176C369.963 352.829 365.938 351.632 361.805 349.674C357.563 347.608 342.879 341.843 329.282 336.948C315.686 332.053 299.37 325.527 293.062 322.699C284.251 318.675 280.879 317.913 279.357 319.436C277.943 320.85 278.051 321.611 280.118 322.59C285.121 324.548 304.918 335.86 312.967 341.081C320.037 345.976 322.539 348.695 336.353 367.948C350.819 387.853 353.865 393.291 350.819 393.291C347.773 393.291 340.159 386.33 339.072 382.414C337.984 379.151 337.005 378.172 334.395 377.52C330.37 376.541 301.437 345.65 301.002 341.734C300.784 339.994 300.023 339.232 298.283 339.232C296.76 339.232 292.409 335.969 288.385 331.945C280.227 323.787 276.964 321.829 274.897 323.896C273.592 325.201 280.444 338.797 285.883 345.541C287.188 347.281 288.82 349.348 289.581 350.109C290.125 350.871 290.125 352.176 289.472 352.829C288.602 353.699 287.297 352.611 285.448 349.892C281.097 343.148 268.479 330.313 267.718 331.727C267.392 332.488 271.96 347.064 278.051 364.25C288.276 393.183 293.823 406.561 300.458 416.895L302.96 420.919L298.283 420.375C295.781 420.049 291.974 418.2 289.907 416.133C286.1 412.326 285.23 409.716 271.634 356.744C268.262 343.583 265.108 332.815 264.455 332.815C263.911 332.706 263.694 334.229 264.237 336.078C264.672 337.818 266.63 345.432 268.479 352.937C271.525 365.12 271.634 368.274 269.132 379.042C267.392 385.786 265.978 391.551 265.651 391.877C265.325 392.204 264.89 386.548 264.89 379.151C264.564 363.597 260.757 333.685 259.234 335.208C258.581 335.86 259.125 343.148 260.213 351.632C263.041 372.734 264.02 438.323 261.518 439.954C260.43 440.607 256.841 442.238 253.687 443.435L247.704 445.719L251.185 417.221C255.318 382.849 257.167 337.057 254.557 337.057C253.251 337.057 252.055 340.429 251.511 345.541C249.988 358.811 244.767 380.783 238.132 400.688C231.497 420.375 230.41 422.551 228.125 419.179C227.255 417.874 228.996 411.347 233.02 401.667C236.501 393.183 240.634 382.523 242.048 378.063C245.094 368.492 249.771 339.015 248.466 337.709C247.922 337.166 245.42 338.797 242.592 341.19C238.567 344.997 237.262 347.608 235.413 356.418C229.757 384.263 211.375 418.309 178.526 462.687C158.621 489.336 157.207 492.055 157.098 502.606C156.772 517.073 165.147 529.364 183.747 541.873L192.449 547.746L186.031 554.164C182.55 557.644 178.2 560.907 176.35 561.234C172.108 562.213 170.368 566.346 173.196 569.174C176.024 572.002 180.157 570.262 181.136 566.02C181.463 564.171 184.943 559.602 188.75 555.795L195.712 548.834L201.694 552.206C204.957 553.946 214.855 557.536 223.557 560.146C246.181 566.89 267.5 566.672 286.97 559.82C294.802 556.992 303.83 553.837 306.984 552.858C311.879 551.227 313.946 549.378 321.668 540.35C332.002 528.059 337.114 517.725 338.963 504.999C340.812 492.491 340.377 483.571 337.44 471.28C335.156 461.6 335.265 461.056 338.093 465.189C357.889 493.905 361.696 498.364 372.465 504.129C384.756 510.764 402.268 508.48 422.064 497.603C426.959 494.884 431.31 493.578 433.376 494.122C435.878 494.884 437.618 494.231 440.011 491.403C443.383 487.378 470.685 475.087 472.425 476.828C472.969 477.371 474.057 477.154 474.818 476.392C477.537 473.673 502.228 465.95 504.621 467.038C506.035 467.582 507.993 467.147 509.19 465.95C512.018 463.122 540.189 456.052 544.105 457.14C546.498 457.793 549.217 456.379 556.179 450.505C564.228 443.979 565.751 442.021 567.817 436.038C573.038 420.593 560.747 399.165 535.512 379.804ZM550.74 406.562C545.845 410.804 544.975 411.021 541.386 408.954C539.319 407.758 535.838 406.67 533.989 406.562C530.726 406.344 527.463 402.428 516.695 385.134C514.519 381.653 516.368 378.934 521.154 378.934C522.895 378.934 524.853 378.499 525.505 377.846C526.049 377.302 528.768 378.281 531.379 380.239C533.989 381.979 536.817 383.937 537.579 384.263C538.449 384.699 542.909 388.723 547.586 393.4L556.179 401.776L550.74 406.562ZM564.772 419.288C568.035 429.077 566.512 436.909 560.421 443C555.744 447.677 554.873 448.112 553.894 445.828C553.242 444.305 552.916 441.586 553.242 439.737C553.459 437.996 552.372 433.863 550.74 430.709C548.891 427.554 547.477 422.225 547.368 418.635C547.151 412.979 547.695 412 552.263 408.737C557.375 405.147 557.593 405.147 560.094 409.172C561.726 411.456 563.684 416.025 564.772 419.288ZM518.87 374.474C516.586 379.586 513.758 381.109 511.039 378.39C507.232 374.583 486.239 363.379 468.836 355.765C458.285 351.306 453.39 348.369 453.39 346.846C453.39 342.495 450.562 341.843 447.299 345.106C445.123 347.281 443.166 347.934 441.534 347.173C440.12 346.411 431.853 343.148 423.369 339.885C409.99 334.773 407.706 333.359 407.598 330.857C407.706 328.355 409.664 328.355 421.194 331.401C428.59 333.359 438.271 336.295 442.622 337.818C447.081 339.45 451.106 340.646 451.759 340.646C455.892 340.211 513.867 366.425 518.653 370.776C519.414 371.537 519.523 373.169 518.87 374.474ZM510.495 383.72C507.232 385.895 504.404 383.72 507.014 381.109C508.319 379.804 509.951 379.478 511.039 380.565C512.018 381.544 511.8 382.849 510.495 383.72ZM545.193 419.07C545.193 423.421 540.951 428.968 537.144 429.73C527.898 431.579 521.154 419.179 527.681 412.653C531.053 409.281 533.337 408.737 537.905 410.042C543.017 411.456 545.193 414.284 545.193 419.07ZM503.642 382.088C502.555 384.699 501.032 386.874 500.053 386.765C496.898 386.656 448.604 355.33 447.516 352.72C446.429 350.327 446.755 350.218 449.692 350.762C456.001 351.85 496.79 371.102 504.839 376.758C505.274 376.976 504.621 379.369 503.642 382.088ZM524.418 401.34C526.811 405.039 528.225 408.846 527.681 410.042C526.811 411.782 525.505 410.695 520.067 404.169C516.151 399.383 513.105 396.772 512.561 397.316C511.909 397.969 509.19 396.119 506.362 393.291L501.358 388.288L506.144 388.07C508.863 387.962 511.691 387.309 512.453 386.548C513.758 385.242 515.498 387.2 524.418 401.34ZM551.284 438.214C551.502 438.431 550.958 439.41 550.087 440.28C548.021 442.347 547.803 442.13 545.41 435.168C542.691 427.228 545.519 424.617 548.565 432.231C549.87 435.277 551.066 437.996 551.284 438.214ZM523.547 413.958C523.004 414.937 520.828 414.067 517.783 411.674C514.628 408.954 513.432 407.323 514.411 406.344C516.804 403.951 525.07 410.912 523.547 413.958ZM508.755 400.905C508.537 403.081 507.014 402.646 500.597 399.056C496.246 396.663 492.548 394.27 492.548 393.835C492.656 393.291 493.962 392.204 495.593 391.442C497.442 390.463 499.727 391.007 502.337 392.965C504.512 394.705 506.905 396.446 507.558 397.098C508.319 397.642 508.972 399.383 508.755 400.905ZM544.649 440.28C544.105 443 541.168 441.151 538.993 436.582C537.688 433.754 537.579 431.688 538.775 431.144C540.298 430.491 541.277 431.252 542.909 434.624C544.105 436.909 544.758 439.519 544.649 440.28ZM492.983 390.572C489.72 392.095 487.544 391.877 484.499 389.702C482.106 388.179 472.969 383.393 464.158 379.369C453.934 374.583 447.299 370.558 445.776 368.383C444.362 366.099 442.404 365.011 440.446 365.229C438.38 365.337 435.552 363.814 432.397 360.66L427.611 355.874L432.506 352.502C438.38 348.369 439.794 348.043 440.229 350.218C440.446 351.088 439.902 352.067 438.924 352.176C436.857 352.72 436.313 357.397 437.727 362.074C438.815 365.555 438.815 365.555 439.141 361.095C439.359 356.744 439.467 356.636 443.057 357.179C445.015 357.397 448.93 358.92 451.65 360.334C455.783 362.509 493.309 385.677 496.355 387.853C496.79 388.288 495.267 389.376 492.983 390.572ZM551.937 448.221C552.807 454.747 542.691 457.684 539.863 451.593C538.558 448.547 541.168 444.196 545.193 443C549 441.803 551.066 443.435 551.937 448.221ZM522.895 420.484C522.46 422.66 506.797 428.751 505.818 426.902C505.165 425.596 508.972 412 510.604 410.151C512.126 408.411 523.547 417.874 522.895 420.484ZM507.341 412.109C506.144 414.828 504.948 417.112 504.621 417.221C504.404 417.221 503.098 413.523 501.793 408.954C499.618 401.123 499.727 400.797 502.881 402.646C508.863 406.018 509.407 406.997 507.341 412.109ZM538.34 440.716C539.102 442.565 539.537 444.305 539.21 444.631C538.449 445.393 525.288 440.933 525.288 439.845C525.179 439.302 526.267 436.909 527.681 434.624C530.944 428.533 533.337 429.838 538.34 440.716ZM524.744 434.733L522.242 439.41L514.084 435.821C509.625 433.754 505.818 431.905 505.491 431.579C505.274 431.361 509.19 429.621 514.193 427.663C522.025 424.617 523.765 424.617 525.288 427.01C526.702 428.86 526.484 431.47 524.744 434.733ZM498.639 406.235C501.902 414.502 502.99 424.291 500.597 426.684C498.856 428.424 493.962 428.098 470.358 425.161C467.313 424.726 472.207 409.172 476.232 406.888C477.755 406.018 479.278 403.842 479.386 402.211C479.604 400.035 480.8 398.839 484.825 396.772C489.176 394.597 490.372 394.705 493.092 397.425C494.832 399.165 497.334 403.19 498.639 406.235ZM482.976 395.141C477.755 398.186 469.488 397.751 465.79 394.053C464.158 392.421 458.067 387.853 452.52 384.046C446.973 380.239 442.295 377.085 442.187 376.976C442.187 376.976 443.274 376.106 444.797 375.235C446.755 374.148 450.78 375.344 459.264 379.695C465.79 382.741 474.492 387.091 478.407 389.049C482.541 391.007 485.913 392.639 486.13 392.856C486.348 392.856 484.825 393.944 482.976 395.141ZM434.899 348.804C432.071 351.632 426.85 350.544 416.952 345.215C406.51 339.559 404.443 337.927 405.748 336.622C406.51 335.86 433.267 344.78 435.552 346.629C436.096 346.955 435.769 347.934 434.899 348.804ZM538.123 451.81C538.014 453.659 534.533 455.182 525.505 457.684C518.653 459.533 512.779 460.403 512.453 459.642C512.018 458.772 514.193 454.638 517.347 450.179L522.786 442.13L529.203 444.631C537.144 447.568 538.558 448.547 538.123 451.81ZM515.281 448.982C512.562 453.007 509.951 456.487 509.19 456.814C508.537 457.031 507.558 452.137 506.905 445.828C506.144 436.365 506.362 434.407 508.537 435.495C509.951 436.256 512.453 437.452 514.193 438.105C519.958 440.389 520.067 441.803 515.281 448.982ZM477.428 402.646C477.428 405.039 473.186 405.8 471.12 403.733C469.162 401.776 470.467 398.73 473.404 398.839C475.253 398.73 477.428 400.905 477.428 402.646ZM400.092 335.316C398.243 337.601 396.829 338.145 394.545 336.948C389.215 334.229 390.52 327.05 396.177 327.05C400.745 327.05 403.029 331.727 400.092 335.316ZM422.934 354.243C422.064 355.113 417.278 354.895 412.383 353.699C404.226 352.067 403.247 351.306 402.05 347.716C401.398 345.541 400.419 343.692 399.766 343.692C399.113 343.692 399.548 346.302 400.419 349.565C402.92 357.506 397.155 368.927 391.934 366.751C389.868 365.772 391.064 360.008 393.784 357.288C394.219 356.853 395.198 353.481 395.959 349.674C397.155 343.257 397.482 342.713 401.289 342.169C403.791 341.625 408.576 343.148 413.471 345.867C423.804 351.632 424.783 352.394 422.934 354.243ZM468.292 400.253C465.137 403.625 434.573 419.396 433.485 418.309C432.724 417.547 430.548 417.33 428.482 417.874C426.524 418.309 420.324 417.547 414.776 416.133L404.661 413.849L402.92 405.8C401.941 401.558 402.05 397.098 402.92 396.011C404.008 394.923 404.443 392.748 403.791 391.007C403.247 388.941 404.443 386.004 407.489 382.088C409.99 378.934 412.601 375.235 413.145 374.039C414.559 371.102 432.18 373.495 438.706 377.411C443.057 380.021 463.941 395.032 467.639 398.295C468.4 398.839 468.727 399.818 468.292 400.253ZM497.334 432.123C493.962 433.102 469.488 431.035 468.509 429.621C467.204 427.881 470.793 427.772 485.042 429.186C493.2 429.947 500.053 430.709 500.27 430.926C500.488 430.926 499.183 431.579 497.334 432.123ZM504.512 445.175C506.144 461.382 504.948 461.926 481.671 457.575C471.12 455.508 462.309 453.659 462.092 453.442C461.874 453.224 465.246 451.375 469.488 449.308C473.622 447.351 482.649 442.673 489.502 438.866C496.355 435.277 502.119 432.558 502.555 432.993C502.99 433.428 503.86 438.866 504.512 445.175ZM434.79 370.232C434.573 372.19 432.397 372.407 425.436 371.537L416.19 370.123L418.692 365.664C420.541 362.509 421.955 361.313 424.566 361.095C428.808 360.769 435.225 366.534 434.79 370.232ZM387.149 324.766C386.278 325.636 378.773 324.874 370.615 323.243C362.24 321.611 346.142 319.218 334.939 318.022C323.735 316.825 310.791 315.194 306.005 314.541C297.956 313.236 298.174 313.236 309.16 313.562C329.065 314.324 385.952 321.176 388.345 323.134C388.454 323.243 387.91 324.004 387.149 324.766ZM461.33 414.828L454.369 423.312L446.32 422.007C441.86 421.463 438.162 420.593 438.271 420.267C438.162 419.94 441.752 417.874 446.102 415.698C450.453 413.523 457.306 409.716 461.222 407.323C465.246 405.039 468.4 403.842 468.4 404.712C468.292 405.691 465.246 410.26 461.33 414.828ZM468.509 416.568L465.681 425.053L461.222 424.944C458.72 425.053 456.762 424.617 456.762 423.965C456.871 422.986 470.467 407.432 470.902 407.867C471.011 407.976 469.923 411.891 468.509 416.568ZM417.931 362.292C416.843 364.032 415.429 366.534 414.885 367.73C414.45 369.036 411.405 369.471 407.271 369.036L400.527 368.165L402.812 361.313C403.899 357.615 405.205 354.569 405.531 354.678C410.099 355.548 418.583 357.723 419.127 358.267C419.562 358.702 419.018 360.551 417.931 362.292ZM385.191 331.727C384.647 333.141 379.426 332.706 369.636 330.313C361.587 328.355 342.77 324.766 327.433 322.264C281.097 314.65 280.009 313.562 324.061 318.892C352.994 322.373 383.885 327.376 385.408 328.899C385.843 329.334 385.735 330.531 385.191 331.727ZM476.558 443.109C468.292 447.459 461.113 450.94 460.569 451.049C460.025 450.94 461.33 446.589 463.18 441.259C466.225 432.34 466.878 431.47 469.379 432.231C470.902 432.667 476.45 433.428 481.671 434.081C486.892 434.516 491.351 435.059 491.46 435.168C491.569 435.059 484.825 438.758 476.558 443.109ZM507.341 464.101C503.642 464.101 503.207 460.186 506.797 459.859C508.755 459.642 509.733 460.186 509.733 461.926C509.733 463.449 509.081 464.101 507.341 464.101ZM405.748 381.218C403.573 384.263 401.398 386.221 400.962 385.569C400.527 385.134 400.419 381.544 400.854 377.628L401.398 370.558L406.075 371.32C411.513 371.972 411.405 373.169 405.748 381.218ZM491.025 467.582C475.797 472.585 469.271 472.585 461.113 467.256C457.415 464.863 454.478 462.796 454.478 462.579C454.478 462.361 455.566 460.621 456.653 458.663C458.611 455.4 459.916 455.4 474.492 458.663C483.085 460.512 492.548 462.143 495.593 462.143C504.512 462.143 503.425 463.449 491.025 467.582ZM461.439 428.86C455.022 428.098 453.064 425.923 459.155 426.575C461.765 426.793 464.376 427.446 465.137 428.207C465.79 428.86 464.158 429.186 461.439 428.86ZM458.067 448.765C457.85 448.765 455.239 445.719 452.085 441.912C446.864 435.386 446.646 434.951 449.474 432.123C451.759 429.838 454.151 429.403 458.394 430.382L464.05 431.688L461.33 440.28C459.699 444.958 458.285 448.765 458.067 448.765ZM387.584 363.053C386.17 364.032 383.124 363.162 378.882 360.66C370.833 355.874 372.138 353.916 381.275 357.397C389.65 360.551 390.303 361.204 387.584 363.053ZM398.896 378.063C398.787 387.309 395.959 389.049 391.173 382.958C387.801 378.716 387.801 378.499 392.478 373.821C395.089 371.211 397.699 369.471 398.134 369.906C398.57 370.341 399.005 374.039 398.896 378.063ZM452.302 427.119C451.976 427.446 448.713 426.793 445.015 425.705C437.183 423.53 435.769 424.726 443.274 427.228C449.583 429.186 449.909 429.512 447.408 432.014C445.776 433.645 444.253 433.21 440.338 429.73C433.811 424.291 435.443 422.007 444.58 423.747C450.78 424.944 453.281 426.14 452.302 427.119ZM389.324 373.06C385.299 378.172 382.254 376.649 385.626 371.102C387.257 368.165 390.412 366.969 392.478 368.6C392.587 368.709 391.173 370.776 389.324 373.06ZM383.233 369.579C381.819 370.558 378.664 369.362 373.226 365.881C368.875 363.053 358.759 357.288 350.602 353.264C339.507 347.608 336.026 345.215 336.679 343.909C337.549 341.734 340.268 342.713 357.78 350.871C367.461 355.33 378.121 361.857 383.342 366.207C384.756 367.404 384.647 368.6 383.233 369.579ZM433.703 422.66C433.376 424.509 427.285 424.291 427.394 422.442C427.285 420.593 431.745 418.744 433.05 420.049C433.594 420.593 433.92 421.789 433.703 422.66ZM441.099 439.193C435.008 448.33 433.92 448.547 425.654 443.979C413.906 437.67 409.882 434.733 411.078 433.537C411.731 432.884 415.103 431.035 418.583 429.295C428.046 424.835 432.941 425.596 441.317 432.884C443.166 434.516 443.166 436.038 441.099 439.193ZM453.064 446.589L457.523 451.049L447.408 450.505C436.204 449.744 435.66 448.547 442.948 441.042C445.667 438.105 446.646 437.779 447.516 439.737C448.169 441.042 450.562 444.087 453.064 446.589ZM377.359 375.888C373.77 379.478 369.963 377.628 352.559 364.358C344.293 358.05 336.461 352.394 334.939 351.741C333.198 350.871 333.089 350.327 334.503 349.565C336.353 348.587 339.942 350.218 364.633 363.597C379.208 371.428 380.514 372.734 377.359 375.888ZM382.906 383.176C380.078 389.049 379.1 390.028 377.577 388.506C375.619 386.548 377.142 378.934 379.861 377.302C383.668 375.018 385.299 378.172 382.906 383.176ZM392.261 391.442C392.152 393.291 393.566 395.793 395.633 397.642C399.44 400.797 403.029 408.954 401.398 410.586C400.31 411.674 380.949 392.53 381.492 390.681C381.71 390.028 382.798 387.853 384.103 385.677C386.17 382.306 386.605 382.306 389.542 385.242C391.282 386.983 392.478 389.702 392.261 391.442ZM418.475 426.793C414.776 428.751 410.969 430.817 409.882 431.252C408.685 432.014 407.706 430.165 406.619 424.944C405.748 420.81 405.966 417.547 407.054 417.547C410.969 417.547 424.675 421.028 425.001 422.225C425.218 422.877 422.282 424.944 418.475 426.793ZM451.541 455.944C449.148 457.031 446.429 457.358 445.667 456.596C444.906 455.835 442.948 454.53 441.534 453.768C439.903 453.007 441.752 452.463 446.538 452.463C456.001 452.354 457.197 453.115 451.541 455.944ZM451.65 460.838C449.692 460.838 449.583 460.294 451.65 458.228C453.716 456.161 454.26 456.27 454.26 458.228C454.26 460.186 453.608 460.838 451.65 460.838ZM332.219 346.629C330.37 348.043 326.346 346.194 312.205 337.709C302.634 331.836 294.693 326.724 294.584 326.397C294.693 326.071 297.848 327.267 301.763 329.008C305.788 330.857 314.707 334.338 321.777 336.839C334.612 341.19 336.896 343.474 332.219 346.629ZM466.878 475.196C466.334 475.522 460.787 477.806 454.695 480.199C448.604 482.81 442.948 484.333 442.295 483.68C441.208 482.592 451.65 465.407 453.281 465.515C454.26 465.624 464.593 471.607 466.551 473.347C467.53 474.108 467.639 474.87 466.878 475.196ZM364.742 381.979C363.654 385.242 356.258 391.116 354.952 389.811C354.517 389.376 349.949 383.067 344.837 375.562C339.724 368.274 333.089 359.029 330.044 355.113C326.998 351.197 324.823 347.934 325.258 347.934C327.107 348.043 354.3 367.839 359.847 373.169C364.524 377.628 365.394 379.369 364.742 381.979ZM374.205 399.056L369.963 406.562L362.675 401.232C358.651 398.295 355.931 395.793 356.801 395.576C357.563 395.467 357.78 394.814 357.128 394.162C355.061 392.095 364.307 387.2 369.636 387.744C378.121 388.397 378.991 390.572 374.205 399.056ZM399.984 413.958C399.548 413.958 393.24 412.435 385.952 410.586L372.9 407.105L376.38 400.144L380.078 393.183L390.52 403.625C396.177 409.281 400.419 413.958 399.984 413.958ZM428.155 469.975C419.997 475.305 411.513 480.743 409.229 482.157C403.899 485.747 394.436 486.291 393.022 483.136C392.478 481.722 392.805 480.308 393.892 479.873C394.871 479.329 404.008 473.238 414.233 466.277C424.457 459.315 433.376 453.442 434.029 453.224C436.096 452.68 444.362 457.901 443.709 459.207C443.492 459.859 436.422 464.754 428.155 469.975ZM448.278 467.256C446.864 469.322 444.688 473.021 443.166 475.631C440.881 479.221 439.359 480.308 435.769 480.852C433.159 481.07 430.548 482.375 429.678 483.68C428.808 485.203 425.327 485.856 419.236 485.203C410.861 484.442 410.426 484.224 413.145 482.375C424.131 475.522 446.538 461.165 446.864 460.838C447.081 460.621 448.06 461.165 448.931 462.035C449.801 462.905 449.474 465.189 448.278 467.256ZM404.552 425.053L405.748 431.688L397.373 434.624L388.998 437.344L381.928 429.186C374.857 421.246 370.615 412.218 373.008 410.912C374.64 410.151 400.527 416.025 402.159 417.439C402.812 418.091 403.899 421.572 404.552 425.053ZM432.615 451.158C430.766 453.007 410.752 452.137 408.794 450.179C406.945 448.33 406.619 448.438 407.054 450.614C407.489 452.354 407.162 452.898 406.292 452.028C405.205 450.94 408.359 437.126 409.555 437.67C409.773 437.888 414.994 440.716 421.194 444.087C427.285 447.568 432.506 450.396 432.832 450.505C432.941 450.614 432.941 450.831 432.615 451.158ZM420.65 458.989C417.713 460.838 409.664 466.277 402.703 471.063L389.977 480.091L396.938 467.473L403.682 454.856L414.776 454.638C420.868 454.421 425.871 454.638 425.871 455.073C425.98 455.617 423.587 457.358 420.65 458.989ZM405.313 442.565C404.443 445.393 403.464 447.677 403.029 447.677C401.615 447.568 391.717 439.845 392.261 439.302C394.11 437.452 404.443 434.951 405.64 436.147C406.401 436.909 406.292 439.845 405.313 442.565ZM366.7 408.302C366.047 408.954 364.089 409.825 362.131 410.477C358.759 411.456 358.759 411.456 358.651 406.126L358.433 400.905L362.24 403.407C367.896 406.888 368.005 406.997 366.7 408.302ZM372.247 422.333C372.573 423.747 373.879 426.358 375.075 428.207C377.577 432.231 379.1 443.326 376.924 443.326C375.619 443.326 361.261 416.786 361.044 414.175C361.044 413.74 362.784 412.653 364.959 411.782C369.31 410.26 369.528 410.477 372.247 422.333ZM342.444 414.502C334.612 416.025 327.977 417.221 327.651 416.895C326.454 415.698 350.71 397.969 352.886 398.404C354.082 398.73 355.387 401.558 355.823 405.256L356.693 411.565L342.444 414.502ZM292.953 341.952C291.756 344.888 294.258 347.39 297.521 346.52C301.328 345.323 328.63 376.106 327.868 380.783C327.651 382.523 327.868 384.481 328.412 385.025C330.044 386.656 329.391 390.572 326.998 394.705L324.823 398.186L309.16 375.127C279.9 331.945 275.55 324.983 277.943 325.636C279.248 325.853 283.381 329.117 287.188 332.924C292.3 338.036 293.714 340.32 292.953 341.952ZM342.77 400.905C328.412 412.218 325.258 414.502 324.17 413.414C323.626 412.87 325.149 407.214 327.325 400.905C332.328 387.418 334.612 386.004 342.988 391.334C346.142 393.183 348.861 395.032 349.188 395.141C349.514 395.249 346.468 397.86 342.77 400.905ZM384.538 439.845C381.166 441.042 380.514 440.824 380.296 438.214C380.187 436.582 379.643 433.645 379.1 431.796C378.338 428.86 378.882 429.186 383.342 433.428C388.236 438.323 388.345 438.431 384.538 439.845ZM395.306 465.189C391.499 472.259 387.801 478.133 387.149 478.133C383.885 478.133 378.664 446.372 381.492 443.544C384.864 440.172 391.608 441.695 397.047 447.133L402.159 452.245L395.306 465.189ZM365.938 429.512C370.072 437.344 373.552 444.087 373.552 444.305C373.661 444.631 368.657 448.112 362.458 452.354C354.191 458.01 350.71 459.533 349.514 458.336C347.665 456.487 326.237 422.007 326.237 420.702C326.237 419.832 357.128 413.74 357.889 414.502C358.107 414.719 361.805 421.463 365.938 429.512ZM308.833 378.716C323.844 400.905 323.953 401.014 322.539 406.779C321.777 409.933 320.798 412.218 320.581 412C320.037 411.456 299.697 375.888 292.735 363.271C290.125 358.485 289.255 355.222 290.342 354.134C291.213 353.264 292.409 353.372 292.844 354.46C293.388 355.439 300.567 366.316 308.833 378.716ZM429.678 491.077C429.46 491.294 424.022 493.905 417.604 497.059C406.292 502.497 405.64 502.497 398.678 499.669C390.629 496.406 390.52 496.298 393.566 491.294C395.524 488.031 397.591 487.705 411.513 487.922C420.106 488.031 427.829 488.792 428.482 489.445C429.243 490.206 429.787 490.968 429.678 491.077ZM285.556 354.351C285.665 354.895 283.707 355.33 281.423 355.222C277.507 355.222 277.29 355.004 274.679 348.043C272.286 341.952 272.395 341.19 275.006 342.278C277.943 343.474 285.556 352.176 285.556 354.351ZM317.318 410.912C318.079 411.674 318.514 413.632 318.405 415.263C318.188 417.656 316.991 418.418 312.532 419.614C306.005 421.354 303.939 419.505 296.869 405.256C292.409 396.446 279.683 363.053 279.465 360.008C279.357 359.029 280.879 357.941 282.728 357.397C285.992 356.744 286.644 357.615 301.111 383.176C309.269 397.642 316.556 410.151 317.318 410.912ZM377.577 453.333C378.012 455.291 369.854 474.761 367.787 476.828C366.373 478.242 353.756 465.189 354.3 462.905C354.626 461.926 358.977 458.01 364.198 454.312C373.661 447.677 376.271 447.459 377.577 453.333ZM381.819 472.585C382.254 475.196 381.275 477.48 378.229 480.526C374.422 484.333 373.552 484.55 371.486 482.484C370.072 481.07 369.201 479.764 369.528 479.438C369.745 479.22 372.029 474.543 374.531 468.996L378.991 459.098L380.187 463.993C380.731 466.712 381.492 470.519 381.819 472.585ZM254.23 345.65L253.687 352.72L253.36 346.085C253.251 342.278 253.469 338.797 254.122 338.145C254.666 337.601 254.992 337.492 254.992 337.927C254.883 338.253 254.557 341.843 254.23 345.65ZM243.788 361.313C241.178 376.106 229.431 408.519 225.406 412.544C224.753 413.197 223.013 412.326 221.273 410.586C218.554 407.867 218.771 406.779 223.231 397.751C229.757 384.481 238.132 359.79 238.785 352.394C239.111 348.587 240.634 345.106 242.918 342.822L246.725 339.232L246.181 345.215C245.964 348.478 244.767 355.765 243.788 361.313ZM333.524 437.996C338.745 446.916 344.075 455.073 345.163 456.161C346.359 457.358 346.468 460.294 345.598 463.34L343.858 468.561L335.047 458.228C330.153 452.463 323.735 444.305 320.798 440.063C317.861 435.821 314.272 431.144 312.967 429.403C307.746 423.312 307.855 423.421 312.967 422.225C315.686 421.681 319.167 421.463 320.798 421.572C322.43 421.681 323.735 421.898 323.844 421.789C323.844 421.789 328.086 429.077 333.524 437.996ZM388.128 488.684C388.128 490.424 387.475 491.294 385.517 491.512C380.296 491.947 378.882 486.617 383.777 484.333C385.952 483.245 388.128 485.203 388.128 488.684ZM253.034 372.299C252.49 382.197 250.423 402.972 248.574 418.744L245.202 447.133L236.174 452.463C221.49 461.056 221.382 458.772 235.196 416.895C241.939 397.098 248.466 374.474 249.988 366.86C251.402 359.137 253.034 353.155 253.36 353.699C253.795 354.134 253.578 362.618 253.034 372.299ZM278.486 393.183C280.879 402.755 283.381 411.565 284.034 413.088C285.339 415.916 277.072 442.021 274.679 442.456C273.809 442.673 271.525 441.259 269.567 439.302C264.237 433.972 264.237 401.993 269.567 385.134C271.634 378.499 273.483 373.604 273.7 374.474C273.918 375.127 276.093 383.611 278.486 393.183ZM398.787 504.782C390.085 507.392 373.335 503.911 367.896 498.473L365.612 496.189L370.615 495.536C375.619 494.884 380.514 495.862 393.349 500.213C401.506 502.933 402.376 503.803 398.787 504.782ZM363.328 486.726C362.022 489.771 360.935 492.382 360.826 492.491C360.717 492.599 357.237 488.031 353.103 482.375C348.97 476.501 345.272 471.498 344.837 471.063C343.423 469.649 346.251 467.691 349.731 467.473C352.233 467.364 354.517 468.996 359.303 474.217C365.394 481.178 365.503 481.505 363.328 486.726ZM374.205 488.684C375.728 492.164 373.443 493.796 367.57 493.578C363.001 493.361 362.675 493.252 363.98 490.859C364.851 489.554 365.829 487.27 366.482 485.747C367.243 484.115 368.331 483.68 370.072 484.768C371.486 485.529 372.682 486.291 372.9 486.291C373.008 486.399 373.552 487.378 374.205 488.684ZM308.942 427.772C309.595 429.077 308.833 431.361 307.419 432.775C306.114 434.081 305.244 436.474 305.679 437.779C306.223 439.845 303.395 440.28 292.3 440.28C284.251 440.28 278.921 439.519 279.9 438.54C280.771 437.67 282.62 432.558 283.925 427.119L286.427 417.439L290.234 419.94C292.409 421.463 296.76 422.768 300.132 423.095C306.441 423.53 307.202 424.074 308.942 427.772ZM314.598 436.256C315.251 439.302 310.9 441.477 308.616 439.193C307.637 438.214 307.963 436.582 309.704 434.842C312.64 431.905 313.619 432.231 314.598 436.256ZM329.174 456.705C331.567 460.403 331.458 462.252 327.977 471.171C325.802 476.828 323.735 481.505 323.3 481.505C321.56 481.505 312.532 442.891 314.163 442.347C316.012 442.021 324.932 450.505 329.174 456.705ZM337.44 491.077C337.44 504.564 336.135 509.568 332.546 509.894C328.195 510.329 326.454 507.936 326.346 501.301C326.237 498.147 325.693 493.687 325.04 491.294C324.388 488.684 325.475 483.245 327.651 478.242C333.96 463.014 333.96 463.014 335.809 473.129C336.788 478.024 337.44 486.073 337.44 491.077ZM320.798 485.964C321.016 488.14 312.314 500.975 310.574 500.975C310.139 500.975 307.637 493.034 305.026 483.245C302.307 473.564 299.805 465.189 299.37 464.754C298.935 464.319 300.784 460.077 303.395 455.291C306.114 450.614 308.725 445.828 309.16 444.74C309.921 443.109 320.363 479.873 320.798 485.964ZM302.851 451.266C298.827 458.554 298.391 458.336 297.086 447.459L296.542 442.565L302.09 442.456C305.135 442.456 307.419 442.782 306.984 443.435C306.767 444.087 304.809 447.568 302.851 451.266ZM295.672 453.007C296.542 459.098 296.107 462.796 293.606 467.256C290.016 473.891 290.886 474.108 285.774 465.08C284.795 463.449 284.142 460.186 284.142 458.01C284.142 452.789 281.858 450.505 278.051 451.484C275.114 452.245 274.897 452.028 275.332 448.547C275.658 446.48 276.42 444.196 277.181 443.435C278.486 442.13 292.3 442.456 293.714 443.87C294.149 444.305 295.02 448.438 295.672 453.007ZM323.844 504.238C323.626 508.371 323.3 508.697 320.254 508.697C315.033 508.697 313.293 503.694 316.556 498.69C318.079 496.298 320.037 493.252 320.798 491.838C322.212 489.336 322.321 489.445 323.191 494.448C323.626 497.494 324.061 501.845 323.844 504.238ZM302.634 484.115C305.026 492.599 306.114 498.908 305.244 498.473C303.286 497.385 292.627 480.635 291.865 477.263C291.321 474.978 296.977 465.842 297.739 467.691C298.065 468.452 300.241 475.849 302.634 484.115ZM270.002 445.61C268.588 446.372 262.715 450.07 257.058 453.768L246.616 460.512L247.16 454.747C247.487 451.593 248.574 448.765 249.336 448.438C250.206 448.003 254.122 446.045 258.364 443.979C264.999 440.607 267.392 440.607 271.307 443.435C271.851 443.979 271.199 444.849 270.002 445.61ZM266.63 460.947C264.237 463.775 262.279 464.21 255.101 463.557C248.466 463.014 246.943 462.361 249.227 461.382C250.859 460.621 257.167 456.705 263.15 452.68L274.136 445.393L271.743 451.484C270.437 454.747 268.044 459.098 266.63 460.947ZM333.633 515.332C332.763 516.203 331.24 516.203 330.37 515.332C329.391 514.354 329.717 513.375 331.023 512.722C332.328 512.287 333.742 512.178 334.286 512.722C334.83 513.266 334.503 514.462 333.633 515.332ZM277.507 462.905C281.097 463.666 290.125 473.999 288.602 475.522C287.841 476.284 268.479 465.189 268.697 464.101C269.023 462.687 272.395 454.747 272.939 454.203C273.265 453.877 273.7 455.4 273.809 457.901C274.027 461.382 274.571 462.143 277.507 462.905ZM327.107 514.462C326.781 515.441 327.977 517.29 329.609 518.269C332.11 520.118 332.11 521.206 329.282 525.992C327.325 529.038 323.518 534.585 320.581 538.174L315.251 544.809L319.058 533.388C321.233 527.08 323.518 519.357 324.17 516.094C324.714 512.939 325.802 510.764 326.346 511.308C326.998 511.961 327.325 513.375 327.107 514.462ZM319.493 524.687C315.686 538.501 315.142 539.697 311.009 539.262C306.441 538.827 307.746 520.771 312.532 515.332C315.904 511.525 320.363 509.676 322.104 511.417C322.539 511.852 321.342 517.834 319.493 524.687ZM220.076 422.225C218.445 424.944 213.876 432.558 209.743 439.084C203.108 449.852 202.129 451.049 199.736 450.396C196.147 449.417 191.578 453.986 192.557 457.575C193.21 459.968 192.122 461.056 183.094 467.691C177.438 471.607 172.87 474.87 172.87 474.652C172.87 474.435 178.961 465.95 186.466 455.835C193.971 445.937 203.869 431.47 208.547 423.965C213.115 416.351 216.922 410.151 217.14 409.933C217.248 409.825 218.662 411.239 220.185 413.414C222.469 416.351 222.469 418.091 220.076 422.225ZM275.223 482.81L265.978 488.14L267.065 477.698C267.827 470.628 268.806 467.691 270.111 468.343C274.462 470.519 284.36 476.501 284.469 477.045C284.469 477.263 280.335 479.873 275.223 482.81ZM294.584 493.252C296.216 498.799 297.195 505.652 296.869 508.371L296.325 513.266L288.167 513.157C275.876 513.048 274.462 509.459 281.749 496.08C284.686 490.315 287.623 484.55 288.276 483.245C289.907 479.656 291.43 482.049 294.584 493.252ZM222.252 438.105C215.834 455.4 211.919 461.056 206.698 460.186C203.978 459.859 203.543 458.989 203.978 455.291C204.305 452.789 205.392 449.961 206.589 448.765C207.676 447.677 212.136 440.824 216.487 433.428C225.841 417.765 224.971 418.635 226.82 420.484C227.69 421.354 225.624 429.295 222.252 438.105ZM272.286 506.196C270.329 507.066 269.785 506.522 268.153 501.845C265.434 494.34 267.283 490.533 276.311 485.203C280.444 482.81 284.578 480.635 285.556 480.308C287.841 479.764 275.006 504.999 272.286 506.196ZM301.872 500.105C302.09 504.455 299.262 501.627 297.521 495.536L295.672 489.119L298.718 493.687C300.458 496.08 301.872 499.017 301.872 500.105ZM308.725 509.568C308.507 511.525 307.637 512.178 305.897 512.178C302.416 512.178 301.546 511.09 302.851 508.262C304.809 503.694 309.051 504.673 308.725 509.568ZM258.69 488.684C256.297 487.813 253.795 486.399 253.034 485.856C251.62 484.442 255.427 478.242 261.627 472.042L265.978 467.691L263.15 490.533L258.69 488.684ZM253.578 477.48L248.248 482.157L241.395 477.698L234.325 473.238L238.241 469.322C241.395 466.168 243.68 465.624 251.946 465.842C261.518 466.277 261.736 466.494 260.322 469.649C259.451 471.389 256.406 475.087 253.578 477.48ZM244.876 455.291C244.55 457.14 243.68 459.533 242.701 460.512C240.852 462.361 228.234 462.579 228.343 460.729C228.343 459.207 243.788 450.505 244.659 451.375C244.985 451.701 245.094 453.551 244.876 455.291ZM305.897 529.799C305.462 535.238 303.939 540.676 302.634 541.981C301.328 543.287 296.542 545.027 291.756 545.897L283.164 547.529L286.862 542.09C288.928 539.371 292.518 532.301 295.02 526.753C298.609 518.378 299.805 516.529 301.763 516.964C306.223 517.943 306.876 519.901 305.897 529.799ZM223.557 446.807C222.143 452.572 219.641 457.031 219.532 453.877C219.641 452.028 224.318 439.737 224.862 440.28C224.971 440.389 224.427 443.326 223.557 446.807ZM284.034 542.308L280.662 547.202L280.227 531.974C280.009 523.708 279.248 516.42 278.595 515.768C277.943 515.115 281.967 514.789 287.514 515.115L297.521 515.55L292.518 526.427C289.799 532.409 285.992 539.48 284.034 542.308ZM235.848 468.452C233.564 469.866 231.389 470.736 230.845 470.192C230.41 469.757 229.213 470.519 228.452 471.933C226.494 475.196 219.968 477.371 219.315 474.761C219.097 473.673 218.336 473.999 217.466 475.522C216.487 477.371 212.354 478.459 203.652 478.894C196.908 479.112 191.252 478.894 191.361 478.133C191.361 477.045 195.277 474.217 207.024 466.821C209.199 465.515 210.287 465.95 212.897 469.214C215.834 472.803 216.813 473.129 222.143 471.715C226.059 470.845 228.343 469.431 228.778 467.691C229.322 465.842 231.171 464.863 234.652 464.428C240.96 463.775 241.287 464.972 235.848 468.452ZM243.571 512.287C230.083 522.511 218.771 528.167 217.031 525.557C215.943 523.817 218.118 520.771 230.627 506.957C247.487 488.357 250.532 486.399 257.167 490.424C261.409 492.926 261.409 492.926 257.494 498.799C254.992 502.606 249.88 507.501 243.571 512.287ZM266.739 503.912C267.936 507.501 268.371 510.982 267.827 511.525C266.195 513.157 233.673 523.708 233.781 522.729C233.673 522.185 235.957 520.553 238.567 519.031C241.178 517.725 247.922 511.852 253.36 506.413C258.908 500.866 263.694 496.515 264.02 496.841C264.346 497.168 265.651 500.431 266.739 503.912ZM275.332 513.592C274.027 514.027 272.395 513.918 271.525 513.048C270.655 512.178 270.764 510.764 271.634 509.894C272.504 509.024 274.244 509.241 275.441 510.438C276.855 511.852 276.855 512.939 275.332 513.592ZM229.648 504.673C221.708 513.266 215.182 519.575 215.182 518.487C215.29 516.203 218.445 486.943 219.097 482.592C219.424 479.873 220.729 478.785 225.841 476.501C231.715 474.108 232.476 474.217 238.567 478.568C243.788 482.266 244.985 483.68 244.55 486.073C244.332 487.596 237.697 495.971 229.648 504.673ZM222.687 464.428C222.034 466.821 217.901 466.821 217.248 464.428C216.813 462.47 220.729 460.077 222.143 461.491C222.687 462.035 222.904 463.34 222.687 464.428ZM277.943 531.648C278.269 539.806 278.16 546.876 277.834 547.202C277.399 547.637 275.767 548.181 274.353 548.508C272.178 548.943 271.743 546.115 271.634 532.953C271.634 523.599 272.395 516.529 273.592 515.985C274.788 515.441 276.093 515.441 276.528 515.876C276.964 516.311 277.616 523.49 277.943 531.648ZM268.806 531.431C268.697 544.157 267.936 547.746 265.869 548.073C264.455 548.181 262.062 547.094 260.648 545.68C259.234 544.266 256.623 543.613 254.883 544.048C252.816 544.809 246.508 542.416 236.501 537.413C228.125 533.171 221.708 529.364 222.252 529.255C225.95 527.732 268.479 514.354 268.697 514.571C268.915 514.789 269.023 522.294 268.806 531.431ZM300.241 551.988C295.128 555.143 273.048 562.43 272.722 561.016C272.613 560.472 274.353 557.862 276.746 555.251C280.335 551.227 282.837 550.03 290.886 548.508C301.763 546.55 306.549 548.29 300.241 551.988ZM200.28 458.336C199.192 459.424 197.234 459.642 196.038 458.88C193.754 457.249 196.147 453.115 199.41 453.115C201.912 453.224 202.455 456.161 200.28 458.336ZM206.48 464.754C205.066 465.298 200.824 468.017 196.691 470.628L189.512 475.414L191.034 469.322C192.231 463.557 192.557 463.231 196.799 462.252C204.413 460.729 211.592 462.47 206.48 464.754ZM214.638 502.28C213.333 512.939 212.027 521.641 211.592 521.641C211.266 521.532 207.459 516.855 202.999 511.09C197.67 504.238 195.385 500.213 196.473 499.343C197.234 498.799 201.912 494.34 206.806 489.663C211.592 484.877 215.943 481.396 216.378 482.049C216.813 482.484 215.943 491.62 214.638 502.28ZM203.761 489.227C198.431 493.905 193.427 497.385 192.666 497.059C191.905 496.733 189.838 497.059 187.989 497.82C184.182 499.669 167.322 494.992 167.322 492.164C167.322 489.771 180.484 485.094 185.161 485.856C187.01 486.182 189.403 485.529 190.599 484.333C192.34 482.592 211.592 479.22 212.897 480.526C213.115 480.743 209.09 484.768 203.761 489.227ZM274.679 554.708C271.96 557.427 271.743 557.427 271.743 554.164C271.743 552.206 272.613 550.465 273.592 550.139C277.181 549.378 277.616 551.771 274.679 554.708ZM185.378 475.631C183.203 477.154 181.136 479.438 180.81 480.852C180.484 482.701 177.547 484.333 172 486.182C164.929 488.466 163.951 488.357 164.712 485.856C165.473 482.919 180.701 470.736 186.684 468.017C190.817 466.277 189.62 472.694 185.378 475.631ZM270.002 555.034C268.588 559.493 266.957 559.82 257.494 556.665C249.336 553.946 236.718 545.68 229.322 538.066C225.406 534.15 226.276 534.367 237.045 540.132C243.788 543.613 250.423 547.855 251.946 549.595C253.904 551.771 255.971 552.315 258.473 551.553C263.258 550.03 269.023 549.704 270.111 550.792C270.655 551.336 270.546 553.185 270.002 555.034ZM254.23 562.974C236.718 562.43 222.469 558.623 221.055 553.946C220.511 552.097 220.403 550.248 220.838 549.813C221.382 549.269 226.929 550.683 233.238 552.858C239.546 555.034 249.771 557.862 255.862 559.167C261.953 560.255 267.065 561.669 267.065 562.322C267.065 562.974 261.192 563.192 254.23 562.974ZM235.087 550.792L221.49 545.897L217.14 531.539L226.494 539.371C231.606 543.613 238.35 548.616 241.178 550.357C249.88 555.795 249.227 555.795 235.087 550.792ZM206.045 518.487C208.329 521.424 209.852 523.817 209.417 523.817C207.894 523.817 176.133 500.54 176.024 499.561C176.133 499.017 179.396 499.669 183.421 501.083C187.445 502.497 191.361 503.585 192.231 503.368C193.645 503.041 196.147 505.978 206.045 518.487ZM217.14 544.592C216.052 546.332 208.22 541.981 206.806 539.045C205.719 536.652 210.613 530.452 213.333 530.343C215.073 530.343 218.445 542.852 217.14 544.592ZM207.894 531.866C206.698 533.497 204.74 534.802 203.652 534.802C202.347 534.802 194.841 527.515 183.747 515.332C173.957 504.673 166.235 495.862 166.67 495.862C167.214 495.971 172.652 500.105 178.852 504.999C185.161 510.003 193.863 516.311 198.213 519.139C208.873 525.883 210.613 528.276 207.894 531.866ZM164.168 494.448C162.21 496.406 160.361 493.905 162.101 491.512C162.863 490.098 163.842 489.989 164.494 491.294C164.929 492.382 164.821 493.796 164.168 494.448ZM216.813 552.315C215.943 554.055 214.855 555.36 214.747 555.251C211.375 554.272 197.887 547.964 197.778 547.42C197.778 545.027 207.894 544.048 212.136 545.897C218.88 549.16 218.771 549.051 216.813 552.315ZM191.578 527.95C197.996 535.455 198.431 536.543 197.126 540.459C196.255 542.634 195.277 544.918 194.841 545.353C193.645 546.55 178.743 535.564 171.129 527.95C163.515 520.336 159.817 512.504 159.6 504.02C159.382 494.884 162.536 495.862 174.393 508.806C179.94 514.789 187.771 523.49 191.578 527.95ZM205.066 541.655C204.522 542.199 202.891 542.743 201.477 543.069C199.084 543.504 198.866 543.287 199.41 541.002C199.736 539.588 200.606 538.283 201.259 538.066C202.999 537.631 206.154 540.567 205.066 541.655Z" fill="#F0870C"/>
<path d="M288.276 277.015C286.427 279.735 284.251 280.822 279.683 281.257C269.458 282.127 268.914 284.194 277.072 292.352C285.013 300.292 287.079 299.966 288.167 291.047C288.493 288.327 290.451 284.412 292.409 282.454C295.563 279.299 295.781 278.429 293.388 276.036C290.995 273.643 290.451 273.752 288.276 277.015ZM283.49 289.198C282.62 290.068 281.206 289.959 280.335 289.089C278.486 287.24 278.595 286.913 281.967 285.499C284.686 284.303 285.883 286.805 283.49 289.198Z" fill="#F0870C"/>
<path d="M281.967 270.271C278.051 270.271 273.157 274.513 273.918 277.233C274.571 280.278 282.076 279.735 285.448 276.363C288.928 272.882 287.406 270.271 281.967 270.271Z" fill="#F0870C"/>
<path d="M294.584 283.106C291.539 284.412 289.146 292.461 291.213 294.527C293.606 296.92 298.609 292.352 298.827 287.784C299.044 282.998 297.848 281.584 294.584 283.106Z" fill="#F0870C"/>
<path d="M269.023 290.394C267.718 294.527 265.978 296.485 264.672 295.18C264.129 294.636 264.455 293.005 265.434 291.591C271.199 283.65 257.058 287.566 248.139 296.268C227.799 316.39 233.781 340.646 257.276 333.032C267.174 329.878 276.42 321.503 280.662 312.257C284.469 303.882 283.055 298.334 278.16 303.229C276.637 304.752 275.114 305.404 274.897 304.534C274.679 303.664 275.767 302.141 277.29 301.271C279.357 300.075 279.465 299.096 277.725 297.355C275.55 295.18 274.788 295.724 259.125 310.734L242.701 326.506L258.581 310.19C267.283 301.271 273.918 293.548 273.374 293.005C272.83 292.461 271.851 290.829 271.307 289.415C270.22 287.24 269.893 287.348 269.023 290.394ZM274.679 312.801C272.721 318.022 270.111 320.632 262.823 324.657C256.188 328.464 252.49 329.117 252.055 326.941C251.62 325.201 270.002 306.383 272.178 306.383C275.114 306.275 276.093 308.994 274.679 312.801ZM260.865 298.769C260.43 301.597 243.027 319.218 241.722 317.913C239.329 315.52 250.206 298.769 256.297 295.724C259.778 293.766 261.192 294.745 260.865 298.769Z" fill="#F0870C"/>
<path d="M227.799 331.836C222.252 338.471 222.252 338.688 225.406 342.495C229.866 348.043 233.455 347.934 239.22 342.169L244.006 337.383L239.655 334.338C237.153 332.706 234.869 329.987 234.325 328.355C233.346 325.418 232.911 325.636 227.799 331.836ZM233.564 339.123C232.694 339.994 231.497 340.32 230.953 339.776C229.539 338.362 230.301 335.643 232.041 335.643C234.434 335.643 235.196 337.492 233.564 339.123Z" fill="#F0870C"/>
<path d="M213.441 342.06C202.891 348.913 202.238 349.783 205.61 355.983C208.547 361.313 216.813 367.186 220.403 366.425C221.164 366.099 224.21 362.4 227.255 358.05C231.715 351.632 232.15 349.892 230.301 349.13C225.189 347.064 222.143 344.453 221.164 341.081C220.185 337.927 219.641 338.036 213.441 342.06ZM223.339 351.741C225.515 359.137 214.311 362.292 210.722 355.439C208.22 350.762 217.575 343.801 221.382 347.608C221.817 348.043 222.687 350.001 223.339 351.741Z" fill="#F0870C"/>
<path d="M197.778 353.59C195.385 356.418 195.385 358.158 197.887 363.053C200.28 368.057 201.694 369.471 207.133 372.299C212.571 375.127 213.768 375.235 215.834 372.516C218.771 368.492 218.662 367.73 215.725 367.404C209.852 366.751 205.719 362.4 201.694 352.937C200.715 350.436 200.062 350.653 197.778 353.59Z" fill="#F0870C"/>
<path d="M190.056 361.313C184.182 368.709 199.845 385.677 208.003 380.783C212.571 378.172 212.571 376.867 208.003 375.562C203.434 374.257 194.515 365.337 194.515 362.292C194.515 358.158 192.775 357.941 190.056 361.313Z" fill="#F0870C"/>
<path d="M182.442 368.492C179.178 371.755 180.919 376.758 187.119 382.958C194.189 390.028 197.017 390.898 200.606 387.309C203.326 384.59 203.326 384.155 200.498 383.284C196.364 381.979 186.249 371.864 186.792 369.579C187.554 366.425 185.161 365.772 182.442 368.492Z" fill="#F0870C"/>
<path d="M175.263 377.846L172.108 381L179.07 387.962C187.88 396.772 190.164 397.751 193.536 394.379C195.712 392.204 195.712 391.334 193.645 390.572C188.098 388.07 182.768 383.393 180.701 379.151C178.635 374.692 178.417 374.692 175.263 377.846Z" fill="#F0870C"/>
<path d="M169.715 383.393C169.389 383.72 168.628 385.134 167.975 386.439C165.582 391.877 179.722 404.277 184.508 400.797C186.575 399.165 186.14 398.295 178.635 390.79C174.175 386.33 170.15 382.958 169.715 383.393Z" fill="#F0870C"/>
<path d="M163.733 392.639C161.34 396.99 162.101 401.449 165.582 404.93C168.845 408.193 175.045 408.519 177.982 405.583C179.505 404.06 179.178 403.298 176.677 402.102C172.435 400.035 169.389 396.99 167.322 392.748C165.691 389.593 165.473 389.593 163.733 392.639Z" fill="#F0870C"/>
<path d="M158.403 401.232C157.533 402.102 155.793 405.365 154.596 408.302C151.442 415.807 154.923 417.765 163.842 413.632L170.803 410.368L166.996 408.954C164.059 407.758 162.754 406.453 161.558 403.516C160.361 400.144 159.817 399.818 158.403 401.232Z" fill="#F0870C"/>
</g>
</svg>
