<svg width="347" height="271" viewBox="0 0 347 271" fill="none" xmlns="http://www.w3.org/2000/svg">
<path opacity="0.5" d="M131.134 48.6089H252.433C277.675 48.6089 298.137 69.0712 298.137 94.3128V94.3128C298.137 119.554 277.675 140.017 252.433 140.017H93.6385C68.5088 140.017 48.1372 160.388 48.1372 185.518V185.518C48.1372 210.648 68.5088 231.019 93.6385 231.019H195.348" stroke="#F0870C" stroke-width="2.5" stroke-linecap="round" stroke-dasharray="47.7 47.7"/>
<g filter="url(#filter0_f_71_888)">
<circle cx="131.499" cy="48.6089" r="13.5" stroke="#F0870C" stroke-width="5"/>
<circle cx="298.137" cy="94.3022" r="13.5" stroke="#F0870C" stroke-width="5"/>
<circle cx="173.137" cy="139.814" r="13.5" stroke="#F0870C" stroke-width="5"/>
<circle cx="48.1372" cy="185.507" r="13.5" stroke="#F0870C" stroke-width="5"/>
<path d="M195.688 205.34C195.688 205.34 198.021 203.006 205.021 203.006C212.021 203.006 216.688 207.673 223.688 207.673C230.688 207.673 233.021 205.34 233.021 205.34V177.34C233.021 177.34 230.688 179.673 223.688 179.673C216.688 179.673 212.021 175.006 205.021 175.006C198.021 175.006 195.688 177.34 195.688 177.34V205.34Z" stroke="#F0870C" stroke-width="5" stroke-linecap="round" stroke-linejoin="round"/>
<path d="M195.688 224.358L195.688 200.068" stroke="#F0870C" stroke-width="5" stroke-linecap="round" stroke-linejoin="round"/>
<circle cx="195.225" cy="231.02" r="5" stroke="#F0870C" stroke-width="5"/>
</g>
<circle cx="131.499" cy="48.6089" r="13.5" stroke="#F0870C" stroke-width="5"/>
<circle cx="298.137" cy="94.3022" r="13.5" stroke="#F0870C" stroke-width="5"/>
<circle cx="173.137" cy="139.814" r="13.5" stroke="#F0870C" stroke-width="5"/>
<circle cx="48.1372" cy="185.507" r="13.5" stroke="#F0870C" stroke-width="5"/>
<path d="M195.688 205.34C195.688 205.34 198.021 203.006 205.021 203.006C212.021 203.006 216.688 207.673 223.688 207.673C230.688 207.673 233.021 205.34 233.021 205.34V177.34C233.021 177.34 230.688 179.673 223.688 179.673C216.688 179.673 212.021 175.006 205.021 175.006C198.021 175.006 195.688 177.34 195.688 177.34V205.34Z" stroke="#F0870C" stroke-width="5" stroke-linecap="round" stroke-linejoin="round"/>
<path d="M195.688 224.358L195.688 200.068" stroke="#F0870C" stroke-width="5" stroke-linecap="round" stroke-linejoin="round"/>
<circle cx="195.225" cy="231.02" r="5" stroke="#F0870C" stroke-width="5"/>
<defs>
<filter id="filter0_f_71_888" x="0.137207" y="0.608887" width="346" height="269.911" filterUnits="userSpaceOnUse" color-interpolation-filters="sRGB">
<feFlood flood-opacity="0" result="BackgroundImageFix"/>
<feBlend mode="normal" in="SourceGraphic" in2="BackgroundImageFix" result="shape"/>
<feGaussianBlur stdDeviation="16" result="effect1_foregroundBlur_71_888"/>
</filter>
</defs>
</svg>
