<svg width="128" height="129" viewBox="0 0 128 129" fill="none" xmlns="http://www.w3.org/2000/svg">
<g clip-path="url(#clip0_61_1117)">
<path d="M128 112.006C128 120.843 120.837 128.006 112 128.006L16 128.006C7.16344 128.006 -6.26248e-07 120.843 -1.39876e-06 112.006L-9.79135e-06 16.0064C-1.05639e-05 7.1698 7.16343 0.00635822 16 0.00635745L112 0.00634906C120.837 0.00634828 128 7.16979 128 16.0063L128 112.006Z" fill="url(#paint0_linear_61_1117)"/>
<path d="M137.061 155.98C118.604 174.238 87.1573 187.418 64.0777 195.25C51.9332 199.371 41.3796 187.589 45.9549 175.608L74.2252 101.579C75.8294 97.3781 79.1271 94.0463 83.3111 92.3991L158.287 62.8809C170.474 58.0827 182.509 69.0279 178.075 81.3522C169.423 105.398 155.255 137.984 137.061 155.98Z" fill="url(#paint1_linear_61_1117)"/>
<path d="M49.4189 44.7821C42.5848 51.542 35.6661 60.1157 29.1557 69.1283C19.3413 82.7148 -5.16358 76.1539 -5.16358 59.3934L-5.16358 13.0781C-5.16358 4.24158 1.99986 -2.92186 10.8364 -2.92187L49.968 -2.92187C67.1253 -2.92187 74.0536 24.081 60.6758 34.8238C56.6642 38.0453 52.8603 41.378 49.4189 44.7821Z" fill="url(#paint2_linear_61_1117)"/>
</g>
<defs>
<linearGradient id="paint0_linear_61_1117" x1="195.904" y1="64.0062" x2="-4.06254e-05" y2="64.0063" gradientUnits="userSpaceOnUse">
<stop stop-color="#ED2723"/>
<stop offset="1" stop-color="#FBA60B"/>
</linearGradient>
<linearGradient id="paint1_linear_61_1117" x1="-451.981" y1="634.189" x2="226.521" y2="10.9465" gradientUnits="userSpaceOnUse">
<stop stop-color="#E02610"/>
<stop offset="1" stop-color="#E07F0C"/>
</linearGradient>
<linearGradient id="paint2_linear_61_1117" x1="45.3097" y1="43.312" x2="-39.0315" y2="-20.1756" gradientUnits="userSpaceOnUse">
<stop stop-color="#FBA60B"/>
<stop offset="1" stop-color="#ED2723"/>
</linearGradient>
<clipPath id="clip0_61_1117">
<path d="M0 16C0 7.16345 7.16344 0 16 0H112C120.837 0 128 7.16344 128 16V112.013C128 120.849 120.837 128.013 112 128.013H16C7.16344 128.013 0 120.849 0 112.013V16Z" fill="white"/>
</clipPath>
</defs>
</svg>
