<svg width="128" height="129" viewBox="0 0 128 129" fill="none" xmlns="http://www.w3.org/2000/svg">
<g clip-path="url(#clip0_61_1172)">
<path d="M128 112.006C128 120.843 120.837 128.006 112 128.006L16 128.006C7.16344 128.006 -6.26248e-07 120.843 -1.39876e-06 112.006L-9.79135e-06 16.0064C-1.05639e-05 7.1698 7.16343 0.00635822 16 0.00635745L112 0.00634906C120.837 0.00634828 128 7.16979 128 16.0063L128 112.006Z" fill="#F0870C"/>
<path d="M33.8435 164.022C27.551 174.133 18.2411 182.327 9.29439 188.536C-1.23753 195.845 -13.1581 186.022 -10.2242 173.543L2.18146 120.774C3.13424 116.721 5.62918 113.199 9.13653 110.956L29.0248 98.2369C40.6713 90.7887 55.1916 100.541 51.8908 113.965C47.5389 131.665 41.3819 151.91 33.8435 164.022Z" fill="url(#paint0_linear_61_1172)"/>
<path d="M41.4189 115.613C34.5848 122.373 27.6661 130.947 21.1557 139.959C11.3413 153.546 -13.1636 146.985 -13.1636 130.224L-13.1636 83.9092C-13.1636 75.0726 -6.00014 67.9092 2.83641 67.9092L41.968 67.9092C59.1253 67.9092 66.0536 94.9121 52.6758 105.655C48.6642 108.876 44.8603 112.209 41.4189 115.613Z" fill="url(#paint1_radial_61_1172)"/>
<path d="M90.3876 39.1216C74.2714 22.8285 -39.6057 -35.4063 -125.674 -78.2045C-142.186 -86.4151 -134.021 -111.969 -115.813 -109.05L173.023 -62.741C180.126 -61.6021 185.596 -55.863 186.392 -48.7136L217.938 234.558C220 253.074 193.45 259.882 186.249 242.699C151.07 158.75 105.549 54.4489 90.3876 39.1216Z" fill="url(#paint2_linear_61_1172)"/>
<path d="M28.1888 114.799C21.8084 118.294 13.5211 120.418 5.40418 121.702C-7.29235 123.71 -14.3959 109.559 -6.73853 99.2339L3.34014 85.6444C6.01864 82.0329 10.0931 79.7151 14.5663 79.2584L32.945 77.3819C45.9533 76.0537 54.4614 89.8074 45.8103 99.6124C40.4242 105.717 34.3258 111.438 28.1888 114.799Z" fill="url(#paint3_linear_61_1172)"/>
</g>
<defs>
<linearGradient id="paint0_linear_61_1172" x1="63.7667" y1="132.741" x2="53.6614" y2="113.755" gradientUnits="userSpaceOnUse">
<stop stop-color="white"/>
<stop offset="1" stop-color="#FB9724"/>
</linearGradient>
<radialGradient id="paint1_radial_61_1172" cx="0" cy="0" r="1" gradientUnits="userSpaceOnUse" gradientTransform="translate(51.9631 72.7476) rotate(118.246) scale(47.1113 79.9419)">
<stop stop-color="#FB9724"/>
<stop offset="1" stop-color="white"/>
</radialGradient>
<linearGradient id="paint2_linear_61_1172" x1="34.1433" y1="93.5521" x2="146.537" y2="-14.9118" gradientUnits="userSpaceOnUse">
<stop offset="0.32402" stop-color="#F0870C"/>
<stop offset="1" stop-color="white"/>
</linearGradient>
<linearGradient id="paint3_linear_61_1172" x1="-24.6365" y1="103.206" x2="50.4144" y2="103.951" gradientUnits="userSpaceOnUse">
<stop stop-color="white"/>
<stop offset="1" stop-color="#FB9724"/>
</linearGradient>
<clipPath id="clip0_61_1172">
<path d="M0 16C0 7.16345 7.16344 0 16 0H112C120.837 0 128 7.16344 128 16V112.013C128 120.849 120.837 128.013 112 128.013H16C7.16344 128.013 0 120.849 0 112.013V16Z" fill="white"/>
</clipPath>
</defs>
</svg>
