<svg width="714" height="221" viewBox="0 0 714 221" fill="none" xmlns="http://www.w3.org/2000/svg">
<path d="M16.5029 50.2675C18.0104 105.505 76.2996 97.9721 76.2996 97.9721C31.0754 81.4009 30.0706 62.3193 30.0706 62.3193L42.6328 58.3018L77.3047 78.3879L88.3595 102.994L86.3495 133.625L73.8352 148.69L56.7022 159.235L48.6626 162.248L47.155 156.222L53.1851 131.114L73.787 121.573C31.0754 120.067 39.6177 171.287 39.6177 171.287C89.3643 174.802 96.3994 107.011 96.3994 107.011L115.494 129.032V111.3C115.494 111.3 108.459 105.505 83.3345 75.3752C64.491 52.7782 36.3203 49.9536 23.4125 49.9536C19.11 49.9536 16.5029 50.2675 16.5029 50.2675Z" fill="url(#paint0_linear_5_3009)"/>
<path d="M147.654 75.3752C122.53 105.505 115.495 111.3 115.495 111.3V129.032L134.59 107.011C134.59 107.011 141.625 174.802 191.371 171.287C191.371 171.287 199.914 120.067 157.202 121.573L177.804 131.114L183.834 156.222L182.326 162.248L174.286 159.235L157.154 148.69L144.639 133.625L142.63 102.994L153.684 78.3879L188.356 58.3018L200.919 62.3193C200.919 62.3193 199.914 81.4009 154.689 97.9721C154.689 97.9721 212.979 105.505 214.486 50.2675C214.486 50.2675 211.879 49.9536 207.576 49.9536C194.669 49.9536 166.498 52.7782 147.654 75.3752Z" fill="url(#paint1_linear_5_3009)"/>
<path d="M156.699 70.8555C131.575 91.946 115.495 120.569 115.495 120.569C115.495 120.569 99.4152 91.946 74.2905 70.8555C49.1657 49.7648 17.5088 52.7778 17.5088 52.7778C17.5475 53.1151 17.5887 53.4496 17.6319 53.7814C23.1985 96.4268 65.7481 93.9546 65.7481 93.9546C24.5437 73.8683 30.0713 62.3189 30.0713 62.3189C30.0713 62.3189 78.3103 63.8251 85.3452 100.482C94.7144 149.304 50.1708 158.732 50.1708 158.732C53.6883 127.599 73.7878 121.573 73.7878 121.573C35.5984 118.058 39.1158 167.269 39.1158 167.269C39.1158 167.269 50.1708 172.291 71.7781 156.724C100.958 135.701 96.4002 107.01 96.4002 107.01L115.495 129.032L134.589 107.01C134.589 107.01 130.031 135.701 159.211 156.724C180.819 172.291 191.874 167.269 191.874 167.269C191.874 167.269 195.391 118.058 157.202 121.573C157.202 121.573 177.301 127.599 180.819 158.732C180.819 158.732 136.275 149.304 145.644 100.482C152.679 63.8251 200.919 62.3189 200.919 62.3189C200.919 62.3189 206.446 73.8683 165.241 93.9546C165.241 93.9546 207.791 96.4268 213.358 53.7814C213.401 53.4496 213.442 53.1151 213.481 52.7778C213.481 52.7778 211.916 52.6289 209.21 52.6289C199.735 52.6286 176.242 54.4505 156.699 70.8555Z" fill="white"/>
<path d="M239.838 137.902L249.342 75.3105C249.63 73.6785 250.206 72.8145 250.974 72.8145C251.742 72.8145 252.318 73.2945 253.566 75.7905L279.774 129.934L305.886 75.1185C306.654 73.5825 307.134 72.8145 307.998 72.8145C308.862 72.8145 309.438 73.7745 309.726 75.7905L318.462 135.118C319.326 141.166 320.286 143.95 323.166 144.814C325.95 145.678 327.87 145.774 329.118 145.774C329.982 145.774 330.654 145.87 330.654 146.446C330.654 147.214 329.502 147.502 328.158 147.502C325.758 147.502 312.51 147.214 308.67 146.926C306.462 146.734 305.886 146.446 305.886 145.87C305.886 145.39 306.27 145.102 306.942 144.814C307.518 144.622 307.806 143.374 307.422 140.686L301.662 98.4465H301.278L280.35 142.03C278.142 146.542 277.662 147.406 276.798 147.406C275.934 147.406 274.974 145.486 273.438 142.606C271.134 138.19 263.55 123.502 262.398 120.814C261.534 118.798 255.774 106.702 252.414 99.5025H252.03L247.038 137.71C246.846 139.438 246.75 140.686 246.75 142.222C246.75 144.046 247.998 144.91 249.63 145.294C251.358 145.678 252.702 145.774 253.662 145.774C254.43 145.774 255.102 145.966 255.102 146.446C255.102 147.31 254.238 147.502 252.798 147.502C248.766 147.502 244.446 147.214 242.718 147.214C240.894 147.214 236.286 147.502 233.214 147.502C232.254 147.502 231.486 147.31 231.486 146.446C231.486 145.966 232.062 145.774 233.022 145.774C233.79 145.774 234.462 145.774 235.902 145.486C238.59 144.91 239.358 141.166 239.838 137.902Z" fill="white"/>
<path d="M368.871 148.558C344.295 148.558 334.311 131.086 334.311 116.59C334.311 102.67 344.103 84.6225 369.735 84.6225C391.047 84.6225 404.295 96.4305 404.295 115.15C404.295 133.87 390.663 148.558 368.871 148.558ZM372.327 144.142C378.279 144.142 391.719 141.358 391.719 118.126C391.719 100.078 380.871 88.9425 367.239 88.9425C357.831 88.9425 346.791 93.9345 346.791 114.094C346.791 130.894 356.391 144.142 372.327 144.142Z" fill="white"/>
<path d="M424.347 103.054L425.307 136.366C425.499 142.702 426.555 144.622 428.187 145.198C429.627 145.678 431.259 145.774 432.603 145.774C433.563 145.774 434.043 146.158 434.043 146.638C434.043 147.31 433.275 147.502 432.123 147.502C426.651 147.502 422.715 147.214 421.179 147.214C420.411 147.214 416.379 147.502 412.059 147.502C410.907 147.502 410.139 147.406 410.139 146.638C410.139 146.158 410.715 145.774 411.483 145.774C412.635 145.774 414.171 145.678 415.323 145.39C417.531 144.814 417.819 142.606 417.915 135.502L418.683 87.1185C418.683 85.4865 419.259 84.3345 420.123 84.3345C421.179 84.3345 422.331 85.5825 423.771 87.0225C424.827 88.0785 437.499 101.038 449.787 113.038C455.547 118.702 466.779 130.222 468.027 131.374H468.411L467.547 95.0865C467.451 90.0945 466.683 88.6545 464.667 87.8865C463.419 87.4065 461.403 87.4065 460.251 87.4065C459.195 87.4065 458.907 87.0225 458.907 86.5425C458.907 85.8705 459.771 85.7745 461.019 85.7745C465.435 85.7745 469.947 85.9665 471.771 85.9665C472.731 85.9665 475.899 85.7745 480.027 85.7745C481.179 85.7745 481.947 85.8705 481.947 86.5425C481.947 87.0225 481.467 87.4065 480.507 87.4065C479.643 87.4065 478.971 87.4065 477.915 87.6945C475.611 88.3665 474.939 89.8065 474.843 94.4145L473.883 145.87C473.883 147.694 473.211 148.462 472.539 148.462C471.099 148.462 469.947 147.598 469.083 146.734C463.803 141.838 453.243 131.758 444.411 123.214C435.195 114.382 426.267 104.494 424.635 103.054H424.347Z" fill="white"/>
<path d="M524.265 126.958H504.393C503.913 126.958 503.817 127.054 503.625 127.534L499.113 138.478C498.249 140.494 497.865 142.51 497.865 143.47C497.865 144.91 498.633 145.774 501.225 145.774H502.473C503.529 145.774 503.721 146.158 503.721 146.638C503.721 147.31 503.241 147.502 502.377 147.502C499.593 147.502 495.657 147.214 492.969 147.214C492.105 147.214 487.593 147.502 483.177 147.502C482.121 147.502 481.641 147.31 481.641 146.638C481.641 146.158 481.929 145.774 482.601 145.774C483.369 145.774 484.329 145.678 485.097 145.678C488.937 145.102 490.377 142.606 492.105 138.478L514.185 87.1185C515.145 84.8145 515.817 83.8545 516.681 83.8545C517.929 83.8545 518.313 84.6225 519.177 86.4465C521.193 90.9585 535.305 124.366 540.681 136.75C543.945 144.142 546.345 145.198 547.881 145.486C549.129 145.678 550.089 145.774 551.049 145.774C551.817 145.774 552.201 146.062 552.201 146.638C552.201 147.31 551.721 147.502 548.553 147.502C545.577 147.502 539.433 147.502 532.329 147.31C530.793 147.214 529.833 147.214 529.833 146.638C529.833 146.158 530.025 145.87 530.889 145.774C531.465 145.678 532.041 144.91 531.657 143.95L525.129 127.534C524.937 127.054 524.649 126.958 524.265 126.958ZM506.121 122.446H522.441C522.825 122.446 522.921 122.254 522.825 121.966L514.857 101.23C514.761 100.942 514.665 100.462 514.473 100.462C514.185 100.462 514.089 100.942 513.993 101.23L505.833 121.87C505.641 122.254 505.833 122.446 506.121 122.446Z" fill="white"/>
<path d="M561.402 123.79V109.39C561.402 97.0065 561.402 94.7025 561.306 92.1105C561.114 89.3265 560.346 88.4625 557.658 87.6945C556.986 87.5025 555.546 87.4065 554.298 87.4065C553.434 87.4065 552.858 87.1185 552.858 86.5425C552.858 85.9665 553.53 85.7745 554.778 85.7745C559.194 85.7745 564.57 85.9665 566.298 85.9665C569.178 85.9665 576.858 85.7745 579.45 85.7745C584.826 85.7745 590.97 86.2545 595.482 89.2305C597.882 90.8625 601.434 94.9905 601.434 100.462C601.434 106.51 597.978 111.886 589.722 118.51C597.21 127.726 603.162 135.118 608.25 140.206C612.954 144.91 615.93 145.294 617.274 145.582C618.138 145.774 618.618 145.774 619.29 145.774C619.962 145.774 620.346 146.254 620.346 146.638C620.346 147.31 619.77 147.502 618.714 147.502H610.65C605.946 147.502 603.642 147.022 601.434 145.87C597.786 144.046 594.618 140.206 589.914 133.87C586.554 129.454 583.002 123.982 581.946 122.734C581.466 122.254 580.986 122.158 580.41 122.158L572.826 121.966C572.442 121.966 572.154 122.158 572.154 122.638V123.79C572.154 131.374 572.25 137.71 572.634 141.166C572.922 143.566 573.306 145.102 575.898 145.486C577.146 145.678 578.97 145.774 580.026 145.774C580.698 145.774 581.082 146.254 581.082 146.638C581.082 147.214 580.41 147.502 579.354 147.502C574.458 147.502 567.45 147.214 566.202 147.214C564.57 147.214 559.194 147.502 555.834 147.502C554.778 147.502 554.202 147.214 554.202 146.638C554.202 146.254 554.49 145.774 555.546 145.774C556.794 145.774 557.754 145.678 558.522 145.486C560.25 145.102 560.73 143.566 561.018 141.166C561.402 137.71 561.402 131.278 561.402 123.79ZM572.154 91.4385V115.726C572.154 116.59 572.346 116.878 572.922 117.166C574.746 117.742 577.242 117.934 579.354 117.934C582.714 117.934 583.866 117.646 585.306 116.59C587.898 114.766 590.778 111.214 590.778 104.494C590.778 92.9745 582.906 89.9985 577.914 89.9985C575.802 89.9985 573.786 90.0945 572.922 90.2865C572.346 90.4785 572.154 90.7665 572.154 91.4385Z" fill="white"/>
<path d="M638.254 109.39V113.038H638.638C641.518 109.966 653.806 97.8705 656.302 95.0865C658.702 92.3985 660.526 90.4785 660.526 89.0385C660.526 88.1745 660.142 87.5985 659.374 87.4065C658.606 87.2145 658.222 87.0225 658.222 86.5425C658.222 85.9665 658.702 85.7745 659.566 85.7745C661.39 85.7745 665.998 85.9665 668.302 85.9665C670.894 85.9665 675.598 85.7745 678.19 85.7745C679.054 85.7745 679.63 85.9665 679.63 86.5425C679.63 87.1185 679.15 87.4065 678.382 87.4065C677.134 87.4065 675.022 87.7905 673.486 88.3665C670.798 89.3265 668.11 91.0545 664.558 94.4145C661.87 96.9105 649.294 108.814 646.702 111.79C649.678 115.63 666.286 132.91 669.55 135.982C673.294 139.342 676.558 142.894 681.07 144.718C683.566 145.774 685.294 145.774 686.254 145.774C686.926 145.774 687.406 146.158 687.406 146.638C687.406 147.214 686.926 147.502 685.39 147.502H677.998C675.502 147.502 673.966 147.502 672.142 147.31C667.63 146.926 664.846 145.198 661.198 142.03C657.55 138.862 641.326 120.046 639.502 117.55L638.638 116.398H638.254V123.79C638.254 131.278 638.254 137.71 638.446 141.262C638.638 143.566 639.406 145.102 641.518 145.486C642.67 145.678 644.59 145.774 645.646 145.774C646.318 145.774 646.798 146.254 646.798 146.638C646.798 147.214 646.126 147.502 645.166 147.502C640.462 147.502 634.414 147.214 632.302 147.214C630.382 147.214 625.006 147.502 621.646 147.502C620.59 147.502 620.014 147.214 620.014 146.638C620.014 146.254 620.302 145.774 621.358 145.774C622.606 145.774 623.566 145.678 624.334 145.486C626.062 145.102 626.542 143.566 626.83 141.166C627.214 137.71 627.214 131.278 627.214 123.79V109.39C627.214 97.0065 627.214 94.7025 627.118 92.1105C626.926 89.3265 626.158 88.4625 623.47 87.6945C622.798 87.5025 621.358 87.4065 620.11 87.4065C619.246 87.4065 618.67 87.1185 618.67 86.5425C618.67 85.9665 619.342 85.7745 620.59 85.7745C625.006 85.7745 630.382 85.9665 632.398 85.9665C634.414 85.9665 640.462 85.7745 643.246 85.7745C644.494 85.7745 645.07 85.9665 645.07 86.5425C645.07 87.1185 644.59 87.4065 643.918 87.4065C643.054 87.4065 642.574 87.5025 641.518 87.6945C639.214 88.0785 638.542 89.2305 638.35 92.1105C638.254 94.7025 638.254 97.0065 638.254 109.39Z" fill="white"/>
<defs>
<linearGradient id="paint0_linear_5_3009" x1="16.5031" y1="110.686" x2="115.494" y2="110.686" gradientUnits="userSpaceOnUse">
<stop stop-color="white"/>
<stop offset="1" stop-color="#838383"/>
</linearGradient>
<linearGradient id="paint1_linear_5_3009" x1="115.495" y1="110.686" x2="214.486" y2="110.686" gradientUnits="userSpaceOnUse">
<stop stop-color="white"/>
<stop offset="1" stop-color="#838383"/>
</linearGradient>
</defs>
</svg>
