<svg width="714" height="221" viewBox="0 0 714 221" fill="none" xmlns="http://www.w3.org/2000/svg">
<path d="M16.5029 49.6103C18.0104 104.847 76.2996 97.3149 76.2996 97.3149C31.0754 80.7437 30.0706 61.662 30.0706 61.662L42.6328 57.6446L77.3047 77.7307L88.3595 102.336L86.3495 132.968L73.8352 148.033L56.7022 158.578L48.6626 161.591L47.155 155.565L53.1851 130.457L73.787 120.916C31.0754 119.41 39.6177 170.629 39.6177 170.629C89.3643 174.145 96.3994 106.354 96.3994 106.354L115.494 128.375V110.643C115.494 110.643 108.459 104.847 83.3345 74.7179C64.491 52.121 36.3203 49.2964 23.4125 49.2964C19.11 49.2964 16.5029 49.6103 16.5029 49.6103Z" fill="url(#paint0_linear_2_2697)"/>
<path d="M147.654 74.7182C122.53 104.848 115.495 110.643 115.495 110.643V128.375L134.59 106.354C134.59 106.354 141.625 174.145 191.371 170.63C191.371 170.63 199.914 119.41 157.202 120.916L177.804 130.457L183.834 155.565L182.326 161.591L174.286 158.578L157.154 148.033L144.639 132.968L142.63 102.337L153.684 77.7309L188.356 57.6449L200.919 61.6623C200.919 61.6623 199.914 80.7439 154.689 97.3151C154.689 97.3151 212.979 104.848 214.486 49.6106C214.486 49.6106 211.879 49.2966 207.576 49.2966C194.669 49.2966 166.498 52.1212 147.654 74.7182Z" fill="url(#paint1_linear_2_2697)"/>
<path d="M156.699 70.1988C131.575 91.2893 115.495 119.912 115.495 119.912C115.495 119.912 99.4152 91.2893 74.2905 70.1988C49.1657 49.1081 17.5088 52.1211 17.5088 52.1211C17.5475 52.4584 17.5887 52.7929 17.6319 53.1247C23.1985 95.7701 65.7481 93.2978 65.7481 93.2978C24.5437 73.2115 30.0713 61.6621 30.0713 61.6621C30.0713 61.6621 78.3103 63.1684 85.3452 99.8256C94.7144 148.647 50.1708 158.076 50.1708 158.076C53.6883 126.942 73.7878 120.916 73.7878 120.916C35.5984 117.401 39.1158 166.612 39.1158 166.612C39.1158 166.612 50.1708 171.634 71.7781 156.067C100.958 135.044 96.4002 106.354 96.4002 106.354L115.495 128.375L134.589 106.354C134.589 106.354 130.031 135.044 159.211 156.067C180.819 171.634 191.874 166.612 191.874 166.612C191.874 166.612 195.391 117.401 157.202 120.916C157.202 120.916 177.301 126.942 180.819 158.076C180.819 158.076 136.275 148.647 145.644 99.8256C152.679 63.1684 200.919 61.6621 200.919 61.6621C200.919 61.6621 206.446 73.2115 165.241 93.2978C165.241 93.2978 207.791 95.7701 213.358 53.1247C213.401 52.7929 213.442 52.4584 213.481 52.1211C213.481 52.1211 211.916 51.9722 209.21 51.9722C199.735 51.9719 176.242 53.7937 156.699 70.1988Z" fill="url(#paint2_linear_2_2697)"/>
<path d="M239.838 137.245L249.342 74.6532C249.63 73.0212 250.206 72.1572 250.974 72.1572C251.742 72.1572 252.318 72.6372 253.566 75.1332L279.774 129.277L305.886 74.4612C306.654 72.9252 307.134 72.1572 307.998 72.1572C308.862 72.1572 309.438 73.1172 309.726 75.1332L318.462 134.461C319.326 140.509 320.286 143.293 323.166 144.157C325.95 145.021 327.87 145.117 329.118 145.117C329.982 145.117 330.654 145.213 330.654 145.789C330.654 146.557 329.502 146.845 328.158 146.845C325.758 146.845 312.51 146.557 308.67 146.269C306.462 146.077 305.886 145.789 305.886 145.213C305.886 144.733 306.27 144.445 306.942 144.157C307.518 143.965 307.806 142.717 307.422 140.029L301.662 97.7892H301.278L280.35 141.373C278.142 145.885 277.662 146.749 276.798 146.749C275.934 146.749 274.974 144.829 273.438 141.949C271.134 137.533 263.55 122.845 262.398 120.157C261.534 118.141 255.774 106.045 252.414 98.8452H252.03L247.038 137.053C246.846 138.781 246.75 140.029 246.75 141.565C246.75 143.389 247.998 144.253 249.63 144.637C251.358 145.021 252.702 145.117 253.662 145.117C254.43 145.117 255.102 145.309 255.102 145.789C255.102 146.653 254.238 146.845 252.798 146.845C248.766 146.845 244.446 146.557 242.718 146.557C240.894 146.557 236.286 146.845 233.214 146.845C232.254 146.845 231.486 146.653 231.486 145.789C231.486 145.309 232.062 145.117 233.022 145.117C233.79 145.117 234.462 145.117 235.902 144.829C238.59 144.253 239.358 140.509 239.838 137.245Z" fill="#141414"/>
<path d="M368.871 147.901C344.295 147.901 334.311 130.429 334.311 115.933C334.311 102.013 344.103 83.9652 369.735 83.9652C391.047 83.9652 404.295 95.7732 404.295 114.493C404.295 133.213 390.663 147.901 368.871 147.901ZM372.327 143.485C378.279 143.485 391.719 140.701 391.719 117.469C391.719 99.4212 380.871 88.2852 367.239 88.2852C357.831 88.2852 346.791 93.2772 346.791 113.437C346.791 130.237 356.391 143.485 372.327 143.485Z" fill="#141414"/>
<path d="M424.347 102.397L425.307 135.709C425.499 142.045 426.555 143.965 428.187 144.541C429.627 145.021 431.259 145.117 432.603 145.117C433.563 145.117 434.043 145.501 434.043 145.981C434.043 146.653 433.275 146.845 432.123 146.845C426.651 146.845 422.715 146.557 421.179 146.557C420.411 146.557 416.379 146.845 412.059 146.845C410.907 146.845 410.139 146.749 410.139 145.981C410.139 145.501 410.715 145.117 411.483 145.117C412.635 145.117 414.171 145.021 415.323 144.733C417.531 144.157 417.819 141.949 417.915 134.845L418.683 86.4612C418.683 84.8292 419.259 83.6772 420.123 83.6772C421.179 83.6772 422.331 84.9252 423.771 86.3652C424.827 87.4212 437.499 100.381 449.787 112.381C455.547 118.045 466.779 129.565 468.027 130.717H468.411L467.547 94.4292C467.451 89.4372 466.683 87.9972 464.667 87.2292C463.419 86.7492 461.403 86.7492 460.251 86.7492C459.195 86.7492 458.907 86.3652 458.907 85.8852C458.907 85.2132 459.771 85.1172 461.019 85.1172C465.435 85.1172 469.947 85.3092 471.771 85.3092C472.731 85.3092 475.899 85.1172 480.027 85.1172C481.179 85.1172 481.947 85.2132 481.947 85.8852C481.947 86.3652 481.467 86.7492 480.507 86.7492C479.643 86.7492 478.971 86.7492 477.915 87.0372C475.611 87.7092 474.939 89.1492 474.843 93.7572L473.883 145.213C473.883 147.037 473.211 147.805 472.539 147.805C471.099 147.805 469.947 146.941 469.083 146.077C463.803 141.181 453.243 131.101 444.411 122.557C435.195 113.725 426.267 103.837 424.635 102.397H424.347Z" fill="#141414"/>
<path d="M524.265 126.301H504.393C503.913 126.301 503.817 126.397 503.625 126.877L499.113 137.821C498.249 139.837 497.865 141.853 497.865 142.813C497.865 144.253 498.633 145.117 501.225 145.117H502.473C503.529 145.117 503.721 145.501 503.721 145.981C503.721 146.653 503.241 146.845 502.377 146.845C499.593 146.845 495.657 146.557 492.969 146.557C492.105 146.557 487.593 146.845 483.177 146.845C482.121 146.845 481.641 146.653 481.641 145.981C481.641 145.501 481.929 145.117 482.601 145.117C483.369 145.117 484.329 145.021 485.097 145.021C488.937 144.445 490.377 141.949 492.105 137.821L514.185 86.4612C515.145 84.1572 515.817 83.1972 516.681 83.1972C517.929 83.1972 518.313 83.9652 519.177 85.7892C521.193 90.3012 535.305 123.709 540.681 136.093C543.945 143.485 546.345 144.541 547.881 144.829C549.129 145.021 550.089 145.117 551.049 145.117C551.817 145.117 552.201 145.405 552.201 145.981C552.201 146.653 551.721 146.845 548.553 146.845C545.577 146.845 539.433 146.845 532.329 146.653C530.793 146.557 529.833 146.557 529.833 145.981C529.833 145.501 530.025 145.213 530.889 145.117C531.465 145.021 532.041 144.253 531.657 143.293L525.129 126.877C524.937 126.397 524.649 126.301 524.265 126.301ZM506.121 121.789H522.441C522.825 121.789 522.921 121.597 522.825 121.309L514.857 100.573C514.761 100.285 514.665 99.8052 514.473 99.8052C514.185 99.8052 514.089 100.285 513.993 100.573L505.833 121.213C505.641 121.597 505.833 121.789 506.121 121.789Z" fill="#141414"/>
<path d="M561.402 123.133V108.733C561.402 96.3492 561.402 94.0452 561.306 91.4532C561.114 88.6692 560.346 87.8052 557.658 87.0372C556.986 86.8452 555.546 86.7492 554.298 86.7492C553.434 86.7492 552.858 86.4612 552.858 85.8852C552.858 85.3092 553.53 85.1172 554.778 85.1172C559.194 85.1172 564.57 85.3092 566.298 85.3092C569.178 85.3092 576.858 85.1172 579.45 85.1172C584.826 85.1172 590.97 85.5972 595.482 88.5732C597.882 90.2052 601.434 94.3332 601.434 99.8052C601.434 105.853 597.978 111.229 589.722 117.853C597.21 127.069 603.162 134.461 608.25 139.549C612.954 144.253 615.93 144.637 617.274 144.925C618.138 145.117 618.618 145.117 619.29 145.117C619.962 145.117 620.346 145.597 620.346 145.981C620.346 146.653 619.77 146.845 618.714 146.845H610.65C605.946 146.845 603.642 146.365 601.434 145.213C597.786 143.389 594.618 139.549 589.914 133.213C586.554 128.797 583.002 123.325 581.946 122.077C581.466 121.597 580.986 121.501 580.41 121.501L572.826 121.309C572.442 121.309 572.154 121.501 572.154 121.981V123.133C572.154 130.717 572.25 137.053 572.634 140.509C572.922 142.909 573.306 144.445 575.898 144.829C577.146 145.021 578.97 145.117 580.026 145.117C580.698 145.117 581.082 145.597 581.082 145.981C581.082 146.557 580.41 146.845 579.354 146.845C574.458 146.845 567.45 146.557 566.202 146.557C564.57 146.557 559.194 146.845 555.834 146.845C554.778 146.845 554.202 146.557 554.202 145.981C554.202 145.597 554.49 145.117 555.546 145.117C556.794 145.117 557.754 145.021 558.522 144.829C560.25 144.445 560.73 142.909 561.018 140.509C561.402 137.053 561.402 130.621 561.402 123.133ZM572.154 90.7812V115.069C572.154 115.933 572.346 116.221 572.922 116.509C574.746 117.085 577.242 117.277 579.354 117.277C582.714 117.277 583.866 116.989 585.306 115.933C587.898 114.109 590.778 110.557 590.778 103.837C590.778 92.3172 582.906 89.3412 577.914 89.3412C575.802 89.3412 573.786 89.4372 572.922 89.6292C572.346 89.8212 572.154 90.1092 572.154 90.7812Z" fill="#141414"/>
<path d="M638.254 108.733V112.381H638.638C641.518 109.309 653.806 97.2132 656.302 94.4292C658.702 91.7412 660.526 89.8212 660.526 88.3812C660.526 87.5172 660.142 86.9412 659.374 86.7492C658.606 86.5572 658.222 86.3652 658.222 85.8852C658.222 85.3092 658.702 85.1172 659.566 85.1172C661.39 85.1172 665.998 85.3092 668.302 85.3092C670.894 85.3092 675.598 85.1172 678.19 85.1172C679.054 85.1172 679.63 85.3092 679.63 85.8852C679.63 86.4612 679.15 86.7492 678.382 86.7492C677.134 86.7492 675.022 87.1332 673.486 87.7092C670.798 88.6692 668.11 90.3972 664.558 93.7572C661.87 96.2532 649.294 108.157 646.702 111.133C649.678 114.973 666.286 132.253 669.55 135.325C673.294 138.685 676.558 142.237 681.07 144.061C683.566 145.117 685.294 145.117 686.254 145.117C686.926 145.117 687.406 145.501 687.406 145.981C687.406 146.557 686.926 146.845 685.39 146.845H677.998C675.502 146.845 673.966 146.845 672.142 146.653C667.63 146.269 664.846 144.541 661.198 141.373C657.55 138.205 641.326 119.389 639.502 116.893L638.638 115.741H638.254V123.133C638.254 130.621 638.254 137.053 638.446 140.605C638.638 142.909 639.406 144.445 641.518 144.829C642.67 145.021 644.59 145.117 645.646 145.117C646.318 145.117 646.798 145.597 646.798 145.981C646.798 146.557 646.126 146.845 645.166 146.845C640.462 146.845 634.414 146.557 632.302 146.557C630.382 146.557 625.006 146.845 621.646 146.845C620.59 146.845 620.014 146.557 620.014 145.981C620.014 145.597 620.302 145.117 621.358 145.117C622.606 145.117 623.566 145.021 624.334 144.829C626.062 144.445 626.542 142.909 626.83 140.509C627.214 137.053 627.214 130.621 627.214 123.133V108.733C627.214 96.3492 627.214 94.0452 627.118 91.4532C626.926 88.6692 626.158 87.8052 623.47 87.0372C622.798 86.8452 621.358 86.7492 620.11 86.7492C619.246 86.7492 618.67 86.4612 618.67 85.8852C618.67 85.3092 619.342 85.1172 620.59 85.1172C625.006 85.1172 630.382 85.3092 632.398 85.3092C634.414 85.3092 640.462 85.1172 643.246 85.1172C644.494 85.1172 645.07 85.3092 645.07 85.8852C645.07 86.4612 644.59 86.7492 643.918 86.7492C643.054 86.7492 642.574 86.8452 641.518 87.0372C639.214 87.4212 638.542 88.5732 638.35 91.4532C638.254 94.0452 638.254 96.3492 638.254 108.733Z" fill="#141414"/>
<defs>
<linearGradient id="paint0_linear_2_2697" x1="16.5031" y1="110.029" x2="115.494" y2="110.029" gradientUnits="userSpaceOnUse">
<stop stop-color="#ED2723"/>
<stop offset="1" stop-color="#FBA60B"/>
</linearGradient>
<linearGradient id="paint1_linear_2_2697" x1="115.495" y1="110.029" x2="214.486" y2="110.029" gradientUnits="userSpaceOnUse">
<stop stop-color="#ED2723"/>
<stop offset="1" stop-color="#FBA60B"/>
</linearGradient>
<linearGradient id="paint2_linear_2_2697" x1="17.5088" y1="109.679" x2="213.481" y2="109.679" gradientUnits="userSpaceOnUse">
<stop stop-color="#ED2723"/>
<stop offset="1" stop-color="#FBA60B"/>
</linearGradient>
</defs>
</svg>
