<svg width="714" height="221" viewBox="0 0 714 221" fill="none" xmlns="http://www.w3.org/2000/svg">
<path d="M16.5029 49.4677C18.0104 104.705 76.2996 97.1723 76.2996 97.1723C31.0754 80.6011 30.0706 61.5195 30.0706 61.5195L42.6328 57.502L77.3047 77.5881L88.3595 102.194L86.3495 132.825L73.8352 147.89L56.7022 158.435L48.6626 161.448L47.155 155.422L53.1851 130.315L73.787 120.773C31.0754 119.267 39.6177 170.487 39.6177 170.487C89.3643 174.002 96.3994 106.211 96.3994 106.211L115.494 128.232V110.5C115.494 110.5 108.459 104.705 83.3345 74.5754C64.491 51.9784 36.3203 49.1538 23.4125 49.1538C19.11 49.1538 16.5029 49.4677 16.5029 49.4677Z" fill="url(#paint0_linear_5_3091)"/>
<path d="M147.654 74.5754C122.53 104.705 115.495 110.5 115.495 110.5V128.232L134.59 106.211C134.59 106.211 141.625 174.002 191.371 170.487C191.371 170.487 199.914 119.267 157.202 120.773L177.804 130.315L183.834 155.422L182.326 161.448L174.286 158.435L157.154 147.89L144.639 132.825L142.63 102.194L153.684 77.5881L188.356 57.502L200.919 61.5195C200.919 61.5195 199.914 80.6011 154.689 97.1723C154.689 97.1723 212.979 104.705 214.486 49.4677C214.486 49.4677 211.879 49.1538 207.576 49.1538C194.669 49.1538 166.498 51.9784 147.654 74.5754Z" fill="url(#paint1_linear_5_3091)"/>
<path d="M156.699 70.0557C131.575 91.1462 115.495 119.769 115.495 119.769C115.495 119.769 99.4152 91.1462 74.2905 70.0557C49.1657 48.965 17.5088 51.978 17.5088 51.978C17.5475 52.3153 17.5887 52.6498 17.6319 52.9816C23.1985 95.627 65.7481 93.1548 65.7481 93.1548C24.5437 73.0685 30.0713 61.5191 30.0713 61.5191C30.0713 61.5191 78.3103 63.0253 85.3452 99.6826C94.7144 148.504 50.1708 157.933 50.1708 157.933C53.6883 126.799 73.7878 120.773 73.7878 120.773C35.5984 117.258 39.1158 166.469 39.1158 166.469C39.1158 166.469 50.1708 171.491 71.7781 155.924C100.958 134.901 96.4002 106.211 96.4002 106.211L115.495 128.232L134.589 106.211C134.589 106.211 130.031 134.901 159.211 155.924C180.819 171.491 191.874 166.469 191.874 166.469C191.874 166.469 195.391 117.258 157.202 120.773C157.202 120.773 177.301 126.799 180.819 157.933C180.819 157.933 136.275 148.504 145.644 99.6826C152.679 63.0253 200.919 61.5191 200.919 61.5191C200.919 61.5191 206.446 73.0685 165.241 93.1548C165.241 93.1548 207.791 95.627 213.358 52.9816C213.401 52.6498 213.442 52.3153 213.481 51.978C213.481 51.978 211.916 51.8291 209.21 51.8291C199.735 51.8288 176.242 53.6506 156.699 70.0557Z" fill="url(#paint2_linear_5_3091)"/>
<path d="M239.838 137.103L249.342 74.5107C249.63 72.8786 250.206 72.0146 250.974 72.0146C251.742 72.0146 252.318 72.4946 253.566 74.9907L279.774 129.135L305.886 74.3186C306.654 72.7826 307.134 72.0146 307.998 72.0146C308.862 72.0146 309.438 72.9746 309.726 74.9907L318.462 134.319C319.326 140.367 320.286 143.151 323.166 144.015C325.95 144.879 327.87 144.975 329.118 144.975C329.982 144.975 330.654 145.071 330.654 145.647C330.654 146.415 329.502 146.703 328.158 146.703C325.758 146.703 312.51 146.415 308.67 146.127C306.462 145.935 305.886 145.647 305.886 145.071C305.886 144.591 306.27 144.303 306.942 144.015C307.518 143.823 307.806 142.575 307.422 139.887L301.662 97.6467H301.278L280.35 141.231C278.142 145.743 277.662 146.607 276.798 146.607C275.934 146.607 274.974 144.687 273.438 141.807C271.134 137.391 263.55 122.703 262.398 120.015C261.534 117.999 255.774 105.903 252.414 98.7027H252.03L247.038 136.911C246.846 138.639 246.75 139.887 246.75 141.423C246.75 143.247 247.998 144.111 249.63 144.495C251.358 144.879 252.702 144.975 253.662 144.975C254.43 144.975 255.102 145.167 255.102 145.647C255.102 146.511 254.238 146.703 252.798 146.703C248.766 146.703 244.446 146.415 242.718 146.415C240.894 146.415 236.286 146.703 233.214 146.703C232.254 146.703 231.486 146.511 231.486 145.647C231.486 145.167 232.062 144.975 233.022 144.975C233.79 144.975 234.462 144.975 235.902 144.687C238.59 144.111 239.358 140.367 239.838 137.103Z" fill="white"/>
<path d="M368.871 147.759C344.295 147.759 334.311 130.287 334.311 115.791C334.311 101.871 344.103 83.8227 369.735 83.8227C391.047 83.8227 404.295 95.6306 404.295 114.351C404.295 133.071 390.663 147.759 368.871 147.759ZM372.327 143.343C378.279 143.343 391.719 140.559 391.719 117.327C391.719 99.2787 380.871 88.1426 367.239 88.1426C357.831 88.1426 346.791 93.1346 346.791 113.295C346.791 130.095 356.391 143.343 372.327 143.343Z" fill="white"/>
<path d="M424.347 102.255L425.307 135.567C425.499 141.903 426.555 143.823 428.187 144.399C429.627 144.879 431.259 144.975 432.603 144.975C433.563 144.975 434.043 145.359 434.043 145.839C434.043 146.511 433.275 146.703 432.123 146.703C426.651 146.703 422.715 146.415 421.179 146.415C420.411 146.415 416.379 146.703 412.059 146.703C410.907 146.703 410.139 146.607 410.139 145.839C410.139 145.359 410.715 144.975 411.483 144.975C412.635 144.975 414.171 144.879 415.323 144.591C417.531 144.015 417.819 141.807 417.915 134.703L418.683 86.3186C418.683 84.6867 419.259 83.5346 420.123 83.5346C421.179 83.5346 422.331 84.7826 423.771 86.2226C424.827 87.2786 437.499 100.239 449.787 112.239C455.547 117.903 466.779 129.423 468.027 130.575H468.411L467.547 94.2866C467.451 89.2946 466.683 87.8547 464.667 87.0866C463.419 86.6066 461.403 86.6066 460.251 86.6066C459.195 86.6066 458.907 86.2226 458.907 85.7426C458.907 85.0706 459.771 84.9746 461.019 84.9746C465.435 84.9746 469.947 85.1667 471.771 85.1667C472.731 85.1667 475.899 84.9746 480.027 84.9746C481.179 84.9746 481.947 85.0706 481.947 85.7426C481.947 86.2226 481.467 86.6066 480.507 86.6066C479.643 86.6066 478.971 86.6066 477.915 86.8947C475.611 87.5666 474.939 89.0066 474.843 93.6147L473.883 145.071C473.883 146.895 473.211 147.663 472.539 147.663C471.099 147.663 469.947 146.799 469.083 145.935C463.803 141.039 453.243 130.959 444.411 122.415C435.195 113.583 426.267 103.695 424.635 102.255H424.347Z" fill="white"/>
<path d="M524.265 126.159H504.393C503.913 126.159 503.817 126.255 503.625 126.735L499.113 137.679C498.249 139.695 497.865 141.711 497.865 142.671C497.865 144.111 498.633 144.975 501.225 144.975H502.473C503.529 144.975 503.721 145.359 503.721 145.839C503.721 146.511 503.241 146.703 502.377 146.703C499.593 146.703 495.657 146.415 492.969 146.415C492.105 146.415 487.593 146.703 483.177 146.703C482.121 146.703 481.641 146.511 481.641 145.839C481.641 145.359 481.929 144.975 482.601 144.975C483.369 144.975 484.329 144.879 485.097 144.879C488.937 144.303 490.377 141.807 492.105 137.679L514.185 86.3186C515.145 84.0146 515.817 83.0546 516.681 83.0546C517.929 83.0546 518.313 83.8227 519.177 85.6467C521.193 90.1586 535.305 123.567 540.681 135.951C543.945 143.343 546.345 144.399 547.881 144.687C549.129 144.879 550.089 144.975 551.049 144.975C551.817 144.975 552.201 145.263 552.201 145.839C552.201 146.511 551.721 146.703 548.553 146.703C545.577 146.703 539.433 146.703 532.329 146.511C530.793 146.415 529.833 146.415 529.833 145.839C529.833 145.359 530.025 145.071 530.889 144.975C531.465 144.879 532.041 144.111 531.657 143.151L525.129 126.735C524.937 126.255 524.649 126.159 524.265 126.159ZM506.121 121.647H522.441C522.825 121.647 522.921 121.455 522.825 121.167L514.857 100.431C514.761 100.143 514.665 99.6627 514.473 99.6627C514.185 99.6627 514.089 100.143 513.993 100.431L505.833 121.071C505.641 121.455 505.833 121.647 506.121 121.647Z" fill="white"/>
<path d="M561.402 122.991V108.591C561.402 96.2066 561.402 93.9026 561.306 91.3107C561.114 88.5266 560.346 87.6626 557.658 86.8947C556.986 86.7026 555.546 86.6066 554.298 86.6066C553.434 86.6066 552.858 86.3186 552.858 85.7426C552.858 85.1667 553.53 84.9746 554.778 84.9746C559.194 84.9746 564.57 85.1667 566.298 85.1667C569.178 85.1667 576.858 84.9746 579.45 84.9746C584.826 84.9746 590.97 85.4546 595.482 88.4306C597.882 90.0627 601.434 94.1907 601.434 99.6627C601.434 105.711 597.978 111.087 589.722 117.711C597.21 126.927 603.162 134.319 608.25 139.407C612.954 144.111 615.93 144.495 617.274 144.783C618.138 144.975 618.618 144.975 619.29 144.975C619.962 144.975 620.346 145.455 620.346 145.839C620.346 146.511 619.77 146.703 618.714 146.703H610.65C605.946 146.703 603.642 146.223 601.434 145.071C597.786 143.247 594.618 139.407 589.914 133.071C586.554 128.655 583.002 123.183 581.946 121.935C581.466 121.455 580.986 121.359 580.41 121.359L572.826 121.167C572.442 121.167 572.154 121.359 572.154 121.839V122.991C572.154 130.575 572.25 136.911 572.634 140.367C572.922 142.767 573.306 144.303 575.898 144.687C577.146 144.879 578.97 144.975 580.026 144.975C580.698 144.975 581.082 145.455 581.082 145.839C581.082 146.415 580.41 146.703 579.354 146.703C574.458 146.703 567.45 146.415 566.202 146.415C564.57 146.415 559.194 146.703 555.834 146.703C554.778 146.703 554.202 146.415 554.202 145.839C554.202 145.455 554.49 144.975 555.546 144.975C556.794 144.975 557.754 144.879 558.522 144.687C560.25 144.303 560.73 142.767 561.018 140.367C561.402 136.911 561.402 130.479 561.402 122.991ZM572.154 90.6386V114.927C572.154 115.791 572.346 116.079 572.922 116.367C574.746 116.943 577.242 117.135 579.354 117.135C582.714 117.135 583.866 116.847 585.306 115.791C587.898 113.967 590.778 110.415 590.778 103.695C590.778 92.1747 582.906 89.1987 577.914 89.1987C575.802 89.1987 573.786 89.2946 572.922 89.4866C572.346 89.6786 572.154 89.9667 572.154 90.6386Z" fill="white"/>
<path d="M638.254 108.591V112.239H638.638C641.518 109.167 653.806 97.0707 656.302 94.2866C658.702 91.5986 660.526 89.6786 660.526 88.2387C660.526 87.3747 660.142 86.7986 659.374 86.6066C658.606 86.4147 658.222 86.2226 658.222 85.7426C658.222 85.1667 658.702 84.9746 659.566 84.9746C661.39 84.9746 665.998 85.1667 668.302 85.1667C670.894 85.1667 675.598 84.9746 678.19 84.9746C679.054 84.9746 679.63 85.1667 679.63 85.7426C679.63 86.3186 679.15 86.6066 678.382 86.6066C677.134 86.6066 675.022 86.9907 673.486 87.5666C670.798 88.5266 668.11 90.2546 664.558 93.6147C661.87 96.1106 649.294 108.015 646.702 110.991C649.678 114.831 666.286 132.111 669.55 135.183C673.294 138.543 676.558 142.095 681.07 143.919C683.566 144.975 685.294 144.975 686.254 144.975C686.926 144.975 687.406 145.359 687.406 145.839C687.406 146.415 686.926 146.703 685.39 146.703H677.998C675.502 146.703 673.966 146.703 672.142 146.511C667.63 146.127 664.846 144.399 661.198 141.231C657.55 138.063 641.326 119.247 639.502 116.751L638.638 115.599H638.254V122.991C638.254 130.479 638.254 136.911 638.446 140.463C638.638 142.767 639.406 144.303 641.518 144.687C642.67 144.879 644.59 144.975 645.646 144.975C646.318 144.975 646.798 145.455 646.798 145.839C646.798 146.415 646.126 146.703 645.166 146.703C640.462 146.703 634.414 146.415 632.302 146.415C630.382 146.415 625.006 146.703 621.646 146.703C620.59 146.703 620.014 146.415 620.014 145.839C620.014 145.455 620.302 144.975 621.358 144.975C622.606 144.975 623.566 144.879 624.334 144.687C626.062 144.303 626.542 142.767 626.83 140.367C627.214 136.911 627.214 130.479 627.214 122.991V108.591C627.214 96.2066 627.214 93.9026 627.118 91.3107C626.926 88.5266 626.158 87.6626 623.47 86.8947C622.798 86.7026 621.358 86.6066 620.11 86.6066C619.246 86.6066 618.67 86.3186 618.67 85.7426C618.67 85.1667 619.342 84.9746 620.59 84.9746C625.006 84.9746 630.382 85.1667 632.398 85.1667C634.414 85.1667 640.462 84.9746 643.246 84.9746C644.494 84.9746 645.07 85.1667 645.07 85.7426C645.07 86.3186 644.59 86.6066 643.918 86.6066C643.054 86.6066 642.574 86.7026 641.518 86.8947C639.214 87.2786 638.542 88.4306 638.35 91.3107C638.254 93.9026 638.254 96.2066 638.254 108.591Z" fill="white"/>
<defs>
<linearGradient id="paint0_linear_5_3091" x1="16.5031" y1="109.886" x2="115.494" y2="109.886" gradientUnits="userSpaceOnUse">
<stop stop-color="#ED2723"/>
<stop offset="1" stop-color="#FBA60B"/>
</linearGradient>
<linearGradient id="paint1_linear_5_3091" x1="115.495" y1="109.886" x2="214.486" y2="109.886" gradientUnits="userSpaceOnUse">
<stop stop-color="#ED2723"/>
<stop offset="1" stop-color="#FBA60B"/>
</linearGradient>
<linearGradient id="paint2_linear_5_3091" x1="17.5088" y1="109.535" x2="213.481" y2="109.535" gradientUnits="userSpaceOnUse">
<stop stop-color="#ED2723"/>
<stop offset="1" stop-color="#FBA60B"/>
</linearGradient>
</defs>
</svg>
