<svg width="24" height="25" viewBox="0 0 24 25" fill="none" xmlns="http://www.w3.org/2000/svg">
<path d="M5.4563 15.9102C6.78005 16.9114 8.7788 17.9577 12 17.9577C15.2213 17.9577 17.22 16.9114 18.5438 15.9102" stroke="#F0870C" stroke-linecap="round"/>
<path d="M18 9.16391C16.3838 8.33891 14.7862 7.56641 12 7.56641C9.21375 7.56641 7.62375 8.34641 6 9.16391" stroke="#F0870C" stroke-linecap="round"/>
<path d="M10.245 7.68225L9.54375 6.30225C8.06167 6.48026 6.65225 7.04403 5.45625 7.93725C5.45625 7.93725 3.375 10.971 3 16.9372C5.11125 19.371 8.3175 19.3897 8.3175 19.3897L9.5625 17.721" stroke="#F0870C" stroke-linecap="round"/>
<path d="M14.4374 17.721L15.6824 19.3785C15.6824 19.3785 18.8887 19.371 20.9999 16.9372C20.6249 10.9747 18.5437 7.93725 18.5437 7.93725C18.5437 7.93725 16.6687 6.46725 14.4562 6.30225L13.7737 7.686" stroke="#F0870C" stroke-linecap="round"/>
<path d="M9.34119 15.2988C10.1323 15.2988 10.7737 14.5668 10.7737 13.6638C10.7737 12.7608 10.1323 12.0288 9.34119 12.0288C8.55004 12.0288 7.90869 12.7608 7.90869 13.6638C7.90869 14.5668 8.55004 15.2988 9.34119 15.2988Z" stroke="#F0870C" stroke-linecap="round"/>
<path d="M14.6588 15.2988C15.45 15.2988 16.0913 14.5668 16.0913 13.6638C16.0913 12.7608 15.45 12.0288 14.6588 12.0288C13.8677 12.0288 13.2263 12.7608 13.2263 13.6638C13.2263 14.5668 13.8677 15.2988 14.6588 15.2988Z" stroke="#F0870C" stroke-linecap="round"/>
</svg>
