<svg width="34" height="35" viewBox="0 0 34 35" fill="none" xmlns="http://www.w3.org/2000/svg">
<path d="M20 27.8462V23.8462C20.1392 22.5935 19.78 21.3363 19 20.3462C22 20.3462 25 18.3462 25 14.8462C25.08 13.5962 24.73 12.3662 24 11.3462C24.28 10.1962 24.28 8.99619 24 7.84619C24 7.84619 23 7.84619 21 9.34619C18.36 8.84619 15.64 8.84619 13 9.34619C11 7.84619 10 7.84619 10 7.84619C9.70004 8.99619 9.70004 10.1962 10 11.3462C9.27191 12.3621 8.91851 13.599 9.00004 14.8462C9.00004 18.3462 12 20.3462 15 20.3462C14.61 20.8362 14.32 21.3962 14.15 21.9962C13.98 22.5962 13.93 23.2262 14 23.8462V27.8462" stroke="#F0870C" stroke-width="1.5" stroke-linecap="round" stroke-linejoin="round"/>
<path d="M14 23.8462C9.49 25.8462 9 21.8462 7 21.8462" stroke="#F0870C" stroke-width="2" stroke-linecap="round" stroke-linejoin="round"/>
</svg>
