<svg width="34" height="35" viewBox="0 0 34 35" fill="none" xmlns="http://www.w3.org/2000/svg">
<path d="M21 13.8462C22.5913 13.8462 24.1174 14.4783 25.2426 15.6036C26.3679 16.7288 27 18.2549 27 19.8462V26.8462H23V19.8462C23 19.3158 22.7893 18.8071 22.4142 18.432C22.0391 18.0569 21.5304 17.8462 21 17.8462C20.4696 17.8462 19.9609 18.0569 19.5858 18.432C19.2107 18.8071 19 19.3158 19 19.8462V26.8462H15V19.8462C15 18.2549 15.6321 16.7288 16.7574 15.6036C17.8826 14.4783 19.4087 13.8462 21 13.8462Z" stroke="#F0870C" stroke-width="1.5" stroke-linecap="round" stroke-linejoin="round"/>
<path d="M11 14.8462H7V26.8462H11V14.8462Z" stroke="#F0870C" stroke-width="1.5" stroke-linecap="round" stroke-linejoin="round"/>
<path d="M9 11.8462C10.1046 11.8462 11 10.9508 11 9.84619C11 8.74162 10.1046 7.84619 9 7.84619C7.89543 7.84619 7 8.74162 7 9.84619C7 10.9508 7.89543 11.8462 9 11.8462Z" stroke="#F0870C" stroke-width="1.5" stroke-linecap="round" stroke-linejoin="round"/>
</svg>
