<svg width="34" height="34" viewBox="0 0 34 34" fill="none" xmlns="http://www.w3.org/2000/svg">
<path d="M7.50001 22C6.80143 18.7033 6.80143 15.2967 7.50001 12C7.5918 11.6652 7.76914 11.3601 8.01461 11.1146C8.26008 10.8691 8.56522 10.6918 8.90001 10.6C14.2635 9.71146 19.7366 9.71146 25.1 10.6C25.4348 10.6918 25.7399 10.8691 25.9854 11.1146C26.2309 11.3601 26.4082 11.6652 26.5 12C27.1986 15.2967 27.1986 18.7033 26.5 22C26.4082 22.3348 26.2309 22.6399 25.9854 22.8854C25.7399 23.1309 25.4348 23.3082 25.1 23.4C19.7366 24.2887 14.2634 24.2887 8.90001 23.4C8.56522 23.3082 8.26008 23.1309 8.01461 22.8854C7.76914 22.6399 7.5918 22.3348 7.50001 22Z" stroke="#F0870C" stroke-width="2" stroke-linecap="round" stroke-linejoin="round"/>
<path d="M15 20L20 17L15 14V20Z" stroke="#F0870C" stroke-width="2" stroke-linecap="round" stroke-linejoin="round"/>
</svg>
